<svg id="Capa_1" data-name="Capa 1" xmlns="http://www.w3.org/2000/svg" viewBox="0 0 226.77 226.77"><defs><style>.cls-1{fill:#6b1687}.cls-2{fill:#faf0ea}.cls-3{fill:#fff}</style></defs><title>IconMesa de trabajo 1</title><path class="cls-1" d="M112.91 212.53c-54.22 0-98.7-44-98.74-97.6 0-56.54 43.69-100.85 99.55-100.76 50.35.08 98.93 38.87 98.88 99.1-.06 65.85-54.91 101.06-99.69 99.26zM182 79.35c-6.57 9.52-15.26 12.82-24.22 15.33-23 6.46-46.36 7.38-69.87 4.1-16.2-2.25-32.49-4.72-44.72-18.57v57.12c0 14.33 2.5 18.17 15.85 23.75a78.5 78.5 0 0 0 9.34 3.2c22.4 6.13 45.17 6.85 68.08 4.05 12.93-1.59 25.65-4.16 37.05-11 4.82-2.91 8.48-6.66 8.48-12.75.01-21.25.01-42.46.01-65.23zm-26.69-14.84a1.65 1.65 0 0 0-1.82 1.65c-.21 2.07 1.07 2.92 2.83 3.4 6.18 1.7 12.1 4 17.27 7.93.94.71 1.81 3 3.37 1 1.21-1.49.6-3.3-.75-4.43-5.98-5.01-13.27-7.27-20.9-9.55zm-105.86 15c5.89-6.37 14.28-7.68 21.5-11.31.71-.37 1.48-4-1.2-3.37-7.77 1.76-15.38 4.24-21.38 10a3.2 3.2 0 0 0-.4 3.48c.17.39.84.69 1.48 1.18z"/><path class="cls-2" d="M182 79.35v65.19c0 6.09-3.66 9.84-8.48 12.75-11.4 6.88-24.12 9.45-37.05 11-22.91 2.8-45.68 2.08-68.08-4.05a78.5 78.5 0 0 1-9.34-3.2c-13.35-5.58-15.86-9.42-15.85-23.75V80.21c12.18 13.85 28.47 16.32 44.67 18.57 23.51 3.28 46.9 2.36 69.87-4.1 8.96-2.51 17.65-5.81 24.26-15.33zm-70.16 72.8a180.64 180.64 0 0 0 31.41-2.39c2.79-.5 3.8-1.53 3.75-4.37-.14-8.67-.2-17.35 0-26 .08-3.46-1.16-4.17-4.3-3.67a186.52 186.52 0 0 1-60.34 0c-2.84-.46-4.21.09-4.16 3.32.13 8.88.17 17.76 0 26.65-.06 3.11 1.6 3.71 4.07 4.17a170.2 170.2 0 0 0 29.53 2.29zm65.57-48.82c-3.18 1.79-5.36 3.94-7.76 4.23-16.52 2-16.53 13.26-15.91 26.06.76 15.61.82 15.94 15.07 8.3 6-3.21 9.34-7.35 8.74-14.71-.66-7.56-.18-15.21-.18-23.88zm-129.58-.18c0 8.57.56 16-.15 23.38-.79 8.22 3 12.84 9.87 15.87 3.19 1.41 6.5 2.54 9.74 3.85 2.82 1.13 4.13.55 4.07-2.81q-.21-13.31 0-26.6c0-2.51-.83-3.75-3.17-4.37a66.54 66.54 0 0 1-20.4-9.32zm64.78 10.1c3.3.59 4.2-1 4.24-4.1s-1.07-4.2-4.27-4.15-4.33.89-4.26 4.2c.03 3.16.97 4.66 4.25 4.05zm4.19 48.38c0-2.32.65-5-3.45-4.8-2.84.17-5.33-.17-5 4 .19 2.76.23 4.85 3.9 4.54 2.46-.2 5.18.32 4.51-3.74zm9.81-48.63c2-.6 5.57.64 5.25-3.73-.16-2.16 1.08-5.26-3.22-4.77-2.57.29-5.63-.38-5.17 3.88.21 2-.87 4.82 3.14 4.62zm-25-4c.75-3.71-1.38-4.33-4.58-4.52s-3.72 1-3.87 3.83C93 112 94.88 112.73 98 113s4.06-1.1 3.65-4zm45.26 49.44c0-2.34.48-4.65-3-4.07-2.94.48-5.81.63-5.34 4.89.23 2.12-.08 4.21 3.17 3.8 3.1-.43 5.98-.76 5.21-4.67zm-8.3-51.44c-.07 2.54-.14 4.56 3.09 4.12 2.91-.4 6-.4 5.22-4.7-.29-1.64 1.18-4.74-2.56-4-2.7.58-6.73-.06-5.75 4.58zm-45.21 53.3c-1 4.68 2.58 4 5.23 4.44 3.26.53 2.89-1.67 3.08-3.81.33-3.63-1.34-4.49-4.63-4.55-2.99-.05-4.19.9-3.68 3.92zm34.64-3.73c-2.88-.43-4.91.35-4.61 4.18.19 2.47.2 4.59 3.66 4 2.66-.42 5.33-.28 4.92-4.41-.26-2.54-.36-4.53-3.97-3.77zm-41.61-50c.76-4.07-3-3.48-5.58-4-3.14-.69-2.35 1.85-2.58 3.53-.55 4 1.85 4.7 5.14 5 3.53.31 2.81-2.02 3.02-4.56zm0 51.8c.59-3.94-2.93-3.59-5.64-4-3.16-.5-2.3 2-2.52 3.65-.58 4.13 2.14 4.67 5.26 5 3.51.35 2.71-2.15 2.9-4.68zm-15.74 1.45c1.26-7.88 1.26-7.88-5.34-8.21-.59 4.26-1.05 8.44 5.34 8.18zm89.17-6.09c-.22-.51 1.37-3-1.75-2.62s-4.81 2-4.18 5.36c.26 1.35-.84 3.7 2 3.39 3.11-.37 4.92-1.98 3.93-6.16zm.21-50.57c-.26-1.53.86-4-2.44-3.6s-4.08 2.3-3.71 5.11c.18 1.37-.84 3.81 2 3.29 2.51-.47 4.97-1.32 4.12-4.83zm-88.87 2c.48-3.22-.37-5.14-3.53-5.51s-2.26 2-2.54 3.59c-.57 3.32 1.62 4.27 4.13 4.73 3 .51 1.59-1.97 1.94-2.86zM58.38 100c.08-2 .08-4-2.32-4.35s-1.6 1.67-1.74 2.85c-.26 2.21.31 4.38 2.75 4.56s.93-2.12 1.31-3.06zm-.14 52.33c.46-2.77.15-5-2.38-5.3-2.29-.27-1.39 1.93-1.51 3.15-.19 2.13 0 4.43 2.61 4.72 2.41.24 1.04-2.05 1.28-2.59zm108.55 2.75c5.09-.43 3.91-4 3.88-6.84 0-.83-.61-1.64-1.59-1.2-3.99 1.75-1.83 5.13-2.29 8.02zm.07-51.94c4.73-.21 3.77-3.54 3.87-6.16.05-1.31-.78-1.81-1.94-1.25-3.58 1.71-1.59 4.73-1.93 7.39z"/><path class="cls-2" d="M155.31 64.51c7.63 2.28 14.92 4.54 20.9 9.57 1.35 1.13 2 2.94.75 4.43-1.56 1.93-2.43-.31-3.37-1-5.17-3.94-11.09-6.23-17.27-7.93-1.76-.48-3-1.33-2.83-3.4a1.65 1.65 0 0 1 1.82-1.67zM49.45 79.49c-.64-.52-1.31-.79-1.48-1.25a3.2 3.2 0 0 1 .4-3.48c6-5.71 13.61-8.19 21.38-10 2.68-.6 1.91 3 1.2 3.37-7.22 3.68-15.61 4.99-21.5 11.36z"/><path class="cls-3" d="M126.9 135.19l-23.26 15.52c0-10-.18-19 .09-27.91.12-3.93 2.5-1.41 3.69-.63 6.22 4.04 12.34 8.22 19.48 13.02zm-18-6.38v12.67c3.52-2.21 6.64-3.8 9.2-6.62z"/><path class="cls-1" d="M111.81 152.15a170.24 170.24 0 0 1-29.56-2.34c-2.47-.46-4.13-1.06-4.07-4.17.16-8.89.12-17.77 0-26.65 0-3.23 1.32-3.78 4.16-3.32a186.52 186.52 0 0 0 60.34 0c3.14-.5 4.38.21 4.3 3.67-.21 8.68-.15 17.36 0 26 0 2.84-1 3.87-3.75 4.37a180.6 180.6 0 0 1-31.42 2.44zm15.09-17c-7.14-4.8-13.26-9-19.48-13-1.19-.78-3.57-3.3-3.69.63-.27 8.93-.09 17.88-.09 27.91zm42.71-27.63c-16.52 2-16.53 13.26-15.91 26.06.76 15.61.82 15.94 15.07 8.3 6-3.21 9.34-7.35 8.74-14.71-.62-7.56-.14-15.2-.14-23.88-3.18 1.83-5.37 3.98-7.76 4.27zm-122 19c-.79 8.22 3 12.84 9.87 15.87 3.19 1.41 6.5 2.54 9.74 3.85 2.82 1.13 4.13.55 4.07-2.81q-.21-13.31 0-26.6c0-2.51-.83-3.75-3.17-4.37a66.54 66.54 0 0 1-20.35-9.32c.02 8.58.58 16.05-.13 23.39zm69.17-17.38c0-3.26-1.07-4.2-4.27-4.15s-4.33.89-4.26 4.2c.07 3.16 1 4.66 4.29 4 3.33.65 4.23-.9 4.27-4.04zm-3.5 47.68c-2.84.17-5.33-.17-5 4 .19 2.76.23 4.85 3.9 4.54 2.54-.21 5.26.31 4.59-3.75-.05-2.3.64-5.03-3.46-4.78zm18.55-47.59c-.16-2.16 1.08-5.26-3.22-4.77-2.57.29-5.63-.38-5.17 3.88.21 2-.87 4.85 3.14 4.62 2.06-.59 5.6.65 5.28-3.72zm-34.79-4.81c-3.1-.18-3.72 1-3.87 3.83C93 112 94.88 112.73 98 113s4.11-1.11 3.7-4.06c.7-3.7-1.43-4.32-4.63-4.51zm46.85 49.89c-2.94.48-5.81.63-5.34 4.89.23 2.12-.08 4.21 3.17 3.8 3.05-.38 5.93-.71 5.16-4.62-.02-2.33.51-4.64-2.96-4.06zm-2.26-43.23c2.91-.4 6-.4 5.22-4.7-.29-1.64 1.18-4.74-2.56-4-2.7.55-6.73 0-5.75 4.56-.04 2.57-.11 4.59 3.12 4.15zm-43.04 53.66c3.26.53 2.89-1.67 3.08-3.81.33-3.63-1.34-4.49-4.63-4.55-3 0-4.19.9-3.68 3.92-1.05 4.7 2.58 4 5.23 4.44zm24.8-4c.19 2.47.2 4.59 3.66 4 2.66-.42 5.33-.28 4.92-4.41-.26-2.58-.36-4.57-4-3.81-2.85-.38-4.88.4-4.58 4.23zM80.81 102.5c-3.14-.69-2.35 1.85-2.58 3.53-.55 4 1.85 4.7 5.14 5 3.53.35 2.81-2 3-4.52.78-4.04-3.01-3.45-5.56-4.01zm-.06 51.83c-3.16-.5-2.3 2-2.52 3.65-.58 4.13 2.14 4.67 5.26 5 3.53.39 2.71-2.11 2.9-4.64.61-3.94-2.93-3.59-5.64-4.01zm-15.44-2.75c-.59 4.29-1 8.47 5.34 8.22 1.26-7.89 1.26-7.89-5.34-8.22zm92.76-.5c-3.18.38-4.81 2-4.18 5.36.26 1.35-.84 3.7 2 3.39 3.11-.34 4.94-2 3.95-6.13-.24-.51 1.35-3-1.77-2.62zm-.48-51.55c-3.22.36-4.08 2.3-3.71 5.11.18 1.37-.84 3.81 2 3.29 2.47-.44 4.93-1.29 4.11-4.8-.22-1.53.9-3.96-2.4-3.6zm-90 .07c-3.14-.37-2.26 2-2.54 3.59-.57 3.32 1.62 4.27 4.13 4.73 3 .56 1.59-2 1.94-2.81.52-3.22-.33-5.11-3.49-5.51zm-11.57-4c-2.51-.38-1.6 1.67-1.74 2.85-.26 2.21.31 4.38 2.75 4.56s.91-2.1 1.31-3.06c.12-1.95.12-3.95-2.28-4.32zm-.16 51.4c-2.29-.27-1.39 1.93-1.51 3.15-.19 2.13 0 4.43 2.61 4.72 2.41.26 1-2 1.28-2.57.46-2.76.15-4.98-2.38-5.3zm114.81 1.21c0-.83-.61-1.64-1.59-1.2-4 1.77-1.83 5.15-2.29 8 5.09-.38 3.91-3.94 3.88-6.79zm.06-51.21c.05-1.31-.78-1.81-1.94-1.25-3.58 1.73-1.59 4.75-1.93 7.41 4.73-.25 3.77-3.58 3.87-6.16zm-61.86 44.52c3.52-2.21 6.64-3.8 9.2-6.62l-9.2-6.05z"/><path class="cls-3" d="M77.45 61.21a7.21 7.21 0 0 1 1.89-5.38 5.81 5.81 0 0 1 4.3-1.63 5.52 5.52 0 0 1 4.17 1.8 6.06 6.06 0 0 1 1.73 4.29 11.84 11.84 0 0 1-1.13 5.18A35.05 35.05 0 0 1 85.55 70c-.4.58-1 1.48-1.81 2.7l-.68 1c-.44.66-.76 1.18-1 1.56a1.15 1.15 0 0 0-.16.34h7.32v3.67H77.39v-3.41a8.22 8.22 0 0 1 .83-1.36c.24-.39.52-.81.84-1.28l1-1.41q.86-1.17 2.67-3.73a24.72 24.72 0 0 0 2.56-4.36 8.11 8.11 0 0 0 .7-3.29 3 3 0 0 0-.64-1.91 2.21 2.21 0 0 0-1.77-.83 2.28 2.28 0 0 0-2.2 1.81 3.9 3.9 0 0 0-.22 1.41v1h-3.71zm26.92 12.15a5.75 5.75 0 0 1-1.72 4.18 5.62 5.62 0 0 1-4.14 1.74h-5.85V54.51h5.85a5.6 5.6 0 0 1 4.15 1.74 5.74 5.74 0 0 1 1.71 4.17zm-8 2.23h2.25a2 2 0 0 0 1.5-.65 2.15 2.15 0 0 0 .61-1.51v-13a2.05 2.05 0 0 0-.63-1.51 2 2 0 0 0-1.48-.63h-2.24zm20.86-22.23h3L110 80.43h-3zm11.4 22.42c1.71 0 2.57-.8 2.57-2.39v-1.48q0-3.82-4-3.82v-3.2a4 4 0 0 0 3.19-1.21 4.55 4.55 0 0 0 .93-3V60q0-2.43-2.13-2.43a1.88 1.88 0 0 0-1.73.91 3.53 3.53 0 0 0-.41 1.8V61h-3.64v-.58a6.62 6.62 0 0 1 1.34-4.3A5.16 5.16 0 0 1 129 54.2a5.32 5.32 0 0 1 4.2 1.78 5.73 5.73 0 0 1 1.42 4V61a6 6 0 0 1-1.38 4 5.89 5.89 0 0 1-1.38 1.21 6.22 6.22 0 0 1 2.56 2.83 5.19 5.19 0 0 1 .47 2.34v2a5.89 5.89 0 0 1-1.87 4.5 6 6 0 0 1-4.32 1.7 5.62 5.62 0 0 1-4.17-1.74 5.7 5.7 0 0 1-1.71-4.16v-.62l3.53-.27.09.87a2.36 2.36 0 0 0 .66 1.52 2 2 0 0 0 1.53.6zm21.25-2.42a5.75 5.75 0 0 1-1.72 4.18 5.62 5.62 0 0 1-4.16 1.74h-5.86V54.51H144a5.6 5.6 0 0 1 4.15 1.74 5.74 5.74 0 0 1 1.71 4.17zm-8 2.23h2.25a2 2 0 0 0 1.5-.65 2.14 2.14 0 0 0 .6-1.51v-13a2 2 0 0 0-.62-1.51 2 2 0 0 0-1.48-.63h-2.25z"/></svg>