<svg id="Capa_1" data-name="Capa 1" xmlns="http://www.w3.org/2000/svg" viewBox="0 0 226.77 226.77"><defs><style>.cls-1{fill:#ff8000}.cls-2{fill:#fff}</style></defs><title>IconMesa de trabajo 5</title><path class="cls-1" d="M212.59 113.44c.71 52.24-41.71 99.31-99.44 99.16S13.57 165 14.18 112.24C14.76 61.8 54.8 14 113.8 14.17a98.32 98.32 0 0 1 98.79 99.27zM157.67 67.7l2.46.7c4.56 1.14 3.59 5.83 3.64 8.78.35 17.79.06 35.6.24 53.41.05 5.14-1.83 6.78-7 6.75-28.8-.21-57.61-.1-86.41-.11-6.32 0-7.5-1-7.53-7.53q-.13-25.9 0-51.8c0-6.72 1.34-7.85 7.93-7.85h52.39c5.61 0 10-2 12.62-8-2.1-.18-3.63-.42-5.16-.42H65.5c-8.3 0-10.93 2.69-10.94 11v75c0 9.8 2.18 12 12 12 11 0 22-.11 32.94.14h29.06c11.34-.25 22.68-.08 34-.16 6.36 0 8.71-2.07 9.9-8.27a25.12 25.12 0 0 0 .43-4.82V74.76a38.55 38.55 0 0 0-.62-5.32 8.64 8.64 0 0 0-9-7.14c-2.7.28-3.07 3.41-5.6 5.4zm8.19-21.33c-3.34 1.57-6 2.45-8.3 4a154.73 154.73 0 0 0-39.89 38.92c-1.66 2.31-4 4.64-.76 8s5.66 1.37 8.34-.5c17.36-12.2 29.33-28.93 39.93-46.79.39-.7.32-1.65.68-3.63zm-68.45 72.5c8-1.63 14.69-5.11 19.72-11.7 1.93-2.54 3.06-5 .71-7.67-2.49-2.89-5.39-4.69-9.42-2.85-7.17 3.27-12.57 13.88-11.01 22.22z"/><path class="cls-2" d="M156.23 68.69s3.67-7.2 5.08-7.2c7.32 0 11.35 2.94 11.65 7.77.11 1.78 0 3.73 0 5.5q.06 35.88 0 71.76a25.12 25.12 0 0 1-.43 4.82c-1.19 6.2-3.54 8.23-9.9 8.27-11.34.08-22.68-.09-34 .16H99.57c-11-.25-22-.12-32.94-.14-9.83 0-12-2.19-12-12v-75c0-8.31 2.64-11 10.94-11q32.67-.06 65.35 0c1.53 0 5.51-.28 7.61-.1-7.47 7.71-9.46 8.52-15.07 8.52H71.07c-6.59 0-7.89 1.13-7.93 7.85q-.17 25.91 0 51.8c0 6.48 1.21 7.53 7.53 7.53 28.8 0 57.61-.1 86.41.11 5.16 0 7-1.61 7-6.75-.18-17.81.11-35.62-.24-53.41-.05-3 .83-7.2-3.87-7.92-.89-.26-2.92-.33-3.74-.57z"/><path class="cls-2" d="M78.77 110.65h34.62v13.39H78.77zm87.09-64.28c-.36 2-.29 2.93-.68 3.6-10.6 17.89-22.57 34.62-39.93 46.75-2.68 1.87-5 4-8.34.5s-.9-5.66.76-8a154.73 154.73 0 0 1 39.89-38.92c2.27-1.48 4.96-2.36 8.3-3.93z"/><path class="cls-2" d="M97.41 118.87c-1.56-8.34 3.84-19 11-22.22 4-1.84 6.93 0 9.42 2.85 2.35 2.72 1.22 5.13-.71 7.67-5.02 6.59-11.75 10.07-19.71 11.7z"/></svg>