<svg id="Capa_1" data-name="Capa 1" xmlns="http://www.w3.org/2000/svg" viewBox="0 0 226.77 226.77"><defs><style>.cls-1{fill:#40a629}.cls-2{fill:#fff}</style></defs><title>IconMesa de trabajo 9</title><circle class="cls-1" cx="113.39" cy="113.39" r="99.21"/><path class="cls-2" d="M114.83 186h-19.9c-.77 0-1.81.39-2.27-.48s.52-1.55 1.12-1.92c3.72-2.28 5.08-5.73 5.23-9.88.08-2 .91-2.74 3.11-2.7 8.41.17 16.82.15 25.23 0 2.06 0 3.13.49 3.19 2.59.13 4.29 1.61 7.82 5.45 10.14.54.33 1.3.86 1 1.68s-1.22.56-1.87.56c-6.78.01-13.53.01-20.29.01zm32.95-118.82c-19.77-.09-43.85-.18-63.31-.24m0 0l-35.79-.11c-5.83 0-7.66 1.85-7.66 7.65 0 27.68 0 55.36-.07 83 0 3.68 1.22 6.13 4.46 7.68H181.5c4.92 0 7.05-2.25 7.05-7.27v-57.37c0-10-.1-19.95-.16-29.92a4 4 0 0 0-1.08-2.19 4.66 4.66 0 0 0-2.37-1.06c-3.16-.08-18.17-.16-37.16-.25m30.79 8.24c1.33 0 1.11 2.43 1.06 5.22-.34 21 0 42.05.12 63.08 0 2.69-.54 4-3.51 3.62a47.08 47.08 0 0 0-5.7 0H53.68c-1.74 0-3.86.78-3.85-2.5q.14-33.32 0-66.64c0-1.92.74-2.67 2.52-2.38.85.14 14.25 0 32-.15m0 0c19.59-.21 44.51-.53 63.78-.77"/><circle class="cls-1" cx="115.79" cy="72.8" r="30.63"/><path class="cls-2" d="M92.78 99A34.8 34.8 0 1 1 139 47a33.71 33.71 0 0 1 11.52 26c0 10.33-4.18 18.91-11.81 26h7.41a4.35 4.35 0 0 1 .62 8.67 5.06 5.06 0 0 1-.55 0h-61a4.34 4.34 0 0 1 0-8.68h7.54zm-6.07-26.17a29 29 0 1 0 29-29 29 29 0 0 0-29 29z"/><path class="cls-2" d="M104.19 78.66h5.67c.16.75.26 1.42.44 2.08a4.5 4.5 0 0 0 4.32 3.66 11.7 11.7 0 0 0 4.21-.33 3.84 3.84 0 0 0 2.59-4.81 2.48 2.48 0 0 0-1.46-1.6c-1.26-.57-2.54-1.09-3.84-1.54-2-.68-4-1.2-5.88-1.93a9.12 9.12 0 0 1-5.24-4.77 9.48 9.48 0 0 1 2.13-10.86 10.43 10.43 0 0 1 5.32-2.73c.32-.06.41-.19.41-.51v-5.68h5.77v5.8a.58.58 0 0 0 .5.68 11 11 0 0 1 7.63 7.29 22.16 22.16 0 0 1 .59 3.27 2.12 2.12 0 0 1 0 .33h-5.75c-.06-.51-.1-1-.18-1.53a4.6 4.6 0 0 0-2.83-3.38 7.36 7.36 0 0 0-7 .15 2.63 2.63 0 0 0-1.54 2.13 13.82 13.82 0 0 0 0 2.23 1.73 1.73 0 0 0 .76 1.25 10 10 0 0 0 3.36 1.59c1.81.57 3.64 1.06 5.45 1.66a12.15 12.15 0 0 1 5.18 3 9.27 9.27 0 0 1 .61 12.09 10.61 10.61 0 0 1-6 3.59c-.74.19-.74.18-.74.92V96h-5.79v-5.48c0-.54-.19-.69-.67-.83a10.56 10.56 0 0 1-6.53-5.06 12.2 12.2 0 0 1-1.52-5.76.59.59 0 0 1 0-.19.12.12 0 0 1 .03-.02z"/></svg>