<svg id="extra" xmlns="http://www.w3.org/2000/svg" viewBox="0 0 775.76 569.78"><defs><style>.cls-1{fill:#b8d640}</style></defs><title>lflechaMesa de trabajo 6</title><path class="cls-1" d="M614.64 283.7c-10 9.42-21.34 18.68-24.72 22.29a535 535 0 0 0-49.2 54.93c-7.07 10.05 3.21 31.4 13.42 23.08 23.54-19.39 44-45.21 65.21-68.59 10.12-11.07 39.71-30.69 36.18-54.94-2.91-20.09-25.74-28.64-37.36-36-31.39-19.93-62.78-40.65-94.17-59.4-6.91-4.16-11.38 9.73-4.63 14.67 20.33 15.07 40.89 29.27 61.45 43.87 4.16 3 31.39 20.32 44.49 30.53 3.61 1.1-489.61 9.34-505.31 25V287" id="responsive1"/></svg>