<svg xmlns="http://www.w3.org/2000/svg" viewBox="0 0 528.84 531.7"><defs><style>.cls-1{fill:#49b382}.cls-2{fill:#40566e}.cls-3{fill:#36495e}.cls-4{fill:#33996d}.cls-5{fill:none;stroke:#29235c;stroke-miterlimit:10;stroke-width:4px;opacity:.15}.cls-6{fill:#706f6f}.cls-7{fill:#b2b2b2}.cls-8{fill:#878787}</style></defs><title>logoCompleto</title><g id="Capa_2" data-name="Capa 2"><g id="Capa_21" data-name="Capa 21"><g id="ImgLogo"><g id="imgaenPrin"><path id="RecVerdeInf" class="cls-1" transform="rotate(135 289.303 297.21)" d="M194.3 260.71h190v73h-190z"/><path id="RecAzul1" class="cls-2" transform="rotate(-45 92.987 214.303)" d="M-2.02 177.8h190v73h-190z"/><path id="RecAzul2" class="cls-3" transform="rotate(45 149.863 353.915)" d="M54.87 317.41h190v73h-190z"/><path id="RecVerdeSup" class="cls-4" transform="rotate(45 232.423 157.593)" d="M137.42 121.1h190v73h-190z"/></g><path class="cls-5" d="M351.4 210.96l-13.73-13.73L217.06 76.61l-39.63 39.62 120.62 120.62-68.51 68.5 34.41 34.41 108.12-108.13-20.67-20.67z" id="paren2"/><path class="cls-5" d="M80.05 276.86l72-72.01-39.33-39.32L4.29 273.96l24.73 24.73 131.5 131.5 36.43-36.43-116.9-116.9z" id="Paren1"/><path class="cls-6" transform="rotate(45 190.764 256.307)" d="M144.87 210.41h91.8v91.8h-91.8z" id="centro"/><g id="textoLogo"><g id="creative"><path id="c" class="cls-7" d="M228 67.12c-.38.38-1.17.5-2.38.37a4.72 4.72 0 0 1-3-1.37L207.26 50.8a4.15 4.15 0 0 1-1.14-2.32 2.42 2.42 0 0 1 .57-2.24L252.48.46a2.9 2.9 0 0 1 2.41-.4 4.94 4.94 0 0 1 3 1.41l15.41 15.44a3.75 3.75 0 0 1 .91 2.22 2.57 2.57 0 0 1-.54 2.28L263 32.1l-5.17-5.1 9.17-9.18-11-11-42.74 42.73 11 11 12-12 5.14 5.15z"/><path id="r" class="cls-7" d="M256 99.49L251.49 95l18.11-38.77 8.55 8.55L296 46.89l-11.23-11.26L238.42 82l-5.14-5.15 50-50 18 18a4.8 4.8 0 0 1 1.4 3.53 4.16 4.16 0 0 1-.86 3l-18.5 18.5q-3.63 3.63-6.76.5l-4.66-4.65z"/><path id="e" class="cls-7" d="M278.55 122.1l-16.69-16.7 50-50 16.69 16.69-3.63 3.62-11.57-11.5-18.58 18.57 11 11-3.62 3.63-11-11-20.52 20.51 11.55 11.55z"/><path id="a" class="cls-7" d="M308.59 152.14l-5.14-5.14 20.82-20.82-13-13L290.44 134l-5.14-5.15 47.59-47.59a3.44 3.44 0 0 1 2.26-.8 3.09 3.09 0 0 1 2.55.86l18.08 18.08c1.86 1.85 2.13 3.43.84 4.72zm19.31-29.6l21.89-21.89-13-13-21.89 21.88z"/><path id="t" class="cls-7" d="M383.52 134.38l-8.52-8.49-46.34 46.35-5.14-5.15 46.34-46.34-8.42-8.42 3.63-3.62 22 22z"/><path id="i" class="cls-7" d="M348.79 192.33l-5.15-5.14 50-50 5.15 5.14z"/><path id="v" class="cls-7" d="M426 169.63l-59.15 40.78-3.2-3.19 40.44-59.5 5 5-27.53 40.51 39.21-28.83z"/><path id="e-2" data-name="e" class="cls-7" d="M397.75 241.29l-16.69-16.69 50-50 16.69 16.69-3.66 3.71-11.54-11.54L414 202l11 11-3.63 3.63-11-11-20.51 20.51 11.55 11.54z"/></g><g id="code"><path id="c-2" data-name="c" class="cls-8" d="M455.31 302.86L468 290.19l18.49 18.49 27-27.06-65.76-65.75-27.05 27L434.77 257l-12.67 12.65-16.46-16.46q-1.15-1.16 0-4.31a13.06 13.06 0 0 1 2.84-4.86l38-38a17.21 17.21 0 0 1 6.6-4.19c2.45-.86 4-1 4.64-.32L528.18 272c.83.83.88 2.23.12 4.21a14.76 14.76 0 0 1-3.36 5.18l-37.71 37.71a16.52 16.52 0 0 1-6.63 4.12q-3.72 1.23-4.59.36z"/><path id="o" class="cls-8" d="M330.78 329c-.83-.84-.82-2.48 0-4.94a20.39 20.39 0 0 1 5.05-7.45l40.92-40.92q7.19-7.19 10.84-3.54L456.47 341c1.21 1.22 1.43 3.08.64 5.61a14.48 14.48 0 0 1-3.41 6l-40.92 40.92q-8.73 8.73-13.54 3.93zm111.86 23.51l-65.76-65.76-31.5 31.51L411.13 384z"/><path id="d" class="cls-8" d="M266.92 405.19q-4.51-4.53-.83-14.19 2.66-7.28 5.74-10.36L308.47 344l76.92 76.92-35.27 35.27q-4.8 4.8-13.43 7.46t-12-.7zm83.37 39.66L367.13 428l-65.75-65.75-19.22 19.22q-1.19 1.18-2.13 5-1.5 5 .52 7l56.14 56.14q4.43 4.39 13.6-4.76z"/><path id="e-3" data-name="e" class="cls-8" d="M269 526.11l28.42-28.42-31.58-31.57-27.05 27.05-5.58-5.59 27.05-27.05-28.56-28.59-28.42 28.42-5.59-5.58 41.09-41.09 76.92 76.92-41.09 41.09z"/></g></g></g></g></g></svg>