<svg id="Capa_21" xmlns="http://www.w3.org/2000/svg" viewBox="0 0 394 395"><style>.st0{fill:#74b283}.st1{fill:#48566d}.st2{fill:#3e4a5d}.st3{fill:#5f986f}.st4{opacity:.15;fill:none;stroke:#2b275b;stroke-width:4;stroke-miterlimit:10}.st5{fill:#6f6f6e}</style><g id="ImgLogo"><g id="imgaenPrin"><path id="RecVerdeInf" transform="rotate(134.999 295.353 239.455)" class="st0" d="M200.4 203h190v73h-190z"/><path id="RecAzul1" transform="rotate(-45.001 99.032 156.547)" class="st1" d="M4 120h190v73H4z"/><path id="RecAzul2" transform="rotate(45.001 155.92 296.158)" class="st2" d="M60.9 259.7h190v73h-190z"/><path id="RecVerdeSup" transform="rotate(45.001 238.471 99.838)" class="st3" d="M143.5 63.3h190v73h-190z"/></g><path class="st4" d="M357.5 153.2l-13.8-13.7L223.1 18.9l-39.6 39.6 120.6 120.6-68.5 68.5L270 282l108.1-108.1z" id="paren2"/><path class="st4" d="M86.1 219.1l72-72-39.3-39.3L10.3 216.2l24.8 24.7 131.5 131.5L203 336z" id="Paren1"/><path transform="rotate(45.001 196.819 198.553)" class="st5" d="M150.9 152.7h91.8v91.8h-91.8z" id="centro"/></g></svg>