<svg id="Capa_1" data-name="Capa 1" xmlns="http://www.w3.org/2000/svg" viewBox="0 0 226.77 226.77"><defs><style>.cls-1{fill:#0f0735}.cls-2{fill:#fff}</style></defs><title>IconMesa de trabajo 4</title><circle class="cls-1" cx="113.39" cy="113.39" r="99.21"/><path class="cls-2" d="M41.23 98.69c1.94-4 5.15-5.11 9.43-5 9.58.22 19.16.17 28.74 0 2.59 0 4.08.5 4.3 3.26a16.28 16.28 0 0 0 .78 2.79H49.83c-1.71 0-2.54.32-2.53 2.3.07 17.75 0 35.5.05 53.25a14.08 14.08 0 0 0 .18 1.44c1 .05 2 .15 2.95.15 28 0 56 0 84 .07 2.68 0 3.28-.83 3.27-3.34-.11-16.06-.06-32.12-.06-48.18v-3.48a11.47 11.47 0 0 1 1.49-.26c4.45-.08 4.45-.07 4.45 4.46V154c0 6.6-2.2 8.84-8.72 8.84-28.08 0-56.17-.08-84.25.07-4.31 0-7.47-1.1-9.39-5.05zM175 71.13c-4.31 1.37-8.6 2.8-13 4-.45.13-1.45-.71-1.74-1.32-.16-.32.55-1.48 1.06-1.63 3.64-1.1 7.32-2.14 11-2.94.74-.15 1.72.83 2.59 1.29zm-14.73 27.42c-9.38-3.37-18.51-3.82-27.73-3.51-2 .06-4.5.66-5.79-.31s-1.31-3.54-1.82-5.43c-1.37-5.06-2.66-10.15-4.1-15.19a2.07 2.07 0 0 1 1.22-2.89c4.64-2.44 9.43-4.71 13.73-7.66s8.09-6.63 12.36-10.19c3.97 14.77 7.96 29.63 12.13 45.18z"/><path class="cls-2" d="M101.92 99.77c-1.57-5.93-3.17-11.79-4.63-17.68a2.16 2.16 0 0 1 .89-1.89c5.61-2.08 11.27-4 17.24-6.12.41 1.25.79 2.27 1.07 3.31 3.8 13.83 7.53 27.66 11.41 41.46.56 2 .18 3-1.74 3.6s-3.54 1.24-5.27 2-2.4.23-2.74-1.51c-.9-4.49-1.75-9-2.94-13.44-.38-1.44-1.67-2.69-2.67-3.92s-2.74-2.37-3.41-3.86c-1-2.21-2.09-3.14-4.47-2.21a11.16 11.16 0 0 1-2.74.26zm-8.69 23.53h7V145h1v-34.93H108v36.46H70v-16.41h6.53v15.22h.92v-21.41h7v21.41h.91V131h7v14.35h.93zm14.46 46.7v3.65H46.31a4.65 4.65 0 0 1-2-.08c-.73-.37-1.87-1.26-1.76-1.64.22-.79 1.09-1.44 1.78-2 .22-.19.73-.05 1.1-.05h61.16a7.6 7.6 0 0 1 1.1.12zM93.37 86.32l2.79 10.26c-3.82 2.1-5.07 1.58-6.16-2.35-.24-.9-.45-1.8-.68-2.71-.97-3.87-.39-4.69 4.05-5.2zm63.4-18.65c-.29-1.15-1-2.27-.67-2.88 1.72-3.33 3.64-6.56 5.61-9.76a2 2 0 0 1 1.83-.7c.48.17 1.13 1.34 1 1.67-2 3.62-4.05 7.18-6.14 10.73-.21.27-.66.38-1.63.94zM128.84 173.6v-3.75c3.95 0 7.94-.08 11.92.09.61 0 1.61 1.2 1.61 1.84a2.45 2.45 0 0 1-1.69 1.74c-3.91.16-7.83.08-11.84.08zm43.38-86.78c-1 .27-2 .92-2.57.64-3.39-1.75-6.7-3.67-10-5.64a1.78 1.78 0 0 1-.56-1.63c.31-.51 1.36-1.14 1.69-1 3.6 1.92 7.13 4 10.65 6 .29.22.35.7.79 1.63zm-53.9 80.94a4 4 0 0 1 4 3.93 4.09 4.09 0 0 1-4.11 4.1 4 4 0 0 1 .12-8zM154.84 79c-.62-2.5-1.24-5-1.94-7.83 2.72.3 4.31 1.43 4.49 3.4.14 1.48-.75 3.07-1.18 4.61z"/></svg>