<svg id="Capa_1" data-name="Capa 1" xmlns="http://www.w3.org/2000/svg" viewBox="0 0 226.77 226.77"><defs><style>.cls-1{fill:#93014a}.cls-2{fill:gray}.cls-3{fill:#e5e5e5}.cls-4{fill:#fff}.cls-5{fill:#3f777c}.cls-6{fill:#134348}.cls-7{fill:#ff0}</style></defs><title>IconMesa de trabajo 7</title><circle class="cls-1" cx="113.39" cy="113.39" r="99.21"/><path class="cls-2" d="M160.27 156.33H145.4V65.8h14.87a5 5 0 0 1 4.95 5v80.62a5 5 0 0 1-4.95 4.91z"/><path class="cls-3" d="M113.35 155.64l31.39 5.61c5.29 0 5.94-3 5.94-15.24V74.74c0-14.92.48-18.88-5.94-16.57L114 66.43z"/><path class="cls-4" d="M113.49 155.53H66c-5.29 0-4.33-4.34-4.33-9.63V74.62A9.65 9.65 0 0 1 71.25 65l42.9 1.32z"/><path class="cls-5" d="M85.22 112.8l11.69-14.32 11.48 14.5-23.17-.18z"/><path class="cls-6" d="M113.69 113.11l-.23-23.64 9.16 23.64h-8.93z"/><path class="cls-5" d="M101.88 103.79l11.69-14.32.12 23.64-5.3-.13-6.51-9.19z"/><circle class="cls-5" cx="97.54" cy="95.34" r="3.14"/><circle class="cls-7" cx="95.89" cy="147.06" r="22.15"/><path class="cls-4" d="M90.3 156.33v-16.52l13.47 8.26-13.47 8.26z"/></svg>