<svg xmlns="http://www.w3.org/2000/svg" viewBox="0 0 775.76 569.78"><defs><style>.cls-1{fill:#2c3752}.cls-2{fill:#fff}.cls-3{fill:#74b283}</style></defs><title>promo landMesa de trabajo 6</title><g id="responsive1"><g id="Promo"><path class="cls-1" d="M257.62 105.71c-39 14.38-72.88 40-100.63 73-28.28 33.7-52.11 76.27-61.87 122.71-9.41 44.84-1.23 95.2 31.33 129.5C156 462.09 199 471.52 236.19 478c95.74 16.77 190.59 0 276.55-39.49 72.84-33.44 145.47-85.37 168.94-175.62 12.94-49.75-29.62-91.07-64.67-115.34S541.72 112 502.25 106.72C410.11 94.35 316.38 109.44 237 156c-37.36 21.9-74.36 51.49-100.68 88.65-22.37 31.58-33.56 72.09-23 114.25 11.17 44.67 46 77 82.42 94.84 41.24 20.21 86.5 27.5 129.75 25.69 43.68-1.83 86-13.71 126.12-30 39.84-16.14 78.65-36.33 113.53-62.66 35.24-26.61 66.24-61.1 87.73-102.72 9.7-18.77 13.77-39.64 9.25-62.16-4.79-23.83-19.83-45.16-35.88-61.46-34.17-34.7-79.89-51.27-122.63-62.41a389.4 389.4 0 0 0-135.91-11c-89 8.67-170.57 51.52-233.57 118.33-13.18 14-26.36 29.4-32.65 49.23-6.61 20.83-5.29 43.07.94 64.93a150.62 150.62 0 0 0 83.71 96.51c20.25 9 41.84 13.55 62.91 17.43a439 439 0 0 0 65 6.94 409 409 0 0 0 126.64-15.89c97.85-28.14 182-94.56 243-182.38 2.49-3.58-2.4-8.93-4.92-5.31C624.43 315 552.41 375.4 467.84 407.58c-81.31 30.94-174.42 34.89-261 8.22-44.92-13.8-82.26-47.09-97.84-98.14-7.58-24.77-6.67-50.05 4-71.78 10-20.37 27.19-36.37 42.58-51.18 68.36-65.81 157.26-101.63 250.3-101.78 46.72-.08 94.15 9.1 139.56 26 43.86 16.34 94.9 48 109.6 101.79 7.3 26.73-2.63 50.47-14.65 71.25a294.46 294.46 0 0 1-44.94 58.44c-32.11 32.8-70.88 56.5-110.79 76-81.24 39.62-173 62.24-264 29.88-41.93-14.91-83.29-44.14-99.31-93.3-15.08-46.25 2-91.19 28-123.51C210.81 163 304.23 121.89 396.64 112.28c44.52-4.63 91-2.93 135.94 7 43.35 9.59 84.75 30.72 118.08 66.05 9.55 10.12 17.75 22 22.94 35.47 5.5 14.28 4.59 28.83 1 42.68-6.25 24-18 46.52-31.21 65.94-24.36 35.74-58 61.47-93.45 81.81-82.49 47.26-177.26 72.23-273.15 64.91A429.92 429.92 0 0 1 204.23 464c-18.46-4.67-36.59-10.92-53.5-21.56-42.09-26.49-58.5-78-52.19-127.64 6.17-48.52 31.05-92.73 58.5-128 27.24-34.9 62.11-61.9 101.82-76.8 2.34-.87 1.12-5.19-1.24-4.32z"/><path class="cls-2" d="M144.58 253a3.78 3.78 0 0 1 3 1 4.54 4.54 0 0 1 .65 6.14 3.83 3.83 0 0 1-2.73 1.59l-1.77.19a3.39 3.39 0 0 1-.27 1.19 5 5 0 0 1-.43 3.4 4.93 4.93 0 0 1-1 3.58 4.78 4.78 0 0 1-3.42 1.71l-1 .11a7.06 7.06 0 0 1-2.39-.17 19.48 19.48 0 0 1-2-.69l-1.14-.47a2.64 2.64 0 0 0-1-.11h-.15a1.51 1.51 0 0 1-1 .53l-3.13.33a1.5 1.5 0 0 1-1.15-.33 1.38 1.38 0 0 1-.58-1l-1.28-12.08a1.41 1.41 0 0 1 .35-1.12 1.58 1.58 0 0 1 1-.57l3.14-.33a1.52 1.52 0 0 1 1.12.31h.15a.9.9 0 0 0 .53-.35 10.49 10.49 0 0 0 .81-1.07 14.49 14.49 0 0 0 1.09-1.86l.47-1.22a9.49 9.49 0 0 1 1-2.17 2.45 2.45 0 0 1 1.86-1.16 4.44 4.44 0 0 1 3.41.89 4.28 4.28 0 0 1 1.56 3 8.39 8.39 0 0 1 0 1.22zm-15.34 14.68a1.29 1.29 0 0 0-.44-.85 1.1 1.1 0 0 0-.87-.28 1.08 1.08 0 0 0-.8.45 1.34 1.34 0 0 0 .19 1.79 1.13 1.13 0 0 0 1.67-.18 1.32 1.32 0 0 0 .25-.89zm16-8.49a1.57 1.57 0 0 0 1.14-.68 1.87 1.87 0 0 0-.27-2.57 1.6 1.6 0 0 0-1.26-.42l-7.79.82a2.64 2.64 0 0 1 .36-1.26 7.45 7.45 0 0 0 .42-1.16 3.56 3.56 0 0 0 .15-1.45 1.67 1.67 0 0 0-.79-1.35 2.62 2.62 0 0 0-1.57-.26c-.13 0-.27.19-.44.53-.08.18-.22.55-.43 1.11s-.4 1.19-.53 1.49a14.74 14.74 0 0 1-1.3 2.26 12.27 12.27 0 0 1-1.13 1.5 3.2 3.2 0 0 1-1.54.9l1 9.25a4.76 4.76 0 0 1 1.46.21c.31.11.76.29 1.35.55s1.25.47 1.6.57a4.81 4.81 0 0 0 1.7.14l1-.11a2.5 2.5 0 0 0 2-1.06 3.07 3.07 0 0 0 .14-2.41 2 2 0 0 0 .68-1.31 2.18 2.18 0 0 0-.35-1.59 2.31 2.31 0 0 0 .54-1.7 2.42 2.42 0 0 0-.63-1.53z"/><path class="cls-3" d="M163.83 266.75a.86.86 0 1 1-1.71.18l-1.75-16.49a.88.88 0 0 1 .76-1l5-.53c2.68-.29 5 1.16 5.35 4.73s-1.5 5.49-4.24 5.78l-4.14.44zm-.91-8.55l3.89-.42c2-.21 3.18-1.61 2.94-3.95s-1.69-3.44-3.7-3.23l-3.89.41zm12.31-1.66c-.22.32-.39.42-.61.44a.75.75 0 0 1-.81-.7.8.8 0 0 1 .08-.47 4.6 4.6 0 0 1 3.94-2.57c2.91-.31 4.71 1.35 5 4.1l.79 7.39a.79.79 0 1 1-1.56.17l-.1-1a3.94 3.94 0 0 1-3.39 2.31c-2.66.29-4.49-.91-4.75-3.38s1.28-4 4-4.26l3.54-.37-.07-.73a2.76 2.76 0 0 0-3.28-2.64 3.39 3.39 0 0 0-2.78 1.71zm6.4 4.32l-.12-1.13-3.54.38c-1.63.17-2.68 1-2.52 2.58.15 1.4 1.15 2.19 3.11 2a3.31 3.31 0 0 0 3.07-3.83zm5.57-6.38a3.62 3.62 0 0 1 3.26-2.52.81.81 0 0 1 .87.75.82.82 0 0 1-.69.92c-2.31.24-3.31 2.09-3 4.56l.64 6a.81.81 0 1 1-1.61.17l-1.15-10.92a.81.81 0 1 1 1.6-.17zm6.8-5.42a.87.87 0 0 1 .72-.95.84.84 0 0 1 .89.78l.3 2.82 1.63-.17a.81.81 0 0 1 .17 1.61l-1.63.17.79 7.43c.12 1.15.79 1.71 1.64 1.62a.79.79 0 0 1 .87.72.8.8 0 0 1-.7.89c-2 .21-3.21-1.1-3.42-3.06l-.79-7.43-1 .11a.82.82 0 0 1-.17-1.62l1-.1zm6.08-1.6c-.08-.78.24-1.12.84-1.18s1 .2 1.07 1a1 1 0 1 1-1.91.2zm3.39 15.14a.81.81 0 1 1-1.61.17l-1.16-10.92a.81.81 0 1 1 1.61-.17zm6.41-12.76a4.68 4.68 0 0 1 4.07 1.45.92.92 0 0 1 .23.49.75.75 0 0 1-.65.86.73.73 0 0 1-.64-.26 3.13 3.13 0 0 0-2.84-1c-2.31.24-3.38 2-3 5.26s1.75 4.8 4.06 4.55a4.47 4.47 0 0 0 2.79-1.46.69.69 0 0 1 .46-.24.76.76 0 0 1 .81.7.88.88 0 0 1-.26.71 5.57 5.57 0 0 1-3.64 1.85c-3.24.34-5.39-1.52-5.86-5.93s1.23-6.63 4.47-6.98zm6.12-4.07c-.09-.78.23-1.11.84-1.18s1 .2 1.07 1a.92.92 0 0 1-.85 1.12.9.9 0 0 1-1.06-.94zm3.38 15.14a.81.81 0 1 1-1.61.17l-1.15-10.92a.81.81 0 1 1 1.6-.17zm3.71-11.43l.09.86a3.91 3.91 0 0 1 3.22-2.25c3.26-.34 5.46 1.49 5.93 5.9s-1.3 6.69-4.56 7a4 4 0 0 1-3.61-1.52l.64 6.08a.81.81 0 1 1-1.61.17l-1.7-16.11a.84.84 0 0 1 .71-1 .85.85 0 0 1 .89.87zm4.51 10c2.31-.25 3.46-1.94 3.1-5.3s-1.88-4.76-4.19-4.51c-1.85.2-3.26 1.76-2.89 5.26s2.03 4.75 3.98 4.54zm10.97-12.68c4-.42 5.16 2.91 5.35 4.74.09.78.19 1.72-.82 1.83l-7.33.77c.28 2.67 1.9 4.24 4.26 4a4.53 4.53 0 0 0 2.89-1.48.68.68 0 0 1 .43-.21.76.76 0 0 1 .81.7.82.82 0 0 1-.21.65 5.4 5.4 0 0 1-3.76 1.92c-3.34.36-5.63-1.38-6.11-5.9-.44-4.15 1.23-6.67 4.49-7.02zm.17 1.56c-2.19.24-3.23 1.87-3.13 4.28l6.75-.72c-.2-1.92-1.04-3.83-3.62-3.56zm17.5-3.43c4-.43 5.16 2.91 5.36 4.74.08.78.18 1.72-.83 1.82l-7.33.78c.28 2.66 1.9 4.23 4.26 4a4.48 4.48 0 0 0 2.89-1.47.63.63 0 0 1 .43-.21.76.76 0 0 1 .81.7.78.78 0 0 1-.21.65 5.44 5.44 0 0 1-3.75 1.92c-3.34.35-5.64-1.39-6.12-5.91-.44-4.16 1.25-6.67 4.49-7.02zm.17 1.56c-2.19.23-3.23 1.87-3.13 4.27l6.76-.71c-.21-1.94-1.04-3.83-3.63-3.56zm17.18 1.41l.76 7.19a.81.81 0 1 1-1.6.17l-.73-6.84c-.22-2.12-.95-3.51-3.39-3.25s-3.17 2-2.94 4.12l.7 6.64a.81.81 0 1 1-1.6.17l-1.16-10.92a.82.82 0 0 1 .71-.94.84.84 0 0 1 .9.77l.09.86a3.65 3.65 0 0 1 3.14-2.24c3.86-.41 4.88 1.99 5.12 4.27zm12.9-6.18c4-.42 5.16 2.91 5.35 4.74.08.78.18 1.72-.82 1.83l-7.33.77c.28 2.67 1.89 4.24 4.25 4a4.48 4.48 0 0 0 2.89-1.48.7.7 0 0 1 .44-.21.76.76 0 0 1 .81.7.84.84 0 0 1-.21.65 5.39 5.39 0 0 1-3.76 1.92c-3.34.36-5.63-1.38-6.11-5.9-.44-4.15 1.22-6.67 4.49-7.02zm.16 1.56c-2.18.24-3.23 1.87-3.12 4.28l6.75-.72c-.2-1.93-1.04-3.84-3.63-3.56zm8.12-8.2l1.63 15.36c.11 1.07.49 1.5 1.16 1.42a.82.82 0 0 1 .18 1.62c-1.69.18-2.73-.8-2.95-2.87l-1.63-15.36a.86.86 0 0 1 .71-.94.84.84 0 0 1 .9.77zm12.15 7.8c.3 2.82 6.79 1.07 7.24 5.37.26 2.45-1.5 3.75-3.89 4a5.55 5.55 0 0 1-4.5-1.48.91.91 0 0 1-.23-.5.76.76 0 0 1 .65-.85.71.71 0 0 1 .58.21 4.13 4.13 0 0 0 3.33 1c1.43-.15 2.61-.8 2.46-2.19-.3-2.77-6.78-1-7.25-5.38-.24-2.24 1.36-3.44 3.5-3.66a4.49 4.49 0 0 1 4 1.31.93.93 0 0 1 .23.5.76.76 0 0 1-.65.85.66.66 0 0 1-.55-.18A3.46 3.46 0 0 0 309 241c-1.15.15-2.22.64-2.08 1.88zm19.44 1.12c.47 4.41-1.32 6.69-4.59 7s-5.49-1.52-6-5.93 1.35-6.67 4.59-7 5.53 1.55 6 5.93zm-1.63.17c-.36-3.39-1.85-4.75-4.16-4.51s-3.49 1.89-3.13 5.28 1.86 4.78 4.17 4.54 3.48-1.84 3.12-5.28zm5.27-4.83a3.62 3.62 0 0 1 3.26-2.52.84.84 0 0 1 .18 1.67c-2.31.24-3.31 2.09-3 4.56l.64 6a.81.81 0 1 1-1.6.17l-1.16-10.92a.81.81 0 1 1 1.61-.17zm6.81-5.42a.86.86 0 0 1 .71-.95.84.84 0 0 1 .89.78l.3 2.82 1.63-.17a.76.76 0 0 1 .84.72.77.77 0 0 1-.66.89l-1.64.17.79 7.43c.12 1.15.79 1.71 1.65 1.62a.78.78 0 0 1 .86.72.8.8 0 0 1-.69.89c-2 .21-3.22-1.1-3.43-3.06l-.78-7.43-1 .11a.82.82 0 0 1-.17-1.62l1-.1zm11.05 1.3c4-.43 5.16 2.91 5.35 4.73.09.79.19 1.73-.82 1.83l-7.33.78c.28 2.66 1.89 4.23 4.25 4a4.53 4.53 0 0 0 2.9-1.47.61.61 0 0 1 .43-.21.75.75 0 0 1 .81.7.85.85 0 0 1-.21.65 5.44 5.44 0 0 1-3.76 1.92c-3.34.35-5.63-1.39-6.11-5.91-.44-4.16 1.23-6.67 4.49-7.02zm.17 1.56c-2.19.23-3.23 1.86-3.13 4.27l6.75-.71c-.2-1.94-1.04-3.83-3.65-3.56zm17.58 3.08c.47 4.41-1.32 6.7-4.58 7s-5.49-1.51-6-5.92 1.35-6.67 4.59-7 5.53 1.51 5.99 5.92zM364 240c-.36-3.39-1.85-4.76-4.16-4.51s-3.48 1.89-3.12 5.28 1.85 4.78 4.16 4.53 3.47-1.82 3.12-5.3zm17.31-6.56l-.79-7.45a.81.81 0 1 1 1.6-.17l1.42 13.34c.37 3.55-1.5 5.52-4.36 5.82-3.24.34-5.37-1.52-5.84-5.93s1.13-6.65 4.36-7a4.2 4.2 0 0 1 3.61 1.39zm.23 2.18a3.88 3.88 0 0 0-3.57-2c-2.29.24-3.37 2-3 5.26s1.75 4.8 4.06 4.55c1.93-.2 3.19-1.53 2.92-4.09zm8.86-4.91c4-.43 5.16 2.91 5.36 4.73.08.79.18 1.73-.82 1.83l-7.34.78c.28 2.66 1.9 4.23 4.26 4a4.47 4.47 0 0 0 2.89-1.47.63.63 0 0 1 .43-.21.76.76 0 0 1 .82.7.85.85 0 0 1-.21.65 5.49 5.49 0 0 1-3.76 1.92c-3.34.35-5.63-1.39-6.11-5.91-.44-4.16 1.22-6.67 4.48-7.02zm.17 1.56c-2.18.23-3.23 1.87-3.13 4.27l6.76-.71c-.2-1.94-1.04-3.83-3.63-3.56zm14.55-2.09l.74 7c.19 1.75.88 3.2 3.41 2.93s2.91-1.83 2.72-3.58l-.74-7a.83.83 0 0 1 .74-.94.83.83 0 0 1 .87.77l.74 7c.27 2.56-.26 5-4.15 5.39s-4.92-1.84-5.19-4.4l-.75-7a.83.83 0 0 1 .72-.94.84.84 0 0 1 .89.77zm20.71 1.59l.76 7.18a.81.81 0 1 1-1.61.17l-.72-6.83c-.23-2.13-1-3.52-3.4-3.26s-3.16 2-2.94 4.12l.71 6.64a.81.81 0 1 1-1.63.21l-1.14-11a.81.81 0 1 1 1.61-.17l.09.87a3.62 3.62 0 0 1 3.14-2.24c3.87-.37 4.88 2.02 5.13 4.31zm12.98.34c.47 4.41-1.32 6.69-4.59 7s-5.49-1.52-6-5.93 1.35-6.67 4.59-7 5.53 1.52 6 5.93zm-1.63.17c-.36-3.39-1.85-4.75-4.16-4.51s-3.49 1.89-3.13 5.28 1.86 4.78 4.17 4.54 3.48-1.87 3.12-5.31zm17.32-6.6l-.79-7.45a.83.83 0 0 1 .71-.94.84.84 0 0 1 .9.77l1.41 13.34c.38 3.55-1.5 5.52-4.36 5.82-3.24.35-5.37-1.52-5.84-5.93s1.13-6.65 4.37-7a4.2 4.2 0 0 1 3.6 1.39zm.23 2.18a3.88 3.88 0 0 0-3.57-2c-2.28.24-3.37 2-3 5.27s1.75 4.79 4.06 4.54c1.94-.2 3.19-1.53 2.92-4.09zm8.87-4.86c4-.43 5.16 2.91 5.35 4.74.08.78.18 1.72-.82 1.82l-7.33.78c.28 2.66 1.89 4.23 4.25 4a4.43 4.43 0 0 0 2.89-1.47.66.66 0 0 1 .44-.21.76.76 0 0 1 .81.7.85.85 0 0 1-.21.65 5.47 5.47 0 0 1-3.76 1.92c-3.34.35-5.63-1.39-6.11-5.91-.44-4.21 1.22-6.72 4.49-7.02zm.16 1.56c-2.18.23-3.23 1.87-3.12 4.27l6.75-.71c-.2-1.99-1.04-3.88-3.63-3.61zm23.16.73l.76 7.18a.81.81 0 1 1-1.61.17l-.72-6.83c-.22-2.12-1-3.51-3.39-3.26s-3.17 2-2.94 4.12l.7 6.65a.81.81 0 1 1-1.6.17L477 222.57a.81.81 0 1 1 1.6-.17l.1.86a3.62 3.62 0 0 1 3.1-2.26c3.86-.39 4.88 2 5.12 4.29zm3.84-4.19l.75 7c.18 1.75.87 3.2 3.41 2.93s2.9-1.83 2.72-3.58l-.75-7a.85.85 0 0 1 .74-1 .81.81 0 0 1 .87.77l.74 7c.27 2.56-.26 5-4.15 5.39s-4.92-1.84-5.19-4.4l-.74-7a.83.83 0 0 1 .71-.95.84.84 0 0 1 .89.84zm15.06-2.62c4-.43 5.16 2.9 5.35 4.73.08.78.18 1.72-.82 1.83l-7.33.78c.28 2.66 1.89 4.23 4.25 4a4.48 4.48 0 0 0 2.89-1.48.7.7 0 0 1 .44-.21.77.77 0 0 1 .81.71.83.83 0 0 1-.21.64 5.39 5.39 0 0 1-3.76 1.92c-3.34.36-5.63-1.38-6.11-5.9-.44-4.16 1.22-6.68 4.49-7.02zM506 220c-2.18.23-3.23 1.86-3.12 4.27l6.75-.72c-.22-1.89-1.06-3.79-3.63-3.55zm8.77.84c.3 2.83 6.8 1.08 7.25 5.38.26 2.45-1.5 3.75-3.89 4a5.51 5.51 0 0 1-4.5-1.48.85.85 0 0 1-.23-.49.77.77 0 0 1 .65-.86.8.8 0 0 1 .58.21 4.09 4.09 0 0 0 3.33 1c1.43-.15 2.6-.79 2.46-2.19-.3-2.77-6.79-1-7.25-5.38-.24-2.23 1.36-3.43 3.49-3.66a4.48 4.48 0 0 1 4 1.32.8.8 0 0 1 .23.49.76.76 0 0 1-.64.86.68.68 0 0 1-.55-.19 3.51 3.51 0 0 0-2.86-.84c-1.13.1-2.2.6-2.07 1.83zm9.34-6.78a.85.85 0 0 1 .71-.94.83.83 0 0 1 .89.77l.3 2.83 1.64-.18a.82.82 0 0 1 .17 1.62l-1.64.17.79 7.42c.12 1.16.79 1.71 1.65 1.62a.82.82 0 0 1 .17 1.62c-2 .21-3.22-1.11-3.43-3.07l-.78-7.42-1 .1a.81.81 0 0 1-.17-1.61l1-.1zm8.47 3.81a3.62 3.62 0 0 1 3.26-2.52.81.81 0 0 1 .87.75.8.8 0 0 1-.69.91c-2.31.25-3.31 2.1-3 4.57l.63 6a.81.81 0 1 1-1.6.17l-1.16-10.91a.81.81 0 1 1 1.61-.17zm16.27 2.57c.47 4.41-1.32 6.7-4.59 7s-5.49-1.51-6-5.92 1.35-6.67 4.59-7 5.53 1.48 6 5.92zm-1.63.17c-.36-3.38-1.85-4.75-4.16-4.5s-3.48 1.89-3.12 5.28 1.85 4.78 4.16 4.53 3.48-1.86 3.12-5.31zm5.13-3.75c.3 2.83 6.79 1.08 7.25 5.38.26 2.45-1.51 3.75-3.89 4a5.5 5.5 0 0 1-4.5-1.48.8.8 0 0 1-.23-.49.76.76 0 0 1 .64-.86.74.74 0 0 1 .58.21 4.14 4.14 0 0 0 3.33 1c1.43-.15 2.61-.79 2.46-2.19-.29-2.77-6.78-1-7.25-5.38-.23-2.23 1.37-3.43 3.5-3.66a4.49 4.49 0 0 1 4 1.32.86.86 0 0 1 .23.49.76.76 0 0 1-.65.86.72.72 0 0 1-.55-.19 3.45 3.45 0 0 0-2.86-.84c-1.13.1-2.19.59-2.06 1.83zM569 215.1c.3 2.82 6.79 1.08 7.25 5.38.25 2.45-1.51 3.75-3.9 4a5.51 5.51 0 0 1-4.5-1.48.92.92 0 0 1-.23-.49.77.77 0 0 1 .65-.86.74.74 0 0 1 .58.21 4.13 4.13 0 0 0 3.33 1c1.43-.15 2.61-.79 2.46-2.19-.3-2.77-6.78-1-7.25-5.38-.24-2.23 1.36-3.43 3.5-3.66a4.5 4.5 0 0 1 4 1.32.86.86 0 0 1 .23.49.76.76 0 0 1-.65.85.66.66 0 0 1-.55-.18 3.45 3.45 0 0 0-2.86-.84c-1.16.1-2.22.59-2.06 1.83zm13.35-4.74c4-.42 5.16 2.91 5.35 4.74.09.78.19 1.72-.82 1.83l-7.33.77c.28 2.67 1.89 4.24 4.25 4a4.53 4.53 0 0 0 2.9-1.48.68.68 0 0 1 .43-.21.76.76 0 0 1 .81.7.85.85 0 0 1-.21.65 5.44 5.44 0 0 1-3.76 1.92c-3.34.36-5.63-1.39-6.11-5.9-.44-4.16 1.23-6.67 4.49-7.02zm.17 1.56c-2.19.23-3.23 1.87-3.13 4.28l6.75-.72c-.2-1.94-1.04-3.83-3.62-3.56zm8.95-.29a3.62 3.62 0 0 1 3.26-2.52.84.84 0 0 1 .18 1.66c-2.31.25-3.31 2.09-3 4.57l.64 6a.81.81 0 1 1-1.61.17l-1.15-10.92a.81.81 0 1 1 1.6-.17zm11.21 8.98l-5.42-10.41a.93.93 0 0 1-.12-.37.83.83 0 0 1 .71-1 .79.79 0 0 1 .82.49l4.52 8.9 2.56-9.65a.78.78 0 0 1 .69-.65.84.84 0 0 1 .9.78.92.92 0 0 1 0 .38l-3.12 11.32a.83.83 0 0 1-.69.62.82.82 0 0 1-.85-.41zm6.04-16.47c-.08-.78.24-1.11.84-1.18s1 .2 1.07 1a1 1 0 1 1-1.91.2zm3.38 15.14a.81.81 0 1 1-1.6.17l-1.16-10.91a.81.81 0 1 1 1.61-.17zm6.42-12.75a4.68 4.68 0 0 1 4.07 1.44.91.91 0 0 1 .23.5.74.74 0 0 1-1.29.6 3.13 3.13 0 0 0-2.84-1c-2.31.24-3.38 2-3 5.27s1.76 4.79 4.07 4.54a4.43 4.43 0 0 0 2.79-1.46.74.74 0 0 1 .45-.24.77.77 0 0 1 .82.7.87.87 0 0 1-.26.71 5.52 5.52 0 0 1-3.64 1.85c-3.24.35-5.39-1.52-5.86-5.93s1.22-6.64 4.46-6.98zm6.12-4.08c-.09-.77.23-1.11.84-1.17s1 .19 1.06 1a1 1 0 1 1-1.9.2zM628 217.6a.81.81 0 1 1-1.61.17l-1.16-10.92a.81.81 0 1 1 1.61-.17zm12.49-6.87c.47 4.41-1.32 6.69-4.58 7s-5.5-1.51-6-5.93 1.35-6.67 4.58-7 5.51 1.52 6 5.93zm-1.63.17c-.36-3.39-1.85-4.75-4.16-4.51s-3.48 1.89-3.12 5.28 1.85 4.78 4.16 4.54 3.49-1.87 3.12-5.31zm5.14-3.75c.3 2.82 6.8 1.07 7.25 5.37.26 2.45-1.51 3.75-3.89 4a5.55 5.55 0 0 1-4.5-1.48.85.85 0 0 1-.23-.5.75.75 0 0 1 .65-.85.72.72 0 0 1 .58.21 4.12 4.12 0 0 0 3.33 1c1.43-.16 2.6-.8 2.45-2.2-.29-2.76-6.78-1-7.24-5.37-.24-2.24 1.36-3.44 3.49-3.66a4.47 4.47 0 0 1 4 1.31.8.8 0 0 1 .23.49.76.76 0 0 1-.64.86.73.73 0 0 1-.56-.18 3.44 3.44 0 0 0-2.85-.84c-1.14.11-2.21.6-2.07 1.84zm-322 76.41l-.2-1.56a4.16 4.16 0 0 1-3.22 2c-3.26.35-5.41-1.49-5.88-5.9s1.25-6.69 4.51-7c2.86-.3 5.21 1.24 5.59 4.79l.79 7.51c.39 3.65-1.79 5.41-4.6 5.7a5.1 5.1 0 0 1-4.39-1.41.79.79 0 0 1-.2-.46.81.81 0 0 1 .69-.92.75.75 0 0 1 .63.23 3.71 3.71 0 0 0 3.1 1 3.23 3.23 0 0 0 3.18-3.98zm-.79-7.5c-.28-2.56-1.91-3.61-3.79-3.41-2.31.24-3.43 1.94-3.07 5.3s1.8 4.76 4.11 4.51a4 4 0 0 0 3.16-2.53zm5.79-3.78a3.62 3.62 0 0 1 3.26-2.52.81.81 0 0 1 .87.75.8.8 0 0 1-.69.91c-2.31.25-3.31 2.09-3 4.57l.63 6a.81.81 0 1 1-1.6.17l-1.16-10.91a.81.81 0 1 1 1.61-.18zm7.29.02c-.22.32-.38.42-.61.44a.76.76 0 0 1-.81-.7.88.88 0 0 1 .08-.47 4.6 4.6 0 0 1 3.94-2.57c2.91-.31 4.71 1.35 5 4.1l.79 7.39a.82.82 0 0 1-.69.92.83.83 0 0 1-.87-.75l-.1-1a3.91 3.91 0 0 1-3.39 2.31c-2.66.29-4.49-.91-4.75-3.38s1.28-4 4-4.26l3.54-.37-.07-.73a2.76 2.76 0 0 0-3.28-2.64 3.39 3.39 0 0 0-2.78 1.71zm6.4 4.32l-.12-1.13-3.54.38c-1.63.17-2.68 1-2.52 2.58.15 1.4 1.15 2.19 3.11 2a3.3 3.3 0 0 0 3.07-3.83zm4.1-10.93a.85.85 0 0 1 .71-.94.83.83 0 0 1 .89.77l.3 2.83 1.64-.18a.82.82 0 0 1 .17 1.62l-1.64.17.79 7.42c.12 1.16.79 1.71 1.65 1.62a.8.8 0 0 1 .86.72.79.79 0 0 1-.69.89c-2 .21-3.22-1.1-3.43-3.06l-.78-7.42-1 .1a.81.81 0 0 1-.17-1.61l1-.1zm6.1-1.6c-.09-.78.23-1.11.84-1.17s1 .19 1.06 1a1 1 0 1 1-1.9.2zm3.38 15.15a.81.81 0 1 1-1.61.17l-1.16-10.92a.81.81 0 1 1 1.61-.17zm3.67-9.15c.3 2.82 6.8 1.07 7.25 5.38.26 2.44-1.5 3.75-3.89 4a5.51 5.51 0 0 1-4.5-1.48.92.92 0 0 1-.23-.49.76.76 0 0 1 .65-.86.76.76 0 0 1 .58.21 4.12 4.12 0 0 0 3.33 1c1.43-.15 2.6-.8 2.46-2.19-.3-2.77-6.79-1-7.25-5.38-.24-2.23 1.36-3.43 3.49-3.66a4.48 4.48 0 0 1 4 1.32.79.79 0 0 1-.41 1.34.66.66 0 0 1-.55-.18 3.47 3.47 0 0 0-2.86-.84c-1.13.1-2.2.59-2.07 1.83zM374.6 266l.09.86a3.87 3.87 0 0 1 3.21-2.24c3.27-.35 5.47 1.48 5.94 5.89s-1.3 6.69-4.56 7a4 4 0 0 1-3.62-1.52l.65 6.08a.81.81 0 1 1-1.61.17l-1.7-16.03a.81.81 0 1 1 1.61-.17zm4.51 10c2.31-.24 3.45-1.94 3.1-5.3s-1.88-4.75-4.19-4.51c-1.86.2-3.27 1.76-2.9 5.26s2.03 4.79 3.99 4.55zm17.03-6.75c.46 4.41-1.33 6.69-4.59 7s-5.49-1.51-6-5.92 1.35-6.67 4.59-7 5.53 1.51 6 5.92zm-1.64.17c-.36-3.39-1.85-4.75-4.16-4.51s-3.48 1.9-3.12 5.28 1.85 4.78 4.16 4.54 3.49-1.86 3.12-5.31zm5.3-4.86a3.63 3.63 0 0 1 3.26-2.52.84.84 0 0 1 .18 1.67c-2.31.25-3.31 2.09-3.05 4.57l.64 6a.84.84 0 0 1-.71.95.84.84 0 0 1-.9-.78l-1.15-10.92a.81.81 0 1 1 1.6-.17zm12.34-4.73a.81.81 0 0 1-.46.21.85.85 0 0 1-.89-.77.92.92 0 0 1 .27-.77l3.63-3.35a.81.81 0 0 1 .48-.24.87.87 0 0 1 .93.8l1.77 16.76a.83.83 0 1 1-1.65.17l-1.61-15.17zm32.11 2.61l.76 7.18a.81.81 0 1 1-1.6.17l-.73-6.83c-.22-2.13-1.08-3.51-3.51-3.25-2.16.23-3 1.57-2.8 3.56l.76 7.18a.81.81 0 1 1-1.61.17l-.72-6.83c-.23-2.12-1-3.51-3.47-3.25s-2.93 1.84-2.69 4.09l.71 6.65a.81.81 0 1 1-1.61.17l-1.16-10.92a.81.81 0 1 1 1.61-.17l.09.86a3.49 3.49 0 0 1 3.06-2.23c2.06-.22 3.48.45 4.2 1.46a3.93 3.93 0 0 1 3.46-2.27c3.87-.41 5 1.97 5.25 4.26zm6.92-5.55c4-.43 5.16 2.91 5.36 4.73.08.79.18 1.73-.83 1.83l-7.33.78c.28 2.66 1.9 4.23 4.26 4a4.46 4.46 0 0 0 2.89-1.48.67.67 0 0 1 .43-.2.75.75 0 0 1 .81.7.78.78 0 0 1-.21.65 5.44 5.44 0 0 1-3.75 1.92c-3.34.35-5.64-1.39-6.12-5.91-.43-4.16 1.23-6.68 4.49-7.02zm.17 1.56c-2.19.23-3.23 1.86-3.13 4.27L455 262c-.24-1.93-1.07-3.83-3.66-3.55zm8.79.81c.3 2.82 6.79 1.07 7.25 5.37.26 2.45-1.51 3.76-3.89 4a5.53 5.53 0 0 1-4.5-1.48.85.85 0 0 1-.23-.5.75.75 0 0 1 .64-.85.71.71 0 0 1 .58.21 4.14 4.14 0 0 0 3.33 1c1.43-.15 2.61-.8 2.46-2.19-.29-2.77-6.78-1-7.25-5.38-.23-2.23 1.37-3.44 3.5-3.66a4.48 4.48 0 0 1 4 1.31.86.86 0 0 1 .23.5.75.75 0 0 1-.65.85.67.67 0 0 1-.55-.18 3.45 3.45 0 0 0-2.86-.84c-1.13.11-2.19.58-2.06 1.84zm8.87 7.4a1.12 1.12 0 0 1 1.05-1.41c.72-.08 1.22.28 1.31 1.16s-.31 1.32-1 1.39-1.25-.25-1.36-1.14z"/><path class="cls-2" d="M147.13 318a3.84 3.84 0 0 1 3 1 4.57 4.57 0 0 1 .65 6.14 3.79 3.79 0 0 1-2.73 1.59l-1.77.19a3.39 3.39 0 0 1-.27 1.2 5.13 5.13 0 0 1 .08 1.71 109.69 109.69 0 0 0-1.5 5.26 4.72 4.72 0 0 1-3.41 1.71l-1 .11a7.13 7.13 0 0 1-2.4-.17 17.21 17.21 0 0 1-1.95-.69l-1.14-.47a2.94 2.94 0 0 0-1-.11h-.15a1.47 1.47 0 0 1-1 .53l-3.14.34a1.6 1.6 0 0 1-1.15-.33 1.49 1.49 0 0 1-.58-1l-1.28-12.08a1.48 1.48 0 0 1 .35-1.12 1.55 1.55 0 0 1 1.06-.56l3.14-.34a1.53 1.53 0 0 1 1.12.31h.15a.86.86 0 0 0 .53-.35c.19-.21.46-.57.81-1.06a16.64 16.64 0 0 0 1.09-1.87c.1-.26.26-.67.46-1.22a10.47 10.47 0 0 1 1-2.17 2.45 2.45 0 0 1 1.86-1.15 4.46 4.46 0 0 1 3.42.88 4.34 4.34 0 0 1 1.56 3 8.25 8.25 0 0 1 0 1.21zm-15.35 14.68a1.23 1.23 0 0 0-.44-.85 1.07 1.07 0 0 0-.87-.28 1.09 1.09 0 0 0-.79.46 1.19 1.19 0 0 0-.25.92 1.27 1.27 0 0 0 .44.86 1.11 1.11 0 0 0 .87.28 1.07 1.07 0 0 0 .79-.46 1.22 1.22 0 0 0 .25-.92zm16-8.49a1.57 1.57 0 0 0 1.14-.68 1.86 1.86 0 0 0 .38-1.34 1.83 1.83 0 0 0-.65-1.23 1.6 1.6 0 0 0-1.26-.42l-7.8.82a2.57 2.57 0 0 1 .37-1.26 7.1 7.1 0 0 0 .42-1.16 3.51 3.51 0 0 0 .14-1.44 1.64 1.64 0 0 0-.79-1.35 2.51 2.51 0 0 0-1.56-.26c-.13 0-.28.19-.44.52s-.22.56-.43 1.11-.4 1.19-.53 1.49a15.11 15.11 0 0 1-1.3 2.26 12.52 12.52 0 0 1-1.13 1.5 3.22 3.22 0 0 1-1.54.91l1 9.24a5.13 5.13 0 0 1 1.46.21c.31.11.76.3 1.35.55s1.25.47 1.59.58a5.06 5.06 0 0 0 1.7.13l1-.11a2.46 2.46 0 0 0 2-1.06 3 3 0 0 0 .14-2.4 1.93 1.93 0 0 0 .68-1.32 2.18 2.18 0 0 0-.34-1.59 2.31 2.31 0 0 0 .54-1.7 2.37 2.37 0 0 0-.63-1.52z"/><path class="cls-3" d="M167.22 314c4.79-.5 8 1.6 8.72 8.25s-2 9.35-6.81 9.85l-3.54.38a.89.89 0 0 1-1-.82l-1.72-16.28a.87.87 0 0 1 .76-1zm-.95 16.72l2.69-.28c3.74-.4 5.84-2.42 5.24-8s-3.07-7.16-6.81-6.76l-2.68.29zM182.71 318c4-.43 5.16 2.9 5.35 4.73.08.78.18 1.72-.82 1.83l-7.33.78c.28 2.66 1.89 4.23 4.25 4a4.44 4.44 0 0 0 2.89-1.48.73.73 0 0 1 1.25.5.83.83 0 0 1-.21.64 5.4 5.4 0 0 1-3.76 1.93c-3.34.35-5.63-1.39-6.11-5.91-.44-4.19 1.23-6.71 4.49-7.02zm.16 1.56c-2.18.23-3.23 1.86-3.12 4.27l6.75-.71c-.2-1.97-1.04-3.87-3.63-3.59zm8.8.78c.3 2.82 6.79 1.07 7.24 5.37.26 2.45-1.5 3.75-3.89 4a5.58 5.58 0 0 1-4.5-1.48.91.91 0 0 1-.23-.5.76.76 0 0 1 .65-.85.71.71 0 0 1 .58.21 4.17 4.17 0 0 0 3.33 1c1.43-.16 2.61-.8 2.46-2.2-.3-2.77-6.78-1-7.25-5.37-.24-2.24 1.36-3.44 3.5-3.66a4.47 4.47 0 0 1 4 1.31.93.93 0 0 1 .23.49.77.77 0 0 1-.65.86.68.68 0 0 1-.55-.19 3.53 3.53 0 0 0-2.86-.84c-1.13.11-2.2.61-2.06 1.85zm13.38-4.74a4.65 4.65 0 0 1 4.06 1.44.85.85 0 0 1 .23.5.74.74 0 0 1-.64.85.75.75 0 0 1-.64-.25 3.13 3.13 0 0 0-2.84-1c-2.32.24-3.38 2-3 5.27s1.76 4.79 4.07 4.54a4.43 4.43 0 0 0 2.79-1.46.72.72 0 0 1 1.26.46.86.86 0 0 1-.25.71 5.52 5.52 0 0 1-3.64 1.85c-3.24.35-5.39-1.52-5.86-5.93s1.22-6.64 4.46-6.98zm8.11.17l.75 7c.18 1.75.87 3.2 3.41 2.93s2.9-1.83 2.72-3.58l-.75-7a.84.84 0 0 1 .74-.94.81.81 0 0 1 .87.77l.74 7c.27 2.56-.26 5-4.15 5.39s-4.92-1.84-5.19-4.4l-.74-7a.81.81 0 1 1 1.6-.17zm15.06-2.63c4-.42 5.16 2.91 5.35 4.74.08.78.18 1.72-.82 1.83l-7.33.77c.28 2.67 1.89 4.24 4.25 4a4.48 4.48 0 0 0 2.89-1.48.7.7 0 0 1 .44-.21.76.76 0 0 1 .81.7.85.85 0 0 1-.21.65 5.43 5.43 0 0 1-3.76 1.92c-3.34.36-5.63-1.39-6.11-5.9-.44-4.16 1.27-6.67 4.49-7.02zm.16 1.56c-2.18.24-3.23 1.87-3.12 4.28l6.75-.72c-.2-1.93-1.01-3.83-3.63-3.56zm17.19 1.42l.76 7.18a.81.81 0 1 1-1.61.17l-.72-6.83c-.23-2.13-1-3.52-3.39-3.26s-3.17 2-3 4.12l.71 6.64a.81.81 0 1 1-1.61.17l-1.16-10.92a.81.81 0 1 1 1.61-.17l.09.86a3.63 3.63 0 0 1 3.14-2.23c3.92-.41 4.94 1.98 5.18 4.27zm2.87-7.59a.81.81 0 1 1 1.61-.17l.3 2.82L252 311a.81.81 0 0 1 .17 1.61l-1.63.17.78 7.42c.13 1.16.79 1.72 1.65 1.63a.78.78 0 0 1 .86.72.79.79 0 0 1-.69.89c-2 .21-3.22-1.1-3.42-3.06l-.79-7.43-1 .11a.82.82 0 0 1-.17-1.62l1-.1zm17.11 7.18c.47 4.41-1.32 6.7-4.59 7s-5.49-1.51-6-5.92 1.35-6.67 4.59-7 5.53 1.51 6 5.92zm-1.63.18c-.36-3.39-1.85-4.76-4.16-4.51s-3.48 1.89-3.12 5.28 1.85 4.78 4.16 4.53 3.48-1.86 3.12-5.3zm5.13-3.76c.3 2.83 6.79 1.08 7.25 5.38.26 2.45-1.51 3.75-3.89 4a5.51 5.51 0 0 1-4.5-1.48.8.8 0 0 1-.23-.49.76.76 0 0 1 .64-.86.82.82 0 0 1 .59.21 4.11 4.11 0 0 0 3.32 1c1.44-.15 2.61-.79 2.46-2.19-.29-2.77-6.78-1-7.25-5.38-.23-2.23 1.37-3.43 3.5-3.66a4.48 4.48 0 0 1 4 1.32.8.8 0 0 1 .23.49.76.76 0 0 1-.64.86.7.7 0 0 1-.56-.19 3.44 3.44 0 0 0-2.85-.84c-1.12.1-2.2.6-2.07 1.83zm22.84-3.97l-.79-7.45a.81.81 0 1 1 1.6-.17l1.42 13.34c.37 3.55-1.5 5.52-4.36 5.82-3.24.34-5.37-1.52-5.84-5.93s1.13-6.65 4.36-7a4.2 4.2 0 0 1 3.61 1.39zm.23 2.18a3.88 3.88 0 0 0-3.57-2c-2.29.24-3.37 2-3 5.27s1.75 4.79 4.06 4.54c1.93-.2 3.19-1.53 2.92-4.09zm8.88-4.91c4-.43 5.16 2.91 5.36 4.74.08.78.18 1.72-.83 1.82l-7.33.78c.28 2.66 1.9 4.23 4.26 4a4.47 4.47 0 0 0 2.89-1.47.63.63 0 0 1 .43-.21.76.76 0 0 1 .82.7.85.85 0 0 1-.21.65 5.49 5.49 0 0 1-3.76 1.92c-3.34.35-5.64-1.39-6.11-5.91-.46-4.16 1.2-6.67 4.48-7.02zm.17 1.56c-2.18.23-3.23 1.87-3.13 4.27l6.76-.71c-.23-1.94-1.06-3.83-3.65-3.55zm23.14.78l.76 7.18a.81.81 0 1 1-1.61.17l-.72-6.83c-.23-2.12-1-3.51-3.39-3.26s-3.17 2-2.94 4.12l.7 6.65a.81.81 0 1 1-1.61.17l-1.87-17.65a.81.81 0 1 1 1.61-.17l.8 7.59a3.63 3.63 0 0 1 3.14-2.24c3.87-.41 4.89 1.99 5.13 4.27zm4.1-2.23a.84.84 0 0 1-.61.45.75.75 0 0 1-.81-.7.94.94 0 0 1 .07-.48 4.62 4.62 0 0 1 3.94-2.56 4.22 4.22 0 0 1 5 4.09l.78 7.4a.78.78 0 1 1-1.55.16l-.11-1a3.92 3.92 0 0 1-3.38 2.32c-2.66.28-4.49-.91-4.75-3.39s1.28-4 4-4.25l3.54-.38-.08-.72a2.76 2.76 0 0 0-3.27-2.65 3.41 3.41 0 0 0-2.77 1.71zm6.4 4.33l-.12-1.13-3.54.37c-1.63.18-2.69 1-2.52 2.58.15 1.4 1.14 2.19 3.1 2a3.31 3.31 0 0 0 3.08-3.82zm5.4-5.28c.3 2.82 6.79 1.08 7.25 5.38.26 2.45-1.51 3.75-3.89 4a5.51 5.51 0 0 1-4.5-1.48.85.85 0 0 1-.23-.49.76.76 0 0 1 .64-.86.78.78 0 0 1 .59.21 4.11 4.11 0 0 0 3.32 1c1.44-.15 2.61-.79 2.46-2.19-.29-2.77-6.78-1-7.25-5.38-.23-2.23 1.37-3.43 3.5-3.66a4.48 4.48 0 0 1 4 1.32.79.79 0 0 1-.41 1.34.69.69 0 0 1-.56-.18 3.44 3.44 0 0 0-2.85-.84c-1.13.1-2.2.59-2.07 1.83zm9.33-6.78a.88.88 0 0 1 .72-.95.84.84 0 0 1 .89.78l.3 2.82 1.63-.17a.81.81 0 0 1 .17 1.61l-1.63.17.79 7.43c.12 1.15.79 1.71 1.64 1.62a.81.81 0 0 1 .18 1.61c-2 .21-3.22-1.1-3.43-3.06l-.78-7.42-1 .1a.78.78 0 0 1-.84-.73.76.76 0 0 1 .67-.88l1-.11zm8.24 4.62c-.22.32-.39.42-.62.44a.76.76 0 0 1-.81-.7.88.88 0 0 1 .08-.47 4.61 4.61 0 0 1 3.94-2.57 4.22 4.22 0 0 1 5 4.1l.78 7.39a.79.79 0 1 1-1.56.17l-.1-1a3.93 3.93 0 0 1-3.38 2.32c-2.67.28-4.49-.91-4.76-3.39s1.29-4 4-4.26l3.54-.37-.08-.73a2.75 2.75 0 0 0-3.28-2.64 3.4 3.4 0 0 0-2.75 1.71zm6.4 4.32l-.12-1.13-3.54.38c-1.64.17-2.69 1-2.52 2.58.14 1.4 1.14 2.19 3.1 2a3.32 3.32 0 0 0 3.08-3.83zm14.11-9.52c4-.42 5.16 2.91 5.36 4.74.08.78.18 1.72-.83 1.83l-7.33.78c.28 2.66 1.9 4.23 4.26 4a4.51 4.51 0 0 0 2.89-1.48.68.68 0 0 1 .43-.21.77.77 0 0 1 .82.7.81.81 0 0 1-.22.65 5.36 5.36 0 0 1-3.75 1.92c-3.34.36-5.64-1.38-6.11-5.9-.44-4.16 1.19-6.68 4.48-7.03zm.17 1.57c-2.18.23-3.23 1.86-3.13 4.27l6.76-.72c-.21-1.93-1.04-3.83-3.63-3.55zm8.12-8.21L388.2 306c.12 1.07.49 1.5 1.17 1.42a.82.82 0 0 1 .17 1.62c-1.68.18-2.72-.8-2.94-2.87l-1.6-15.41a.81.81 0 1 1 1.61-.17zm18.29-.06l-8.46.9a.83.83 0 0 1-.87-.76.81.81 0 0 1 .69-.91l9.37-1a.81.81 0 0 1 .87.75c.64 6.1-6.33 8.58-5.4 17.38a.83.83 0 0 1-.71.94.84.84 0 0 1-.9-.77c-.94-8.9 5.85-12.42 5.41-16.53zm16.8 5.67c.68 6.45-1 9.65-5.2 10.1s-6.52-2.33-7.21-8.79 1-9.62 5.21-10.06 6.53 2.3 7.2 8.75zm-1.66.18c-.59-5.57-2.26-7.65-5.37-7.32s-4.31 2.71-3.72 8.28 2.26 7.67 5.38 7.34 4.3-2.74 3.7-8.3zm10.89-6.24c.25 2.42-.49 4.48-3.23 4.77s-3.87-1.57-4.13-4 .49-4.49 3.2-4.78 3.9 1.56 4.16 4.01zm-1.26.13c-.18-1.72-.83-3.09-2.77-2.89s-2.26 1.68-2.07 3.4.83 3.1 2.74 2.89 2.28-1.67 2.1-3.4zm6.53-4.28a.76.76 0 0 1 0 .27l-6.36 18.11a.62.62 0 0 1-1.21-.2.52.52 0 0 1 0-.27l6.4-18.11a.62.62 0 0 1 .51-.41.65.65 0 0 1 .66.62zm5.08 13.22c.26 2.42-.48 4.48-3.22 4.77s-3.88-1.57-4.13-4 .49-4.49 3.2-4.77 3.9 1.55 4.15 4zm-1.25.13c-.18-1.72-.84-3.09-2.77-2.89s-2.26 1.68-2.08 3.41.84 3.09 2.75 2.89 2.28-1.75 2.1-3.41zm13.39-10.07c4-.42 5.16 2.91 5.36 4.74.08.78.18 1.72-.83 1.83l-7.33.77c.28 2.67 1.9 4.24 4.26 4a4.48 4.48 0 0 0 2.89-1.48.68.68 0 0 1 .43-.21.77.77 0 0 1 .82.7.82.82 0 0 1-.22.65 5.36 5.36 0 0 1-3.75 1.92c-3.34.36-5.64-1.38-6.11-5.9-.44-4.15 1.22-6.67 4.48-7.02zm.17 1.56c-2.18.24-3.23 1.87-3.13 4.28l6.76-.72c-.19-1.93-1.04-3.83-3.63-3.56zm17.18 1.42l.77 7.18a.81.81 0 1 1-1.61.17l-.73-6.83c-.22-2.12-.95-3.52-3.39-3.26s-3.17 2-2.94 4.12l.71 6.64a.81.81 0 1 1-1.61.17l-1.16-10.92a.81.81 0 1 1 1.61-.17l.09.87a3.62 3.62 0 0 1 3.14-2.24c3.87-.41 4.88 2.02 5.12 4.27zm12.9-6.18c4-.43 5.16 2.91 5.35 4.73.09.78.19 1.72-.82 1.83l-7.33.78c.28 2.66 1.89 4.23 4.25 4a4.49 4.49 0 0 0 2.9-1.48.67.67 0 0 1 .43-.2.75.75 0 0 1 .81.7.87.87 0 0 1-.21.65 5.44 5.44 0 0 1-3.76 1.92c-3.34.35-5.63-1.39-6.11-5.91-.44-4.16 1.23-6.68 4.49-7.02zm.17 1.56c-2.19.23-3.23 1.86-3.13 4.27l6.75-.71c-.2-1.94-1.04-3.84-3.62-3.56zm8.11-8.21l1.63 15.36c.11 1.08.49 1.5 1.17 1.43a.81.81 0 0 1 .17 1.61c-1.69.18-2.73-.8-2.95-2.87l-1.63-15.35a.88.88 0 0 1 .72-1 .84.84 0 0 1 .89.82zm12.15 7.8c.3 2.82 6.79 1.08 7.25 5.38.26 2.45-1.51 3.75-3.9 4a5.51 5.51 0 0 1-4.5-1.48.85.85 0 0 1-.23-.49.77.77 0 0 1 .65-.86.74.74 0 0 1 .58.21 4.13 4.13 0 0 0 3.33 1c1.43-.15 2.61-.79 2.46-2.19-.29-2.77-6.78-1-7.25-5.38-.24-2.23 1.36-3.43 3.5-3.66a4.49 4.49 0 0 1 4 1.32.93.93 0 0 1 .23.49.78.78 0 0 1-.65.86.72.72 0 0 1-.55-.19 3.45 3.45 0 0 0-2.86-.84c-1.13.1-2.19.61-2.06 1.83zm13.38-4.74c4-.42 5.16 2.91 5.35 4.74.09.78.19 1.72-.82 1.83l-7.33.77c.28 2.67 1.9 4.24 4.26 4a4.53 4.53 0 0 0 2.89-1.48.68.68 0 0 1 .43-.21.76.76 0 0 1 .81.7.82.82 0 0 1-.21.65 5.36 5.36 0 0 1-3.76 1.92c-3.34.36-5.63-1.38-6.11-5.9-.44-4.15 1.23-6.67 4.49-7.02zm.17 1.56c-2.19.24-3.23 1.87-3.13 4.28l6.75-.72c-.24-1.93-1.04-3.83-3.62-3.6zm8.95-.29a3.62 3.62 0 0 1 3.26-2.52.81.81 0 0 1 .87.75.8.8 0 0 1-.69.91c-2.31.25-3.31 2.09-3 4.57l.64 6a.81.81 0 1 1-1.6.17l-1.16-10.92a.83.83 0 0 1 .71-.94.84.84 0 0 1 .9.77zm11.21 8.98l-5.42-10.41a.93.93 0 0 1-.12-.37.84.84 0 0 1 .76-.95.78.78 0 0 1 .81.49l4.52 8.9 2.56-9.65a.78.78 0 0 1 .69-.65.84.84 0 0 1 .9.78.92.92 0 0 1 0 .38l-3.11 11.32a.84.84 0 0 1-.7.62.83.83 0 0 1-.89-.46zm6.04-16.47c-.08-.78.24-1.11.84-1.18s1 .2 1.07 1a1 1 0 1 1-1.91.2zm3.39 15.15a.81.81 0 1 1-1.61.17l-1.16-10.92a.81.81 0 1 1 1.61-.17zm6.41-12.76a4.66 4.66 0 0 1 4.07 1.45.85.85 0 0 1 .23.49.76.76 0 0 1-.65.86.78.78 0 0 1-.64-.26 3.12 3.12 0 0 0-2.84-1c-2.31.25-3.37 2-3 5.27s1.75 4.79 4.06 4.55a4.45 4.45 0 0 0 2.79-1.47.74.74 0 0 1 .46-.24.76.76 0 0 1 .81.7.87.87 0 0 1-.26.71 5.57 5.57 0 0 1-3.64 1.86c-3.24.34-5.39-1.53-5.86-5.94s1.23-6.63 4.47-6.98zm6.12-4.07c-.09-.78.23-1.12.84-1.18s1 .19 1.07 1a.92.92 0 0 1-.85 1.13.91.91 0 0 1-1.06-.95zm3.38 15.14a.82.82 0 0 1-.71.94.83.83 0 0 1-.9-.77L560.36 279a.81.81 0 1 1 1.6-.17zm12.47-6.87c.47 4.41-1.32 6.69-4.58 7s-5.5-1.51-6-5.92 1.35-6.67 4.59-7 5.53 1.51 5.99 5.92zM574 283c-.36-3.39-1.85-4.75-4.16-4.51s-3.48 1.89-3.12 5.28 1.85 4.78 4.16 4.54 3.45-1.85 3.12-5.31zm9.32-.94c-.46-4.41 1.22-6.69 4.46-7 2.87-.3 5.11 1.23 5.49 4.77l1.25 11.84a.82.82 0 0 1-.71.94.84.84 0 0 1-.9-.77l-.63-5.94a4.2 4.2 0 0 1-3.23 2.11c-3.23.31-5.26-1.54-5.73-5.95zm8.34-2.08c-.27-2.56-1.78-3.6-3.71-3.39-2.31.24-3.38 1.93-3 5.3s1.77 4.76 4.06 4.51a3.86 3.86 0 0 0 3.06-2.71zm5.49-4.91l.75 7c.18 1.75.87 3.2 3.41 2.93s2.9-1.83 2.71-3.58l-.74-7a.86.86 0 0 1 .74-.95.83.83 0 0 1 .87.78l.74 7c.27 2.55-.26 5-4.15 5.39s-4.92-1.85-5.19-4.4l-.74-7a.83.83 0 0 1 .71-.95.85.85 0 0 1 .89.78zm15.06-2.63c4-.43 5.16 2.91 5.35 4.74.08.78.18 1.72-.82 1.82l-7.34.78c.29 2.66 1.9 4.23 4.26 4a4.43 4.43 0 0 0 2.89-1.47.66.66 0 0 1 .44-.21.76.76 0 0 1 .81.7.85.85 0 0 1-.21.65 5.49 5.49 0 0 1-3.76 1.92c-3.34.35-5.63-1.39-6.11-5.91-.44-4.16 1.22-6.67 4.49-7.02zm.16 1.56c-2.18.23-3.23 1.87-3.12 4.27l6.75-.71c-.21-1.94-1-3.83-3.63-3.56zm17.51-3.43c4-.43 5.16 2.9 5.35 4.73.08.78.18 1.72-.82 1.83l-7.33.78c.28 2.66 1.89 4.23 4.25 4a4.48 4.48 0 0 0 2.89-1.48.76.76 0 0 1 .44-.21.77.77 0 0 1 .81.71.83.83 0 0 1-.21.64 5.43 5.43 0 0 1-3.76 1.93c-3.34.35-5.63-1.39-6.11-5.91-.39-4.16 1.22-6.68 4.49-7.02zm.16 1.56c-2.18.23-3.23 1.86-3.12 4.27l6.75-.72c-.2-1.93-1.04-3.83-3.67-3.55zm8.12-8.21l1.63 15.36c.11 1.08.49 1.5 1.16 1.43a.81.81 0 0 1 .17 1.61c-1.68.18-2.72-.8-2.94-2.87l-1.63-15.36a.86.86 0 0 1 .71-.94.84.84 0 0 1 .9.77zm3.96 1.92c-.08-.78.24-1.11.84-1.17s1 .19 1.07 1a1 1 0 1 1-1.91.2zM645.5 281a.81.81 0 1 1-1.61.17l-1.15-10.92a.81.81 0 1 1 1.6-.17zm2.11-11.28a.81.81 0 1 1 1.6-.17l1.33 12.51a3.8 3.8 0 0 1-3.24 4.42.78.78 0 0 1-.84-.73.76.76 0 0 1 .67-.88 2.23 2.23 0 0 0 1.8-2.64zm-.62-4.39c-.09-.78.23-1.12.84-1.18s1 .2 1.07 1a.92.92 0 0 1-.85 1.13.91.91 0 0 1-1.05-.95zM654 271c-.22.33-.38.42-.61.45a.76.76 0 0 1-.81-.7.88.88 0 0 1 .08-.47 4.58 4.58 0 0 1 3.94-2.57c2.91-.31 4.71 1.35 5 4.09l.79 7.4a.79.79 0 1 1-1.56.16l-.1-1a3.93 3.93 0 0 1-3.39 2.32c-2.66.28-4.49-.91-4.75-3.38s1.28-4 4-4.26l3.54-.38-.13-.66a2.77 2.77 0 0 0-3.28-2.65A3.41 3.41 0 0 0 654 271zm6.4 4.33l-.12-1.13-3.54.37c-1.63.18-2.68 1-2.52 2.58.15 1.4 1.15 2.19 3.11 2a3.29 3.29 0 0 0 3.03-3.79z"/><path class="cls-2" d="M270.26 337.57a3.83 3.83 0 0 1 3 1 4.57 4.57 0 0 1 .65 6.14 3.83 3.83 0 0 1-2.73 1.59l-1.77.19a3.39 3.39 0 0 1-.27 1.19 5.2 5.2 0 0 1 .09 1.72 4.86 4.86 0 0 1-.52 1.67 4.94 4.94 0 0 1-1 3.59 4.74 4.74 0 0 1-3.41 1.71l-1 .11a7.4 7.4 0 0 1-2.4-.17 20.4 20.4 0 0 1-1.95-.69l-1.14-.47a2.69 2.69 0 0 0-1-.11h-.14a1.51 1.51 0 0 1-1 .53l-3.14.33a1.52 1.52 0 0 1-1.15-.33 1.45 1.45 0 0 1-.58-1l-1.28-12.08a1.45 1.45 0 0 1 .36-1.12 1.58 1.58 0 0 1 1-.57l3.14-.33a1.48 1.48 0 0 1 1.12.31h.15a.9.9 0 0 0 .53-.35 10.49 10.49 0 0 0 .81-1.07 14.49 14.49 0 0 0 1.09-1.86c.1-.26.26-.67.46-1.22a10.47 10.47 0 0 1 1-2.17 2.49 2.49 0 0 1 1.86-1.16 4.45 4.45 0 0 1 3.42.89 4.3 4.3 0 0 1 1.56 3 8.39 8.39 0 0 1 0 1.22zm-15.35 14.69a1.23 1.23 0 0 0-.43-.85 1.11 1.11 0 0 0-.88-.28 1.08 1.08 0 0 0-.79.45 1.34 1.34 0 0 0 .19 1.79 1.11 1.11 0 0 0 .87.28 1.14 1.14 0 0 0 .8-.46 1.27 1.27 0 0 0 .24-.93zm16-8.49a1.61 1.61 0 0 0 1.14-.68 1.87 1.87 0 0 0-.27-2.57 1.64 1.64 0 0 0-1.26-.43l-7.79.83a2.64 2.64 0 0 1 .36-1.26 7.45 7.45 0 0 0 .42-1.16 3.39 3.39 0 0 0 .14-1.45 1.66 1.66 0 0 0-.78-1.35 2.63 2.63 0 0 0-1.57-.26c-.13 0-.28.19-.44.53-.08.18-.22.55-.43 1.11s-.4 1.19-.53 1.49a15.62 15.62 0 0 1-1.3 2.26 13.11 13.11 0 0 1-1.13 1.5 3.28 3.28 0 0 1-1.54.9l1 9.24a5.13 5.13 0 0 1 1.46.22c.31.11.76.29 1.35.55s1.25.47 1.6.57a4.81 4.81 0 0 0 1.7.14l1-.11a2.47 2.47 0 0 0 2-1.06 3 3 0 0 0 .15-2.41 1.91 1.91 0 0 0 .67-1.32 2.11 2.11 0 0 0-.34-1.58 2.31 2.31 0 0 0 .54-1.7 2.42 2.42 0 0 0-.63-1.53z"/><path class="cls-3" d="M279.68 347.62l-1.31 5.12a.88.88 0 0 1-.76.73.9.9 0 0 1-.95-.82 1.42 1.42 0 0 1 0-.41l4.4-17.24a.85.85 0 0 1 .74-.7.9.9 0 0 1 .89.53l7.89 15.94a1.34 1.34 0 0 1 .12.4.88.88 0 0 1-1.68.48l-2.33-4.76zm2.45-10.26L280 345.9l6-.63zm13.87 1.21a4.66 4.66 0 0 1 4.1 1.43.8.8 0 0 1 .23.49.74.74 0 0 1-.65.86.71.71 0 0 1-.63-.26 3.18 3.18 0 0 0-2.85-1c-2.31.25-3.37 2-3 5.27s1.75 4.79 4.06 4.55a4.45 4.45 0 0 0 2.79-1.47.68.68 0 0 1 .46-.23.76.76 0 0 1 .81.7.87.87 0 0 1-.25.71 5.63 5.63 0 0 1-3.64 1.85c-3.24.34-5.4-1.52-5.86-5.93s1.23-6.62 4.43-6.97zm11.11-1.17a4.65 4.65 0 0 1 4.06 1.45.85.85 0 0 1 .23.49.75.75 0 0 1-.65.86.77.77 0 0 1-.63-.26 3.15 3.15 0 0 0-2.85-1c-2.31.25-3.37 2-3 5.27s1.75 4.79 4.06 4.55a4.45 4.45 0 0 0 2.79-1.47.74.74 0 0 1 .46-.24.76.76 0 0 1 .81.7.87.87 0 0 1-.26.71 5.57 5.57 0 0 1-3.63 1.86c-3.24.34-5.4-1.53-5.86-5.94s1.23-6.64 4.47-6.98zm11.06-1.17c4-.43 5.16 2.9 5.36 4.73.08.78.18 1.72-.83 1.83l-7.33.78c.28 2.66 1.9 4.23 4.26 4a4.51 4.51 0 0 0 2.89-1.48.73.73 0 0 1 .43-.21.77.77 0 0 1 .82.71.8.8 0 0 1-.22.64 5.39 5.39 0 0 1-3.75 1.93c-3.34.35-5.64-1.39-6.11-5.91-.44-4.16 1.22-6.68 4.48-7.02zm.17 1.56c-2.19.23-3.23 1.86-3.13 4.27l6.76-.72c-.21-1.93-1.04-3.83-3.63-3.55zm8.79.81c.3 2.82 6.79 1.07 7.25 5.37.26 2.45-1.51 3.75-3.89 4a5.57 5.57 0 0 1-4.5-1.48.85.85 0 0 1-.23-.5.75.75 0 0 1 .64-.85.71.71 0 0 1 .58.21 4.18 4.18 0 0 0 3.33 1c1.43-.16 2.61-.8 2.46-2.2-.29-2.77-6.78-1-7.25-5.37-.23-2.24 1.37-3.44 3.5-3.66a4.46 4.46 0 0 1 4 1.31.86.86 0 0 1 .23.49.76.76 0 0 1-.65.86.69.69 0 0 1-.55-.19 3.52 3.52 0 0 0-2.86-.84c-1.12.11-2.19.61-2.06 1.85zm19.44 1.14c.47 4.41-1.32 6.7-4.58 7s-5.5-1.51-6-5.92 1.35-6.67 4.59-7 5.53 1.51 5.99 5.92zm-1.63.18c-.36-3.39-1.85-4.76-4.16-4.51s-3.48 1.89-3.12 5.28 1.85 4.78 4.16 4.53 3.49-1.86 3.12-5.3zm11.06-4.68a.84.84 0 0 1-.62.45.77.77 0 0 1-.81-.71.88.88 0 0 1 .08-.47 4.59 4.59 0 0 1 3.94-2.56 4.22 4.22 0 0 1 5 4.09l.78 7.39a.79.79 0 1 1-1.56.17l-.1-1a3.93 3.93 0 0 1-3.38 2.32c-2.67.28-4.49-.91-4.76-3.39s1.28-4 4-4.26l3.54-.37-.08-.73a2.76 2.76 0 0 0-3.28-2.64 3.38 3.38 0 0 0-2.75 1.71zm6.4 4.32l-.12-1.12-3.54.37c-1.64.17-2.69 1-2.52 2.58.14 1.4 1.14 2.19 3.1 2a3.31 3.31 0 0 0 3.05-3.83zm27.44-6.12l.77 7.18a.81.81 0 1 1-1.61.17l-.73-6.83c-.22-2.12-1.08-3.5-3.51-3.24-2.16.23-3 1.57-2.8 3.56l.76 7.18a.84.84 0 0 1-.71 1 .85.85 0 0 1-.9-.78l-.72-6.83c-.23-2.12-1-3.51-3.47-3.25s-2.93 1.83-2.69 4.09l.71 6.65a.81.81 0 1 1-1.61.17l-1.16-10.92a.81.81 0 1 1 1.61-.17l.09.86a3.49 3.49 0 0 1 3.07-2.23 4.33 4.33 0 0 1 4.19 1.46 3.93 3.93 0 0 1 3.46-2.27c3.87-.46 5.01 1.92 5.25 4.2zm4.1-2.22c-.22.32-.38.42-.61.44a.76.76 0 0 1-.81-.7.8.8 0 0 1 .08-.47 4.58 4.58 0 0 1 3.94-2.57c2.91-.31 4.71 1.35 5 4.09l.79 7.4a.79.79 0 1 1-1.56.16l-.1-1a3.94 3.94 0 0 1-3.39 2.31c-2.66.28-4.49-.91-4.75-3.38s1.28-4 4-4.26l3.54-.38-.07-.72a2.77 2.77 0 0 0-3.28-2.65 3.42 3.42 0 0 0-2.78 1.73zm6.4 4.32l-.12-1.13-3.54.38c-1.63.17-2.68 1-2.52 2.57.15 1.4 1.15 2.19 3.11 2a3.3 3.3 0 0 0 3.07-3.82zm4.1-10.93a.86.86 0 0 1 .71-.95.84.84 0 0 1 .89.78l.3 2.82 1.63-.17a.81.81 0 0 1 .18 1.61l-1.64.18.79 7.42c.12 1.15.79 1.71 1.64 1.62a.81.81 0 0 1 .18 1.61c-2 .21-3.22-1.1-3.43-3.06l-.78-7.42-1 .1a.78.78 0 0 1-.84-.73.76.76 0 0 1 .67-.88l1-.11zm11.05 1.3c4-.42 5.16 2.91 5.35 4.74.09.78.18 1.72-.82 1.82l-7.33.78c.28 2.66 1.89 4.23 4.25 4a4.43 4.43 0 0 0 2.89-1.47.66.66 0 0 1 .44-.21.76.76 0 0 1 .81.7.85.85 0 0 1-.21.65 5.44 5.44 0 0 1-3.76 1.92c-3.34.35-5.63-1.39-6.11-5.91-.44-4.16 1.23-6.67 4.49-7.02zm.16 1.56c-2.18.23-3.23 1.87-3.12 4.28l6.75-.72c-.2-1.94-1.04-3.83-3.63-3.56zm8.96-.3a3.63 3.63 0 0 1 3.26-2.52.84.84 0 0 1 .18 1.67c-2.31.25-3.31 2.09-3.05 4.57l.64 6a.81.81 0 1 1-1.61.17l-1.15-10.92a.81.81 0 1 1 1.6-.17zM430 321c-.08-.78.24-1.12.84-1.18s1 .2 1.07 1a1 1 0 1 1-1.91.2zm3.38 15.14a.83.83 0 0 1-.71 1 .84.84 0 0 1-.9-.78l-1.15-10.92a.81.81 0 1 1 1.6-.17zm3.62-9.49c-.22.33-.39.43-.62.45a.76.76 0 0 1-.81-.7.88.88 0 0 1 .08-.47 4.59 4.59 0 0 1 3.94-2.57 4.22 4.22 0 0 1 5 4.09l.78 7.4a.8.8 0 0 1-.69.91.81.81 0 0 1-.87-.75l-.1-1a3.94 3.94 0 0 1-3.38 2.31c-2.67.28-4.49-.91-4.76-3.38s1.28-4 4-4.26l3.54-.38-.08-.72a2.76 2.76 0 0 0-3.28-2.65 3.41 3.41 0 0 0-2.75 1.72zm6.4 4.33l-.12-1.13-3.54.38c-1.64.17-2.69 1-2.52 2.57.14 1.4 1.14 2.19 3.1 2a3.32 3.32 0 0 0 3.05-3.8zm4.69-14.29l1.63 15.36c.12 1.07.49 1.49 1.17 1.42a.79.79 0 0 1 .84.73.8.8 0 0 1-.67.89c-1.68.17-2.73-.8-2.95-2.87l-1.62-15.36a.85.85 0 0 1 .71-.94.83.83 0 0 1 .89.77zm14.91 4.19c4-.43 5.16 2.9 5.35 4.73.09.78.19 1.72-.82 1.83l-7.33.78c.28 2.66 1.89 4.23 4.25 4a4.49 4.49 0 0 0 2.9-1.48.73.73 0 0 1 .43-.21.77.77 0 0 1 .81.71.83.83 0 0 1-.21.64 5.4 5.4 0 0 1-3.76 1.93c-3.34.35-5.63-1.39-6.11-5.91-.46-4.16 1.21-6.68 4.49-7.02zm.17 1.56c-2.19.23-3.23 1.86-3.13 4.27l6.75-.71c-.22-1.94-1.06-3.84-3.64-3.56zm11.44 4.98l-2.61 5.09a.77.77 0 0 1-.62.42.82.82 0 0 1-.89-.77.86.86 0 0 1 .1-.53l2.9-5.45-3.85-4.46a.93.93 0 0 1-.21-.49.84.84 0 0 1 .71-1 .77.77 0 0 1 .69.28l3.52 4.15 2.56-4.79a.8.8 0 0 1 .62-.42.82.82 0 0 1 .89.78.89.89 0 0 1-.09.52l-2.85 5.25 4 4.72a.9.9 0 0 1 .2.49.83.83 0 0 1-.71.95.77.77 0 0 1-.69-.28zm10.39-8.88a4.63 4.63 0 0 1 4.06 1.45.8.8 0 0 1 .23.49.75.75 0 0 1-.64.86.78.78 0 0 1-.64-.26 3.16 3.16 0 0 0-2.85-1c-2.31.25-3.37 2-3 5.27s1.75 4.79 4.07 4.55a4.48 4.48 0 0 0 2.79-1.47.74.74 0 0 1 .45-.24.77.77 0 0 1 .81.71.85.85 0 0 1-.25.7 5.52 5.52 0 0 1-3.64 1.86c-3.24.34-5.39-1.53-5.86-5.94s1.25-6.64 4.47-6.98zm7.42-6.54l1.63 15.36c.11 1.07.49 1.5 1.17 1.42a.78.78 0 0 1 .83.73.79.79 0 0 1-.66.89c-1.69.18-2.73-.8-2.95-2.87l-1.63-15.36a.87.87 0 0 1 .72-.94.83.83 0 0 1 .89.77zm5.96 6.16l.74 7c.19 1.75.88 3.2 3.41 2.93s2.91-1.83 2.72-3.58l-.74-7a.85.85 0 0 1 .73-.95.82.82 0 0 1 .87.78l.75 7c.27 2.55-.26 5-4.15 5.39s-4.92-1.85-5.19-4.4l-.75-7a.83.83 0 0 1 .72-.95.85.85 0 0 1 .89.78zm12.31.98c.3 2.82 6.8 1.07 7.25 5.38.26 2.44-1.51 3.75-3.89 4a5.55 5.55 0 0 1-4.5-1.48.85.85 0 0 1-.23-.5.75.75 0 0 1 .64-.85.73.73 0 0 1 .59.21 4.12 4.12 0 0 0 3.33 1c1.43-.15 2.6-.8 2.45-2.19-.29-2.77-6.78-1-7.24-5.38-.24-2.23 1.36-3.44 3.49-3.66a4.47 4.47 0 0 1 4 1.31.81.81 0 0 1 .23.5.75.75 0 0 1-.64.85.69.69 0 0 1-.56-.18 3.44 3.44 0 0 0-2.85-.84c-1.13.1-2.2.59-2.07 1.83zm8.43-7.64c-.08-.78.24-1.11.84-1.18s1 .2 1.07 1a.9.9 0 0 1-.84 1.12.92.92 0 0 1-1.07-.94zm3.39 15.14a.84.84 0 0 1-.72.95.82.82 0 0 1-.89-.78l-1.16-10.92a.81.81 0 1 1 1.61-.17zm6.41-.35l-5.42-10.41a.93.93 0 0 1-.12-.37.83.83 0 0 1 .71-.95.8.8 0 0 1 .82.49l4.52 8.9 2.57-9.65a.78.78 0 0 1 .69-.65.84.84 0 0 1 .9.78.92.92 0 0 1 0 .38l-3.12 11.32a.83.83 0 0 1-.69.62.82.82 0 0 1-.86-.46zm17.08-7.68c.47 4.41-1.32 6.69-4.58 7s-5.5-1.51-6-5.92 1.35-6.68 4.59-7 5.5 1.51 5.99 5.92zm-1.63.17c-.36-3.39-1.85-4.75-4.16-4.51s-3.48 1.89-3.12 5.28 1.85 4.78 4.16 4.54 3.46-1.87 3.09-5.31zm-212.49 60.64l-.82-7.72-5.95-8a.94.94 0 0 1-.17-.47.87.87 0 0 1 .75-1 .86.86 0 0 1 .78.35l5.25 7.17 3.64-8.11a.82.82 0 0 1 .68-.51.9.9 0 0 1 .95.83.88.88 0 0 1-.08.49l-4.14 9 .82 7.71a.89.89 0 0 1-.76 1 .88.88 0 0 1-.95-.74zm31.48-10.55l.76 7.18a.81.81 0 1 1-1.61.17l-.72-6.83c-.23-2.12-1.09-3.5-3.52-3.24-2.16.23-3 1.57-2.8 3.56l.76 7.18a.81.81 0 1 1-1.6.17l-.73-6.83c-.22-2.13-1-3.51-3.47-3.25s-2.92 1.83-2.69 4.09l.71 6.64a.81.81 0 1 1-1.61.17L345.68 367a.81.81 0 1 1 1.61-.17l.09.86a3.5 3.5 0 0 1 3.07-2.23c2.06-.22 3.47.44 4.19 1.46a4 4 0 0 1 3.47-2.28c3.89-.43 5 1.95 5.25 4.23zm3.84-4.18l.74 7c.19 1.75.87 3.2 3.41 2.93s2.9-1.83 2.72-3.58l-.75-7a.85.85 0 0 1 .74-1 .82.82 0 0 1 .87.78l.74 7c.28 2.56-.26 5-4.15 5.39s-4.92-1.84-5.19-4.4l-.74-7a.83.83 0 0 1 .71-.95.86.86 0 0 1 .9.83zm15.05-2.63a4.63 4.63 0 0 1 4.06 1.44.85.85 0 0 1 .23.49.74.74 0 0 1-.64.86.73.73 0 0 1-.64-.26 3.16 3.16 0 0 0-2.84-1c-2.32.24-3.38 2-3 5.27s1.76 4.79 4.07 4.54a4.47 4.47 0 0 0 2.79-1.46.7.7 0 0 1 .45-.24.76.76 0 0 1 .81.7.87.87 0 0 1-.25.71 5.52 5.52 0 0 1-3.64 1.85c-3.24.34-5.39-1.52-5.86-5.93s1.21-6.63 4.46-6.97zm16.47 3.06l.76 7.18a.81.81 0 1 1-1.61.17l-.72-6.83c-.22-2.12-1-3.51-3.39-3.25s-3.17 2-2.94 4.12l.7 6.64a.82.82 0 0 1-.71.94.84.84 0 0 1-.9-.77L388 355.68a.84.84 0 0 1 .72-.95.82.82 0 0 1 .89.78l.81 7.58a3.62 3.62 0 0 1 3.14-2.24c3.9-.41 4.92 1.99 5.16 4.27zm12.98.34c.47 4.41-1.32 6.69-4.58 7s-5.5-1.51-6-5.92 1.36-6.67 4.59-7 5.52 1.51 5.99 5.92zm-1.63.17c-.36-3.38-1.85-4.75-4.16-4.5s-3.48 1.89-3.12 5.28 1.85 4.78 4.16 4.53 3.48-1.86 3.12-5.31zm27.21-4.63l.76 7.18a.81.81 0 1 1-1.61.17l-.72-6.83c-.23-2.13-1.08-3.51-3.52-3.25-2.16.23-3 1.57-2.8 3.56l.76 7.18a.81.81 0 1 1-1.6.17l-.73-6.83c-.22-2.12-1-3.51-3.46-3.25s-2.93 1.84-2.69 4.1l.7 6.64a.82.82 0 0 1-.71.94.83.83 0 0 1-.9-.77l-1.15-10.92a.81.81 0 1 1 1.6-.17l.09.86a3.51 3.51 0 0 1 3.07-2.23c2.06-.22 3.47.45 4.19 1.46a4 4 0 0 1 3.47-2.27c3.86-.37 4.97 2.01 5.25 4.26zm4.1-2.19c-.22.32-.39.42-.62.44a.76.76 0 0 1-.81-.7.88.88 0 0 1 .08-.47 4.61 4.61 0 0 1 3.94-2.57c2.92-.31 4.72 1.35 5 4.1l.78 7.39a.82.82 0 0 1-.69.92.83.83 0 0 1-.87-.75l-.1-1a3.93 3.93 0 0 1-3.38 2.32c-2.67.28-4.49-.92-4.76-3.39s1.28-4 4-4.26l3.54-.37-.08-.73a2.75 2.75 0 0 0-3.28-2.64 3.36 3.36 0 0 0-2.75 1.71zm6.4 4.32l-.12-1.13-3.54.38c-1.64.17-2.69 1-2.52 2.58.14 1.4 1.14 2.19 3.1 2a3.32 3.32 0 0 0 3.08-3.83zm-5.5-9.67l1.93-3.14c.17-.29.51-.43 1-.1a.66.66 0 0 1 .19 1l-2.16 2.9a.47.47 0 0 1-.75.13.55.55 0 0 1-.21-.79zm10.9 4.4c.3 2.82 6.79 1.07 7.25 5.37.26 2.45-1.51 3.75-3.89 4a5.53 5.53 0 0 1-4.5-1.49.8.8 0 0 1-.23-.49.75.75 0 0 1 .64-.85.71.71 0 0 1 .58.21 4.17 4.17 0 0 0 3.33 1c1.43-.16 2.61-.8 2.46-2.2-.29-2.77-6.78-1-7.25-5.37-.23-2.24 1.36-3.44 3.5-3.66a4.46 4.46 0 0 1 4 1.31.86.86 0 0 1 .23.49.77.77 0 0 1-.65.86.68.68 0 0 1-.55-.19 3.52 3.52 0 0 0-2.86-.84c-1.13.11-2.19.61-2.06 1.85zm8.88 7.4c-.09-.88.32-1.34 1-1.41s1.23.28 1.32 1.16a1.09 1.09 0 0 1-1 1.39c-.73.08-1.22-.25-1.32-1.14zm6.81-.72c-.1-.89.31-1.34 1-1.41s1.22.27 1.32 1.16-.32 1.31-1.05 1.39-1.14-.25-1.27-1.14zm6.83-.72c-.1-.89.31-1.34 1-1.42s1.22.28 1.32 1.17-.32 1.31-1.05 1.39-1.18-.25-1.27-1.14z"/></g></g></svg>