<svg xmlns="http://www.w3.org/2000/svg" width="775.76" height="569.78" viewBox="0 0 775.76 569.78"><title>Promo landing</title><g data-name="Pag 1"><g data-name="Texto prom"><path d="M198.13 74.48c-37.54 13.79-70.28 38.1-97.13 69.44-27.38 32-50.52 72.25-60.15 116.12-9.31 42.36-1.72 89.82 29.38 122 28.25 29.22 69.48 37.88 105.23 43.82 91.93 15.29 183.19-1.08 266-38.79 70.2-32 140.3-81.35 163.36-166.63 12.72-47-28-85.75-61.52-108.45s-72.13-33.13-110.04-37.91c-88.49-11.16-178.67 3.6-255.28 48-36 20.87-71.76 49-97.27 84.19C59 236.17 48.06 274.45 58 314.17c10.49 42.08 43.75 72.36 78.69 89 39.53 18.84 83 25.46 124.57 23.51 42-2 82.71-13.41 121.4-29C421 382.28 458.41 363 492.09 338c34-25.3 64-58 84.9-97.39 9.42-17.77 13.45-37.48 9.23-58.7-4.47-22.45-18.81-42.49-34.14-57.78-32.65-32.55-76.51-47.93-117.53-58.19A379.83 379.83 0 0 0 304 56.29C218.41 65 139.74 105.84 78.8 169.22c-12.74 13.26-25.5 27.88-31.66 46.63-6.46 19.69-5.32 40.66.55 61.25 12.17 42.74 42.9 74.59 79.92 90.59 19.42 8.38 40.15 12.55 60.38 16.09a429 429 0 0 0 62.42 6.22 401.84 401.84 0 0 0 121.81-15.69c94.21-27.09 175.5-90.22 234.61-173.42 2.41-3.39-2.26-8.41-4.69-5-52.59 74-122.16 131.41-203.63 162.24a396.3 396.3 0 0 1-251 9.21c-43-12.78-78.75-44-93.48-92.05-7.15-23.33-6.12-47.18 4.22-67.74C68 188.26 84.62 173.06 99.49 159c66.13-62.46 151.79-96.74 241.22-97.4 44.9-.34 90.44 8.05 134 23.76 42.07 15.17 90.95 44.71 104.78 95.42 6.86 25.18-2.81 47.63-14.48 67.3a283.18 283.18 0 0 1-43.52 55.38c-31.05 31.12-68.44 53.7-106.92 72.29-78.3 37.84-166.6 59.69-253.95 29.66-40.22-13.82-79.81-41.17-94.94-87.41-14.23-43.55 2.4-86 27.57-116.68 59.56-72.5 149.58-111.78 238.46-121.36 42.82-4.61 87.52-3.27 130.63 5.86 41.62 8.82 81.3 28.52 113.14 61.66 9.12 9.5 16.93 20.66 21.85 33.34 5.21 13.44 4.25 27.17.71 40.25-6.14 22.71-17.53 44-30.36 62.39-23.61 33.86-56.06 58.32-90.28 77.7-79.56 45.05-170.79 69.13-262.92 62.76a417.11 417.11 0 0 1-69.66-11.07c-17.72-4.3-35.12-10.1-51.31-20C53.2 368 37.71 319.5 44.05 272.63c6.2-45.81 30.36-87.65 57-121 26.37-33.13 60.05-58.8 98.3-73 2.25-.84 1.1-4.91-1.17-4.08z" fill="#2c3752"/><path d="M102 208.21a3.51 3.51 0 0 1 2.73.86 3.9 3.9 0 0 1 .57 5.4 3.51 3.51 0 0 1-2.48 1.41l-1.61.17a2.84 2.84 0 0 1-.25 1 4.24 4.24 0 0 1 .07 1.51 4.07 4.07 0 0 1-.47 1.48 4.23 4.23 0 0 1-.91 3.15 4.34 4.34 0 0 1-3.1 1.52l-.94.1a6.56 6.56 0 0 1-2.18-.14 15.19 15.19 0 0 1-1.77-.61l-1-.4a2.29 2.29 0 0 0-.86-.09h-.14a1.36 1.36 0 0 1-.94.47l-2.85.31a1.45 1.45 0 0 1-1-.29 1.25 1.25 0 0 1-.53-.9l-1.12-10.63a1.26 1.26 0 0 1 .32-1 1.42 1.42 0 0 1 1-.5l2.85-.3a1.39 1.39 0 0 1 1 .27h.14a.81.81 0 0 0 .48-.31 10.36 10.36 0 0 0 .74-.94 12.73 12.73 0 0 0 1-1.65c.1-.22.24-.58.43-1.07a8.56 8.56 0 0 1 .88-1.91 2.22 2.22 0 0 1 1.69-1 4.1 4.1 0 0 1 3.1.76 3.73 3.73 0 0 1 1.41 2.64 6.39 6.39 0 0 1 0 1.07zm-14 13a1.11 1.11 0 0 0-.39-.75 1 1 0 0 0-.79-.24 1.05 1.05 0 0 0-.73.4 1.13 1.13 0 0 0-.23.82 1.12 1.12 0 0 0 .4.75 1 1 0 0 0 1.51-.16 1 1 0 0 0 .28-.85zm14.57-7.52a1.45 1.45 0 0 0 1-.6 1.61 1.61 0 0 0 .35-1.18 1.59 1.59 0 0 0-.59-1.08 1.45 1.45 0 0 0-1.14-.37l-7.09.75a2.33 2.33 0 0 1 .34-1.11 6.56 6.56 0 0 0 .38-1 3.1 3.1 0 0 0 .14-1.28 1.44 1.44 0 0 0-.71-1.18 2.39 2.39 0 0 0-1.42-.23c-.12 0-.26.17-.4.47s-.21.48-.4 1a13.19 13.19 0 0 1-.49 1.31 12.86 12.86 0 0 1-1.18 2 11.37 11.37 0 0 1-1 1.32 3.09 3.09 0 0 1-1.41.81l.86 8.13a4.45 4.45 0 0 1 1.33.18c.28.1.69.26 1.22.48s1.14.41 1.45.5a4.67 4.67 0 0 0 1.55.12l.93-.1a2.31 2.31 0 0 0 1.84-1 2.56 2.56 0 0 0 .14-2.11 1.72 1.72 0 0 0 .62-1.17 1.83 1.83 0 0 0-.31-1.39 2 2 0 0 0 .5-1.5 2.14 2.14 0 0 0-.57-1.34z" fill="#fff"/><path d="M119.48 220.22a.79.79 0 0 1-.69.89.8.8 0 0 1-.86-.72l-1.54-14.51a.8.8 0 0 1 .69-.89l4.55-.48c2.44-.26 4.51 1 4.85 4.15s-1.38 4.84-3.87 5.1l-3.77.4zm-.79-7.52l3.53-.38a3.18 3.18 0 0 0-.67-6.32l-3.53.38zm11.19-1.5a.75.75 0 0 1-.56.39.67.67 0 0 1-.74-.61.81.81 0 0 1 .08-.42 4.22 4.22 0 0 1 3.59-2.27 3.77 3.77 0 0 1 4.53 3.59l.69 6.51a.72.72 0 0 1-.63.8.71.71 0 0 1-.78-.65l-.1-.86a3.57 3.57 0 0 1-3.08 2c-2.42.26-4.07-.78-4.3-3s1.17-3.5 3.64-3.76l3.21-.34-.06-.64a2.48 2.48 0 0 0-3-2.32 3.14 3.14 0 0 0-2.49 1.58zm5.8 3.79l-.11-1-3.21.34c-1.49.16-2.45.91-2.3 2.28s1 1.92 2.81 1.74a3 3 0 0 0 2.81-3.35zm5.07-5.64a3.33 3.33 0 0 1 3-2.23.74.74 0 0 1 .15 1.47c-2.1.22-3 1.85-2.78 4l.56 5.3a.73.73 0 1 1-1.46.15l-1-9.6a.73.73 0 1 1 1.46-.16zm6.19-4.79a.73.73 0 1 1 1.46-.16l.26 2.49 1.48-.16a.69.69 0 0 1 .76.64.68.68 0 0 1-.61.78l-1.48.16.69 6.53c.11 1 .72 1.5 1.49 1.42a.71.71 0 0 1 .15 1.42A2.71 2.71 0 0 1 148 215l-.69-6.53-.89.1a.71.71 0 0 1-.15-1.42l.89-.1zm5.54-1.43c-.07-.68.22-1 .77-1s.89.17 1 .86a.88.88 0 1 1-1.74.18zm3 13.32a.73.73 0 1 1-1.46.15l-1-9.6a.73.73 0 1 1 1.46-.16zm5.9-11.25a4.3 4.3 0 0 1 3.69 1.26.71.71 0 0 1 .2.44.67.67 0 0 1-1.16.53 2.91 2.91 0 0 0-2.59-.85c-2.1.22-3.07 1.73-2.76 4.64s1.58 4.21 3.68 4a4.14 4.14 0 0 0 2.54-1.29.67.67 0 0 1 .42-.22.68.68 0 0 1 .73.62.77.77 0 0 1-.23.62 5.13 5.13 0 0 1-3.32 1.64c-2.94.32-4.89-1.32-5.3-5.2s1.15-5.87 4.1-6.19zm5.62-3.6c-.08-.69.22-1 .76-1s.9.17 1 .86a.87.87 0 1 1-1.73.18zm3 13.32a.73.73 0 0 1-.65.83.74.74 0 0 1-.81-.68l-1-9.6a.73.73 0 0 1 .65-.84.74.74 0 0 1 .81.68zm3.38-10.08l.08.76a3.57 3.57 0 0 1 2.93-2c3-.31 5 1.3 5.37 5.18s-1.2 5.89-4.16 6.2a3.61 3.61 0 0 1-3.28-1.32l.56 5.34a.76.76 0 0 1-.65.84.78.78 0 0 1-.81-.68l-1.5-14.16a.73.73 0 1 1 1.46-.16zm4.07 8.78c2.1-.22 3.14-1.72 2.83-4.68s-1.69-4.17-3.79-3.95c-1.69.18-3 1.56-2.65 4.64s1.83 4.18 3.61 3.99zm10-11.18c3.66-.39 4.68 2.54 4.85 4.15.08.69.16 1.52-.75 1.61l-6.66.71c.24 2.34 1.71 3.72 3.85 3.49a4.13 4.13 0 0 0 2.63-1.31.62.62 0 0 1 .4-.18.68.68 0 0 1 .73.61.71.71 0 0 1-.19.57 5 5 0 0 1-3.42 1.71c-3 .32-5.11-1.21-5.54-5.18-.35-3.62 1.14-5.87 4.1-6.18zm.15 1.37c-2 .21-2.94 1.65-2.86 3.77l6.14-.65c-.18-1.7-.88-3.37-3.28-3.12zm15.91-3.07c3.66-.39 4.68 2.54 4.85 4.15.08.69.16 1.51-.75 1.61l-6.66.71c.24 2.34 1.71 3.72 3.85 3.49a4.15 4.15 0 0 0 2.63-1.31.6.6 0 0 1 .4-.18.67.67 0 0 1 .73.61.71.71 0 0 1-.19.57 5 5 0 0 1-3.42 1.7c-3 .33-5.11-1.2-5.54-5.18-.41-3.64 1.14-5.86 4.1-6.17zm.15 1.37c-2 .21-2.94 1.65-2.85 3.77l6.13-.65c-.18-1.7-.94-3.37-3.28-3.12zm15.61 1.19l.67 6.32a.73.73 0 1 1-1.46.16l-.64-6c-.2-1.86-.86-3.09-3.07-2.85s-2.89 1.74-2.69 3.63l.62 5.85a.73.73 0 0 1-.65.83.74.74 0 0 1-.81-.68l-1-9.6a.75.75 0 0 1 .65-.84.74.74 0 0 1 .81.68l.09.76a3.29 3.29 0 0 1 2.86-2c3.49-.37 4.4 1.73 4.62 3.74zm11.73-5.48c3.66-.38 4.68 2.55 4.85 4.16.08.68.16 1.51-.75 1.61l-6.66.7c.24 2.35 1.71 3.72 3.85 3.49a4.17 4.17 0 0 0 2.63-1.3.63.63 0 0 1 .4-.19.68.68 0 0 1 .73.62.72.72 0 0 1-.19.57 5.06 5.06 0 0 1-3.42 1.7c-3 .32-5.11-1.2-5.54-5.18-.38-3.64 1.1-5.86 4.1-6.18zm.15 1.38c-2 .21-2.94 1.65-2.86 3.77l6.14-.65c-.18-1.71-.93-3.32-3.28-3.12zm7.4-7.2l1.45 13.46c.1.95.44 1.32 1.06 1.25a.71.71 0 0 1 .75.64.69.69 0 0 1-.6.78c-1.53.17-2.48-.69-2.67-2.51l-1.43-13.51a.73.73 0 1 1 1.46-.16zm11.01 6.78c.26 2.48 6.17.92 6.57 4.71.23 2.15-1.38 3.3-3.55 3.53a5.06 5.06 0 0 1-4.08-1.29.7.7 0 0 1-.21-.43.68.68 0 0 1 .59-.76.75.75 0 0 1 .53.19 3.85 3.85 0 0 0 3 .85c1.3-.14 2.37-.71 2.24-1.94-.26-2.43-6.16-.83-6.57-4.71-.21-2 1.25-3 3.19-3.23a4.1 4.1 0 0 1 3.63 1.15.7.7 0 0 1-.39 1.18.61.61 0 0 1-.5-.16 3.17 3.17 0 0 0-2.59-.73c-1.01.11-1.98.55-1.86 1.64zm17.66.95c.41 3.88-1.22 5.89-4.19 6.21s-5-1.32-5.4-5.2 1.25-5.87 4.19-6.18 4.99 1.29 5.4 5.17zm-1.48.15c-.32-3-1.67-4.17-3.77-3.95s-3.17 1.68-2.85 4.66 1.67 4.2 3.77 4 3.17-1.68 2.85-4.71zm4.82-4.29a3.32 3.32 0 0 1 3-2.23.74.74 0 0 1 .16 1.47c-2.1.22-3 1.85-2.78 4l.56 5.3a.74.74 0 0 1-.65.83.73.73 0 0 1-.81-.68l-1-9.6a.73.73 0 1 1 1.46-.16zm6.18-4.79a.78.78 0 0 1 .65-.84.76.76 0 0 1 .81.68l.27 2.49L280 193a.71.71 0 0 1 .15 1.42l-1.48.16.69 6.53c.11 1 .71 1.5 1.49 1.42a.71.71 0 0 1 .15 1.42 2.71 2.71 0 0 1-3.1-2.69l-.69-6.53-.89.1a.69.69 0 0 1-.76-.64.68.68 0 0 1 .61-.78l.89-.1zm10.04 1.11c3.65-.39 4.68 2.54 4.85 4.15.07.69.16 1.52-.75 1.61l-6.67.71c.25 2.34 1.71 3.72 3.86 3.49a4.13 4.13 0 0 0 2.63-1.31.67.67 0 0 1 1.13.43.73.73 0 0 1-.19.58 5.06 5.06 0 0 1-3.42 1.7c-3 .32-5.12-1.21-5.54-5.18-.38-3.65 1.14-5.86 4.1-6.18zm.15 1.37c-2 .21-2.94 1.66-2.86 3.77l6.14-.65c-.21-1.7-.93-3.4-3.28-3.12zM302.9 196c.41 3.88-1.22 5.89-4.19 6.21s-5-1.32-5.4-5.2 1.25-5.87 4.19-6.19 4.99 1.25 5.4 5.18zm-1.48.15c-.32-3-1.67-4.18-3.77-3.95s-3.17 1.67-2.85 4.65 1.67 4.21 3.76 4 3.18-1.72 2.86-4.75zm15.75-5.9l-.69-6.56a.73.73 0 1 1 1.46-.15l1.24 11.73c.33 3.13-1.37 4.86-4 5.14-2.94.31-4.87-1.33-5.28-5.21s1-5.85 4-6.16a3.79 3.79 0 0 1 3.27 1.21zm.21 1.91a3.5 3.5 0 0 0-3.24-1.76c-2.07.22-3.07 1.74-2.76 4.65s1.58 4.21 3.68 4c1.76-.18 2.9-1.36 2.66-3.6zm8.07-4.35c3.65-.38 4.68 2.55 4.85 4.15.07.69.16 1.52-.75 1.61l-6.67.71c.25 2.34 1.71 3.72 3.86 3.49a4.17 4.17 0 0 0 2.63-1.3.61.61 0 0 1 .39-.19.68.68 0 0 1 .74.62.69.69 0 0 1-.2.57 5 5 0 0 1-3.42 1.7c-3 .32-5.11-1.2-5.53-5.18-.35-3.64 1.13-5.86 4.1-6.18zm.14 1.38c-2 .21-2.94 1.65-2.85 3.77l6.14-.65c-.18-1.71-.88-3.37-3.29-3.12zm13.23-1.89l.66 6.18c.16 1.54.78 2.81 3.08 2.57s2.65-1.62 2.48-3.16l-.65-6.18a.75.75 0 0 1 .67-.83.73.73 0 0 1 .79.68l.66 6.17c.23 2.25-.26 4.39-3.79 4.76s-4.47-1.61-4.71-3.86l-.65-6.17a.73.73 0 1 1 1.46-.16zm18.81 1.34l.67 6.31a.75.75 0 0 1-.65.84.74.74 0 0 1-.81-.68l-.64-6c-.2-1.87-.86-3.09-3.07-2.86s-2.89 1.74-2.69 3.64l.62 5.84a.73.73 0 1 1-1.46.16l-1-9.61a.74.74 0 1 1 1.47-.16l.08.76a3.31 3.31 0 0 1 2.86-2c3.49-.36 4.41 1.75 4.62 3.76zm11.79.25c.41 3.88-1.22 5.9-4.19 6.21s-5-1.31-5.39-5.19 1.24-5.87 4.19-6.19 4.97 1.28 5.39 5.17zm-1.48.16c-.32-3-1.67-4.18-3.77-4s-3.17 1.67-2.85 4.65 1.67 4.2 3.77 4 3.17-1.62 2.85-4.65zm15.76-5.86l-.7-6.55a.73.73 0 1 1 1.46-.16l1.25 11.74c.33 3.12-1.38 4.86-4 5.14-3 .31-4.88-1.33-5.29-5.21s1-5.85 4-6.17a3.88 3.88 0 0 1 3.28 1.21zm.2 1.92a3.49 3.49 0 0 0-3.23-1.76c-2.08.22-3.07 1.73-2.77 4.64s1.58 4.22 3.68 4c1.76-.18 2.9-1.36 2.67-3.6zm8.1-4.35c3.65-.39 4.68 2.54 4.85 4.15.07.69.16 1.52-.75 1.61l-6.67.71c.25 2.34 1.71 3.72 3.86 3.49a4.13 4.13 0 0 0 2.63-1.31.67.67 0 0 1 1.13.43.7.7 0 0 1-.19.57 5 5 0 0 1-3.42 1.71c-3 .32-5.12-1.21-5.54-5.18-.41-3.65 1.1-5.86 4.1-6.18zm.15 1.37c-2 .21-2.94 1.66-2.86 3.77l6.14-.65c-.21-1.7-.96-3.37-3.31-3.12zm21 .62l.67 6.32a.73.73 0 0 1-.65.83.73.73 0 0 1-.81-.68l-.63-6c-.2-1.87-.86-3.09-3.08-2.85s-2.88 1.73-2.65 3.63l.62 5.85a.73.73 0 1 1-1.46.15l-1-9.61a.73.73 0 1 1 1.46-.15l.08.76a3.32 3.32 0 0 1 2.86-2c3.44-.36 4.38 1.74 4.59 3.75zm3.51-3.7l.65 6.18c.17 1.54.79 2.81 3.09 2.57s2.65-1.62 2.48-3.16l-.65-6.18a.75.75 0 0 1 .67-.83.73.73 0 0 1 .79.68l.65 6.17c.24 2.25-.25 4.38-3.79 4.76s-4.46-1.61-4.7-3.86l-.65-6.17a.74.74 0 0 1 .65-.84.76.76 0 0 1 .81.68zm13.68-2.36c3.66-.38 4.68 2.55 4.85 4.15.08.69.16 1.52-.75 1.62l-6.66.7c.24 2.35 1.71 3.72 3.85 3.49a4.15 4.15 0 0 0 2.63-1.3.66.66 0 0 1 .4-.19.68.68 0 0 1 .73.62.72.72 0 0 1-.19.57 5.06 5.06 0 0 1-3.42 1.7c-3 .32-5.11-1.2-5.54-5.18-.38-3.64 1.14-5.87 4.1-6.18zm.15 1.38c-2 .21-2.94 1.65-2.85 3.77l6.13-.65c-.18-1.71-.93-3.37-3.28-3.12zm7.98.68c.27 2.49 6.17.93 6.57 4.71.23 2.16-1.38 3.31-3.55 3.54a5.1 5.1 0 0 1-4.08-1.29.78.78 0 0 1-.21-.44.68.68 0 0 1 .59-.75.67.67 0 0 1 .53.18 3.79 3.79 0 0 0 3 .85c1.3-.13 2.37-.7 2.24-1.93-.26-2.44-6.16-.83-6.57-4.71-.2-2 1.25-3 3.19-3.24a4.13 4.13 0 0 1 3.63 1.15.73.73 0 0 1 .21.43.68.68 0 0 1-.59.76.64.64 0 0 1-.5-.16 3.18 3.18 0 0 0-2.59-.73c-1.01.1-1.98.54-1.87 1.63zm8.53-6a.77.77 0 0 1 .65-.83.76.76 0 0 1 .81.68l.27 2.48 1.48-.15a.68.68 0 0 1 .76.63.7.7 0 0 1-.61.79l-1.48.15.69 6.53c.11 1 .71 1.51 1.49 1.42a.71.71 0 0 1 .78.64.7.7 0 0 1-.63.78 2.7 2.7 0 0 1-3.1-2.68l-.69-6.53-.89.09a.71.71 0 0 1-.15-1.42l.89-.09zm7.66 3.33a3.3 3.3 0 0 1 3-2.23.73.73 0 0 1 .79.66.74.74 0 0 1-.63.81c-2.1.22-3 1.85-2.78 4l.56 5.3a.73.73 0 1 1-1.46.16l-1-9.61a.74.74 0 0 1 .65-.83.73.73 0 0 1 .81.68zm14.77 2.21c.42 3.88-1.22 5.9-4.18 6.21s-5-1.31-5.4-5.19 1.25-5.88 4.19-6.19 4.96 1.29 5.39 5.17zm-1.48.16c-.31-3-1.67-4.18-3.76-4s-3.17 1.68-2.86 4.66 1.67 4.2 3.77 4 3.17-1.63 2.9-4.66zm4.68-3.32c.26 2.49 6.16.93 6.57 4.71.22 2.16-1.39 3.31-3.55 3.54a5.13 5.13 0 0 1-4.09-1.29.71.71 0 0 1-.2-.44.68.68 0 0 1 .58-.75.67.67 0 0 1 .53.18 3.8 3.8 0 0 0 3 .85c1.3-.13 2.38-.7 2.24-1.93-.25-2.44-6.15-.83-6.56-4.71-.21-2 1.24-3 3.18-3.24a4.12 4.12 0 0 1 3.67 1.15.73.73 0 0 1 .21.43.68.68 0 0 1-.59.76.64.64 0 0 1-.5-.16 3.18 3.18 0 0 0-2.59-.73c-1.05.1-2.02.5-1.9 1.63zm15.1-1.6c.26 2.48 6.17.93 6.57 4.71.23 2.15-1.38 3.31-3.55 3.54a5.16 5.16 0 0 1-4.09-1.29.76.76 0 0 1-.2-.44.67.67 0 0 1 .59-.75.66.66 0 0 1 .52.18 3.81 3.81 0 0 0 3 .85c1.3-.14 2.37-.7 2.24-1.93-.26-2.44-6.16-.83-6.57-4.71-.21-2 1.25-3 3.19-3.24a4.11 4.11 0 0 1 3.62 1.15.73.73 0 0 1 .21.43.68.68 0 0 1-.59.76.64.64 0 0 1-.5-.16 3.22 3.22 0 0 0-2.59-.74c-1 .11-1.97.55-1.85 1.64zm12.17-4.21c3.65-.39 4.68 2.54 4.85 4.15.07.69.16 1.52-.75 1.61l-6.67.71c.25 2.34 1.71 3.72 3.86 3.49a4.13 4.13 0 0 0 2.63-1.31.62.62 0 0 1 .4-.18.68.68 0 0 1 .73.61.71.71 0 0 1-.19.57 5 5 0 0 1-3.42 1.71c-3 .32-5.12-1.21-5.54-5.18-.38-3.65 1.14-5.87 4.1-6.18zm.15 1.37c-2 .21-2.94 1.65-2.86 3.77l6.14-.65c-.18-1.7-.93-3.37-3.28-3.12zm8.13-.29a3.3 3.3 0 0 1 3-2.22.73.73 0 0 1 .16 1.46c-2.1.22-3 1.85-2.78 4l.56 5.3a.73.73 0 1 1-1.46.16l-1-9.61a.73.73 0 1 1 1.46-.16zm10.16 7.88l-4.89-9.15a.78.78 0 0 1-.11-.32.74.74 0 0 1 .66-.81.71.71 0 0 1 .74.43l4.08 7.82 2.35-8.51a.73.73 0 0 1 .64-.57.75.75 0 0 1 .81.68.74.74 0 0 1 0 .34l-2.86 10a.75.75 0 0 1-.64.55.75.75 0 0 1-.78-.46zm5.54-14.52c-.07-.68.22-1 .77-1s.89.16 1 .85a.88.88 0 1 1-1.74.18zm3 13.32a.73.73 0 1 1-1.46.16l-1-9.61a.73.73 0 1 1 1.46-.15zm5.9-11.24a4.22 4.22 0 0 1 3.68 1.26.67.67 0 0 1 .21.43.65.65 0 0 1-.59.75.66.66 0 0 1-.58-.22 2.87 2.87 0 0 0-2.58-.85c-2.1.22-3.07 1.74-2.76 4.65s1.58 4.21 3.68 4a4.17 4.17 0 0 0 2.54-1.29.65.65 0 0 1 .41-.22.69.69 0 0 1 .74.62.74.74 0 0 1-.24.62 5.12 5.12 0 0 1-3.31 1.65c-2.94.31-4.89-1.33-5.3-5.21s1.15-5.88 4.1-6.19zm5.56-3.61c-.07-.68.22-1 .77-1s.9.17 1 .86a.88.88 0 1 1-1.74.18zm3 13.32a.73.73 0 1 1-1.46.15l-1-9.6a.73.73 0 1 1 1.46-.16zm11.39-6.09c.41 3.88-1.23 5.9-4.19 6.21s-5-1.31-5.4-5.19 1.25-5.88 4.19-6.19 4.98 1.29 5.4 5.17zm-1.49.16c-.31-3-1.66-4.18-3.76-4s-3.17 1.67-2.86 4.65 1.67 4.2 3.77 4 3.17-1.62 2.85-4.65zm4.68-3.32c.26 2.49 6.17.93 6.57 4.71.22 2.16-1.38 3.31-3.55 3.54a5.13 5.13 0 0 1-4.09-1.29.71.71 0 0 1-.2-.44.68.68 0 0 1 .59-.75.66.66 0 0 1 .52.18 3.8 3.8 0 0 0 3 .85c1.3-.13 2.38-.7 2.25-1.93-.26-2.44-6.16-.83-6.57-4.71-.21-2 1.24-3 3.18-3.24a4.15 4.15 0 0 1 3.63 1.15.73.73 0 0 1 .21.43.68.68 0 0 1-.59.76.64.64 0 0 1-.5-.16 3.18 3.18 0 0 0-2.59-.73c-1.01.11-1.98.54-1.86 1.63zM263.1 234.53l-.14-1.34A3.81 3.81 0 0 1 260 235c-3 .31-4.91-1.3-5.32-5.18s1.15-5.89 4.12-6.21c2.6-.27 4.73 1.08 5.06 4.21l.7 6.6c.34 3.22-1.64 4.77-4.2 5a4.75 4.75 0 0 1-4-1.23.72.72 0 0 1-.19-.41.73.73 0 0 1 .63-.81.7.7 0 0 1 .58.2 3.42 3.42 0 0 0 2.81.83 2.89 2.89 0 0 0 2.91-3.47zm-.7-6.6a3 3 0 0 0-3.43-3c-2.1.22-3.12 1.72-2.8 4.67s1.62 4.19 3.72 4a3.62 3.62 0 0 0 2.88-2.24zm5.35-3.34a3.29 3.29 0 0 1 3-2.23.74.74 0 0 1 .15 1.47c-2.1.22-3 1.85-2.78 4l.56 5.3a.73.73 0 0 1-.65.83.74.74 0 0 1-.81-.68l-1-9.61a.74.74 0 1 1 1.47-.15zm6.59 0a.73.73 0 0 1-.56.39.68.68 0 0 1-.73-.62.79.79 0 0 1 .07-.41 4.22 4.22 0 0 1 3.59-2.27 3.78 3.78 0 0 1 4.54 3.59l.69 6.5a.71.71 0 1 1-1.42.15l-.09-.85a3.61 3.61 0 0 1-3.08 2.05c-2.42.26-4.08-.79-4.31-3s1.18-3.49 3.64-3.75l3.22-.35-.07-.63a2.47 2.47 0 0 0-3-2.32 3.12 3.12 0 0 0-2.49 1.52zm5.8 3.78l-.1-1-3.22.34c-1.48.16-2.44.91-2.3 2.28s1 1.92 2.82 1.73a3 3 0 0 0 2.8-3.35zm3.76-9.63a.76.76 0 0 1 .65-.83.75.75 0 0 1 .81.68l.26 2.48 1.48-.16a.69.69 0 0 1 .76.64.68.68 0 0 1-.61.78l-1.48.16.69 6.53c.11 1 .72 1.5 1.49 1.42a.71.71 0 1 1 .15 1.42 2.71 2.71 0 0 1-3.1-2.69l-.69-6.53-.89.1a.71.71 0 0 1-.15-1.42l.89-.1zm5.54-1.43c-.07-.68.22-1 .77-1s.9.17 1 .85a.88.88 0 1 1-1.74.18zm3 13.32a.73.73 0 1 1-1.46.16l-1-9.61a.73.73 0 1 1 1.46-.15zm3.4-8.06c.26 2.49 6.17.93 6.57 4.71.23 2.15-1.38 3.31-3.55 3.54a5.16 5.16 0 0 1-4.09-1.29.71.71 0 0 1-.2-.44.67.67 0 0 1 .59-.75.66.66 0 0 1 .52.18 3.81 3.81 0 0 0 3 .85c1.3-.14 2.37-.7 2.24-1.93-.26-2.44-6.16-.83-6.57-4.71-.21-2 1.25-3 3.19-3.24a4.11 4.11 0 0 1 3.62 1.15.73.73 0 0 1 .21.43.68.68 0 0 1-.59.76.64.64 0 0 1-.5-.16 3.22 3.22 0 0 0-2.59-.74c-1 .07-1.97.55-1.85 1.64zM311 219l.08.75a3.57 3.57 0 0 1 2.93-2c3-.32 5 1.29 5.37 5.17s-1.2 5.89-4.16 6.21a3.64 3.64 0 0 1-3.28-1.33l.56 5.35a.73.73 0 1 1-1.46.15l-1.5-14.17A.73.73 0 1 1 311 219zm4.07 8.78c2.1-.23 3.14-1.72 2.83-4.68s-1.69-4.18-3.79-4c-1.69.18-3 1.56-2.65 4.64s1.81 4.18 3.59 4zm15.47-6.06c.41 3.88-1.22 5.89-4.19 6.21s-5-1.32-5.4-5.2 1.25-5.87 4.19-6.19 4.99 1.3 5.4 5.18zm-1.48.15c-.32-3-1.67-4.18-3.77-4s-3.17 1.67-2.85 4.65 1.67 4.21 3.76 4 3.18-1.62 2.86-4.65zm4.82-4.29a3.3 3.3 0 0 1 3-2.23.74.74 0 0 1 .16 1.47c-2.1.22-3 1.85-2.78 4l.56 5.3a.73.73 0 1 1-1.46.15l-1-9.61a.73.73 0 1 1 1.46-.15zm11.23-4.2a.69.69 0 0 1-.42.18.76.76 0 0 1-.81-.68.79.79 0 0 1 .25-.67l3.31-3a.75.75 0 0 1 1.28.49l1.56 14.74a.76.76 0 1 1-1.51.16l-1.41-13.34zm29.17 2.19l.67 6.32a.73.73 0 1 1-1.46.15l-.64-6c-.2-1.86-1-3.08-3.19-2.84a2.56 2.56 0 0 0-2.55 3.14l.67 6.32a.73.73 0 1 1-1.46.15l-.64-6c-.2-1.86-.9-3.08-3.14-2.85s-2.67 1.63-2.45 3.61l.61 5.85a.72.72 0 0 1-.65.83.73.73 0 0 1-.81-.68l-1-9.6a.73.73 0 1 1 1.46-.16l.08.76a3.17 3.17 0 0 1 2.79-2 4 4 0 0 1 3.8 1.27 3.66 3.66 0 0 1 3.16-2c3.47-.37 4.53 1.72 4.75 3.73zm6.3-4.9c3.65-.39 4.68 2.54 4.85 4.15.07.69.16 1.51-.75 1.61l-6.67.71c.25 2.34 1.71 3.72 3.86 3.49a4.13 4.13 0 0 0 2.63-1.31.62.62 0 0 1 .39-.18.67.67 0 0 1 .74.61.71.71 0 0 1-.19.57A5 5 0 0 1 382 222c-3 .33-5.12-1.2-5.54-5.17-.37-3.63 1.15-5.83 4.12-6.16zm.15 1.37c-2 .21-2.94 1.65-2.86 3.77l6.14-.65c-.18-1.7-.93-3.37-3.28-3.16zm7.98.69c.26 2.48 6.17.92 6.57 4.71.23 2.15-1.38 3.3-3.55 3.53a5.06 5.06 0 0 1-4.08-1.29.76.76 0 0 1-.21-.43.68.68 0 0 1 .59-.76.73.73 0 0 1 .53.19 3.85 3.85 0 0 0 3 .85c1.3-.14 2.37-.71 2.24-1.94-.26-2.44-6.16-.83-6.57-4.71-.21-2 1.25-3 3.19-3.23a4.12 4.12 0 0 1 3.63 1.14.79.79 0 0 1 .21.44.68.68 0 0 1-.59.75.66.66 0 0 1-.51-.16 3.17 3.17 0 0 0-2.59-.73c-1.01.11-1.97.55-1.86 1.64zm8.05 6.49a1.08 1.08 0 1 1 2.14-.23 1.08 1.08 0 1 1-2.14.23z" fill="#74b283"/><path d="M104.16 265.39a3.5 3.5 0 0 1 2.73.85 3.94 3.94 0 0 1 .57 5.41 3.5 3.5 0 0 1-2.49 1.4l-1.6.17a3.11 3.11 0 0 1-.25 1.06 4.47 4.47 0 0 1 .07 1.51 4 4 0 0 1-.48 1.47 4.25 4.25 0 0 1-.9 3.16 4.37 4.37 0 0 1-3.11 1.52l-.93.1a7.14 7.14 0 0 1-2.18-.14 18.25 18.25 0 0 1-1.78-.61l-1-.4a2.61 2.61 0 0 0-.87-.1h-.13a1.4 1.4 0 0 1-.94.47l-2.85.3a1.41 1.41 0 0 1-1-.29 1.24 1.24 0 0 1-.52-.9l-1.13-10.62a1.23 1.23 0 0 1 .33-1 1.42 1.42 0 0 1 1-.5l2.85-.3a1.35 1.35 0 0 1 1 .26h.13a.88.88 0 0 0 .49-.31c.17-.19.42-.51.73-.94a13 13 0 0 0 1-1.65l.43-1.07a8.54 8.54 0 0 1 .87-1.92 2.3 2.3 0 0 1 1.7-1 4.15 4.15 0 0 1 3.1.77 3.65 3.65 0 0 1 1.4 2.63 6.47 6.47 0 0 1 0 1.07zm-14 13a1 1 0 0 0-.4-.75 1.06 1.06 0 0 0-1.51.16 1.09 1.09 0 0 0-.23.82 1.06 1.06 0 0 0 .4.75 1 1 0 0 0 .79.24 1 1 0 0 0 .72-.4 1.09 1.09 0 0 0 .24-.85zm14.57-7.52a1.54 1.54 0 0 0 1-.6 1.65 1.65 0 0 0 .35-1.18 1.63 1.63 0 0 0-.59-1.09 1.51 1.51 0 0 0-1.15-.37l-7.08.75a2.24 2.24 0 0 1 .33-1.11 5.31 5.31 0 0 0 .39-1 2.89 2.89 0 0 0 .13-1.27 1.42 1.42 0 0 0-.71-1.19 2.37 2.37 0 0 0-1.42-.22c-.12 0-.25.17-.4.46s-.2.49-.39 1-.37 1-.49 1.31a13 13 0 0 1-1.19 2 9.89 9.89 0 0 1-1 1.33 3 3 0 0 1-1.4.8l.86 8.13a4.53 4.53 0 0 1 1.33.19c.28.09.69.25 1.22.48s1.14.4 1.45.5a4.87 4.87 0 0 0 1.54.11l.94-.1a2.31 2.31 0 0 0 1.84-.94 2.59 2.59 0 0 0 .13-2.12 1.68 1.68 0 0 0 .62-1.16 1.86 1.86 0 0 0-.3-1.39 2.16 2.16 0 0 0-.08-2.84z" fill="#fff"/><path d="M122.42 261.83c4.36-.46 7.28 1.38 7.9 7.23s-1.85 8.23-6.21 8.69l-3.22.34a.78.78 0 0 1-.86-.72l-1.52-14.31a.79.79 0 0 1 .69-.89zm-.91 14.71l2.44-.25c3.4-.36 5.31-2.15 4.79-7.07s-2.76-6.28-6.17-5.92l-2.44.25zm14.97-11.3c3.66-.38 4.68 2.55 4.85 4.15.08.69.16 1.52-.75 1.62l-6.66.7c.24 2.34 1.71 3.72 3.85 3.49a4.17 4.17 0 0 0 2.63-1.3.63.63 0 0 1 .4-.19.68.68 0 0 1 .73.62.72.72 0 0 1-.19.57 5.06 5.06 0 0 1-3.42 1.7c-3 .32-5.11-1.2-5.54-5.18-.38-3.64 1.14-5.86 4.1-6.18zm.15 1.38c-2 .21-2.94 1.65-2.86 3.77l6.14-.65c-.18-1.74-.91-3.37-3.28-3.12zm7.98.68c.27 2.48 6.17.93 6.57 4.71.23 2.15-1.38 3.31-3.55 3.54a5.14 5.14 0 0 1-4.08-1.29.78.78 0 0 1-.21-.44.68.68 0 0 1 .59-.75.67.67 0 0 1 .53.18 3.79 3.79 0 0 0 3 .85c1.3-.14 2.37-.7 2.24-1.93-.26-2.44-6.16-.83-6.57-4.71-.21-2 1.25-3 3.19-3.24a4.13 4.13 0 0 1 3.63 1.15.73.73 0 0 1 .21.43.69.69 0 0 1-.59.76.63.63 0 0 1-.5-.16 3.23 3.23 0 0 0-2.6-.74c-1 .11-1.97.55-1.86 1.64zm12.18-4.21a4.3 4.3 0 0 1 3.69 1.26.68.68 0 0 1 .2.43.66.66 0 0 1-.59.76.66.66 0 0 1-.57-.23 2.93 2.93 0 0 0-2.59-.85c-2.1.23-3.07 1.74-2.76 4.65s1.58 4.21 3.68 4a4.09 4.09 0 0 0 2.54-1.3.7.7 0 0 1 .42-.21.68.68 0 0 1 .73.62.77.77 0 0 1-.23.62 5.13 5.13 0 0 1-3.32 1.64c-2.94.31-4.89-1.32-5.3-5.2s1.15-5.88 4.1-6.19zm7.37.13l.65 6.17c.17 1.54.79 2.82 3.09 2.57s2.65-1.62 2.48-3.16l-.65-6.17a.76.76 0 0 1 .67-.84.74.74 0 0 1 .79.68l.65 6.18c.24 2.25-.25 4.38-3.79 4.75s-4.46-1.6-4.7-3.85l-.65-6.18a.73.73 0 0 1 .65-.83.75.75 0 0 1 .81.68zm13.68-2.36c3.66-.39 4.68 2.54 4.85 4.15.08.69.16 1.51-.75 1.61l-6.66.71c.24 2.34 1.71 3.72 3.85 3.49a4.11 4.11 0 0 0 2.63-1.31.64.64 0 0 1 .4-.18.67.67 0 0 1 .73.61.71.71 0 0 1-.19.57 5.06 5.06 0 0 1-3.42 1.71c-3 .32-5.11-1.21-5.54-5.18-.38-3.65 1.14-5.87 4.1-6.18zm.15 1.37c-2 .21-2.94 1.65-2.85 3.77l6.13-.65c-.18-1.7-.93-3.35-3.27-3.12zm15.61 1.19l.67 6.32a.73.73 0 1 1-1.46.16l-.64-6c-.2-1.87-.86-3.1-3.07-2.86s-2.89 1.74-2.69 3.63l.62 5.85a.73.73 0 1 1-1.46.15l-1-9.6a.74.74 0 1 1 1.47-.16l.08.76a3.29 3.29 0 0 1 2.86-2c3.49-.36 4.41 1.74 4.62 3.75zm2.63-6.69a.77.77 0 0 1 .65-.83.75.75 0 0 1 .81.68l.26 2.48 1.49-.15a.68.68 0 0 1 .76.63.69.69 0 0 1-.61.78l-1.49.16.7 6.53c.11 1 .71 1.51 1.49 1.42a.71.71 0 0 1 .78.64.7.7 0 0 1-.63.78 2.7 2.7 0 0 1-3.1-2.68l-.7-6.53-.89.09a.71.71 0 0 1-.15-1.42l.89-.09zm15.53 6.27c.41 3.88-1.23 5.89-4.19 6.21s-5-1.32-5.4-5.2 1.25-5.87 4.19-6.18 4.98 1.3 5.4 5.17zm-1.49.15c-.31-3-1.66-4.17-3.76-4s-3.17 1.67-2.86 4.66 1.67 4.2 3.77 4 3.17-1.62 2.85-4.65zm4.73-3.3c.26 2.48 6.17.92 6.57 4.71.23 2.15-1.38 3.3-3.55 3.53a5.09 5.09 0 0 1-4.09-1.29.7.7 0 0 1 .39-1.19.71.71 0 0 1 .52.19 3.88 3.88 0 0 0 3 .85c1.31-.14 2.38-.71 2.25-1.94-.26-2.44-6.16-.83-6.57-4.71-.21-2 1.24-3 3.19-3.23a4.1 4.1 0 0 1 3.62 1.14.73.73 0 0 1 .21.44.68.68 0 0 1-.59.75.64.64 0 0 1-.5-.16 3.18 3.18 0 0 0-2.59-.73c-1.06.11-2.03.55-1.86 1.64zm20.7-3.57l-.69-6.55a.73.73 0 1 1 1.46-.16l1.24 11.74c.34 3.12-1.37 4.86-4 5.13-2.94.31-4.87-1.32-5.28-5.2s1-5.86 4-6.17a3.84 3.84 0 0 1 3.27 1.21zm.21 1.92a3.52 3.52 0 0 0-3.24-1.77c-2.07.23-3.07 1.74-2.76 4.65s1.58 4.21 3.68 4c1.76-.19 2.9-1.36 2.66-3.61zm8.09-4.35c3.65-.39 4.68 2.54 4.85 4.15.07.69.16 1.51-.75 1.61l-6.67.71c.25 2.34 1.71 3.72 3.86 3.49a4.13 4.13 0 0 0 2.63-1.31.6.6 0 0 1 .39-.18.67.67 0 0 1 .74.61.68.68 0 0 1-.2.57 5 5 0 0 1-3.42 1.7c-3 .33-5.11-1.2-5.53-5.17-.41-3.65 1.1-5.87 4.1-6.18zm.15 1.37c-2 .21-2.94 1.65-2.86 3.77l6.14-.65c-.2-1.7-.95-3.34-3.3-3.12zm21.01.62l.67 6.32a.73.73 0 0 1-.65.83.74.74 0 0 1-.81-.68l-.64-6c-.19-1.87-.85-3.09-3.07-2.86s-2.88 1.75-2.68 3.64l.62 5.84a.73.73 0 1 1-1.46.16l-1.65-15.52a.74.74 0 0 1 .65-.84.74.74 0 0 1 .81.68l.71 6.67a3.34 3.34 0 0 1 2.86-2c3.48-.36 4.48 1.75 4.64 3.76zm3.74-1.98c-.21.29-.36.38-.56.4a.68.68 0 0 1-.74-.62.77.77 0 0 1 .07-.41 4.22 4.22 0 0 1 3.59-2.27 3.77 3.77 0 0 1 4.54 3.58l.69 6.51a.73.73 0 0 1-.63.81.74.74 0 0 1-.79-.66l-.09-.85a3.61 3.61 0 0 1-3.08 2c-2.42.25-4.08-.79-4.31-3s1.18-3.5 3.64-3.76l3.22-.34-.07-.64a2.46 2.46 0 0 0-3-2.31 3.09 3.09 0 0 0-2.48 1.56zm5.8 3.79l-.11-1-3.22.34c-1.48.16-2.44.9-2.29 2.27s1 1.93 2.81 1.74a3 3 0 0 0 2.81-3.35zm4.92-4.65c.27 2.48 6.17.93 6.57 4.71.23 2.15-1.38 3.31-3.55 3.54a5.14 5.14 0 0 1-4.08-1.29.78.78 0 0 1-.21-.44.67.67 0 0 1 1.12-.57 3.78 3.78 0 0 0 3 .85c1.3-.14 2.37-.71 2.24-1.94-.26-2.43-6.16-.83-6.57-4.71-.21-2 1.25-3 3.19-3.23a4.13 4.13 0 0 1 3.63 1.15.75.75 0 0 1 .21.43.69.69 0 0 1-.59.76.65.65 0 0 1-.5-.17 3.28 3.28 0 0 0-2.6-.73c-1 .1-1.97.54-1.86 1.64zm8.5-6a.77.77 0 0 1 .65-.83.75.75 0 0 1 .81.68l.27 2.48 1.48-.16a.71.71 0 0 1 .15 1.42l-1.48.16.69 6.53c.11 1 .71 1.51 1.49 1.42a.71.71 0 0 1 .15 1.42 2.7 2.7 0 0 1-3.1-2.68l-.69-6.53-.89.09a.71.71 0 0 1-.15-1.42l.89-.09zm7.47 4a.74.74 0 0 1-.56.4.68.68 0 0 1-.74-.62.77.77 0 0 1 .08-.41 4.2 4.2 0 0 1 3.59-2.27 3.77 3.77 0 0 1 4.53 3.58l.69 6.51a.73.73 0 0 1-.63.81.74.74 0 0 1-.79-.66l-.09-.85a3.61 3.61 0 0 1-3.08 2.05c-2.42.25-4.07-.79-4.31-3s1.18-3.5 3.64-3.76l3.22-.34-.06-.64a2.47 2.47 0 0 0-3-2.31 3.14 3.14 0 0 0-2.49 1.51zm5.8 3.79l-.11-1-3.21.34c-1.49.16-2.45.9-2.3 2.28s1 1.92 2.81 1.73a3 3 0 0 0 2.81-3.32zm12.85-8.39c3.66-.39 4.68 2.54 4.85 4.15.08.69.16 1.52-.75 1.61l-6.66.71c.24 2.34 1.71 3.72 3.85 3.49a4.11 4.11 0 0 0 2.63-1.31.62.62 0 0 1 .4-.18.68.68 0 0 1 .73.61.71.71 0 0 1-.19.57 5 5 0 0 1-3.42 1.71c-3 .32-5.11-1.21-5.54-5.18-.38-3.65 1.14-5.87 4.1-6.18zm.15 1.37c-2 .21-2.94 1.65-2.86 3.77l6.14-.65c-.18-1.7-.93-3.37-3.28-3.12zm7.4-7.24l1.43 13.47c.1.94.44 1.32 1.06 1.25a.71.71 0 0 1 .15 1.42c-1.53.16-2.48-.69-2.67-2.52l-1.43-13.51a.73.73 0 1 1 1.46-.15zm16.62-.11l-7.69.81a.73.73 0 0 1-.16-1.46l8.52-.91a.73.73 0 0 1 .78.66c.57 5.37-5.77 7.58-4.95 15.31a.73.73 0 1 1-1.46.16c-.83-7.83 5.34-10.99 4.96-14.57zm15.24 4.94c.61 5.68-.92 8.49-4.75 8.9s-5.92-2-6.52-7.71.92-8.47 4.76-8.88 5.91 2.01 6.51 7.69zm-1.5.16c-.52-4.9-2-6.73-4.86-6.43s-3.92 2.41-3.4 7.3 2 6.75 4.86 6.45 3.92-2.43 3.4-7.32zm9.91-5.52c.22 2.13-.46 3.95-2.95 4.21s-3.51-1.37-3.74-3.5.46-3.95 2.92-4.21 3.54 1.34 3.77 3.5zm-1.14.12c-.16-1.51-.75-2.72-2.51-2.53s-2.06 1.49-1.9 3 .75 2.72 2.49 2.54 2.07-1.53 1.92-3.02zm5.94-3.78a.62.62 0 0 1 0 .24l-5.83 16a.57.57 0 0 1-1.1-.17.41.41 0 0 1 0-.24l5.83-16a.59.59 0 0 1 .47-.36.58.58 0 0 1 .63.52zm4.58 11.66c.23 2.13-.46 3.94-2.95 4.21s-3.51-1.38-3.74-3.51.46-3.94 2.93-4.2 3.53 1.29 3.76 3.5zm-1.14.12c-.16-1.52-.75-2.72-2.51-2.54s-2.06 1.49-1.9 3 .75 2.72 2.49 2.54 2.08-1.56 1.92-3.05zm12.2-8.96c3.65-.38 4.68 2.55 4.85 4.16.07.68.16 1.51-.75 1.61l-6.67.7c.25 2.35 1.71 3.72 3.86 3.5a4.18 4.18 0 0 0 2.63-1.31.61.61 0 0 1 .39-.19.68.68 0 0 1 .74.62.69.69 0 0 1-.2.57 5 5 0 0 1-3.42 1.7c-3 .32-5.11-1.2-5.53-5.18-.4-3.64 1.13-5.86 4.1-6.18zm.15 1.38c-2 .21-2.94 1.65-2.86 3.77l6.14-.65c-.18-1.66-.93-3.37-3.28-3.12zm15.6 1.19l.67 6.32a.73.73 0 1 1-1.46.15l-.63-6c-.2-1.87-.86-3.09-3.08-2.85s-2.88 1.74-2.68 3.63l.62 5.84a.74.74 0 0 1-.65.84.74.74 0 0 1-.81-.68l-1-9.61a.73.73 0 1 1 1.46-.15l.08.76a3.3 3.3 0 0 1 2.86-2c3.5-.37 4.37 1.74 4.62 3.75zm11.75-5.48c3.65-.39 4.68 2.54 4.85 4.15.07.69.16 1.52-.75 1.61l-6.67.71c.25 2.34 1.71 3.72 3.86 3.49a4.13 4.13 0 0 0 2.63-1.31.65.65 0 0 1 .39-.18.68.68 0 0 1 .74.61.67.67 0 0 1-.2.57 5 5 0 0 1-3.42 1.71c-3 .32-5.11-1.21-5.53-5.18-.4-3.65 1.1-5.86 4.1-6.18zm.14 1.37c-2 .21-2.94 1.66-2.85 3.77l6.14-.65c-.19-1.74-.94-3.37-3.3-3.12zm7.39-7.24l1.47 13.51c.1 1 .43 1.32 1 1.25a.71.71 0 0 1 .15 1.42c-1.53.16-2.47-.69-2.67-2.52l-1.43-13.51a.77.77 0 0 1 .65-.83.76.76 0 0 1 .83.68zm11.01 6.82c.27 2.49 6.17.93 6.57 4.71.23 2.16-1.38 3.31-3.54 3.54a5.08 5.08 0 0 1-4.09-1.29.76.76 0 0 1-.21-.43.69.69 0 0 1 .59-.76.7.7 0 0 1 .53.18 3.83 3.83 0 0 0 3 .86c1.3-.14 2.37-.71 2.24-1.94-.25-2.44-6.15-.83-6.57-4.71-.2-2 1.25-3 3.19-3.23a4.12 4.12 0 0 1 3.63 1.14.73.73 0 0 1 .21.43.68.68 0 0 1-.59.76.64.64 0 0 1-.5-.16 3.18 3.18 0 0 0-2.59-.73c-1.01.11-1.98.55-1.87 1.63zm12.18-4.2c3.65-.38 4.68 2.55 4.85 4.15.07.69.16 1.52-.76 1.62l-6.66.7c.25 2.35 1.71 3.72 3.86 3.49a4.17 4.17 0 0 0 2.63-1.3.61.61 0 0 1 .39-.19.68.68 0 0 1 .74.62.69.69 0 0 1-.2.57 5 5 0 0 1-3.42 1.7c-3 .32-5.11-1.2-5.53-5.18-.39-3.65 1.13-5.87 4.1-6.18zm.14 1.38c-2 .21-2.94 1.65-2.85 3.77l6.14-.65c-.15-1.72-.93-3.38-3.29-3.13zm8.14-.3a3.3 3.3 0 0 1 3-2.23.74.74 0 0 1 .16 1.47c-2.1.22-3 1.85-2.78 4l.56 5.3a.73.73 0 1 1-1.46.16l-1-9.61a.73.73 0 1 1 1.46-.15zm10.16 7.92l-4.9-9.15a1 1 0 0 1-.1-.32.74.74 0 0 1 .65-.84.71.71 0 0 1 .74.43l4.08 7.82 2.35-8.5a.69.69 0 0 1 .63-.57.72.72 0 0 1 .81.68.81.81 0 0 1 0 .34l-2.87 10a.72.72 0 0 1-.63.55.73.73 0 0 1-.76-.44zm5.54-14.56c-.07-.69.22-1 .76-1s.9.17 1 .85a.87.87 0 1 1-1.73.19zm3 13.31a.74.74 0 1 1-1.47.16l-1-9.61a.73.73 0 0 1 .65-.83.74.74 0 0 1 .81.68zm5.89-11.24a4.27 4.27 0 0 1 3.69 1.26.76.76 0 0 1 .21.43.68.68 0 0 1-.59.76.7.7 0 0 1-.58-.23 2.9 2.9 0 0 0-2.58-.85c-2.1.22-3.07 1.74-2.76 4.65s1.57 4.21 3.67 4a4.07 4.07 0 0 0 2.54-1.3.63.63 0 0 1 .42-.21.67.67 0 0 1 .73.61.72.72 0 0 1-.23.63 5.15 5.15 0 0 1-3.31 1.64c-2.94.31-4.9-1.32-5.31-5.2s1.16-5.88 4.1-6.19zm5.57-3.61c-.07-.68.22-1 .77-1s.89.16 1 .85a.88.88 0 1 1-1.74.18zm3 13.32a.73.73 0 1 1-1.46.16l-1-9.61a.73.73 0 1 1 1.46-.15zm11.38-6.08c.41 3.88-1.22 5.89-4.19 6.21s-5-1.32-5.39-5.2 1.24-5.87 4.19-6.18 4.98 1.29 5.39 5.17zm-1.48.15c-.32-3-1.67-4.17-3.77-3.95s-3.17 1.67-2.85 4.66 1.67 4.2 3.77 4 3.17-1.68 2.85-4.71zm8.51-.87c-.41-3.88 1.13-5.89 4.07-6.2 2.6-.28 4.64 1.06 5 4.18l1.1 10.42a.73.73 0 0 1-.65.83.74.74 0 0 1-.81-.68l-.55-5.23a3.88 3.88 0 0 1-2.94 1.87c-2.98.31-4.79-1.31-5.22-5.19zm7.58-1.86c-.24-2.25-1.61-3.16-3.36-3-2.1.22-3.08 1.71-2.76 4.67s1.6 4.19 3.67 4a3.49 3.49 0 0 0 2.79-2.41zm5-4.34l.66 6.18c.16 1.54.78 2.81 3.09 2.57s2.64-1.62 2.48-3.16l-.66-6.18a.76.76 0 0 1 .68-.83.73.73 0 0 1 .78.68l.66 6.18c.24 2.24-.25 4.38-3.79 4.75s-4.46-1.61-4.7-3.85l-.66-6.18a.73.73 0 1 1 1.46-.16zm13.69-2.36c3.65-.38 4.68 2.55 4.85 4.16.07.68.16 1.51-.76 1.61l-6.66.7c.25 2.35 1.71 3.72 3.86 3.5a4.18 4.18 0 0 0 2.63-1.31.61.61 0 0 1 .39-.19.68.68 0 0 1 .74.62.73.73 0 0 1-.2.57 5 5 0 0 1-3.42 1.7c-3 .32-5.11-1.2-5.53-5.18-.39-3.64 1.13-5.86 4.1-6.18zm.14 1.38c-2 .21-2.94 1.65-2.85 3.77l6.14-.65c-.18-1.71-.93-3.36-3.27-3.12zm15.92-3.08c3.65-.38 4.68 2.55 4.85 4.15.07.69.16 1.52-.75 1.61l-6.67.71c.25 2.34 1.71 3.72 3.86 3.49a4.17 4.17 0 0 0 2.63-1.3.61.61 0 0 1 .39-.19.68.68 0 0 1 .74.62.69.69 0 0 1-.2.57 5 5 0 0 1-3.42 1.7c-3 .32-5.11-1.2-5.53-5.18-.39-3.64 1.13-5.86 4.1-6.18zm.14 1.38c-2 .21-2.94 1.65-2.85 3.77l6.14-.65c-.18-1.66-.93-3.37-3.33-3.12zm7.4-7.25l1.44 13.51c.1.95.43 1.32 1 1.25a.71.71 0 0 1 .15 1.42c-1.53.16-2.47-.69-2.67-2.52l-1.36-13.5a.77.77 0 0 1 .65-.84.76.76 0 0 1 .79.68zM554 218c-.07-.69.22-1 .77-1s.9.17 1 .85a.88.88 0 1 1-1.77.15zm3 13.32a.73.73 0 0 1-.65.83.74.74 0 0 1-.81-.68l-1-9.61a.73.73 0 1 1 1.46-.15zm2-9.96a.73.73 0 0 1 .65-.83.74.74 0 0 1 .81.68l1.17 11a3.38 3.38 0 0 1-3 3.9.68.68 0 0 1-.76-.63.7.7 0 0 1 .61-.79 2 2 0 0 0 1.64-2.32zm-.55-3.86c-.07-.69.22-1 .77-1s.89.17 1 .85a.87.87 0 1 1-1.73.19zm6.33 5a.73.73 0 0 1-.56.39.67.67 0 0 1-.73-.61.72.72 0 0 1 .07-.42 4.23 4.23 0 0 1 3.59-2.27 3.77 3.77 0 0 1 4.53 3.59l.69 6.51a.71.71 0 0 1-.63.8.72.72 0 0 1-.78-.65l-.09-.86a3.58 3.58 0 0 1-3.08 2.05c-2.42.26-4.08-.79-4.31-3s1.17-3.5 3.64-3.76l3.22-.34-.07-.64a2.47 2.47 0 0 0-3-2.32 3.14 3.14 0 0 0-2.49 1.53zm5.8 3.79l-.1-1-3.22.34c-1.48.16-2.44.91-2.3 2.28s1 1.92 2.82 1.74a3 3 0 0 0 2.8-3.36z" fill="#74b283"/><path d="M216 282.23a3.55 3.55 0 0 1 2.73.86 3.8 3.8 0 0 1 1.37 2.58 3.73 3.73 0 0 1-.8 2.82 3.55 3.55 0 0 1-2.49 1.41l-1.6.17a2.79 2.79 0 0 1-.25 1.05 4.28 4.28 0 0 1 .07 1.52 4.22 4.22 0 0 1-.47 1.47 4.3 4.3 0 0 1-.91 3.16 4.44 4.44 0 0 1-3.1 1.52l-.94.1a6.86 6.86 0 0 1-2.18-.15 16.84 16.84 0 0 1-1.77-.6l-1-.41a2.34 2.34 0 0 0-.87-.09h-.13a1.41 1.41 0 0 1-.94.48l-2.85.3a1.46 1.46 0 0 1-1.05-.29 1.24 1.24 0 0 1-.52-.9l-1.13-10.63a1.28 1.28 0 0 1 .33-1 1.46 1.46 0 0 1 1-.5l2.85-.3a1.39 1.39 0 0 1 1 .27h.13a.83.83 0 0 0 .49-.31 9.34 9.34 0 0 0 .73-.94 12.94 12.94 0 0 0 1-1.64c.1-.23.24-.59.43-1.08a8.63 8.63 0 0 1 .87-1.91 2.25 2.25 0 0 1 1.7-1 4.1 4.1 0 0 1 3.1.77 3.65 3.65 0 0 1 1.4 2.63 6.44 6.44 0 0 1 0 1.07zm-14 13a1.08 1.08 0 0 0-.4-.76 1 1 0 0 0-1.51.17 1.07 1.07 0 0 0-.23.81 1.12 1.12 0 0 0 .4.76 1 1 0 0 0 .79.24 1 1 0 0 0 .72-.4 1.1 1.1 0 0 0 .23-.84zm14.57-7.53a1.47 1.47 0 0 0 1-.6 1.59 1.59 0 0 0 .35-1.18 1.63 1.63 0 0 0-.59-1.08 1.51 1.51 0 0 0-1.15-.37l-7.08.75a2.19 2.19 0 0 1 .33-1.11 5.31 5.31 0 0 0 .39-1 3.09 3.09 0 0 0 .14-1.28 1.43 1.43 0 0 0-.72-1.18 2.44 2.44 0 0 0-1.42-.23c-.12 0-.25.17-.4.47s-.2.49-.39 1-.37 1.05-.49 1.32a12.2 12.2 0 0 1-1.19 2 10.37 10.37 0 0 1-1 1.32 3 3 0 0 1-1.4.81l.86 8.13a4.84 4.84 0 0 1 1.33.18c.28.1.69.26 1.22.48s1.14.41 1.45.5a4.61 4.61 0 0 0 1.54.12l.94-.1a2.34 2.34 0 0 0 1.84-.94 2.59 2.59 0 0 0 .13-2.12 1.68 1.68 0 0 0 .62-1.16 1.88 1.88 0 0 0-.3-1.4 2 2 0 0 0 .49-1.5 2 2 0 0 0-.57-1.34z" fill="#fff"/><path d="M224.5 291.05l-1.21 4.5a.8.8 0 0 1-.69.65.79.79 0 0 1-.86-.72.88.88 0 0 1 0-.36l4-15.19a.75.75 0 0 1 .67-.62.81.81 0 0 1 .81.46l7.12 14a1.25 1.25 0 0 1 .11.35.8.8 0 0 1-.72.89.78.78 0 0 1-.81-.47l-2.1-4.18zm2.25-9l-1.93 7.52 5.41-.57zm12.63.95a4.3 4.3 0 0 1 3.69 1.26.78.78 0 0 1 .21.44.67.67 0 0 1-1.17.53 2.88 2.88 0 0 0-2.58-.85c-2.1.22-3.07 1.73-2.76 4.64s1.57 4.21 3.67 4a4.07 4.07 0 0 0 2.54-1.3.73.73 0 0 1 .42-.21.68.68 0 0 1 .73.62.71.71 0 0 1-.23.62 5.1 5.1 0 0 1-3.31 1.64c-2.94.32-4.9-1.32-5.31-5.2s1.16-5.84 4.1-6.19zm10.06-1a4.27 4.27 0 0 1 3.69 1.26.76.76 0 0 1 .21.43.68.68 0 0 1-.59.76.7.7 0 0 1-.58-.23 2.9 2.9 0 0 0-2.58-.85c-2.1.22-3.07 1.74-2.76 4.65s1.57 4.21 3.67 4a4.07 4.07 0 0 0 2.54-1.3.63.63 0 0 1 .42-.21.67.67 0 0 1 .73.61.72.72 0 0 1-.23.63 5.2 5.2 0 0 1-3.31 1.64c-2.94.31-4.9-1.33-5.31-5.21s1.16-5.9 4.1-6.18zm10.06-1.1c3.66-.39 4.68 2.54 4.85 4.15.07.69.16 1.52-.75 1.61l-6.67.71c.25 2.34 1.72 3.72 3.86 3.49a4.13 4.13 0 0 0 2.63-1.31.67.67 0 0 1 1.13.43.73.73 0 0 1-.19.58 5.06 5.06 0 0 1-3.42 1.7c-3 .32-5.11-1.21-5.54-5.18-.4-3.65 1.14-5.86 4.1-6.18zm.15 1.37c-2 .21-2.94 1.66-2.86 3.77l6.14-.65c-.18-1.7-.93-3.39-3.28-3.12zm7.98.73c.27 2.48 6.17.92 6.57 4.71.23 2.15-1.38 3.3-3.55 3.53a5.07 5.07 0 0 1-4.08-1.29.73.73 0 0 1-.21-.43.67.67 0 0 1 1.12-.57 3.79 3.79 0 0 0 3 .85c1.3-.14 2.37-.71 2.24-1.94-.26-2.43-6.16-.83-6.57-4.71-.21-2 1.25-3 3.19-3.23A4.13 4.13 0 0 1 273 281a.7.7 0 0 1 .21.43.69.69 0 0 1-.59.76.65.65 0 0 1-.5-.17 3.23 3.23 0 0 0-2.6-.73c-1.03.14-2 .58-1.89 1.71zm17.66.91c.42 3.88-1.22 5.9-4.18 6.21s-5-1.31-5.4-5.19 1.25-5.88 4.19-6.19 4.98 1.26 5.39 5.17zm-1.48.16c-.32-3-1.67-4.18-3.77-4s-3.16 1.68-2.85 4.66 1.67 4.2 3.77 4 3.17-1.63 2.85-4.66zm10.03-4.15a.73.73 0 0 1-.56.39.68.68 0 0 1-.73-.61.72.72 0 0 1 .07-.42 4.21 4.21 0 0 1 3.59-2.27 3.78 3.78 0 0 1 4.54 3.59l.68 6.5a.72.72 0 0 1-.62.81.73.73 0 0 1-.79-.66l-.09-.85a3.59 3.59 0 0 1-3.08 2.05c-2.42.26-4.08-.79-4.31-3s1.17-3.5 3.64-3.76l3.22-.34-.07-.64a2.47 2.47 0 0 0-3-2.32 3.12 3.12 0 0 0-2.49 1.53zm5.8 3.78l-.1-1-3.22.34c-1.48.16-2.44.91-2.3 2.28s1 1.92 2.82 1.73a3 3 0 0 0 2.8-3.35zm24.99-5.47l.67 6.32a.73.73 0 1 1-1.46.16l-.64-6c-.2-1.86-1-3.07-3.19-2.84a2.56 2.56 0 0 0-2.55 3.14l.67 6.32a.73.73 0 1 1-1.46.16l-.64-6c-.19-1.86-.9-3.08-3.14-2.84s-2.66 1.62-2.45 3.61l.62 5.84a.73.73 0 1 1-1.46.16l-1-9.61a.73.73 0 1 1 1.46-.16l.08.76a3.19 3.19 0 0 1 2.79-2 4 4 0 0 1 3.8 1.27 3.66 3.66 0 0 1 3.16-2c3.5-.39 4.52 1.7 4.74 3.71zm3.73-1.97a.75.75 0 0 1-.56.39.67.67 0 0 1-.74-.61.81.81 0 0 1 .08-.42 4.2 4.2 0 0 1 3.59-2.27 3.78 3.78 0 0 1 4.53 3.59l.69 6.51a.71.71 0 1 1-1.41.15l-.1-.86a3.57 3.57 0 0 1-3.08 2.05c-2.42.26-4.07-.79-4.3-3s1.17-3.5 3.64-3.76l3.21-.34-.06-.64a2.48 2.48 0 0 0-3-2.32 3.14 3.14 0 0 0-2.49 1.53zm5.8 3.79l-.11-1-3.21.34c-1.49.16-2.45.91-2.3 2.28s1 1.92 2.81 1.74a3 3 0 0 0 2.81-3.36zm3.75-9.64a.77.77 0 0 1 .65-.83.75.75 0 0 1 .81.68l.26 2.48 1.49-.15a.68.68 0 0 1 .76.63.69.69 0 0 1-.61.78l-1.49.16.7 6.53c.11 1 .71 1.51 1.49 1.42a.71.71 0 0 1 .78.64.7.7 0 0 1-.63.78 2.7 2.7 0 0 1-3.1-2.68l-.7-6.53-.89.09a.71.71 0 0 1-.15-1.42l.89-.09zm10.09 1.12c3.65-.39 4.68 2.54 4.85 4.15.07.68.16 1.51-.75 1.61l-6.67.7c.25 2.35 1.71 3.72 3.86 3.5a4.18 4.18 0 0 0 2.63-1.31.61.61 0 0 1 .39-.19.68.68 0 0 1 .74.62.69.69 0 0 1-.2.57 5 5 0 0 1-3.42 1.7c-3 .32-5.11-1.2-5.53-5.18-.44-3.64 1.1-5.86 4.1-6.17zm.15 1.37c-2 .21-3 1.65-2.86 3.77l6.14-.65c-.23-1.7-.98-3.37-3.33-3.12zm8.08-.29a3.3 3.3 0 0 1 3-2.23.74.74 0 0 1 .16 1.47c-2.1.22-3 1.85-2.78 4l.56 5.3a.73.73 0 1 1-1.46.15l-1-9.61a.73.73 0 1 1 1.46-.15zm4.91-5.5c-.07-.68.22-1 .77-1s.89.17 1 .86a.87.87 0 1 1-1.73.18zm3 13.32a.73.73 0 0 1-.65.83.72.72 0 0 1-.81-.67l-1-9.61a.73.73 0 1 1 1.46-.16zm3.32-8.32c-.2.29-.35.38-.56.4a.68.68 0 0 1-.73-.62.69.69 0 0 1 .07-.41 4.21 4.21 0 0 1 3.59-2.27 3.76 3.76 0 0 1 4.53 3.58l.69 6.51a.71.71 0 1 1-1.41.15l-.09-.85a3.64 3.64 0 0 1-3.09 2c-2.41.25-4.07-.79-4.3-3s1.17-3.5 3.64-3.76l3.22-.34-.07-.64a2.46 2.46 0 0 0-3-2.31 3.14 3.14 0 0 0-2.49 1.56zm5.8 3.79l-.1-1-3.22.34c-1.49.16-2.44.9-2.3 2.28s1 1.92 2.82 1.73a3 3 0 0 0 2.8-3.35zm4.34-12.59l1.4 13.51c.1.95.44 1.32 1.06 1.25a.71.71 0 0 1 .15 1.42c-1.53.16-2.48-.69-2.67-2.52l-1.43-13.5a.77.77 0 0 1 .65-.84.76.76 0 0 1 .84.68zm13.51 3.69c3.65-.39 4.68 2.54 4.85 4.15.07.69.16 1.52-.75 1.61l-6.67.71c.25 2.34 1.71 3.72 3.86 3.49a4.13 4.13 0 0 0 2.6-1.36.62.62 0 0 1 .4-.18.68.68 0 0 1 .73.61.71.71 0 0 1-.19.57 5 5 0 0 1-3.42 1.71c-3 .32-5.12-1.21-5.54-5.18-.35-3.65 1.17-5.87 4.13-6.13zm.15 1.37c-2 .21-2.94 1.65-2.86 3.77l6.14-.65c-.18-1.75-.93-3.42-3.28-3.17zm10.4 4.31l-2.41 4.49a.75.75 0 0 1-1.28-.78l2.65-4.8-3.48-3.92a.75.75 0 0 1-.18-.43.72.72 0 0 1 .65-.83.71.71 0 0 1 .62.24l3.18 3.63 2.34-4.21a.7.7 0 0 1 .57-.37.73.73 0 0 1 .81.67.9.9 0 0 1-.09.47l-2.59 4.55 3.6 4.15a.77.77 0 0 1 .19.43.75.75 0 0 1-.65.84.73.73 0 0 1-.63-.25zm9.48-7.85a4.27 4.27 0 0 1 3.69 1.26.73.73 0 0 1 .21.43.68.68 0 0 1-.59.76.7.7 0 0 1-.58-.23 2.9 2.9 0 0 0-2.58-.85c-2.1.22-3.07 1.74-2.76 4.65s1.57 4.21 3.67 4a4.12 4.12 0 0 0 2.54-1.3.63.63 0 0 1 .42-.21.67.67 0 0 1 .73.61.72.72 0 0 1-.23.63 5.2 5.2 0 0 1-3.31 1.64c-2.94.31-4.9-1.33-5.31-5.21s1.16-5.87 4.1-6.18zm6.75-5.83l1.43 13.51c.1.95.44 1.32 1.06 1.25a.71.71 0 0 1 .15 1.42c-1.53.16-2.48-.69-2.67-2.52l-1.43-13.51a.73.73 0 1 1 1.46-.15zm5.39 5.45l.66 6.18c.16 1.53.78 2.81 3.09 2.56s2.64-1.62 2.48-3.16l-.66-6.17a.76.76 0 0 1 .67-.84.74.74 0 0 1 .79.68l.66 6.18c.24 2.25-.25 4.38-3.79 4.76s-4.46-1.61-4.7-3.86l-.66-6.18a.73.73 0 1 1 1.46-.15zm11.19.82c.26 2.49 6.17.93 6.57 4.71.22 2.16-1.38 3.31-3.55 3.54a5.09 5.09 0 0 1-4.09-1.29.7.7 0 0 1 .39-1.19.69.69 0 0 1 .52.18 3.84 3.84 0 0 0 3 .86c1.3-.14 2.38-.71 2.25-1.94-.26-2.44-6.16-.83-6.57-4.71-.21-2 1.24-3 3.18-3.23a4.11 4.11 0 0 1 3.63 1.14.73.73 0 0 1 .21.44.68.68 0 0 1-.59.75.64.64 0 0 1-.5-.16 3.18 3.18 0 0 0-2.59-.73c-1.01.11-1.98.55-1.86 1.63zm7.68-6.74c-.07-.69.22-1 .77-1s.89.17 1 .85a.87.87 0 1 1-1.73.19zm3 13.31a.73.73 0 1 1-1.46.16l-1-9.61a.73.73 0 1 1 1.46-.15zm5.85-.33l-4.89-9.14a1 1 0 0 1-.11-.37.74.74 0 0 1 .65-.83.68.68 0 0 1 .74.42l4.08 7.82 2.36-8.5a.68.68 0 0 1 .63-.57.74.74 0 0 1 .81.68 1 1 0 0 1 0 .34l-2.87 10a.74.74 0 0 1-1.37.14zm15.52-6.81c.41 3.88-1.22 5.89-4.19 6.21s-5-1.31-5.39-5.19 1.24-5.88 4.19-6.19 4.98 1.29 5.39 5.17zm-1.48.16c-.32-3-1.67-4.18-3.77-4s-3.17 1.68-2.85 4.66 1.67 4.2 3.77 4 3.17-1.63 2.81-4.66zm-193.22 54.01l-.72-6.79-5.38-7a.88.88 0 0 1-.16-.41.8.8 0 0 1 .69-.89.78.78 0 0 1 .71.31l4.75 6.29 3.33-7.15a.76.76 0 0 1 .62-.45.8.8 0 0 1 .86.72.78.78 0 0 1-.07.44l-3.8 8 .72 6.79a.77.77 0 0 1-.69.88.79.79 0 0 1-.86-.74zm28.63-9.38l.67 6.32a.73.73 0 1 1-1.46.16l-.63-6c-.2-1.87-1-3.08-3.19-2.85a2.56 2.56 0 0 0-2.55 3.14l.67 6.32a.73.73 0 1 1-1.46.16l-.64-6c-.2-1.87-.9-3.09-3.14-2.85s-2.67 1.62-2.46 3.61l.62 5.84a.73.73 0 1 1-1.46.16l-1-9.61a.74.74 0 0 1 .65-.83.73.73 0 0 1 .81.68l.08.75a3.22 3.22 0 0 1 2.8-2 4 4 0 0 1 3.8 1.27 3.64 3.64 0 0 1 3.16-2c3.49-.37 4.52 1.72 4.73 3.73zm3.55-3.69l.66 6.17c.16 1.54.78 2.82 3.09 2.57s2.64-1.62 2.48-3.16l-.66-6.17a.77.77 0 0 1 .68-.84.73.73 0 0 1 .78.68l.66 6.18c.24 2.25-.25 4.38-3.79 4.75s-4.46-1.6-4.7-3.85l-.66-6.18a.73.73 0 1 1 1.46-.15zm13.64-2.36a4.27 4.27 0 0 1 3.69 1.26.76.76 0 0 1 .21.43.68.68 0 0 1-.59.76.7.7 0 0 1-.58-.23 2.92 2.92 0 0 0-2.58-.85c-2.1.22-3.07 1.74-2.77 4.65s1.58 4.21 3.68 4a4.09 4.09 0 0 0 2.54-1.3.63.63 0 0 1 .42-.21.67.67 0 0 1 .73.61.78.78 0 0 1-.23.63 5.15 5.15 0 0 1-3.31 1.64c-3 .31-4.9-1.32-5.31-5.2s1.16-5.88 4.1-6.19zm14.96 2.65l.66 6.32a.73.73 0 0 1-.65.83.74.74 0 0 1-.81-.68l-.63-6c-.2-1.87-.86-3.09-3.07-2.86s-2.89 1.75-2.69 3.64l.62 5.84a.73.73 0 1 1-1.46.16l-1.65-15.52a.74.74 0 1 1 1.47-.16l.7 6.67a3.31 3.31 0 0 1 2.86-2c3.52-.33 4.43 1.75 4.65 3.76zm11.79.26c.41 3.88-1.22 5.89-4.19 6.21s-5-1.32-5.4-5.2 1.25-5.87 4.19-6.18 5.01 1.29 5.4 5.17zm-1.49.15c-.31-3-1.66-4.17-3.76-3.95s-3.17 1.67-2.85 4.65 1.66 4.21 3.76 4 3.18-1.67 2.85-4.7zm24.74-4.13l.67 6.32a.73.73 0 1 1-1.46.16l-.64-6c-.2-1.87-1-3.08-3.19-2.85a2.56 2.56 0 0 0-2.55 3.14l.67 6.32a.73.73 0 1 1-1.46.16l-.64-6c-.19-1.87-.9-3.09-3.14-2.85s-2.66 1.62-2.45 3.61l.62 5.84a.73.73 0 1 1-1.46.16l-1-9.61a.73.73 0 1 1 1.46-.16l.08.76a3.2 3.2 0 0 1 2.79-2 4 4 0 0 1 3.81 1.27 3.63 3.63 0 0 1 3.15-2c3.5-.37 4.53 1.72 4.74 3.73zm3.73-1.97a.73.73 0 0 1-.56.39.67.67 0 0 1-.73-.61.72.72 0 0 1 .07-.42 4.23 4.23 0 0 1 3.59-2.27 3.77 3.77 0 0 1 4.53 3.59l.69 6.51a.72.72 0 0 1-.63.8.71.71 0 0 1-.78-.65l-.09-.86a3.6 3.6 0 0 1-3.09 2.05c-2.42.26-4.07-.78-4.3-3s1.17-3.5 3.64-3.76l3.21-.34-.06-.64a2.48 2.48 0 0 0-3-2.32 3.14 3.14 0 0 0-2.49 1.53zm5.8 3.79l-.11-1-3.21.34c-1.49.16-2.45.91-2.3 2.28s1 1.92 2.81 1.74a3 3 0 0 0 2.81-3.36zm-5-8.5l1.76-2.77c.16-.25.47-.38.87-.09a.58.58 0 0 1 .16.89l-2 2.56a.44.44 0 0 1-.68.12.48.48 0 0 1-.07-.71zm9.92 3.84c.27 2.48 6.17.92 6.57 4.71.23 2.15-1.38 3.3-3.54 3.53a5.08 5.08 0 0 1-4.09-1.29.76.76 0 0 1-.21-.43.69.69 0 0 1 .59-.76.72.72 0 0 1 .53.19 3.87 3.87 0 0 0 3 .85c1.3-.14 2.37-.71 2.24-1.94-.25-2.44-6.15-.83-6.57-4.71-.2-2 1.25-3 3.19-3.23a4.12 4.12 0 0 1 3.63 1.14.73.73 0 0 1 .21.44.68.68 0 0 1-.59.75.64.64 0 0 1-.5-.16 3.18 3.18 0 0 0-2.59-.73c-.96.11-1.96.55-1.87 1.64zm8.05 6.47a1.08 1.08 0 1 1 2.15-.23 1.08 1.08 0 1 1-2.15.23zm6.19-.66a1.08 1.08 0 1 1 2.14-.22 1 1 0 0 1-1 1.22 1 1 0 0 1-1.14-.98zm6.21-.66a1.08 1.08 0 1 1 2.14-.22 1.08 1.08 0 1 1-2.14.22z" fill="#74b283"/><path d="M642.93 456.55c10.08 8.88 27.31 21.17 60.61 32.9-18-1-35.8-1.14-54-3.55a533.62 533.62 0 0 1-76.31-15.9c-49.08-14-106.83-35.64-144.77-68.57-1-.87-2.49 0-1.56.94 15.94 16.87 39.14 28.49 60.88 39.1a539.34 539.34 0 0 0 78.84 31A537.62 537.62 0 0 0 643.86 490c15.52 2.32 32.49 4.79 48.81 5.59-15.12 4.33-29.56 9.81-42.13 17.36-1.28.77.28 2.93 1.83 2.35 22.43-8.51 44.24-16.64 69.58-20.4 3.95-.59 3.4-4.79-.76-5.92-39.44-10.73-59.31-23.83-74.5-37.66-3.33-3.04-6.95 2.41-3.76 5.23z" fill="#2c3752"/></g></g></svg>