<svg id="Capa_1" data-name="Capa 1" xmlns="http://www.w3.org/2000/svg" viewBox="0 0 226.77 226.77"><defs><style>.cls-1{fill:#132354}.cls-2{fill:#fff}</style></defs><title>IconMesa de trabajo 10</title><circle class="cls-1" cx="113.39" cy="113.39" r="99.21"/><path class="cls-2" d="M140.76 83.63c3.62 5.85 2.44 13.12-2.61 16.24s-12.08.91-15.69-5-2.46-13.07 2.61-16.19 12.08-.91 15.69 4.95zm-26.88 83.29c2.49 4.05 2.08 8.85-.93 10.7l-6 3.69c-3 1.86-7.48.09-10-4l-19.76-32.05c-2.51-4-2.09-8.85.93-10.7l6-3.69c3-1.86 7.48-.08 10 4zm54.65-100.68l-21.3 13.15a2.13 2.13 0 1 1-2.23-3.62l21.3-13.16a2.13 2.13 0 0 1 2.23 3.63z"/><path class="cls-2" d="M168.53 66.24l-21.3 13.15a2.13 2.13 0 1 1-2.23-3.62l21.3-13.16a2.13 2.13 0 0 1 2.23 3.63zm-15.27-16.01l-9.91 23a2.12 2.12 0 1 1-3.9-1.68l9.91-23a2.12 2.12 0 1 1 3.9 1.68zm20.5 33.21l-25-1.44a2.12 2.12 0 0 0-.24 4.24l25 1.45a2.13 2.13 0 1 0 .24-4.25zm-63.34 77.88l-2.85-4.62-16.95 10.32.23.37 2.57 4.17 17-10.24zm3.46 5.6l-1.1-1.78-17 10.28 1.2 1.93c.11.19.26.36.39.54l16.93-10.12c-.13-.29-.24-.57-.42-.85zM102.17 48.25C103 64.5 75.79 96.66 75.79 96.66l11 17.76 11 17.78s40.91-9.89 55.09-1.9L128 89z"/><path class="cls-2" d="M157.17 127.44c.74 1.2-.06 3.06-1.79 4.13-1.74 1.08-3.76 1-4.51-.24l-50.45-81.74c-.75-1.21 0-3.06 1.8-4.13 1.72-1.07 3.75-1 4.49.25zm-80.9-31.55L56.62 108c-5.25 3.24-7.16 9.64-4.28 14.3l12.06 19.56c2.88 4.66 9.46 5.82 14.7 2.59l15.13-9.35 4.52-2.79z"/></svg>