<svg id="Capa_1" data-name="Capa 1" xmlns="http://www.w3.org/2000/svg" viewBox="0 0 226.77 226.77"><defs><style>.cls-1{fill:#f62f31}.cls-2{fill:#fff}.cls-3{fill:#fcfdfb}</style></defs><title>IconMesa de trabajo 11</title><path class="cls-1" d="M87.92 208.89A88.59 88.59 0 0 1 45.25 185C16.57 156.22 7.07 121.73 19.56 83s40.38-61.34 80.49-67.7c42.58-6.75 85.7 17.3 103.5 56.63.53 1.17.89 2.43 1.33 3.65-1.53 1.07-2.65-.1-3.83-.73-6.2-3.31-12-7.38-18.43-10.24-1.45-1.1-2.54-.76-3.58.67-1.92 2.64-2.38 5.58-2.38 8.76q.06 30.09 0 60.19c0 8.42-.37 8.79-8.87 8.79H52.44c-7.92 0-8.42-.5-8.42-8.53V76.08c0-3.35.05-6.45 4.22-7.53 1.75-.45 1.43-2.24 1.36-3.64-.07-1.61-1.06-2.28-2.56-2.37a22.94 22.94 0 0 0-5 .12 4.66 4.66 0 0 0-4.19 4.19 24.37 24.37 0 0 0-.17 3.91v78.72c0 3.18.25 6.18 2.69 8.53a16 16 0 0 0 3.38 4.51q20.31 20.27 40.55 40.58c1.61 1.62 3.7 3.04 3.62 5.79z"/><path class="cls-1" d="M87.92 208.89a31.5 31.5 0 0 0-5-6q-20.2-20.17-40.34-40.42c-.74-.74-2.47-1.16-1.65-2.9 1.87-1.45 4.09-1 6.18-1h125c10 0 10.8-.82 10.8-10.69V70.93c0-2-.38-4.07 1-5.85 3.74-.44 5.92 2.67 8.86 4 4.12 1.91 7.66 5 12.06 6.45 5 10.57 7.21 21.83 7.64 33.39 1.93 51.61-34.08 95-85.18 102.54a88.42 88.42 0 0 1-39.37-2.57z"/><path class="cls-2" d="M184 65.09c0 10 .14 20 .16 29.92v57.37c0 5-2.13 7.27-7.05 7.27H41.02c-3.24-1.55-4.48-4-4.46-7.68.11-27.68.06-55.36.06-83 0-5.8 1.84-7.62 7.67-7.65h1.06c5.57 0 5.48 0 5.57 5.64 0 2.22-.15 3.74-3 3.29-1.77-.29-2.52.46-2.52 2.38q.08 33.32 0 66.64c0 3.28 2.1 2.5 3.84 2.5h116.87a47.09 47.09 0 0 1 5.7 0c3 .38 3.51-.93 3.5-3.62-.09-21 0-42.06-.11-63.08a18.05 18.05 0 0 1 3.23-11c2-2.94 2.56-3 4.76-.12.27.35.51.75.81 1.14z"/><path class="cls-2" d="M153.22 127.63c4.2-.25 7.66.67 11.1-.71 1-.41 2.58-.72 3.23.49a3.52 3.52 0 0 1-.15 3c-.73 1.06-2.14.59-3.3.32a40.44 40.44 0 0 0-18.85.19c-2.21.52-4.44 1.64-6.25-.81a.47.47 0 0 0-.29-.2c-6-.07-12-.82-17.94.43-1.16.24-2.14 1-3.06 0a2.61 2.61 0 0 1-.18-2.72c.61-1.47 2.21-1.14 3.11-.76 3.57 1.53 7.21.38 11.59.89-3.8-3.71-5.82-8.17-9-11.05-3.57-3.18-2.67-8.22-6.52-11-1.43 4.63-4.87 5.67-9.46 5.6-14.49-.21-29-.06-43.47-.08-5.71 0-7.9-2.22-7.9-8V60.1c0-5.8 2.17-8 7.86-8h44.89c5.55 0 7.82 2.25 7.83 7.71v35.28c0 1.76.22 3.27 1.61 4.48 3.16 2.75 3.59 7.7 7.91 9.64 1.11.5 0 2.55.61 3.68 2.58 4.69 5.27 9.37 10.15 12.09 3.35 1.88 12.14.88 14.77-1.87 3.66-3.8 7.56-7.5 8-13.38.17-2.41 2.44-1.07 3.76-1.29 1.12-.18 2.62-.29 2.37 1.61-.23 1.74 1.2 4.25-2.07 4.76-.43.06-.85.77-1.13 1.27a45.42 45.42 0 0 1-9.22 11.55z"/><path class="cls-2" d="M177.39 57.1a9.18 9.18 0 0 1-2.19 5.51c-9.13 11.23-18.3 22.39-27.36 33.72-1.39 1.72-2.25.88-3.48 0s-2-1.65-.91-3.4c7.67-12.12 15.22-24.31 22.8-36.49 1.31-2.09 2.91-3.66 5.53-4 3.39-.44 5.55 1.25 5.61 4.66zm-18.68 4.24c-1.56 2.8-2.92 5.11-4.16 7.48-.69 1.31-1.79 1.33-3 1.33h-27c-1.76 0-2.44-.41-2.5-2.35-.21-6.49-.3-6.49 6.08-6.49zm-29.58 45.01c4.24-.26 5.63-3 6.47-6.51a4 4 0 0 1 4.67-3.38c2.7.34 5.11 1.54 5.9 4.36.61 2.16-1.16 3.21-2.82 3.9a25.36 25.36 0 0 1-14.22 1.63zM110.4 180.4H90.49c-.77 0-1.8.39-2.26-.48s.52-1.55 1.11-1.92c3.72-2.28 5.08-5.73 5.24-9.88.07-2 .91-2.74 3.1-2.7 8.41.17 16.83.15 25.24 0 2.06 0 3.12.49 3.19 2.59.12 4.28 1.61 7.82 5.44 10.14.54.33 1.3.86 1 1.68s-1.21.56-1.87.56c-6.77.02-13.53.01-20.28.01z"/><path class="cls-1" d="M86.49 65.5h22.06c2 0 3 .21 2.93 2.63-.15 8.9-.11 17.8 0 26.7 0 2-.53 2.65-2.58 2.64q-22.77-.12-45.55 0c-2.08 0-2.57-.72-2.55-2.67q.12-13.35 0-26.7c0-2 .56-2.63 2.58-2.6 7.68.06 15.39 0 23.11 0zm17.85 40.7c-1.42 0-2.85-.1-4.26 0-2 .19-3-.3-2.94-2.66 0-2.19.91-2.55 2.77-2.48 3 .11 5.92.12 8.88 0 1.9-.08 2.67.37 2.73 2.5 0 2.35-.87 2.85-2.92 2.66-1.41-.13-2.84-.02-4.26-.02z"/><path class="cls-3" d="M72.61 92a3.27 3.27 0 0 1-3.3-3.41c-.13-2.27.44-4.8-2.34-6.19a1.44 1.44 0 0 1 0-2.19c2.77-1.24 2.2-3.66 2.27-5.81s1-3.36 3-3.7c.73-.12 1.77-.49 2.1.62a1.76 1.76 0 0 1-.64 2.14C72.3 74.6 71 81.3 71.69 83c1 2.4-.12 5.45 2.72 7.42.87.63-.51 1.73-1.8 1.58zm27.1 0c-.75-.08-1.64.26-1.9-.65a1.82 1.82 0 0 1 .67-2.15c1.45-1.15 2.85-7.91 2-9.57-1.09-2.24.55-5.45-2.67-7-.59-.29-.31-2.08 1.37-2 2.36.16 3.67 1.26 3.73 3.79 0 2.16-.48 4.56 2.28 5.8a1.45 1.45 0 0 1 0 2.19c-2.81 1.38-2.23 3.9-2.34 6.18A3.27 3.27 0 0 1 99.71 92z"/><path class="cls-2" d="M76.67 82.07v4.14h-1.48v-9.79h1.48v4.16h1.77v-4.16h1.48v9.79h-1.48v-4.14zm6.02-4.18h-1.57v-1.47h4.61v1.47h-1.57v8.32h-1.47zm5.7 8.32h-1.48v-9.79H89l1.37 7 1.33-7h2v9.79h-1.42v-6.15L91 86.21h-1.18l-1.43-6.13zm10.73 0h-4v-9.79h1.48v8.33h2.55z"/></svg>