<svg id="Capa_1" data-name="Capa 1" xmlns="http://www.w3.org/2000/svg" viewBox="0 0 226.77 226.77"><defs><style>.cls-1{fill:#6b1687;}.cls-2{fill:#faf0ea;}.cls-3{fill:#fff;}</style></defs><title>IconMesa de trabajo 1</title><path class="cls-1" d="M112.91,212.53c-54.22,0-98.7-44-98.74-97.6,0-56.54,43.69-100.85,99.55-100.76,50.35.08,98.93,38.87,98.88,99.1C212.54,179.12,157.69,214.33,112.91,212.53ZM182,79.35c-6.57,9.52-15.26,12.82-24.22,15.33-23,6.46-46.36,7.38-69.87,4.1-16.2-2.25-32.49-4.72-44.72-18.57v57.12c0,14.33,2.5,18.17,15.85,23.75a78.5,78.5,0,0,0,9.34,3.2c22.4,6.13,45.17,6.85,68.08,4.05,12.93-1.59,25.65-4.16,37.05-11,4.82-2.91,8.48-6.66,8.48-12.75C182,123.33,182,102.12,182,79.35ZM155.31,64.51a1.65,1.65,0,0,0-1.82,1.65c-.21,2.07,1.07,2.92,2.83,3.4,6.18,1.7,12.1,4,17.27,7.93.94.71,1.81,3,3.37,1,1.21-1.49.6-3.3-.75-4.43C170.23,69.05,162.94,66.79,155.31,64.51Zm-105.86,15c5.89-6.37,14.28-7.68,21.5-11.31.71-.37,1.48-4-1.2-3.37-7.77,1.76-15.38,4.24-21.38,10a3.2,3.2,0,0,0-.4,3.48C48.14,78.7,48.81,79,49.45,79.49Z"/><path class="cls-2" d="M182,79.35c0,22.77,0,44,0,65.19,0,6.09-3.66,9.84-8.48,12.75-11.4,6.88-24.12,9.45-37.05,11-22.91,2.8-45.68,2.08-68.08-4.05a78.5,78.5,0,0,1-9.34-3.2c-13.35-5.58-15.86-9.42-15.85-23.75V80.21C55.38,94.06,71.67,96.53,87.87,98.78c23.51,3.28,46.9,2.36,69.87-4.1C166.7,92.17,175.39,88.87,182,79.35Zm-70.16,72.8a180.64,180.64,0,0,0,31.41-2.39c2.79-.5,3.8-1.53,3.75-4.37-.14-8.67-.2-17.35,0-26,.08-3.46-1.16-4.17-4.3-3.67a186.52,186.52,0,0,1-60.34,0c-2.84-.46-4.21.09-4.16,3.32.13,8.88.17,17.76,0,26.65-.06,3.11,1.6,3.71,4.07,4.17A170.2,170.2,0,0,0,111.8,152.15Zm65.57-48.82c-3.18,1.79-5.36,3.94-7.76,4.23-16.52,2-16.53,13.26-15.91,26.06.76,15.61.82,15.94,15.07,8.3,6-3.21,9.34-7.35,8.74-14.71C176.89,119.65,177.37,112,177.37,103.33Zm-129.58-.18c0,8.57.56,16-.15,23.38-.79,8.22,3,12.84,9.87,15.87,3.19,1.41,6.5,2.54,9.74,3.85,2.82,1.13,4.13.55,4.07-2.81q-.21-13.31,0-26.6c0-2.51-.83-3.75-3.17-4.37A66.54,66.54,0,0,1,47.79,103.15Zm64.78,10.1c3.3.59,4.2-1,4.24-4.1s-1.07-4.2-4.27-4.15-4.33.89-4.26,4.2C108.35,112.36,109.29,113.86,112.57,113.25Zm4.19,48.38c0-2.32.65-5-3.45-4.8-2.84.17-5.33-.17-5,4,.19,2.76.23,4.85,3.9,4.54C114.71,165.17,117.43,165.69,116.76,161.63ZM126.61,113c2-.6,5.57.64,5.25-3.73-.16-2.16,1.08-5.26-3.22-4.77-2.57.29-5.63-.38-5.17,3.88C123.68,110.38,122.6,113.2,126.61,113Zm-25-4c.75-3.71-1.38-4.33-4.58-4.52s-3.72,1-3.87,3.83C93,112,94.88,112.73,98,113S102.06,111.9,101.65,109Zm45.26,49.44c0-2.34.48-4.65-3-4.07-2.94.48-5.81.63-5.34,4.89.23,2.12-.08,4.21,3.17,3.8C144.8,162.63,147.68,162.3,146.91,158.39ZM138.57,107c-.07,2.54-.14,4.56,3.09,4.12,2.91-.4,6-.4,5.22-4.7-.29-1.64,1.18-4.74-2.56-4C141.62,103,137.59,102.36,138.57,107ZM93.36,160.3c-1,4.68,2.58,4,5.23,4.44,3.26.53,2.89-1.67,3.08-3.81.33-3.63-1.34-4.49-4.63-4.55C94.05,156.33,92.85,157.28,93.36,160.3ZM128,156.57c-2.88-.43-4.91.35-4.61,4.18.19,2.47.2,4.59,3.66,4,2.66-.42,5.33-.28,4.92-4.41C131.71,157.8,131.61,155.81,128,156.57Zm-41.61-50c.76-4.07-3-3.48-5.58-4-3.14-.69-2.35,1.85-2.58,3.53-.55,4,1.85,4.7,5.14,5C86.9,111.41,86.18,109.08,86.39,106.54Zm0,51.8c.59-3.94-2.93-3.59-5.64-4-3.16-.5-2.3,2-2.52,3.65-.58,4.13,2.14,4.67,5.26,5C87,163.37,86.2,160.87,86.39,158.34Zm-15.74,1.45c1.26-7.88,1.26-7.88-5.34-8.21C64.72,155.87,64.26,160.05,70.65,159.79Zm89.17-6.09c-.22-.51,1.37-3-1.75-2.62s-4.81,2-4.18,5.36c.26,1.35-.84,3.7,2,3.39C159,159.49,160.81,157.88,159.82,153.7Zm.21-50.57c-.26-1.53.86-4-2.44-3.6s-4.08,2.3-3.71,5.11c.18,1.37-.84,3.81,2,3.29C158.39,107.49,160.85,106.64,160,103.13Zm-88.87,2c.48-3.22-.37-5.14-3.53-5.51s-2.26,2-2.54,3.59c-.57,3.32,1.62,4.27,4.13,4.73C72.22,108.48,70.81,106,71.16,105.11ZM58.38,100c.08-2,.08-4-2.32-4.35s-1.6,1.67-1.74,2.85c-.26,2.21.31,4.38,2.75,4.56S58,100.94,58.38,100Zm-.14,52.33c.46-2.77.15-5-2.38-5.3-2.29-.27-1.39,1.93-1.51,3.15-.19,2.13,0,4.43,2.61,4.72C59.37,155.14,58,152.85,58.24,152.31Zm108.55,2.75c5.09-.43,3.91-4,3.88-6.84,0-.83-.61-1.64-1.59-1.2C165.09,148.79,167.25,152.17,166.79,155.06Zm.07-51.94c4.73-.21,3.77-3.54,3.87-6.16.05-1.31-.78-1.81-1.94-1.25C165.21,97.44,167.2,100.46,166.86,103.12Z"/><path class="cls-2" d="M155.31,64.51c7.63,2.28,14.92,4.54,20.9,9.57,1.35,1.13,2,2.94.75,4.43-1.56,1.93-2.43-.31-3.37-1-5.17-3.94-11.09-6.23-17.27-7.93-1.76-.48-3-1.33-2.83-3.4A1.65,1.65,0,0,1,155.31,64.51Z"/><path class="cls-2" d="M49.45,79.49c-.64-.52-1.31-.79-1.48-1.25a3.2,3.2,0,0,1,.4-3.48c6-5.71,13.61-8.19,21.38-10,2.68-.6,1.91,3,1.2,3.37C63.73,71.81,55.34,73.12,49.45,79.49Z"/><path class="cls-3" d="M126.9,135.19l-23.26,15.52c0-10-.18-19,.09-27.91.12-3.93,2.5-1.41,3.69-.63C113.64,126.21,119.76,130.39,126.9,135.19Zm-18-6.38v12.67c3.52-2.21,6.64-3.8,9.2-6.62Z"/><path class="cls-1" d="M111.81,152.15a170.24,170.24,0,0,1-29.56-2.34c-2.47-.46-4.13-1.06-4.07-4.17.16-8.89.12-17.77,0-26.65,0-3.23,1.32-3.78,4.16-3.32a186.52,186.52,0,0,0,60.34,0c3.14-.5,4.38.21,4.3,3.67-.21,8.68-.15,17.36,0,26,0,2.84-1,3.87-3.75,4.37A180.6,180.6,0,0,1,111.81,152.15Zm15.09-17c-7.14-4.8-13.26-9-19.48-13-1.19-.78-3.57-3.3-3.69.63-.27,8.93-.09,17.88-.09,27.91Zm42.71-27.63c-16.52,2-16.53,13.26-15.91,26.06.76,15.61.82,15.94,15.07,8.3,6-3.21,9.34-7.35,8.74-14.71-.62-7.56-.14-15.2-.14-23.88C174.19,105.12,172,107.27,169.61,107.56Zm-122,19c-.79,8.22,3,12.84,9.87,15.87,3.19,1.41,6.5,2.54,9.74,3.85,2.82,1.13,4.13.55,4.07-2.81q-.21-13.31,0-26.6c0-2.51-.83-3.75-3.17-4.37a66.54,66.54,0,0,1-20.35-9.32C47.79,111.72,48.35,119.19,47.64,126.53Zm69.17-17.38c0-3.26-1.07-4.2-4.27-4.15s-4.33.89-4.26,4.2c.07,3.16,1,4.66,4.29,4C115.87,113.84,116.77,112.29,116.81,109.15Zm-3.5,47.68c-2.84.17-5.33-.17-5,4,.19,2.76.23,4.85,3.9,4.54,2.54-.21,5.26.31,4.59-3.75C116.72,159.31,117.41,156.58,113.31,156.83Zm18.55-47.59c-.16-2.16,1.08-5.26-3.22-4.77-2.57.29-5.63-.38-5.17,3.88.21,2-.87,4.85,3.14,4.62C128.64,112.37,132.18,113.61,131.86,109.24Zm-34.79-4.81c-3.1-.18-3.72,1-3.87,3.83C93,112,94.88,112.73,98,113s4.11-1.11,3.7-4.06C102.4,105.24,100.27,104.62,97.07,104.43Zm46.85,49.89c-2.94.48-5.81.63-5.34,4.89.23,2.12-.08,4.21,3.17,3.8,3.05-.38,5.93-.71,5.16-4.62C146.86,156.05,147.39,153.74,143.92,154.32Zm-2.26-43.23c2.91-.4,6-.4,5.22-4.7-.29-1.64,1.18-4.74-2.56-4-2.7.55-6.73,0-5.75,4.56C138.5,109.51,138.43,111.53,141.66,111.09ZM98.59,164.74c3.26.53,2.89-1.67,3.08-3.81.33-3.63-1.34-4.49-4.63-4.55-3,0-4.19.9-3.68,3.92C92.31,165,95.94,164.3,98.59,164.74Zm24.8-4c.19,2.47.2,4.59,3.66,4,2.66-.42,5.33-.28,4.92-4.41-.26-2.58-.36-4.57-4-3.81C125.12,156.14,123.09,156.92,123.39,160.75ZM80.81,102.5c-3.14-.69-2.35,1.85-2.58,3.53-.55,4,1.85,4.7,5.14,5,3.53.35,2.81-2,3-4.52C87.15,102.47,83.36,103.06,80.81,102.5Zm-.06,51.83c-3.16-.5-2.3,2-2.52,3.65-.58,4.13,2.14,4.67,5.26,5,3.53.39,2.71-2.11,2.9-4.64C87,154.4,83.46,154.75,80.75,154.33Zm-15.44-2.75c-.59,4.29-1,8.47,5.34,8.22C71.91,151.91,71.91,151.91,65.31,151.58Zm92.76-.5c-3.18.38-4.81,2-4.18,5.36.26,1.35-.84,3.7,2,3.39,3.11-.34,4.94-2,3.95-6.13C159.6,153.19,161.19,150.7,158.07,151.08Zm-.48-51.55c-3.22.36-4.08,2.3-3.71,5.11.18,1.37-.84,3.81,2,3.29,2.47-.44,4.93-1.29,4.11-4.8C159.77,101.6,160.89,99.17,157.59,99.53Zm-90,.07c-3.14-.37-2.26,2-2.54,3.59-.57,3.32,1.62,4.27,4.13,4.73,3,.56,1.59-2,1.94-2.81C71.64,101.89,70.79,100,67.63,99.6Zm-11.57-4c-2.51-.38-1.6,1.67-1.74,2.85-.26,2.21.31,4.38,2.75,4.56s.91-2.1,1.31-3.06C58.46,98,58.46,96,56.06,95.63ZM55.86,147c-2.29-.27-1.39,1.93-1.51,3.15-.19,2.13,0,4.43,2.61,4.72,2.41.26,1-2,1.28-2.57C58.7,149.54,58.39,147.32,55.86,147Zm114.81,1.21c0-.83-.61-1.64-1.59-1.2-4,1.77-1.83,5.15-2.29,8C171.88,154.63,170.7,151.07,170.67,148.22ZM170.73,97c.05-1.31-.78-1.81-1.94-1.25-3.58,1.73-1.59,4.75-1.93,7.41C171.59,102.91,170.63,99.58,170.73,97Zm-61.86,44.52c3.52-2.21,6.64-3.8,9.2-6.62l-9.2-6.05Z"/><path class="cls-3" d="M77.45,61.21a7.21,7.21,0,0,1,1.89-5.38,5.81,5.81,0,0,1,4.3-1.63A5.52,5.52,0,0,1,87.81,56a6.06,6.06,0,0,1,1.73,4.29,11.84,11.84,0,0,1-1.13,5.18A35.05,35.05,0,0,1,85.55,70c-.4.58-1,1.48-1.81,2.7l-.68,1c-.44.66-.76,1.18-1,1.56a1.15,1.15,0,0,0-.16.34h7.32v3.67H77.39V75.86a8.22,8.22,0,0,1,.83-1.36c.24-.39.52-.81.84-1.28l1-1.41q.86-1.17,2.67-3.73a24.72,24.72,0,0,0,2.56-4.36,8.11,8.11,0,0,0,.7-3.29,3,3,0,0,0-.64-1.91,2.21,2.21,0,0,0-1.77-.83,2.28,2.28,0,0,0-2.2,1.81,3.9,3.9,0,0,0-.22,1.41v1H77.45Z"/><path class="cls-3" d="M104.37,73.36a5.75,5.75,0,0,1-1.72,4.18,5.62,5.62,0,0,1-4.14,1.74H92.66V54.51h5.85a5.6,5.6,0,0,1,4.15,1.74,5.74,5.74,0,0,1,1.71,4.17Zm-8,2.23h2.25a2,2,0,0,0,1.5-.65,2.15,2.15,0,0,0,.61-1.51v-13a2.05,2.05,0,0,0-.63-1.51,2,2,0,0,0-1.48-.63H96.38Z"/><path class="cls-3" d="M117.23,53.36h3L110,80.43h-3Z"/><path class="cls-3" d="M128.63,75.78c1.71,0,2.57-.8,2.57-2.39V71.91q0-3.82-4-3.82v-3.2a4,4,0,0,0,3.19-1.21,4.55,4.55,0,0,0,.93-3V60q0-2.43-2.13-2.43a1.88,1.88,0,0,0-1.73.91,3.53,3.53,0,0,0-.41,1.8V61h-3.64v-.58a6.62,6.62,0,0,1,1.34-4.3A5.16,5.16,0,0,1,129,54.2a5.32,5.32,0,0,1,4.2,1.78,5.73,5.73,0,0,1,1.42,4V61a6,6,0,0,1-1.38,4,5.89,5.89,0,0,1-1.38,1.21,6.22,6.22,0,0,1,2.56,2.83,5.19,5.19,0,0,1,.47,2.34v2a5.89,5.89,0,0,1-1.87,4.5,6,6,0,0,1-4.32,1.7,5.62,5.62,0,0,1-4.17-1.74,5.7,5.7,0,0,1-1.71-4.16v-.62l3.53-.27.09.87a2.36,2.36,0,0,0,.66,1.52A2,2,0,0,0,128.63,75.78Z"/><path class="cls-3" d="M149.88,73.36a5.75,5.75,0,0,1-1.72,4.18A5.62,5.62,0,0,1,144,79.28h-5.86V54.51H144a5.6,5.6,0,0,1,4.15,1.74,5.74,5.74,0,0,1,1.71,4.17Zm-8,2.23h2.25a2,2,0,0,0,1.5-.65,2.14,2.14,0,0,0,.6-1.51v-13a2,2,0,0,0-.62-1.51,2,2,0,0,0-1.48-.63h-2.25Z"/></svg>