<svg id="Capa_1" data-name="Capa 1" xmlns="http://www.w3.org/2000/svg" viewBox="0 0 226.77 226.77"><defs><style>.cls-1{fill:#008837;}.cls-2{fill:#fff;}</style></defs><title>IconMesa de trabajo 2</title><path class="cls-1" d="M107.19,14.17h12.34a7.25,7.25,0,0,0,1.35.35,87.66,87.66,0,0,1,30,7.11c37.7,16.85,58.45,46,61.43,87.14A91,91,0,0,1,198.6,164c-18.46,30-45.48,46.26-80.6,48.45a93.27,93.27,0,0,1-55.2-13.76q-38.44-23.4-47-67.77c-.71-3.75-1.09-7.55-1.63-11.33V107.2a7.25,7.25,0,0,0,.35-1.35A94.51,94.51,0,0,1,28.13,62.78c15.63-25.6,38.22-41.34,67.74-47C99.61,15.09,103.41,14.71,107.19,14.17Zm23.1,98.92V111q0-20.18,0-40.33A11.38,11.38,0,0,0,118.77,59q-18.61-.12-37.23,0A11.52,11.52,0,0,0,70.12,70.46q-.08,39.51,0,79A10.83,10.83,0,0,0,76,159.39c4.93,2.74,10.26,1.31,15.49,1.66.38-9.68,6-13.94,14.88-15.09-1.24-2.3-2.43-4.3-3.43-6.39a3.11,3.11,0,0,0-3.31-2.06c-6.38.11-12.76,0-19.13.07-1.58,0-2.12-.37-2.12-2.05q.09-30,0-60.08c0-1.87.62-2.31,2.38-2.3q19.44.09,38.88,0c1.81,0,2.31.47,2.3,2.29-.09,12.21,0,24.42,0,36.63v2Zm-10.93,8.84c-1.43-2.6-2.67-5-4.08-7.37-1.27-2.09-2.42-4.41-4.2-6a8.8,8.8,0,0,0-11.19,0,8.94,8.94,0,0,0-2.11,11c3.46,6.53,7.11,13,10.67,19.44,2.34,4.22,4.67,8.45,6.91,12.52-3.38,0-6.66,0-9.94,0-4.48.07-8.18,3.25-8.4,7.14-.3,5.24,2,8.12,7.2,8.93.61.1,1.22.18,1.83.25a61.22,61.22,0,0,1,19.75,5.85,33.31,33.31,0,0,0,9.15,2.84c8,1.3,15.34-1.29,22.14-5.23,12-7,15.25-18.31,8.81-30.66-3.19-6.12-6.53-12.18-9.91-18.21a7.94,7.94,0,0,0-6.14-4.3A9.34,9.34,0,0,0,143,120c-4.5-3.69-7.87-3.69-12.39-.18a2,2,0,0,1-1.6.25A9.76,9.76,0,0,0,119.36,121.93ZM101.51,97.29c.37.33.68.59,1,.87,3.46,3.49,7.65,4.56,12.41,3.77,2.19-.37,2.89-1.28,2.72-3.32s-1.56-2.08-3.1-2.1a19.07,19.07,0,0,1-4.79-.34c-3-.83-4.6-3.26-5.8-6-.73-1.62-2-2.72-3.71-1.88a5.26,5.26,0,0,0-2,2.68C96,96.4,91.81,99,86,98.43a7.34,7.34,0,0,0-1.24,0c-1.59.08-2.45.92-2.21,2.52a6,6,0,0,0,1,2.61c2.6,3.68,3.14,7.31.35,11.18a2.7,2.7,0,0,0,.27,3.9c1.17,1,2.85.78,4.2-.62a10.31,10.31,0,0,0,2.79-7.3c0-2.16-.19-4.32-.31-6.63A19.49,19.49,0,0,0,101.51,97.29Z"/><path class="cls-2" d="M119.36,121.93a9.76,9.76,0,0,1,9.68-1.87,2,2,0,0,0,1.6-.25c4.52-3.51,7.89-3.51,12.39.18a9.34,9.34,0,0,1,6.82-1.8,7.94,7.94,0,0,1,6.14,4.3c3.38,6,6.72,12.09,9.91,18.21,6.44,12.35,3.23,23.7-8.81,30.66-6.8,3.94-14.11,6.53-22.14,5.23a33.31,33.31,0,0,1-9.15-2.84,61.22,61.22,0,0,0-19.75-5.85c-.61-.07-1.22-.15-1.83-.25-5.18-.81-7.5-3.69-7.2-8.93.22-3.89,3.92-7.07,8.4-7.14,3.28-.05,6.56,0,9.94,0-2.24-4.07-4.57-8.3-6.91-12.52-3.56-6.48-7.21-12.91-10.67-19.44a8.94,8.94,0,0,1,2.11-11,8.8,8.8,0,0,1,11.19,0c1.78,1.58,2.93,3.9,4.2,6C116.69,116.89,117.93,119.33,119.36,121.93Zm-10.82,35.13,0,.28h-1.64c-2.35,0-4.09,1-4,2.35.14,2.36,2.12,2.19,3.68,2.38A68,68,0,0,1,127,167.72,33.86,33.86,0,0,0,137.89,171c6.51.57,12.36-2.15,17.64-5.71,8.36-5.64,10-13.42,5-22.06-1.85-3.2-3.55-6.49-5.33-9.73-1.48-2.7-2.88-5.46-4.52-8a3.83,3.83,0,0,0-2.52-1.26c-.39-.06-1.3.94-1.32,1.48a5.52,5.52,0,0,0,.82,2.48,46.37,46.37,0,0,1,2.93,5.63,4.22,4.22,0,0,1-.69,3.47c-.51.62-2.13.7-3.11.44-.74-.2-1.39-1.22-1.84-2-2-3.57-4-7.19-6-10.78-.74-1.32-1.77-2.21-3.34-1.3s-1.56,2-.74,3.5c1.64,2.93,3.33,5.84,4.72,8.88a4.57,4.57,0,0,1-.05,3.61c-.38.69-2,1.08-3,.94a3.8,3.8,0,0,1-2.17-1.9c-2.16-3.73-4.16-7.55-6.25-11.32-1-1.83-2.34-2.38-3.65-1.61s-1.7,2.22-.81,3.87c1.7,3.13,3.41,6.25,5.1,9.38,1,1.82.67,3.78-.7,4.6-1.62,1-3.45.29-4.57-1.73-2.39-4.31-4.76-8.63-7.15-12.94-2.65-4.79-5.22-9.63-8-14.33a4.13,4.13,0,0,0-3-1.84,3.62,3.62,0,0,0-2.49,2.25c-.27.89.39,2.21.93,3.18q9.67,17.64,19.47,35.23c.82,1.47,1.41,2.93.38,4.4s-2.74,1.08-4.31.84C115.71,158,112.12,157.55,108.54,157.06Z"/><path class="cls-2" d="M101.51,97.29a19.49,19.49,0,0,1-10.69,6.79c.12,2.31.34,4.47.31,6.63a10.31,10.31,0,0,1-2.79,7.3c-1.35,1.4-3,1.63-4.2.62a2.7,2.7,0,0,1-.27-3.9c2.79-3.87,2.25-7.5-.35-11.18a6,6,0,0,1-1-2.61c-.24-1.6.62-2.44,2.21-2.52a7.34,7.34,0,0,1,1.24,0c5.82.56,10-2,12.26-7.43a5.26,5.26,0,0,1,2-2.68c1.74-.84,3,.26,3.71,1.88,1.2,2.71,2.79,5.14,5.8,6a19.07,19.07,0,0,0,4.79.34c1.54,0,2.94.07,3.1,2.1s-.53,3-2.72,3.32c-4.76.79-8.95-.28-12.41-3.77C102.19,97.88,101.88,97.62,101.51,97.29Z"/><path class="cls-1" d="M108.54,157.06c3.58.49,7.17.95,10.74,1.49,1.57.24,3.23.7,4.31-.84s.44-2.93-.38-4.4q-9.81-17.58-19.47-35.23c-.54-1-1.2-2.29-.93-3.18a3.62,3.62,0,0,1,2.49-2.25,4.13,4.13,0,0,1,3,1.84c2.81,4.7,5.38,9.54,8,14.33,2.39,4.31,4.76,8.63,7.15,12.94,1.12,2,3,2.69,4.57,1.73,1.37-.82,1.69-2.78.7-4.6-1.69-3.13-3.4-6.25-5.1-9.38-.89-1.65-.59-3,.81-3.87s2.64-.22,3.65,1.61c2.09,3.77,4.09,7.59,6.25,11.32a3.8,3.8,0,0,0,2.17,1.9c1,.14,2.61-.25,3-.94a4.57,4.57,0,0,0,.05-3.61c-1.39-3-3.08-5.95-4.72-8.88-.82-1.45-.73-2.66.74-3.5s2.6,0,3.34,1.3c2,3.59,3.94,7.21,6,10.78.45.8,1.1,1.82,1.84,2,1,.26,2.6.18,3.11-.44a4.22,4.22,0,0,0,.69-3.47,46.37,46.37,0,0,0-2.93-5.63,5.52,5.52,0,0,1-.82-2.48c0-.54.93-1.54,1.32-1.48a3.83,3.83,0,0,1,2.52,1.26c1.64,2.59,3,5.35,4.52,8,1.78,3.24,3.48,6.53,5.33,9.73,5,8.64,3.39,16.42-5,22.06-5.28,3.56-11.13,6.28-17.64,5.71A33.86,33.86,0,0,1,127,167.72a68,68,0,0,0-20.46-5.65c-1.56-.19-3.54,0-3.68-2.38-.07-1.37,1.67-2.32,4-2.35h1.64Z"/></svg>