<svg id="Capa_1" data-name="Capa 1" xmlns="http://www.w3.org/2000/svg" viewBox="0 0 226.77 226.77"><defs><style>.cls-1{fill:#f86951;}.cls-2{fill:#fff;}</style></defs><title>IconMesa de trabajo 3</title><circle class="cls-1" cx="113.39" cy="113.39" r="99.21"/><path class="cls-2" d="M153.85,67.35H66.32c-2.16,0-2.16,0-2.16,2.2v57.31c0,2.09,0,2.09,2.1,2.09q31.88,0,63.76,0c1.69,0,2.13.5,2.06,2.1-.12,2.68-.1,5.38,0,8.07.05,1.44-.35,1.94-1.89,1.93-9-.07-18,0-26.95,0H62.55c-2.88,0-3.66-.76-3.66-3.59V65.54c0-2.71.74-3.47,3.41-3.47h93.47c2.6,0,3.36.75,3.36,3.35,0,9.42,0,18.84,0,28.25,0,1.33-.38,1.78-1.74,1.77-3.57,0-3.57,0-3.57-3.6V67.35Z"/><path class="cls-2" d="M93.12,83.43q15.48.33,31,.66c2.42,0,4.83.2,7.25.29,1.15,0,1.64.53,1.46,1.74Q131.38,96,130,105.89c-.17,1.2-.83,1.49-1.88,1.5-3.44,0-6.88.06-10.32.14-7.15.16-14.3.32-21.45.54a2.16,2.16,0,0,1-2.47-1.68c-2.49-6.93-5.07-13.82-7.61-20.73-.67-1.8-.29-2.35,1.65-2.35h5.16Z"/><path class="cls-2" d="M143.71,147.89c.55,0,1,.1,1.5.1,8.33,0,16.67,0,25,0,1.33,0,1.76-.37,1.74-1.72-.08-5.06,0-10.12-.05-15.18,0-1.15.28-1.6,1.52-1.61,3.78,0,3.78-.07,3.78,3.72q0,8.31,0,16.62c0,2.63-.75,3.41-3.31,3.41H141.61c-2.56,0-3.32-.77-3.32-3.4q0-22.51,0-45c0-2.59.78-3.35,3.36-3.36,5.28,0,10.55,0,15.82,0,1.36,0,1.77.44,1.74,1.76-.11,4.27.43,3.48-3.48,3.53-3.6,0-7.21,0-10.81,0-.92,0-1.36.23-1.36,1.26q0,19.61,0,39.22A5.51,5.51,0,0,0,143.71,147.89Z"/><path class="cls-2" d="M109.05,164.7H86.94a17.36,17.36,0,0,1-1.77,0A2.41,2.41,0,0,1,82.71,162a2.36,2.36,0,0,1,2.56-2.5c4.46-.06,8.93,0,13.39,0,2.88,0,2.88,0,2.88-2.83,0-3.12,0-6.24,0-9.36,0-1.14.25-1.64,1.52-1.62,4,.07,8,.07,11.94,0,1.27,0,1.52.5,1.5,1.63-.06,3.18,0,6.35,0,9.52,0,2.66,0,2.66,2.74,2.66h12.11a17.45,17.45,0,0,1,1.77.06,2.45,2.45,0,0,1,2.33,2.45,2.48,2.48,0,0,1-2.32,2.61,15.58,15.58,0,0,1-1.93.08Z"/><path class="cls-2" d="M186.27,106.24c0,4.62,0,9.24,0,13.87,0,2.38-.8,3.19-3.2,3.2-5,0-10,0-15,0-2.38,0-3.24-1-3.24-3.38q0-13.71,0-27.42c0-2.43.87-3.34,3.25-3.35q7.5,0,15,0c2.38,0,3.17.81,3.18,3.21C186.28,97,186.27,101.61,186.27,106.24Zm-2.4-2c0-3.65,0-7.31,0-11,0-1.27-.25-1.81-1.67-1.79-4.46.09-8.92.07-13.38,0-1.18,0-1.63.37-1.62,1.56q0,11.2,0,22.41c0,1.15.37,1.67,1.57,1.66,4.51,0,9,0,13.54,0,1.15,0,1.59-.39,1.57-1.6C183.82,111.81,183.87,108,183.87,104.28Z"/><path class="cls-2" d="M89,115h2.55q17.43,0,34.86,0c.86,0,2.27-.5,2.3,1s-1.44,1.12-2.35,1.12q-19,0-37.93,0c-2.4,0-2.93-.61-1.68-2.65,2.44-4,2.24-7.63.28-11.86C83.67,95.33,80.94,87.78,78,80.36a5,5,0,0,0-5.49-2.74,2.49,2.49,0,0,1-3.31-1.49,2.41,2.41,0,0,1,1.27-2.95c1.21-.61,2.19-.09,3.33,1.08A9,9,0,0,0,77,76.21,5.06,5.06,0,0,1,80,79.4q5.29,13.42,10.79,26.76a5.22,5.22,0,0,1-.09,4.73C90.14,112.07,89.69,113.31,89,115Z"/><path class="cls-2" d="M157.74,135.19c-2.26,0-4.52,0-6.78,0-1,0-1.35-.34-1.32-1.32.06-1.78.05-3.55,0-5.33,0-1,.37-1.35,1.33-1.35,3.44,0,6.9-.19,10.32.11,1.48.13,2.9,1.24,4.27,2.05.29.17.28,1,.29,1.49.05,4.34.05,4.34-4.24,4.34Z"/><path class="cls-2" d="M154.37,121c-1.13,0-2.26,0-3.38,0-1,0-1.38-.28-1.35-1.29.06-1.88,0-3.76,0-5.64,0-.9.32-1.25,1.23-1.23,2.31,0,4.62,0,6.93,0,.95,0,1.38.31,1.36,1.29,0,1.88,0,3.76,0,5.64,0,.89-.36,1.27-1.25,1.24C156.74,120.93,155.55,121,154.37,121Z"/><path class="cls-2" d="M126.49,122.41a3.53,3.53,0,0,1-3.32,3.65,3.71,3.71,0,0,1-3.55-3.49A3.54,3.54,0,0,1,123,119,3.42,3.42,0,0,1,126.49,122.41Z"/><path class="cls-2" d="M94.93,119a3.67,3.67,0,0,1,3.43,3.59,3.82,3.82,0,0,1-3.6,3.47,3.51,3.51,0,0,1-3.32-3.63A3.44,3.44,0,0,1,94.93,119Z"/><path class="cls-2" d="M172.57,102.14c0-1.39,0-2.79,0-4.18,0-1,.36-1.27,1.32-1.31,4.89-.17,4.89-.2,4.89,4.64,0,1.72,0,3.43,0,5.15,0,1-.37,1.27-1.32,1.31-4.89.21-4.89.23-4.89-4.65Z"/></svg>