<svg id="Capa_1" data-name="Capa 1" xmlns="http://www.w3.org/2000/svg" viewBox="0 0 226.77 226.77"><defs><style>.cls-1{fill:#349980;}.cls-2{fill:#fff;}</style></defs><title>IconMesa de trabajo 6</title><path class="cls-1" d="M120.24,14.17c1.9.32,3.8.74,5.71.95a93.68,93.68,0,0,1,23.13,5.82A96.47,96.47,0,0,1,172.2,33.66a99.19,99.19,0,0,1,19,18.44A94.42,94.42,0,0,1,205,75.76a113.71,113.71,0,0,1,4.78,15.8,89.33,89.33,0,0,1,2.55,15.37c.3,5,.65,10.17-.45,15.25-.72,3.32-.8,6.77-1.41,10.12a89.88,89.88,0,0,1-6.4,20.63,101.65,101.65,0,0,1-9.12,16.54,100,100,0,0,1-34.6,31.1,91.8,91.8,0,0,1-23.83,9.09c-4.51,1-9.2,1.29-13.74,2.21a53.75,53.75,0,0,1-14.26.49A106.14,106.14,0,0,1,92.15,210,88.83,88.83,0,0,1,77,205.37,126.55,126.55,0,0,1,60.3,197a90.69,90.69,0,0,1-21.92-18.83,100.14,100.14,0,0,1-15-23.31,87.7,87.7,0,0,1-6.24-17.94A125.46,125.46,0,0,1,14.87,123a84.14,84.14,0,0,1-.6-13.91,117.45,117.45,0,0,1,2.37-17,85.19,85.19,0,0,1,4.54-14.85,141.08,141.08,0,0,1,8.38-16.72A84.3,84.3,0,0,1,43.74,42.77,99.87,99.87,0,0,1,72.8,22.9a88.32,88.32,0,0,1,16.88-5.78c4.59-1,9.27-1.54,13.91-2.31.93-.15,1.85-.42,2.77-.64Zm-4.3,141c3.76.17,15.88.31,18.17.19a3.22,3.22,0,0,0,3.28-1.64c1.06-1.55,2-3.37,2.91-5a31.53,31.53,0,0,0,4.85-17.06c0-1,.4-1.38,1.37-1.36,2.47,0,4.95,0,7.43,0,6.23-.1,10.69-4.46,10.7-10.62q.06-22,0-44.11a10.51,10.51,0,0,0-.77-4.17c-2-4.35-5.47-6.37-10.24-6.36l-78.48.12a10.18,10.18,0,0,0-8.93,6.21,13.9,13.9,0,0,0-.86,4.46c-.11,14.43-.09,28.86-.22,43.29-.06,6.81,4.79,11.22,11.34,11.19,8,0,16,0,24-.05a2.55,2.55,0,0,1,2.73,1.82c.57,1.37,1.1,2.77,1.77,4.09,1.42,2.78,2.84,5.39,4.23,8.51C113.19,154.84,115.13,155.19,115.94,155.14Z"/><path class="cls-2" d="M113.85,179.41c-3.17,0-12.28-20.82-13.63-24.38-.85-1.67-1.53-3.43-2.25-5.17a3.23,3.23,0,0,0-3.45-2.3c-10.11.12-20.21,0-30.31.07-8.3,0-14.43-5.55-14.36-14.17.17-18.26.14-36.52.28-54.78A17.74,17.74,0,0,1,51.21,73c1.54-4.35,6.72-7.84,11.31-7.85q49.65-.08,99.3-.15c6,0,10.47,2.55,13,8a13.42,13.42,0,0,1,1,5.27q.11,27.91,0,55.83c0,7.78-5.65,13.3-13.54,13.43-3.13,0-6.27,0-9.41,0-1.23,0-1.74.44-1.72,1.73A40,40,0,0,1,145,170.91c-1.26,2.08-2.52,4.17-3.68,6.3a3.77,3.77,0,0,1-3.94,2.09c-2.54-.12-5.09,0-7.63,0C129.61,179.57,113.85,179.41,113.85,179.41ZM113,70.32q-24.45,0-48.91,0c-6,0-9,3.09-9,9q0,26.65,0,53.31a20.46,20.46,0,0,0,.26,3.32,7.34,7.34,0,0,0,7.07,6.21c10.1.06,20.21,0,30.31.07,1.25,0,1.61-.51,1.85-1.68a7,7,0,0,1,1.5-3.08c2.32-2.62,5.31-3.15,8.58-2.19,1.66.49,2.24.07,2.21-1.72-.07-4.25,0-8.5.08-12.75a2.82,2.82,0,0,0-1.4-2.73,14.78,14.78,0,0,1-6.47-10.52,15.15,15.15,0,0,1,20.66-16c10.61,4,13.21,18.07,4.53,25.21a6.8,6.8,0,0,0-2.83,6.72c.15,1.42.4,1.92,2,1.73,2.76-.35,5.37,0,7.38,2.41a3.31,3.31,0,0,0,2.4.56c3-.19,5.62.38,7.51,3.05.4.56,1.42.73,2.19,1,1.67.53,3.54.69,5,1.55,2.45,1.41,3,4.08,3.19,6.68.11,1.39.69,1.77,2,1.74,3.27-.06,6.55,0,9.82,0a7.47,7.47,0,0,0,2.44-.44c3.64-1.39,5.2-3.91,5.2-8.39q0-26.76,0-53.52c0-6.67-2.84-9.54-9.52-9.54Zm13,104.46v0c2.93,0,5.86-.06,8.78,0a4.47,4.47,0,0,0,4-2.15c7.06-9.64,8.76-20.57,7.82-32.15-.13-1.69-.7-3.36-2.57-3.59s-1.81,1.62-2.44,2.81a3.52,3.52,0,0,1-2.55,1.52c-1.35.08-1.73-1.13-1.69-2.38a18.94,18.94,0,0,0,0-3.53,3,3,0,0,0-1.14-2,3.51,3.51,0,0,0-2.86-.21,4.34,4.34,0,0,0-1.34,2.76c-.24,1.39-.05,2.93-2,3.17-1.33.17-2.51-1.31-2.59-3.21,0-1,0-2.09.08-3.13.1-2.15-.61-2.94-2.73-3s-3,.8-3.1,2.79c0,1.11,0,2.23.06,3.34a2,2,0,0,1-1.93,2.28,2.07,2.07,0,0,1-2.49-1.94,18.69,18.69,0,0,1-.25-2.69c-.09-5.43-.13-10.87-.22-16.3,0-1.72-.52-3.26-2.54-3.51-1.45-.18-2.76,1.46-2.87,3.5-.08,1.53,0,3.07,0,4.6-.08,6.48-.07,13-.32,19.44,0,1.08-1.18,2.11-1.82,3.17-.89-.62-1.84-1.18-2.66-1.88a32.08,32.08,0,0,0-2.48-2.47,3.54,3.54,0,0,0-4.47.37c-1.34,1.12-.42,2.36.2,3.55,1,1.85,1.83,3.75,2.74,5.64,2.64,5.5,5.23,11,8,16.49,1.23,2.49,2.82,4.8,4,7.29A2.24,2.24,0,0,0,117,174.8C120,174.75,123,174.78,126,174.78Zm-14.81-65.56c2,.11,3.78.22,5.54.29a1.39,1.39,0,0,0,.76-.28,30.22,30.22,0,0,0,3.49-2.65,1.84,1.84,0,0,0-.06-1.79c-2.58-2-5.25-3.9-7.92-5.78-.91-.64-1.74-.39-1.77.75C111.13,102.94,111.19,106.12,111.19,109.22Z"/><path class="cls-1" d="M113,70.32H161.1c6.68,0,9.52,2.87,9.52,9.54q0,26.76,0,53.52c0,4.48-1.56,7-5.2,8.39a7.47,7.47,0,0,1-2.44.44c-3.27,0-6.55,0-9.82,0-1.28,0-1.86-.35-2-1.74-.22-2.6-.74-5.27-3.19-6.68-1.48-.86-3.35-1-5-1.55-.77-.25-1.79-.42-2.19-1-1.89-2.67-4.49-3.24-7.51-3.05a3.31,3.31,0,0,1-2.4-.56c-2-2.36-4.62-2.76-7.38-2.41-1.59.19-1.84-.31-2-1.73a6.8,6.8,0,0,1,2.83-6.72c8.68-7.14,6.08-21.17-4.53-25.21a15.15,15.15,0,0,0-20.66,16,14.78,14.78,0,0,0,6.47,10.52,2.82,2.82,0,0,1,1.4,2.73c-.09,4.25-.15,8.5-.08,12.75,0,1.79-.55,2.21-2.21,1.72-3.27-1-6.26-.43-8.58,2.19a7,7,0,0,0-1.5,3.08c-.24,1.17-.6,1.68-1.85,1.68-10.1-.05-20.21,0-30.31-.07A7.34,7.34,0,0,1,55.41,136a20.46,20.46,0,0,1-.26-3.32q0-26.65,0-53.31c0-5.94,3-9,9-9Q88.58,70.3,113,70.32Zm.23,14.92q23.19,0,46.39,0c4.86,0,4.16.48,4.2-4.25,0-2.7-.16-2.86-2.82-2.86H68c-4.69,0-4.61,0-4.75,4.8-.06,1.82.44,2.36,2.31,2.35C81.48,85.21,97.37,85.24,113.25,85.24ZM77.56,102.65v0c4.17,0,8.34,0,12.51,0,1.67,0,2.41-.59,2.35-2.33-.1-2.64-.1-5.29,0-7.92.07-1.77-.55-2.53-2.38-2.52q-12.42.07-24.82,0c-1.39,0-1.88.57-1.87,1.84,0,3.06,0,6.12,0,9.18,0,1.32.58,1.78,1.94,1.75C69.36,102.59,73.46,102.65,77.56,102.65Zm.32,13.62v0c-4.31,0-8.62,0-12.92,0-.53,0-1,.75-1.57,1.15.53.4,1.06,1.13,1.59,1.14q12.7.09,25.43,0c.66,0,1.31-.84,2-1.29-.66-.33-1.32-.94-2-1C86.22,116.22,82.05,116.27,77.88,116.27Zm-.17,7.48c-4.18,0-8.36,0-12.53,0-.6,0-1.18.75-1.77,1.15.57.42,1.13,1.2,1.7,1.21q12.52.11,25.06,0c.73,0,1.45-.82,2.18-1.27-.71-.37-1.4-1.06-2.12-1.08C86.06,123.7,81.88,123.75,77.71,123.75Zm71.28-23c4.25,0,8.5,0,12.74,0,.56,0,1.1-.73,1.65-1.12-.52-.43-1-.9-1.56-1.27-.19-.13-.54,0-.82,0-8,0-16,0-24,.05-.77,0-2.17.7-2.19,1.12-.07,1.5,1.28,1.28,2.3,1.28Zm.22-10c-4.25,0-8.5,0-12.74,0-.6,0-1.18.63-1.76,1,.58.45,1.16,1.28,1.75,1.28q12.53.1,25.07,0c.62,0,1.23-.74,1.85-1.14-.61-.37-1.22-1-1.84-1.07C157.43,90.65,153.32,90.69,149.21,90.69ZM77.52,111h0c4.31,0,8.62,0,12.93,0,.64,0,1.25-.71,1.88-1.09-.59-.41-1.18-1.18-1.78-1.18q-12.84-.14-25.67,0c-.5,0-1,.8-1.5,1.22.54.38,1.07,1.06,1.62,1.07C69.17,111,73.34,111,77.52,111Zm.21,22.84v0c4.17,0,8.34.05,12.51,0,.71,0,1.4-.7,2.1-1.07-.7-.39-1.4-1.1-2.11-1.11q-12.49-.1-25,0c-.61,0-1.21.72-1.82,1.11.61.36,1.21,1,1.82,1C69.39,133.84,73.56,133.8,77.73,133.8Zm71.49-27.75v0c-4.24,0-8.48,0-12.72,0-.58,0-1.15.76-1.73,1.17.6.39,1.2,1.13,1.8,1.13,8.21.06,16.41,0,24.61,0,1,0,2.2.22,2.12-1.2,0-.41-1.28-1-2-1.06C157.29,106,153.26,106.05,149.22,106.05Zm-.14,9.75c4.1,0,8.2,0,12.3,0,.66,0,1.31-.64,2-1-.68-.4-1.35-1.13-2-1.14q-12.2-.12-24.4,0c-.73,0-1.45.67-2.18,1,.75.38,1.5,1.07,2.26,1.09C141,115.86,145.05,115.8,149.08,115.8Z"/><path class="cls-1" d="M126,174.78c-3,0-6,0-9,0a2.24,2.24,0,0,1-2.39-1.49c-1.21-2.49-2.8-4.8-4-7.29-2.72-5.47-5.31-11-8-16.49-.91-1.89-1.78-3.79-2.74-5.64-.62-1.19-1.54-2.43-.2-3.55a3.54,3.54,0,0,1,4.47-.37,32.08,32.08,0,0,1,2.48,2.47c.82.7,1.77,1.26,2.66,1.88.64-1.06,1.78-2.09,1.82-3.17.25-6.48.24-13,.32-19.44,0-1.53,0-3.07,0-4.6.11-2,1.42-3.68,2.87-3.5,2,.25,2.51,1.79,2.54,3.51.09,5.43.13,10.87.22,16.3a18.69,18.69,0,0,0,.25,2.69,2.07,2.07,0,0,0,2.49,1.94,2,2,0,0,0,1.93-2.28c0-1.11-.1-2.23-.06-3.34.08-2,1.1-2.88,3.1-2.79s2.83.88,2.73,3c0,1-.12,2.09-.08,3.13.08,1.9,1.26,3.38,2.59,3.21,1.91-.24,1.72-1.78,2-3.17a4.34,4.34,0,0,1,1.34-2.76,3.51,3.51,0,0,1,2.86.21,3,3,0,0,1,1.14,2,18.94,18.94,0,0,1,0,3.53c0,1.25.34,2.46,1.69,2.38a3.52,3.52,0,0,0,2.55-1.52c.63-1.19.59-3,2.44-2.81s2.44,1.9,2.57,3.59c.94,11.58-.76,22.51-7.82,32.15a4.47,4.47,0,0,1-4,2.15c-2.92-.09-5.85,0-8.78,0Z"/><path class="cls-1" d="M111.19,109.22c0-3.1-.06-6.28,0-9.46,0-1.14.86-1.39,1.77-.75,2.67,1.88,5.34,3.77,7.92,5.78a1.84,1.84,0,0,1,.06,1.79,30.22,30.22,0,0,1-3.49,2.65,1.39,1.39,0,0,1-.76.28C115,109.44,113.21,109.33,111.19,109.22Z"/><path class="cls-2" d="M113.25,85.24c-15.88,0-31.77,0-47.65,0-1.87,0-2.37-.53-2.31-2.35.14-4.8.06-4.8,4.75-4.8h93c2.66,0,2.84.16,2.82,2.86,0,4.73.66,4.24-4.2,4.25Q136.44,85.26,113.25,85.24Z"/><path class="cls-2" d="M77.56,102.65c-4.1,0-8.2-.06-12.3,0-1.36,0-1.94-.43-1.94-1.75,0-3.06,0-6.12,0-9.18,0-1.27.48-1.85,1.87-1.84q12.41.07,24.82,0c1.83,0,2.45.75,2.38,2.52-.09,2.63-.09,5.28,0,7.92.06,1.74-.68,2.35-2.35,2.33-4.17-.05-8.34,0-12.51,0Z"/><path class="cls-2" d="M77.88,116.27c4.17,0,8.34,0,12.51,0,.66,0,1.32.63,2,1-.65.45-1.3,1.28-2,1.29q-12.72.14-25.43,0c-.53,0-1.06-.74-1.59-1.14.52-.4,1-1.13,1.57-1.15,4.3-.09,8.61,0,12.92,0Z"/><path class="cls-2" d="M77.71,123.75c4.17,0,8.35,0,12.52,0,.72,0,1.41.71,2.12,1.08-.73.45-1.45,1.26-2.18,1.27q-12.53.13-25.06,0c-.57,0-1.13-.79-1.7-1.21.59-.4,1.17-1.13,1.77-1.15C69.35,123.7,73.53,123.75,77.71,123.75Z"/><path class="cls-2" d="M149,100.7h-11.9c-1,0-2.37.22-2.3-1.28,0-.42,1.42-1.12,2.19-1.12,8-.09,16-.05,24-.05.28,0,.63-.11.82,0,.55.37,1,.84,1.56,1.27-.55.39-1.09,1.11-1.65,1.12C157.49,100.75,153.24,100.7,149,100.7Z"/><path class="cls-2" d="M149.21,90.69c4.11,0,8.22,0,12.33,0,.62,0,1.23.7,1.84,1.07-.62.4-1.23,1.13-1.85,1.14q-12.54.14-25.07,0c-.59,0-1.17-.83-1.75-1.28.58-.33,1.16-1,1.76-1C140.71,90.65,145,90.69,149.21,90.69Z"/><path class="cls-2" d="M77.52,111c-4.18,0-8.35,0-12.52,0-.55,0-1.08-.69-1.62-1.07.5-.42,1-1.21,1.5-1.22q12.84-.09,25.67,0c.6,0,1.19.77,1.78,1.18-.63.38-1.24,1.07-1.88,1.09-4.31.1-8.62,0-12.93,0Z"/><path class="cls-2" d="M77.73,133.8c-4.17,0-8.34,0-12.51-.05-.61,0-1.21-.68-1.82-1,.61-.39,1.21-1.11,1.82-1.11q12.51-.12,25,0c.71,0,1.41.72,2.11,1.11-.7.37-1.39,1.05-2.1,1.07-4.17.1-8.34,0-12.51,0Z"/><path class="cls-2" d="M149.22,106.05c4,0,8.07,0,12.1,0,.7,0,2,.65,2,1.06.08,1.42-1.16,1.19-2.12,1.2-8.2,0-16.4.07-24.61,0-.6,0-1.2-.74-1.8-1.13.58-.41,1.15-1.15,1.73-1.17,4.24-.1,8.48,0,12.72,0Z"/><path class="cls-2" d="M149.08,115.8c-4,0-8.07.06-12.1,0-.76,0-1.51-.71-2.26-1.09.73-.36,1.45-1,2.18-1q12.21-.1,24.4,0c.69,0,1.36.74,2,1.14-.65.34-1.3,1-2,1C157.28,115.85,153.18,115.8,149.08,115.8Z"/></svg>