<?xml version="1.0" encoding="utf-8"?>
<!-- Generator: Adobe Illustrator 22.0.1, SVG Export Plug-In . SVG Version: 6.00 Build 0)  -->
<svg version="1.1" id="Capa_21" xmlns="http://www.w3.org/2000/svg" xmlns:xlink="http://www.w3.org/1999/xlink" x="0px" y="0px"
	 viewBox="0 0 394 395" style="enable-background:new 0 0 394 395;" xml:space="preserve">
<style type="text/css">
	.st0{fill:#74B283;}
	.st1{fill:#48566D;}
	.st2{fill:#3E4A5D;}
	.st3{fill:#5F986F;}
	.st4{opacity:0.15;fill:none;stroke:#2B275B;stroke-width:4;stroke-miterlimit:10;}
	.st5{fill:#6F6F6E;}
</style>
<g id="ImgLogo">
	<g id="imgaenPrin">
		
			<rect id="RecVerdeInf" x="200.4" y="203" transform="matrix(-0.7071 0.7071 -0.7071 -0.7071 673.5164 199.929)" class="st0" width="190" height="73"/>
		
			<rect id="RecAzul1" x="4" y="120" transform="matrix(0.7071 -0.7071 0.7071 0.7071 -81.688 115.8781)" class="st1" width="190" height="73"/>
		
			<rect id="RecAzul2" x="60.9" y="259.7" transform="matrix(0.7071 0.7071 -0.7071 0.7071 255.0825 -23.5061)" class="st2" width="190" height="73"/>
		
			<rect id="RecVerdeSup" x="143.5" y="63.3" transform="matrix(0.7071 0.7071 -0.7071 0.7071 140.4439 -139.3803)" class="st3" width="190" height="73"/>
	</g>
	<g id="paren2">
		<polygon class="st4" points="357.5,153.2 343.7,139.5 223.1,18.9 183.5,58.5 304.1,179.1 235.6,247.6 270,282 378.1,173.9 		"/>
	</g>
	<g id="Paren1">
		<polygon class="st4" points="86.1,219.1 158.1,147.1 118.8,107.8 10.3,216.2 35.1,240.9 35.1,240.9 166.6,372.4 203,336 		"/>
	</g>
	<g id="centro">
		
			<rect x="150.9" y="152.7" transform="matrix(0.7071 0.7071 -0.7071 0.7071 198.0451 -81.0145)" class="st5" width="91.8" height="91.8"/>
	</g>
</g>
</svg>
