<svg id="Capa_1" data-name="Capa 1" xmlns="http://www.w3.org/2000/svg" viewBox="0 0 226.77 226.77"><defs><style>.cls-1{fill:#93014a;}.cls-2{fill:gray;}.cls-3{fill:#e5e5e5;}.cls-4{fill:#fff;}.cls-5{fill:#3f777c;}.cls-6{fill:#134348;}.cls-7{fill:#ff0;}</style></defs><title>IconMesa de trabajo 7</title><circle class="cls-1" cx="113.39" cy="113.39" r="99.21"/><path class="cls-2" d="M160.27,156.33H145.4V65.8h14.87a5,5,0,0,1,4.95,5v80.62A5,5,0,0,1,160.27,156.33Z"/><path class="cls-3" d="M113.35,155.64l31.39,5.61c5.29,0,5.94-3,5.94-15.24V74.74c0-14.92.48-18.88-5.94-16.57L114,66.43Z"/><path class="cls-4" d="M113.49,155.53H66c-5.29,0-4.33-4.34-4.33-9.63V74.62A9.65,9.65,0,0,1,71.25,65l42.9,1.32Z"/><polygon class="cls-5" points="85.22 112.8 96.91 98.48 108.39 112.98 85.22 112.8"/><polygon class="cls-6" points="113.69 113.11 113.46 89.47 122.62 113.11 113.69 113.11"/><polygon class="cls-5" points="101.88 103.79 113.57 89.47 113.69 113.11 108.39 112.98 101.88 103.79"/><circle class="cls-5" cx="97.54" cy="95.34" r="3.14"/><circle class="cls-7" cx="95.89" cy="147.06" r="22.15"/><polygon class="cls-4" points="90.3 156.33 90.3 139.81 103.77 148.07 90.3 156.33"/></svg>