<svg xmlns="http://www.w3.org/2000/svg" viewBox="0 0 775.76 569.78"><defs><style>.cls-1{fill:#2c3752;}.cls-2{fill:#fff;}.cls-3{fill:#74b283;}</style></defs><title>promo landMesa de trabajo 6</title><g id="responsive1"><g id="Promo"><path class="cls-1" d="M257.62,105.71c-39,14.38-72.88,40-100.63,73-28.28,33.7-52.11,76.27-61.87,122.71-9.41,44.84-1.23,95.2,31.33,129.5C156,462.09,199,471.52,236.19,478c95.74,16.77,190.59,0,276.55-39.49,72.84-33.44,145.47-85.37,168.94-175.62,12.94-49.75-29.62-91.07-64.67-115.34S541.72,112,502.25,106.72C410.11,94.35,316.38,109.44,237,156c-37.36,21.9-74.36,51.49-100.68,88.65-22.37,31.58-33.56,72.09-23,114.25,11.17,44.67,46,77,82.42,94.84,41.24,20.21,86.5,27.5,129.75,25.69,43.68-1.83,86-13.71,126.12-30,39.84-16.14,78.65-36.33,113.53-62.66,35.24-26.61,66.24-61.1,87.73-102.72,9.7-18.77,13.77-39.64,9.25-62.16-4.79-23.83-19.83-45.16-35.88-61.46-34.17-34.7-79.89-51.27-122.63-62.41a389.4,389.4,0,0,0-135.91-11c-89,8.67-170.57,51.52-233.57,118.33-13.18,14-26.36,29.4-32.65,49.23-6.61,20.83-5.29,43.07.94,64.93a150.62,150.62,0,0,0,83.71,96.51c20.25,9,41.84,13.55,62.91,17.43a439,439,0,0,0,65,6.94,409,409,0,0,0,126.64-15.89c97.85-28.14,182-94.56,243-182.38,2.49-3.58-2.4-8.93-4.92-5.31C624.43,315,552.41,375.4,467.84,407.58c-81.31,30.94-174.42,34.89-261,8.22C161.92,402,124.58,368.71,109,317.66c-7.58-24.77-6.67-50.05,4-71.78,10-20.37,27.19-36.37,42.58-51.18C223.94,128.89,312.84,93.07,405.88,92.92c46.72-.08,94.15,9.1,139.56,26,43.86,16.34,94.9,48,109.6,101.79,7.3,26.73-2.63,50.47-14.65,71.25a294.46,294.46,0,0,1-44.94,58.44c-32.11,32.8-70.88,56.5-110.79,76-81.24,39.62-173,62.24-264,29.88-41.93-14.91-83.29-44.14-99.31-93.3-15.08-46.25,2-91.19,28-123.51C210.81,163,304.23,121.89,396.64,112.28c44.52-4.63,91-2.93,135.94,7,43.35,9.59,84.75,30.72,118.08,66.05,9.55,10.12,17.75,22,22.94,35.47,5.5,14.28,4.59,28.83,1,42.68-6.25,24-18,46.52-31.21,65.94-24.36,35.74-58,61.47-93.45,81.81-82.49,47.26-177.26,72.23-273.15,64.91A429.92,429.92,0,0,1,204.23,464c-18.46-4.67-36.59-10.92-53.5-21.56-42.09-26.49-58.5-78-52.19-127.64,6.17-48.52,31.05-92.73,58.5-128C184.28,151.9,219.15,124.9,258.86,110c2.34-.87,1.12-5.19-1.24-4.32Z"/><path class="cls-2" d="M144.58,253a3.78,3.78,0,0,1,3,1,4.54,4.54,0,0,1,.65,6.14,3.83,3.83,0,0,1-2.73,1.59l-1.77.19a3.39,3.39,0,0,1-.27,1.19,5,5,0,0,1-.43,3.4,4.93,4.93,0,0,1-1,3.58,4.78,4.78,0,0,1-3.42,1.71l-1,.11a7.06,7.06,0,0,1-2.39-.17,19.48,19.48,0,0,1-2-.69l-1.14-.47a2.64,2.64,0,0,0-1-.11l-.15,0a1.51,1.51,0,0,1-1,.53l-3.13.33a1.5,1.5,0,0,1-1.15-.33,1.38,1.38,0,0,1-.58-1l-1.28-12.08a1.41,1.41,0,0,1,.35-1.12,1.58,1.58,0,0,1,1-.57l3.14-.33a1.52,1.52,0,0,1,1.12.31l.15,0a.9.9,0,0,0,.53-.35,10.49,10.49,0,0,0,.81-1.07,14.49,14.49,0,0,0,1.09-1.86l.47-1.22a9.49,9.49,0,0,1,1-2.17,2.45,2.45,0,0,1,1.86-1.16,4.44,4.44,0,0,1,3.41.89,4.28,4.28,0,0,1,1.56,3,8.39,8.39,0,0,1,0,1.22Zm-15.34,14.68a1.29,1.29,0,0,0-.44-.85,1.1,1.1,0,0,0-.87-.28,1.08,1.08,0,0,0-.8.45,1.34,1.34,0,0,0,.19,1.79,1.13,1.13,0,0,0,1.67-.18A1.32,1.32,0,0,0,129.24,267.72Zm16-8.49a1.57,1.57,0,0,0,1.14-.68,1.87,1.87,0,0,0-.27-2.57,1.6,1.6,0,0,0-1.26-.42l-7.79.82a2.64,2.64,0,0,1,.36-1.26,7.45,7.45,0,0,0,.42-1.16,3.56,3.56,0,0,0,.15-1.45,1.67,1.67,0,0,0-.79-1.35,2.62,2.62,0,0,0-1.57-.26c-.13,0-.27.19-.44.53-.08.18-.22.55-.43,1.11s-.4,1.19-.53,1.49a14.74,14.74,0,0,1-1.3,2.26,12.27,12.27,0,0,1-1.13,1.5,3.2,3.2,0,0,1-1.54.9l1,9.25a4.76,4.76,0,0,1,1.46.21c.31.11.76.29,1.35.55s1.25.47,1.6.57a4.81,4.81,0,0,0,1.7.14l1-.11a2.5,2.5,0,0,0,2-1.06,3.07,3.07,0,0,0,.14-2.41,2,2,0,0,0,.68-1.31,2.18,2.18,0,0,0-.35-1.59,2.31,2.31,0,0,0,.54-1.7,2.42,2.42,0,0,0-.63-1.53Z"/><path class="cls-3" d="M163.83,266.75a.86.86,0,1,1-1.71.18l-1.75-16.49a.88.88,0,0,1,.76-1l5-.53c2.68-.29,5,1.16,5.35,4.73s-1.5,5.49-4.24,5.78l-4.14.44Zm-.91-8.55,3.89-.42c2-.21,3.18-1.61,2.94-3.95s-1.69-3.44-3.7-3.23l-3.89.41Z"/><path class="cls-3" d="M175.23,256.54c-.22.32-.39.42-.61.44a.75.75,0,0,1-.81-.7.8.8,0,0,1,.08-.47,4.6,4.6,0,0,1,3.94-2.57c2.91-.31,4.71,1.35,5,4.1l.79,7.39a.79.79,0,1,1-1.56.17l-.1-1a3.94,3.94,0,0,1-3.39,2.31c-2.66.29-4.49-.91-4.75-3.38s1.28-4,4-4.26l3.54-.37-.07-.73a2.76,2.76,0,0,0-3.28-2.64A3.39,3.39,0,0,0,175.23,256.54Zm6.4,4.32-.12-1.13-3.54.38c-1.63.17-2.68,1-2.52,2.58.15,1.4,1.15,2.19,3.11,2A3.31,3.31,0,0,0,181.63,260.86Z"/><path class="cls-3" d="M187.2,254.48a3.62,3.62,0,0,1,3.26-2.52.81.81,0,0,1,.87.75.82.82,0,0,1-.69.92c-2.31.24-3.31,2.09-3,4.56l.64,6a.81.81,0,1,1-1.61.17l-1.15-10.92a.81.81,0,1,1,1.6-.17Z"/><path class="cls-3" d="M194,249.06a.87.87,0,0,1,.72-.95.84.84,0,0,1,.89.78l.3,2.82,1.63-.17a.81.81,0,0,1,.17,1.61l-1.63.17.79,7.43c.12,1.15.79,1.71,1.64,1.62a.79.79,0,0,1,.87.72.8.8,0,0,1-.7.89c-2,.21-3.21-1.1-3.42-3.06l-.79-7.43-1,.11a.82.82,0,0,1-.17-1.62l1-.1Z"/><path class="cls-3" d="M200.08,247.46c-.08-.78.24-1.12.84-1.18s1,.2,1.07,1a1,1,0,1,1-1.91.2Zm3.39,15.14a.81.81,0,1,1-1.61.17l-1.16-10.92a.81.81,0,1,1,1.61-.17Z"/><path class="cls-3" d="M209.88,249.84a4.68,4.68,0,0,1,4.07,1.45.92.92,0,0,1,.23.49.75.75,0,0,1-.65.86.73.73,0,0,1-.64-.26,3.13,3.13,0,0,0-2.84-1c-2.31.24-3.38,2-3,5.26s1.75,4.8,4.06,4.55a4.47,4.47,0,0,0,2.79-1.46.69.69,0,0,1,.46-.24.76.76,0,0,1,.81.7.88.88,0,0,1-.26.71,5.57,5.57,0,0,1-3.64,1.85c-3.24.34-5.39-1.52-5.86-5.93S206.64,250.19,209.88,249.84Z"/><path class="cls-3" d="M216,245.77c-.09-.78.23-1.11.84-1.18s1,.2,1.07,1a.92.92,0,0,1-.85,1.12A.9.9,0,0,1,216,245.77Zm3.38,15.14a.81.81,0,1,1-1.61.17l-1.15-10.92a.81.81,0,1,1,1.6-.17Z"/><path class="cls-3" d="M223.09,249.48l.09.86a3.91,3.91,0,0,1,3.22-2.25c3.26-.34,5.46,1.49,5.93,5.9s-1.3,6.69-4.56,7a4,4,0,0,1-3.61-1.52l.64,6.08a.81.81,0,1,1-1.61.17l-1.7-16.11a.84.84,0,0,1,.71-1A.85.85,0,0,1,223.09,249.48Zm4.51,10c2.31-.25,3.46-1.94,3.1-5.3s-1.88-4.76-4.19-4.51c-1.85.2-3.26,1.76-2.89,5.26S225.65,259.68,227.6,259.47Z"/><path class="cls-3" d="M238.57,246.8c4-.42,5.16,2.91,5.35,4.74.09.78.19,1.72-.82,1.83l-7.33.77c.28,2.67,1.9,4.24,4.26,4a4.53,4.53,0,0,0,2.89-1.48.68.68,0,0,1,.43-.21.76.76,0,0,1,.81.7.82.82,0,0,1-.21.65,5.4,5.4,0,0,1-3.76,1.92c-3.34.36-5.63-1.38-6.11-5.9C233.64,249.67,235.31,247.15,238.57,246.8Zm.17,1.56c-2.19.24-3.23,1.87-3.13,4.28l6.75-.72C242.16,250,241.32,248.09,238.74,248.36Z"/><path class="cls-3" d="M256.24,244.93c4-.43,5.16,2.91,5.36,4.74.08.78.18,1.72-.83,1.82l-7.33.78c.28,2.66,1.9,4.23,4.26,4a4.48,4.48,0,0,0,2.89-1.47.63.63,0,0,1,.43-.21.76.76,0,0,1,.81.7.78.78,0,0,1-.21.65,5.44,5.44,0,0,1-3.75,1.92c-3.34.35-5.64-1.39-6.12-5.91C251.31,247.79,253,245.28,256.24,244.93Zm.17,1.56c-2.19.23-3.23,1.87-3.13,4.27l6.76-.71C259.83,248.11,259,246.22,256.41,246.49Z"/><path class="cls-3" d="M273.59,247.9l.76,7.19a.81.81,0,1,1-1.6.17l-.73-6.84c-.22-2.12-.95-3.51-3.39-3.25s-3.17,2-2.94,4.12l.7,6.64a.81.81,0,1,1-1.6.17l-1.16-10.92a.82.82,0,0,1,.71-.94.84.84,0,0,1,.9.77l.09.86a3.65,3.65,0,0,1,3.14-2.24C272.33,243.22,273.35,245.62,273.59,247.9Z"/><path class="cls-3" d="M286.49,241.72c4-.42,5.16,2.91,5.35,4.74.08.78.18,1.72-.82,1.83l-7.33.77c.28,2.67,1.89,4.24,4.25,4a4.48,4.48,0,0,0,2.89-1.48.7.7,0,0,1,.44-.21.76.76,0,0,1,.81.7.84.84,0,0,1-.21.65,5.39,5.39,0,0,1-3.76,1.92c-3.34.36-5.63-1.38-6.11-5.9C281.56,244.59,283.22,242.07,286.49,241.72Zm.16,1.56c-2.18.24-3.23,1.87-3.12,4.28l6.75-.72C290.08,244.91,289.24,243,286.65,243.28Z"/><path class="cls-3" d="M294.77,235.08l1.63,15.36c.11,1.07.49,1.5,1.16,1.42a.82.82,0,0,1,.18,1.62c-1.69.18-2.73-.8-2.95-2.87l-1.63-15.36a.86.86,0,0,1,.71-.94A.84.84,0,0,1,294.77,235.08Z"/><path class="cls-3" d="M306.92,242.88c.3,2.82,6.79,1.07,7.24,5.37.26,2.45-1.5,3.75-3.89,4a5.55,5.55,0,0,1-4.5-1.48.91.91,0,0,1-.23-.5.76.76,0,0,1,.65-.85.71.71,0,0,1,.58.21,4.13,4.13,0,0,0,3.33,1c1.43-.15,2.61-.8,2.46-2.19-.3-2.77-6.78-1-7.25-5.38-.24-2.24,1.36-3.44,3.5-3.66a4.49,4.49,0,0,1,4,1.31.93.93,0,0,1,.23.5.76.76,0,0,1-.65.85.66.66,0,0,1-.55-.18A3.46,3.46,0,0,0,309,241C307.85,241.15,306.78,241.64,306.92,242.88Z"/><path class="cls-3" d="M326.36,244c.47,4.41-1.32,6.69-4.59,7s-5.49-1.52-6-5.93,1.35-6.67,4.59-7S325.89,239.62,326.36,244Zm-1.63.17c-.36-3.39-1.85-4.75-4.16-4.51s-3.49,1.89-3.13,5.28,1.86,4.78,4.17,4.54S325.09,247.64,324.73,244.2Z"/><path class="cls-3" d="M330,239.34a3.62,3.62,0,0,1,3.26-2.52.84.84,0,0,1,.18,1.67c-2.31.24-3.31,2.09-3,4.56l.64,6a.81.81,0,1,1-1.6.17l-1.16-10.92a.81.81,0,1,1,1.61-.17Z"/><path class="cls-3" d="M336.81,233.92a.86.86,0,0,1,.71-.95.84.84,0,0,1,.89.78l.3,2.82,1.63-.17a.76.76,0,0,1,.84.72.77.77,0,0,1-.66.89l-1.64.17.79,7.43c.12,1.15.79,1.71,1.65,1.62a.78.78,0,0,1,.86.72.8.8,0,0,1-.69.89c-2,.21-3.22-1.1-3.43-3.06l-.78-7.43-1,.11a.82.82,0,0,1-.17-1.62l1-.1Z"/><path class="cls-3" d="M347.86,235.22c4-.43,5.16,2.91,5.35,4.73.09.79.19,1.73-.82,1.83l-7.33.78c.28,2.66,1.89,4.23,4.25,4a4.53,4.53,0,0,0,2.9-1.47.61.61,0,0,1,.43-.21.75.75,0,0,1,.81.7.85.85,0,0,1-.21.65,5.44,5.44,0,0,1-3.76,1.92c-3.34.35-5.63-1.39-6.11-5.91C342.93,238.08,344.6,235.57,347.86,235.22Zm.17,1.56c-2.19.23-3.23,1.86-3.13,4.27l6.75-.71C351.45,238.4,350.61,236.51,348,236.78Z"/><path class="cls-3" d="M365.61,239.86c.47,4.41-1.32,6.7-4.58,7s-5.49-1.51-6-5.92,1.35-6.67,4.59-7S365.15,235.45,365.61,239.86ZM364,240c-.36-3.39-1.85-4.76-4.16-4.51s-3.48,1.89-3.12,5.28,1.85,4.78,4.16,4.53S364.35,243.48,364,240Z"/><path class="cls-3" d="M381.31,233.44l-.79-7.45a.81.81,0,1,1,1.6-.17l1.42,13.34c.37,3.55-1.5,5.52-4.36,5.82-3.24.34-5.37-1.52-5.84-5.93s1.13-6.65,4.36-7A4.2,4.2,0,0,1,381.31,233.44Zm.23,2.18a3.88,3.88,0,0,0-3.57-2c-2.29.24-3.37,2-3,5.26s1.75,4.8,4.06,4.55c1.93-.2,3.19-1.53,2.92-4.09Z"/><path class="cls-3" d="M390.4,230.71c4-.43,5.16,2.91,5.36,4.73.08.79.18,1.73-.82,1.83l-7.34.78c.28,2.66,1.9,4.23,4.26,4a4.47,4.47,0,0,0,2.89-1.47.63.63,0,0,1,.43-.21.76.76,0,0,1,.82.7.85.85,0,0,1-.21.65,5.49,5.49,0,0,1-3.76,1.92c-3.34.35-5.63-1.39-6.11-5.91C385.48,233.57,387.14,231.06,390.4,230.71Zm.17,1.56c-2.18.23-3.23,1.87-3.13,4.27l6.76-.71C394,233.89,393.16,232,390.57,232.27Z"/><path class="cls-3" d="M405.12,230.18l.74,7c.19,1.75.88,3.2,3.41,2.93s2.91-1.83,2.72-3.58l-.74-7a.83.83,0,0,1,.74-.94.83.83,0,0,1,.87.77l.74,7c.27,2.56-.26,5-4.15,5.39s-4.92-1.84-5.19-4.4l-.75-7a.83.83,0,0,1,.72-.94A.84.84,0,0,1,405.12,230.18Z"/><path class="cls-3" d="M425.83,231.77l.76,7.18a.81.81,0,1,1-1.61.17l-.72-6.83c-.23-2.13-1-3.52-3.4-3.26s-3.16,2-2.94,4.12l.71,6.64A.81.81,0,1,1,417,240L415.86,229a.81.81,0,1,1,1.61-.17l.09.87a3.62,3.62,0,0,1,3.14-2.24C424.57,227.09,425.58,229.48,425.83,231.77Z"/><path class="cls-3" d="M438.81,232.11c.47,4.41-1.32,6.69-4.59,7s-5.49-1.52-6-5.93,1.35-6.67,4.59-7S438.34,227.7,438.81,232.11Zm-1.63.17c-.36-3.39-1.85-4.75-4.16-4.51s-3.49,1.89-3.13,5.28,1.86,4.78,4.17,4.54S437.54,235.72,437.18,232.28Z"/><path class="cls-3" d="M454.5,225.68l-.79-7.45a.83.83,0,0,1,.71-.94.84.84,0,0,1,.9.77l1.41,13.34c.38,3.55-1.5,5.52-4.36,5.82-3.24.35-5.37-1.52-5.84-5.93s1.13-6.65,4.37-7A4.2,4.2,0,0,1,454.5,225.68Zm.23,2.18a3.88,3.88,0,0,0-3.57-2c-2.28.24-3.37,2-3,5.27s1.75,4.79,4.06,4.54c1.94-.2,3.19-1.53,2.92-4.09Z"/><path class="cls-3" d="M463.6,223c4-.43,5.16,2.91,5.35,4.74.08.78.18,1.72-.82,1.82l-7.33.78c.28,2.66,1.89,4.23,4.25,4a4.43,4.43,0,0,0,2.89-1.47.66.66,0,0,1,.44-.21.76.76,0,0,1,.81.7.85.85,0,0,1-.21.65,5.47,5.47,0,0,1-3.76,1.92c-3.34.35-5.63-1.39-6.11-5.91C458.67,225.81,460.33,223.3,463.6,223Zm.16,1.56c-2.18.23-3.23,1.87-3.12,4.27l6.75-.71C467.19,226.13,466.35,224.24,463.76,224.51Z"/><path class="cls-3" d="M486.92,225.29l.76,7.18a.81.81,0,1,1-1.61.17l-.72-6.83c-.22-2.12-1-3.51-3.39-3.26s-3.17,2-2.94,4.12l.7,6.65a.81.81,0,1,1-1.6.17L477,222.57a.81.81,0,1,1,1.6-.17l.1.86A3.62,3.62,0,0,1,481.8,221C485.66,220.61,486.68,223,486.92,225.29Z"/><path class="cls-3" d="M490.76,221.1l.75,7c.18,1.75.87,3.2,3.41,2.93s2.9-1.83,2.72-3.58l-.75-7a.85.85,0,0,1,.74-1,.81.81,0,0,1,.87.77l.74,7c.27,2.56-.26,5-4.15,5.39s-4.92-1.84-5.19-4.4l-.74-7a.83.83,0,0,1,.71-.95A.84.84,0,0,1,490.76,221.1Z"/><path class="cls-3" d="M505.82,218.48c4-.43,5.16,2.9,5.35,4.73.08.78.18,1.72-.82,1.83l-7.33.78c.28,2.66,1.89,4.23,4.25,4a4.48,4.48,0,0,0,2.89-1.48.7.7,0,0,1,.44-.21.77.77,0,0,1,.81.71.83.83,0,0,1-.21.64,5.39,5.39,0,0,1-3.76,1.92c-3.34.36-5.63-1.38-6.11-5.9C500.89,221.34,502.55,218.82,505.82,218.48ZM506,220c-2.18.23-3.23,1.86-3.12,4.27l6.75-.72C509.41,221.66,508.57,219.76,506,220Z"/><path class="cls-3" d="M514.77,220.84c.3,2.83,6.8,1.08,7.25,5.38.26,2.45-1.5,3.75-3.89,4a5.51,5.51,0,0,1-4.5-1.48.85.85,0,0,1-.23-.49.77.77,0,0,1,.65-.86.8.8,0,0,1,.58.21,4.09,4.09,0,0,0,3.33,1c1.43-.15,2.6-.79,2.46-2.19-.3-2.77-6.79-1-7.25-5.38-.24-2.23,1.36-3.43,3.49-3.66a4.48,4.48,0,0,1,4,1.32.8.8,0,0,1,.23.49.76.76,0,0,1-.64.86.68.68,0,0,1-.55-.19,3.51,3.51,0,0,0-2.86-.84C515.71,219.11,514.64,219.61,514.77,220.84Z"/><path class="cls-3" d="M524.11,214.06a.85.85,0,0,1,.71-.94.83.83,0,0,1,.89.77l.3,2.83,1.64-.18a.82.82,0,0,1,.17,1.62l-1.64.17.79,7.42c.12,1.16.79,1.71,1.65,1.62a.82.82,0,0,1,.17,1.62c-2,.21-3.22-1.11-3.43-3.07l-.78-7.42-1,.1a.81.81,0,0,1-.17-1.61l1-.1Z"/><path class="cls-3" d="M532.58,217.87a3.62,3.62,0,0,1,3.26-2.52.81.81,0,0,1,.87.75.8.8,0,0,1-.69.91c-2.31.25-3.31,2.1-3,4.57l.63,6a.81.81,0,1,1-1.6.17l-1.16-10.91a.81.81,0,1,1,1.61-.17Z"/><path class="cls-3" d="M548.85,220.44c.47,4.41-1.32,6.7-4.59,7s-5.49-1.51-6-5.92,1.35-6.67,4.59-7S548.38,216,548.85,220.44Zm-1.63.17c-.36-3.38-1.85-4.75-4.16-4.5s-3.48,1.89-3.12,5.28,1.85,4.78,4.16,4.53S547.58,224.06,547.22,220.61Z"/><path class="cls-3" d="M552.35,216.86c.3,2.83,6.79,1.08,7.25,5.38.26,2.45-1.51,3.75-3.89,4a5.5,5.5,0,0,1-4.5-1.48.8.8,0,0,1-.23-.49.76.76,0,0,1,.64-.86.74.74,0,0,1,.58.21,4.14,4.14,0,0,0,3.33,1c1.43-.15,2.61-.79,2.46-2.19-.29-2.77-6.78-1-7.25-5.38-.23-2.23,1.37-3.43,3.5-3.66a4.49,4.49,0,0,1,4,1.32.86.86,0,0,1,.23.49.76.76,0,0,1-.65.86.72.72,0,0,1-.55-.19,3.45,3.45,0,0,0-2.86-.84C553.28,215.13,552.22,215.62,552.35,216.86Z"/><path class="cls-3" d="M569,215.1c.3,2.82,6.79,1.08,7.25,5.38.25,2.45-1.51,3.75-3.9,4a5.51,5.51,0,0,1-4.5-1.48.92.92,0,0,1-.23-.49.77.77,0,0,1,.65-.86.74.74,0,0,1,.58.21,4.13,4.13,0,0,0,3.33,1c1.43-.15,2.61-.79,2.46-2.19-.3-2.77-6.78-1-7.25-5.38-.24-2.23,1.36-3.43,3.5-3.66a4.5,4.5,0,0,1,4,1.32.86.86,0,0,1,.23.49.76.76,0,0,1-.65.85.66.66,0,0,1-.55-.18,3.45,3.45,0,0,0-2.86-.84C569.9,213.37,568.84,213.86,569,215.1Z"/><path class="cls-3" d="M582.35,210.36c4-.42,5.16,2.91,5.35,4.74.09.78.19,1.72-.82,1.83l-7.33.77c.28,2.67,1.89,4.24,4.25,4a4.53,4.53,0,0,0,2.9-1.48.68.68,0,0,1,.43-.21.76.76,0,0,1,.81.7.85.85,0,0,1-.21.65,5.44,5.44,0,0,1-3.76,1.92c-3.34.36-5.63-1.39-6.11-5.9C577.42,213.22,579.09,210.71,582.35,210.36Zm.17,1.56c-2.19.23-3.23,1.87-3.13,4.28l6.75-.72C585.94,213.54,585.1,211.65,582.52,211.92Z"/><path class="cls-3" d="M591.47,211.63a3.62,3.62,0,0,1,3.26-2.52.84.84,0,0,1,.18,1.66c-2.31.25-3.31,2.09-3,4.57l.64,6a.81.81,0,1,1-1.61.17l-1.15-10.92a.81.81,0,1,1,1.6-.17Z"/><path class="cls-3" d="M602.68,220.61l-5.42-10.41a.93.93,0,0,1-.12-.37.83.83,0,0,1,.71-1,.79.79,0,0,1,.82.49l4.52,8.9,2.56-9.65a.78.78,0,0,1,.69-.65.84.84,0,0,1,.9.78.92.92,0,0,1,0,.38l-3.12,11.32a.83.83,0,0,1-.69.62A.82.82,0,0,1,602.68,220.61Z"/><path class="cls-3" d="M608.72,204.14c-.08-.78.24-1.11.84-1.18s1,.2,1.07,1a1,1,0,1,1-1.91.2Zm3.38,15.14a.81.81,0,1,1-1.6.17l-1.16-10.91a.81.81,0,1,1,1.61-.17Z"/><path class="cls-3" d="M618.52,206.53a4.68,4.68,0,0,1,4.07,1.44.91.91,0,0,1,.23.5.74.74,0,0,1-1.29.6,3.13,3.13,0,0,0-2.84-1c-2.31.24-3.38,2-3,5.27s1.76,4.79,4.07,4.54a4.43,4.43,0,0,0,2.79-1.46.74.74,0,0,1,.45-.24.77.77,0,0,1,.82.7.87.87,0,0,1-.26.71,5.52,5.52,0,0,1-3.64,1.85c-3.24.35-5.39-1.52-5.86-5.93S615.28,206.87,618.52,206.53Z"/><path class="cls-3" d="M624.64,202.45c-.09-.77.23-1.11.84-1.17s1,.19,1.06,1a1,1,0,1,1-1.9.2ZM628,217.6a.81.81,0,1,1-1.61.17l-1.16-10.92a.81.81,0,1,1,1.61-.17Z"/><path class="cls-3" d="M640.49,210.73c.47,4.41-1.32,6.69-4.58,7s-5.5-1.51-6-5.93,1.35-6.67,4.58-7S640,206.32,640.49,210.73Zm-1.63.17c-.36-3.39-1.85-4.75-4.16-4.51s-3.48,1.89-3.12,5.28,1.85,4.78,4.16,4.54S639.23,214.34,638.86,210.9Z"/><path class="cls-3" d="M644,207.15c.3,2.82,6.8,1.07,7.25,5.37.26,2.45-1.51,3.75-3.89,4a5.55,5.55,0,0,1-4.5-1.48.85.85,0,0,1-.23-.5.75.75,0,0,1,.65-.85.72.72,0,0,1,.58.21,4.12,4.12,0,0,0,3.33,1c1.43-.16,2.6-.8,2.45-2.2-.29-2.76-6.78-1-7.24-5.37-.24-2.24,1.36-3.44,3.49-3.66a4.47,4.47,0,0,1,4,1.31.8.8,0,0,1,.23.49.76.76,0,0,1-.64.86.73.73,0,0,1-.56-.18,3.44,3.44,0,0,0-2.85-.84C644.93,205.42,643.86,205.91,644,207.15Z"/><path class="cls-3" d="M322,283.56,321.8,282a4.16,4.16,0,0,1-3.22,2c-3.26.35-5.41-1.49-5.88-5.9s1.25-6.69,4.51-7c2.86-.3,5.21,1.24,5.59,4.79l.79,7.51c.39,3.65-1.79,5.41-4.6,5.7a5.1,5.1,0,0,1-4.39-1.41.79.79,0,0,1-.2-.46.81.81,0,0,1,.69-.92.75.75,0,0,1,.63.23,3.71,3.71,0,0,0,3.1,1A3.23,3.23,0,0,0,322,283.56Zm-.79-7.5c-.28-2.56-1.91-3.61-3.79-3.41-2.31.24-3.43,1.94-3.07,5.3s1.8,4.76,4.11,4.51a4,4,0,0,0,3.16-2.53Z"/><path class="cls-3" d="M327,272.28a3.62,3.62,0,0,1,3.26-2.52.81.81,0,0,1,.87.75.8.8,0,0,1-.69.91c-2.31.25-3.31,2.09-3,4.57l.63,6a.81.81,0,1,1-1.6.17l-1.16-10.91a.81.81,0,1,1,1.61-.18Z"/><path class="cls-3" d="M334.29,272.3c-.22.32-.38.42-.61.44a.76.76,0,0,1-.81-.7.88.88,0,0,1,.08-.47,4.6,4.6,0,0,1,3.94-2.57c2.91-.31,4.71,1.35,5,4.1l.79,7.39a.82.82,0,0,1-.69.92.83.83,0,0,1-.87-.75l-.1-1a3.91,3.91,0,0,1-3.39,2.31c-2.66.29-4.49-.91-4.75-3.38s1.28-4,4-4.26l3.54-.37-.07-.73a2.76,2.76,0,0,0-3.28-2.64A3.39,3.39,0,0,0,334.29,272.3Zm6.4,4.32-.12-1.13-3.54.38c-1.63.17-2.68,1-2.52,2.58.15,1.4,1.15,2.19,3.11,2A3.3,3.3,0,0,0,340.69,276.62Z"/><path class="cls-3" d="M344.79,265.69a.85.85,0,0,1,.71-.94.83.83,0,0,1,.89.77l.3,2.83,1.64-.18a.82.82,0,0,1,.17,1.62l-1.64.17.79,7.42c.12,1.16.79,1.71,1.65,1.62a.8.8,0,0,1,.86.72.79.79,0,0,1-.69.89c-2,.21-3.22-1.1-3.43-3.06l-.78-7.42-1,.1a.81.81,0,0,1-.17-1.61l1-.1Z"/><path class="cls-3" d="M350.89,264.09c-.09-.78.23-1.11.84-1.17s1,.19,1.06,1a1,1,0,1,1-1.9.2Zm3.38,15.15a.81.81,0,1,1-1.61.17l-1.16-10.92a.81.81,0,1,1,1.61-.17Z"/><path class="cls-3" d="M357.94,270.09c.3,2.82,6.8,1.07,7.25,5.38.26,2.44-1.5,3.75-3.89,4a5.51,5.51,0,0,1-4.5-1.48.92.92,0,0,1-.23-.49.76.76,0,0,1,.65-.86.76.76,0,0,1,.58.21,4.12,4.12,0,0,0,3.33,1c1.43-.15,2.6-.8,2.46-2.19-.3-2.77-6.79-1-7.25-5.38-.24-2.23,1.36-3.43,3.49-3.66a4.48,4.48,0,0,1,4,1.32.79.79,0,0,1-.41,1.34.66.66,0,0,1-.55-.18,3.47,3.47,0,0,0-2.86-.84C358.88,268.36,357.81,268.85,357.94,270.09Z"/><path class="cls-3" d="M374.6,266l.09.86a3.87,3.87,0,0,1,3.21-2.24c3.27-.35,5.47,1.48,5.94,5.89s-1.3,6.69-4.56,7a4,4,0,0,1-3.62-1.52l.65,6.08a.81.81,0,1,1-1.61.17L373,266.21a.81.81,0,1,1,1.61-.17Zm4.51,10c2.31-.24,3.45-1.94,3.1-5.3s-1.88-4.75-4.19-4.51c-1.86.2-3.27,1.76-2.9,5.26S377.15,276.24,379.11,276Z"/><path class="cls-3" d="M396.14,269.25c.46,4.41-1.33,6.69-4.59,7s-5.49-1.51-6-5.92,1.35-6.67,4.59-7S395.67,264.84,396.14,269.25Zm-1.64.17c-.36-3.39-1.85-4.75-4.16-4.51s-3.48,1.9-3.12,5.28,1.85,4.78,4.16,4.54S394.87,272.87,394.5,269.42Z"/><path class="cls-3" d="M399.8,264.56a3.63,3.63,0,0,1,3.26-2.52.84.84,0,0,1,.18,1.67c-2.31.25-3.31,2.09-3.05,4.57l.64,6a.84.84,0,0,1-.71.95.84.84,0,0,1-.9-.78l-1.15-10.92a.81.81,0,1,1,1.6-.17Z"/><path class="cls-3" d="M412.14,259.83a.81.81,0,0,1-.46.21.85.85,0,0,1-.89-.77.92.92,0,0,1,.27-.77l3.63-3.35a.81.81,0,0,1,.48-.24.87.87,0,0,1,.93.8l1.77,16.76a.83.83,0,1,1-1.65.17l-1.61-15.17Z"/><path class="cls-3" d="M444.25,262.44l.76,7.18a.81.81,0,1,1-1.6.17l-.73-6.83c-.22-2.13-1.08-3.51-3.51-3.25-2.16.23-3,1.57-2.8,3.56l.76,7.18a.81.81,0,1,1-1.61.17l-.72-6.83c-.23-2.12-1-3.51-3.47-3.25s-2.93,1.84-2.69,4.09l.71,6.65a.81.81,0,1,1-1.61.17l-1.16-10.92a.81.81,0,1,1,1.61-.17l.09.86a3.49,3.49,0,0,1,3.06-2.23c2.06-.22,3.48.45,4.2,1.46a3.93,3.93,0,0,1,3.46-2.27C442.87,257.77,444,260.15,444.25,262.44Z"/><path class="cls-3" d="M451.17,256.89c4-.43,5.16,2.91,5.36,4.73.08.79.18,1.73-.83,1.83l-7.33.78c.28,2.66,1.9,4.23,4.26,4a4.46,4.46,0,0,0,2.89-1.48.67.67,0,0,1,.43-.2.75.75,0,0,1,.81.7.78.78,0,0,1-.21.65,5.44,5.44,0,0,1-3.75,1.92c-3.34.35-5.64-1.39-6.12-5.91C446.25,259.75,447.91,257.23,451.17,256.89Zm.17,1.56c-2.19.23-3.23,1.86-3.13,4.27L455,262C454.76,260.07,453.93,258.17,451.34,258.45Z"/><path class="cls-3" d="M460.13,259.26c.3,2.82,6.79,1.07,7.25,5.37.26,2.45-1.51,3.76-3.89,4a5.53,5.53,0,0,1-4.5-1.48.85.85,0,0,1-.23-.5.75.75,0,0,1,.64-.85.71.71,0,0,1,.58.21,4.14,4.14,0,0,0,3.33,1c1.43-.15,2.61-.8,2.46-2.19-.29-2.77-6.78-1-7.25-5.38-.23-2.23,1.37-3.44,3.5-3.66a4.48,4.48,0,0,1,4,1.31.86.86,0,0,1,.23.5.75.75,0,0,1-.65.85.67.67,0,0,1-.55-.18,3.45,3.45,0,0,0-2.86-.84C461.06,257.53,460,258,460.13,259.26Z"/><path class="cls-3" d="M469,266.66a1.12,1.12,0,0,1,1.05-1.41c.72-.08,1.22.28,1.31,1.16s-.31,1.32-1,1.39S469.11,267.55,469,266.66Z"/><path class="cls-2" d="M147.13,318a3.84,3.84,0,0,1,3,1,4.57,4.57,0,0,1,.65,6.14,3.79,3.79,0,0,1-2.73,1.59l-1.77.19a3.39,3.39,0,0,1-.27,1.2,5.13,5.13,0,0,1,.08,1.71,109.69,109.69,0,0,0-1.5,5.26,4.72,4.72,0,0,1-3.41,1.71l-1,.11a7.13,7.13,0,0,1-2.4-.17,17.21,17.21,0,0,1-1.95-.69l-1.14-.47a2.94,2.94,0,0,0-1-.11l-.15,0a1.47,1.47,0,0,1-1,.53l-3.14.34a1.6,1.6,0,0,1-1.15-.33,1.49,1.49,0,0,1-.58-1l-1.28-12.08a1.48,1.48,0,0,1,.35-1.12,1.55,1.55,0,0,1,1.06-.56l3.14-.34a1.53,1.53,0,0,1,1.12.31l.15,0a.86.86,0,0,0,.53-.35c.19-.21.46-.57.81-1.06a16.64,16.64,0,0,0,1.09-1.87c.1-.26.26-.67.46-1.22a10.47,10.47,0,0,1,1-2.17,2.45,2.45,0,0,1,1.86-1.15,4.46,4.46,0,0,1,3.42.88,4.34,4.34,0,0,1,1.56,3,8.25,8.25,0,0,1,0,1.21Zm-15.35,14.68a1.23,1.23,0,0,0-.44-.85,1.07,1.07,0,0,0-.87-.28,1.09,1.09,0,0,0-.79.46,1.19,1.19,0,0,0-.25.92,1.27,1.27,0,0,0,.44.86,1.11,1.11,0,0,0,.87.28,1.07,1.07,0,0,0,.79-.46A1.22,1.22,0,0,0,131.78,332.69Zm16-8.49a1.57,1.57,0,0,0,1.14-.68,1.86,1.86,0,0,0,.38-1.34,1.83,1.83,0,0,0-.65-1.23,1.6,1.6,0,0,0-1.26-.42l-7.8.82a2.57,2.57,0,0,1,.37-1.26,7.1,7.1,0,0,0,.42-1.16,3.51,3.51,0,0,0,.14-1.44,1.64,1.64,0,0,0-.79-1.35,2.51,2.51,0,0,0-1.56-.26c-.13,0-.28.19-.44.52s-.22.56-.43,1.11-.4,1.19-.53,1.49a15.11,15.11,0,0,1-1.3,2.26,12.52,12.52,0,0,1-1.13,1.5,3.22,3.22,0,0,1-1.54.91l1,9.24a5.13,5.13,0,0,1,1.46.21c.31.11.76.3,1.35.55s1.25.47,1.59.58a5.06,5.06,0,0,0,1.7.13l1-.11a2.46,2.46,0,0,0,2-1.06,3,3,0,0,0,.14-2.4,1.93,1.93,0,0,0,.68-1.32,2.18,2.18,0,0,0-.34-1.59,2.31,2.31,0,0,0,.54-1.7,2.37,2.37,0,0,0-.63-1.52Z"/><path class="cls-3" d="M167.22,314c4.79-.5,8,1.6,8.72,8.25s-2,9.35-6.81,9.85l-3.54.38a.89.89,0,0,1-1-.82l-1.72-16.28a.87.87,0,0,1,.76-1Zm-.95,16.72,2.69-.28c3.74-.4,5.84-2.42,5.24-8s-3.07-7.16-6.81-6.76l-2.68.29Z"/><path class="cls-3" d="M182.71,318c4-.43,5.16,2.9,5.35,4.73.08.78.18,1.72-.82,1.83l-7.33.78c.28,2.66,1.89,4.23,4.25,4a4.44,4.44,0,0,0,2.89-1.48.73.73,0,0,1,1.25.5.83.83,0,0,1-.21.64,5.4,5.4,0,0,1-3.76,1.93c-3.34.35-5.63-1.39-6.11-5.91C177.78,320.83,179.45,318.31,182.71,318Zm.16,1.56c-2.18.23-3.23,1.86-3.12,4.27l6.75-.71C186.3,321.15,185.46,319.25,182.87,319.53Z"/><path class="cls-3" d="M191.67,320.34c.3,2.82,6.79,1.07,7.24,5.37.26,2.45-1.5,3.75-3.89,4a5.58,5.58,0,0,1-4.5-1.48.91.91,0,0,1-.23-.5.76.76,0,0,1,.65-.85.71.71,0,0,1,.58.21,4.17,4.17,0,0,0,3.33,1c1.43-.16,2.61-.8,2.46-2.2-.3-2.77-6.78-1-7.25-5.37-.24-2.24,1.36-3.44,3.5-3.66a4.47,4.47,0,0,1,4,1.31.93.93,0,0,1,.23.49.77.77,0,0,1-.65.86.68.68,0,0,1-.55-.19,3.53,3.53,0,0,0-2.86-.84C192.6,318.6,191.53,319.1,191.67,320.34Z"/><path class="cls-3" d="M205.05,315.6a4.65,4.65,0,0,1,4.06,1.44.85.85,0,0,1,.23.5.74.74,0,0,1-.64.85.75.75,0,0,1-.64-.25,3.13,3.13,0,0,0-2.84-1c-2.32.24-3.38,2-3,5.27s1.76,4.79,4.07,4.54a4.43,4.43,0,0,0,2.79-1.46.72.72,0,0,1,1.26.46.86.86,0,0,1-.25.71,5.52,5.52,0,0,1-3.64,1.85c-3.24.35-5.39-1.52-5.86-5.93S201.81,315.94,205.05,315.6Z"/><path class="cls-3" d="M213.16,315.77l.75,7c.18,1.75.87,3.2,3.41,2.93s2.9-1.83,2.72-3.58l-.75-7a.84.84,0,0,1,.74-.94.81.81,0,0,1,.87.77l.74,7c.27,2.56-.26,5-4.15,5.39s-4.92-1.84-5.19-4.4l-.74-7a.81.81,0,1,1,1.6-.17Z"/><path class="cls-3" d="M228.22,313.14c4-.42,5.16,2.91,5.35,4.74.08.78.18,1.72-.82,1.83l-7.33.77c.28,2.67,1.89,4.24,4.25,4a4.48,4.48,0,0,0,2.89-1.48.7.7,0,0,1,.44-.21.76.76,0,0,1,.81.7.85.85,0,0,1-.21.65,5.43,5.43,0,0,1-3.76,1.92c-3.34.36-5.63-1.39-6.11-5.9C223.29,316,225,313.49,228.22,313.14Zm.16,1.56c-2.18.24-3.23,1.87-3.12,4.28l6.75-.72C231.81,316.33,231,314.43,228.38,314.7Z"/><path class="cls-3" d="M245.57,316.12l.76,7.18a.81.81,0,1,1-1.61.17l-.72-6.83c-.23-2.13-1-3.52-3.39-3.26s-3.17,2-3,4.12l.71,6.64a.81.81,0,1,1-1.61.17l-1.16-10.92a.81.81,0,1,1,1.61-.17l.09.86a3.63,3.63,0,0,1,3.14-2.23C244.31,311.44,245.33,313.83,245.57,316.12Z"/><path class="cls-3" d="M248.44,308.53a.81.81,0,1,1,1.61-.17l.3,2.82L252,311a.81.81,0,0,1,.17,1.61l-1.63.17.78,7.42c.13,1.16.79,1.72,1.65,1.63a.78.78,0,0,1,.86.72.79.79,0,0,1-.69.89c-2,.21-3.22-1.1-3.42-3.06l-.79-7.43-1,.11a.82.82,0,0,1-.17-1.62l1-.1Z"/><path class="cls-3" d="M265.55,315.71c.47,4.41-1.32,6.7-4.59,7s-5.49-1.51-6-5.92,1.35-6.67,4.59-7S265.08,311.3,265.55,315.71Zm-1.63.18c-.36-3.39-1.85-4.76-4.16-4.51s-3.48,1.89-3.12,5.28,1.85,4.78,4.16,4.53S264.28,319.33,263.92,315.89Z"/><path class="cls-3" d="M269.05,312.13c.3,2.83,6.79,1.08,7.25,5.38.26,2.45-1.51,3.75-3.89,4a5.51,5.51,0,0,1-4.5-1.48.8.8,0,0,1-.23-.49.76.76,0,0,1,.64-.86.82.82,0,0,1,.59.21,4.11,4.11,0,0,0,3.32,1c1.44-.15,2.61-.79,2.46-2.19-.29-2.77-6.78-1-7.25-5.38-.23-2.23,1.37-3.43,3.5-3.66a4.48,4.48,0,0,1,4,1.32.8.8,0,0,1,.23.49.76.76,0,0,1-.64.86.7.7,0,0,1-.56-.19,3.44,3.44,0,0,0-2.85-.84C270,310.4,268.92,310.9,269.05,312.13Z"/><path class="cls-3" d="M291.89,308.16l-.79-7.45a.81.81,0,1,1,1.6-.17l1.42,13.34c.37,3.55-1.5,5.52-4.36,5.82-3.24.34-5.37-1.52-5.84-5.93s1.13-6.65,4.36-7A4.2,4.2,0,0,1,291.89,308.16Zm.23,2.18a3.88,3.88,0,0,0-3.57-2c-2.29.24-3.37,2-3,5.27s1.75,4.79,4.06,4.54c1.93-.2,3.19-1.53,2.92-4.09Z"/><path class="cls-3" d="M301,305.43c4-.43,5.16,2.91,5.36,4.74.08.78.18,1.72-.83,1.82l-7.33.78c.28,2.66,1.9,4.23,4.26,4a4.47,4.47,0,0,0,2.89-1.47.63.63,0,0,1,.43-.21.76.76,0,0,1,.82.7.85.85,0,0,1-.21.65,5.49,5.49,0,0,1-3.76,1.92c-3.34.35-5.64-1.39-6.11-5.91C296.06,308.29,297.72,305.78,301,305.43Zm.17,1.56c-2.18.23-3.23,1.87-3.13,4.27l6.76-.71C304.57,308.61,303.74,306.72,301.15,307Z"/><path class="cls-3" d="M324.31,307.77l.76,7.18a.81.81,0,1,1-1.61.17l-.72-6.83c-.23-2.12-1-3.51-3.39-3.26s-3.17,2-2.94,4.12l.7,6.65a.81.81,0,1,1-1.61.17l-1.87-17.65a.81.81,0,1,1,1.61-.17l.8,7.59a3.63,3.63,0,0,1,3.14-2.24C323.05,303.09,324.07,305.49,324.31,307.77Z"/><path class="cls-3" d="M328.41,305.54a.84.84,0,0,1-.61.45.75.75,0,0,1-.81-.7.94.94,0,0,1,.07-.48,4.62,4.62,0,0,1,3.94-2.56,4.22,4.22,0,0,1,5,4.09l.78,7.4a.78.78,0,1,1-1.55.16l-.11-1a3.92,3.92,0,0,1-3.38,2.32c-2.66.28-4.49-.91-4.75-3.39s1.28-4,4-4.25l3.54-.38-.08-.72a2.76,2.76,0,0,0-3.27-2.65A3.41,3.41,0,0,0,328.41,305.54Zm6.4,4.33-.12-1.13-3.54.37c-1.63.18-2.69,1-2.52,2.58.15,1.4,1.14,2.19,3.1,2A3.31,3.31,0,0,0,334.81,309.87Z"/><path class="cls-3" d="M340.21,304.59c.3,2.82,6.79,1.08,7.25,5.38.26,2.45-1.51,3.75-3.89,4a5.51,5.51,0,0,1-4.5-1.48.85.85,0,0,1-.23-.49.76.76,0,0,1,.64-.86.78.78,0,0,1,.59.21,4.11,4.11,0,0,0,3.32,1c1.44-.15,2.61-.79,2.46-2.19-.29-2.77-6.78-1-7.25-5.38-.23-2.23,1.37-3.43,3.5-3.66a4.48,4.48,0,0,1,4,1.32.79.79,0,0,1-.41,1.34.69.69,0,0,1-.56-.18,3.44,3.44,0,0,0-2.85-.84C341.15,302.86,340.08,303.35,340.21,304.59Z"/><path class="cls-3" d="M349.54,297.81a.88.88,0,0,1,.72-.95.84.84,0,0,1,.89.78l.3,2.82,1.63-.17a.81.81,0,0,1,.17,1.61l-1.63.17.79,7.43c.12,1.15.79,1.71,1.64,1.62a.81.81,0,0,1,.18,1.61c-2,.21-3.22-1.1-3.43-3.06l-.78-7.42-1,.1a.78.78,0,0,1-.84-.73.76.76,0,0,1,.67-.88l1-.11Z"/><path class="cls-3" d="M357.78,302.43c-.22.32-.39.42-.62.44a.76.76,0,0,1-.81-.7.88.88,0,0,1,.08-.47,4.61,4.61,0,0,1,3.94-2.57,4.22,4.22,0,0,1,5,4.1l.78,7.39a.79.79,0,1,1-1.56.17l-.1-1a3.93,3.93,0,0,1-3.38,2.32c-2.67.28-4.49-.91-4.76-3.39s1.29-4,4-4.26l3.54-.37-.08-.73a2.75,2.75,0,0,0-3.28-2.64A3.4,3.4,0,0,0,357.78,302.43Zm6.4,4.32-.12-1.13-3.54.38c-1.64.17-2.69,1-2.52,2.58.14,1.4,1.14,2.19,3.1,2A3.32,3.32,0,0,0,364.18,306.75Z"/><path class="cls-3" d="M378.29,297.23c4-.42,5.16,2.91,5.36,4.74.08.78.18,1.72-.83,1.83l-7.33.78c.28,2.66,1.9,4.23,4.26,4a4.51,4.51,0,0,0,2.89-1.48.68.68,0,0,1,.43-.21.77.77,0,0,1,.82.7.81.81,0,0,1-.22.65,5.36,5.36,0,0,1-3.75,1.92c-3.34.36-5.64-1.38-6.11-5.9C373.37,300.1,375,297.58,378.29,297.23Zm.17,1.57c-2.18.23-3.23,1.86-3.13,4.27l6.76-.72C381.88,300.42,381.05,298.52,378.46,298.8Z"/><path class="cls-3" d="M386.58,290.59,388.2,306c.12,1.07.49,1.5,1.17,1.42a.82.82,0,0,1,.17,1.62c-1.68.18-2.72-.8-2.94-2.87L385,290.76a.81.81,0,1,1,1.61-.17Z"/><path class="cls-3" d="M404.87,290.53l-8.46.9a.83.83,0,0,1-.87-.76.81.81,0,0,1,.69-.91l9.37-1a.81.81,0,0,1,.87.75c.64,6.1-6.33,8.58-5.4,17.38a.83.83,0,0,1-.71.94.84.84,0,0,1-.9-.77C398.52,298.16,405.31,294.64,404.87,290.53Z"/><path class="cls-3" d="M421.67,296.2c.68,6.45-1,9.65-5.2,10.1s-6.52-2.33-7.21-8.79,1-9.62,5.21-10.06S421,289.75,421.67,296.2Zm-1.66.18c-.59-5.57-2.26-7.65-5.37-7.32s-4.31,2.71-3.72,8.28,2.26,7.67,5.38,7.34S420.6,301.94,420,296.38Z"/><path class="cls-3" d="M430.9,290.14c.25,2.42-.49,4.48-3.23,4.77s-3.87-1.57-4.13-4,.49-4.49,3.2-4.78S430.64,287.69,430.9,290.14Zm-1.26.13c-.18-1.72-.83-3.09-2.77-2.89s-2.26,1.68-2.07,3.4.83,3.1,2.74,2.89S429.82,292,429.64,290.27Zm6.53-4.28a.76.76,0,0,1,0,.27l-6.36,18.11a.62.62,0,0,1-1.21-.2.52.52,0,0,1,0-.27L435,285.79a.62.62,0,0,1,.51-.41A.65.65,0,0,1,436.17,286Zm5.08,13.22c.26,2.42-.48,4.48-3.22,4.77s-3.88-1.57-4.13-4,.49-4.49,3.2-4.77S441,296.76,441.25,299.21Zm-1.25.13c-.18-1.72-.84-3.09-2.77-2.89s-2.26,1.68-2.08,3.41.84,3.09,2.75,2.89S440.18,301,440,299.34Z"/><path class="cls-3" d="M453.39,289.27c4-.42,5.16,2.91,5.36,4.74.08.78.18,1.72-.83,1.83l-7.33.77c.28,2.67,1.9,4.24,4.26,4a4.48,4.48,0,0,0,2.89-1.48.68.68,0,0,1,.43-.21.77.77,0,0,1,.82.7.82.82,0,0,1-.22.65,5.36,5.36,0,0,1-3.75,1.92c-3.34.36-5.64-1.38-6.11-5.9C448.47,292.14,450.13,289.62,453.39,289.27Zm.17,1.56c-2.18.24-3.23,1.87-3.13,4.28l6.76-.72C457,292.46,456.15,290.56,453.56,290.83Z"/><path class="cls-3" d="M470.74,292.25l.77,7.18a.81.81,0,1,1-1.61.17l-.73-6.83c-.22-2.12-.95-3.52-3.39-3.26s-3.17,2-2.94,4.12l.71,6.64a.81.81,0,1,1-1.61.17l-1.16-10.92a.81.81,0,1,1,1.61-.17l.09.87a3.62,3.62,0,0,1,3.14-2.24C469.49,287.57,470.5,290,470.74,292.25Z"/><path class="cls-3" d="M483.64,286.07c4-.43,5.16,2.91,5.35,4.73.09.78.19,1.72-.82,1.83l-7.33.78c.28,2.66,1.89,4.23,4.25,4a4.49,4.49,0,0,0,2.9-1.48.67.67,0,0,1,.43-.2.75.75,0,0,1,.81.7.87.87,0,0,1-.21.65,5.44,5.44,0,0,1-3.76,1.92c-3.34.35-5.63-1.39-6.11-5.91C478.71,288.93,480.38,286.41,483.64,286.07Zm.17,1.56c-2.19.23-3.23,1.86-3.13,4.27l6.75-.71C487.23,289.25,486.39,287.35,483.81,287.63Z"/><path class="cls-3" d="M491.92,279.42l1.63,15.36c.11,1.08.49,1.5,1.17,1.43a.81.81,0,0,1,.17,1.61c-1.69.18-2.73-.8-2.95-2.87l-1.63-15.35a.88.88,0,0,1,.72-1A.84.84,0,0,1,491.92,279.42Z"/><path class="cls-3" d="M504.07,287.22c.3,2.82,6.79,1.08,7.25,5.38.26,2.45-1.51,3.75-3.9,4a5.51,5.51,0,0,1-4.5-1.48.85.85,0,0,1-.23-.49.77.77,0,0,1,.65-.86.74.74,0,0,1,.58.21,4.13,4.13,0,0,0,3.33,1c1.43-.15,2.61-.79,2.46-2.19-.29-2.77-6.78-1-7.25-5.38-.24-2.23,1.36-3.43,3.5-3.66a4.49,4.49,0,0,1,4,1.32.93.93,0,0,1,.23.49.78.78,0,0,1-.65.86.72.72,0,0,1-.55-.19,3.45,3.45,0,0,0-2.86-.84C505,285.49,503.94,286,504.07,287.22Z"/><path class="cls-3" d="M517.45,282.48c4-.42,5.16,2.91,5.35,4.74.09.78.19,1.72-.82,1.83l-7.33.77c.28,2.67,1.9,4.24,4.26,4a4.53,4.53,0,0,0,2.89-1.48.68.68,0,0,1,.43-.21.76.76,0,0,1,.81.7.82.82,0,0,1-.21.65,5.36,5.36,0,0,1-3.76,1.92c-3.34.36-5.63-1.38-6.11-5.9C512.52,285.35,514.19,282.83,517.45,282.48Zm.17,1.56c-2.19.24-3.23,1.87-3.13,4.28l6.75-.72C521,285.67,520.2,283.77,517.62,284Z"/><path class="cls-3" d="M526.57,283.75a3.62,3.62,0,0,1,3.26-2.52.81.81,0,0,1,.87.75.8.8,0,0,1-.69.91c-2.31.25-3.31,2.09-3,4.57l.64,6a.81.81,0,1,1-1.6.17l-1.16-10.92a.83.83,0,0,1,.71-.94.84.84,0,0,1,.9.77Z"/><path class="cls-3" d="M537.78,292.73l-5.42-10.41a.93.93,0,0,1-.12-.37A.84.84,0,0,1,533,281a.78.78,0,0,1,.81.49l4.52,8.9,2.56-9.65a.78.78,0,0,1,.69-.65.84.84,0,0,1,.9.78.92.92,0,0,1,0,.38l-3.11,11.32a.84.84,0,0,1-.7.62A.83.83,0,0,1,537.78,292.73Z"/><path class="cls-3" d="M543.82,276.26c-.08-.78.24-1.11.84-1.18s1,.2,1.07,1a1,1,0,1,1-1.91.2Zm3.39,15.15a.81.81,0,1,1-1.61.17l-1.16-10.92a.81.81,0,1,1,1.61-.17Z"/><path class="cls-3" d="M553.62,278.65a4.66,4.66,0,0,1,4.07,1.45.85.85,0,0,1,.23.49.76.76,0,0,1-.65.86.78.78,0,0,1-.64-.26,3.12,3.12,0,0,0-2.84-1c-2.31.25-3.37,2-3,5.27s1.75,4.79,4.06,4.55a4.45,4.45,0,0,0,2.79-1.47.74.74,0,0,1,.46-.24.76.76,0,0,1,.81.7.87.87,0,0,1-.26.71,5.57,5.57,0,0,1-3.64,1.86c-3.24.34-5.39-1.53-5.86-5.94S550.38,279,553.62,278.65Z"/><path class="cls-3" d="M559.74,274.58c-.09-.78.23-1.12.84-1.18s1,.19,1.07,1a.92.92,0,0,1-.85,1.13A.91.91,0,0,1,559.74,274.58Zm3.38,15.14a.82.82,0,0,1-.71.94.83.83,0,0,1-.9-.77L560.36,279a.81.81,0,1,1,1.6-.17Z"/><path class="cls-3" d="M575.59,282.85c.47,4.41-1.32,6.69-4.58,7s-5.5-1.51-6-5.92,1.35-6.67,4.59-7S575.13,278.44,575.59,282.85ZM574,283c-.36-3.39-1.85-4.75-4.16-4.51s-3.48,1.89-3.12,5.28,1.85,4.78,4.16,4.54S574.33,286.46,574,283Z"/><path class="cls-3" d="M583.32,282.06c-.46-4.41,1.22-6.69,4.46-7,2.87-.3,5.11,1.23,5.49,4.77l1.25,11.84a.82.82,0,0,1-.71.94.84.84,0,0,1-.9-.77l-.63-5.94a4.2,4.2,0,0,1-3.23,2.11C585.82,288.32,583.79,286.47,583.32,282.06Zm8.34-2.08c-.27-2.56-1.78-3.6-3.71-3.39-2.31.24-3.38,1.93-3,5.3s1.77,4.76,4.06,4.51a3.86,3.86,0,0,0,3.06-2.71Z"/><path class="cls-3" d="M597.15,275.07l.75,7c.18,1.75.87,3.2,3.41,2.93s2.9-1.83,2.71-3.58l-.74-7a.86.86,0,0,1,.74-.95.83.83,0,0,1,.87.78l.74,7c.27,2.55-.26,5-4.15,5.39s-4.92-1.85-5.19-4.4l-.74-7a.83.83,0,0,1,.71-.95A.85.85,0,0,1,597.15,275.07Z"/><path class="cls-3" d="M612.21,272.44c4-.43,5.16,2.91,5.35,4.74.08.78.18,1.72-.82,1.82l-7.34.78c.29,2.66,1.9,4.23,4.26,4a4.43,4.43,0,0,0,2.89-1.47.66.66,0,0,1,.44-.21.76.76,0,0,1,.81.7.85.85,0,0,1-.21.65,5.49,5.49,0,0,1-3.76,1.92c-3.34.35-5.63-1.39-6.11-5.91C607.28,275.3,608.94,272.79,612.21,272.44Zm.16,1.56c-2.18.23-3.23,1.87-3.12,4.27l6.75-.71C615.79,275.62,615,273.73,612.37,274Z"/><path class="cls-3" d="M629.88,270.57c4-.43,5.16,2.9,5.35,4.73.08.78.18,1.72-.82,1.83l-7.33.78c.28,2.66,1.89,4.23,4.25,4a4.48,4.48,0,0,0,2.89-1.48.76.76,0,0,1,.44-.21.77.77,0,0,1,.81.71.83.83,0,0,1-.21.64,5.43,5.43,0,0,1-3.76,1.93c-3.34.35-5.63-1.39-6.11-5.91C625,273.43,626.61,270.91,629.88,270.57Zm.16,1.56c-2.18.23-3.23,1.86-3.12,4.27l6.75-.72C633.47,273.75,632.63,271.85,630,272.13Z"/><path class="cls-3" d="M638.16,263.92l1.63,15.36c.11,1.08.49,1.5,1.16,1.43a.81.81,0,0,1,.17,1.61c-1.68.18-2.72-.8-2.94-2.87l-1.63-15.36a.86.86,0,0,1,.71-.94A.84.84,0,0,1,638.16,263.92Z"/><path class="cls-3" d="M642.12,265.84c-.08-.78.24-1.11.84-1.17s1,.19,1.07,1a1,1,0,1,1-1.91.2ZM645.5,281a.81.81,0,1,1-1.61.17l-1.15-10.92a.81.81,0,1,1,1.6-.17Z"/><path class="cls-3" d="M647.61,269.72a.81.81,0,1,1,1.6-.17l1.33,12.51a3.8,3.8,0,0,1-3.24,4.42.78.78,0,0,1-.84-.73.76.76,0,0,1,.67-.88,2.23,2.23,0,0,0,1.8-2.64Zm-.62-4.39c-.09-.78.23-1.12.84-1.18s1,.2,1.07,1a.92.92,0,0,1-.85,1.13A.91.91,0,0,1,647,265.33Z"/><path class="cls-3" d="M654,271c-.22.33-.38.42-.61.45a.76.76,0,0,1-.81-.7.88.88,0,0,1,.08-.47,4.58,4.58,0,0,1,3.94-2.57c2.91-.31,4.71,1.35,5,4.09l.79,7.4a.79.79,0,1,1-1.56.16l-.1-1a3.93,3.93,0,0,1-3.39,2.32c-2.66.28-4.49-.91-4.75-3.38s1.28-4,4-4.26l3.54-.38L660,272a2.77,2.77,0,0,0-3.28-2.65A3.41,3.41,0,0,0,654,271Zm6.4,4.33-.12-1.13-3.54.37c-1.63.18-2.68,1-2.52,2.58.15,1.4,1.15,2.19,3.11,2A3.29,3.29,0,0,0,660.36,275.36Z"/><path class="cls-2" d="M270.26,337.57a3.83,3.83,0,0,1,3,1,4.57,4.57,0,0,1,.65,6.14,3.83,3.83,0,0,1-2.73,1.59l-1.77.19a3.39,3.39,0,0,1-.27,1.19,5.2,5.2,0,0,1,.09,1.72,4.86,4.86,0,0,1-.52,1.67,4.94,4.94,0,0,1-1,3.59,4.74,4.74,0,0,1-3.41,1.71l-1,.11a7.4,7.4,0,0,1-2.4-.17,20.4,20.4,0,0,1-1.95-.69l-1.14-.47a2.69,2.69,0,0,0-1-.11l-.14,0a1.51,1.51,0,0,1-1,.53l-3.14.33a1.52,1.52,0,0,1-1.15-.33,1.45,1.45,0,0,1-.58-1l-1.28-12.08a1.45,1.45,0,0,1,.36-1.12,1.58,1.58,0,0,1,1-.57l3.14-.33a1.48,1.48,0,0,1,1.12.31l.15,0a.9.9,0,0,0,.53-.35,10.49,10.49,0,0,0,.81-1.07,14.49,14.49,0,0,0,1.09-1.86c.1-.26.26-.67.46-1.22a10.47,10.47,0,0,1,1-2.17,2.49,2.49,0,0,1,1.86-1.16,4.45,4.45,0,0,1,3.42.89,4.3,4.3,0,0,1,1.56,3,8.39,8.39,0,0,1,0,1.22Zm-15.35,14.69a1.23,1.23,0,0,0-.43-.85,1.11,1.11,0,0,0-.88-.28,1.08,1.08,0,0,0-.79.45,1.34,1.34,0,0,0,.19,1.79,1.11,1.11,0,0,0,.87.28,1.14,1.14,0,0,0,.8-.46A1.27,1.27,0,0,0,254.91,352.26Zm16-8.49a1.61,1.61,0,0,0,1.14-.68,1.87,1.87,0,0,0-.27-2.57,1.64,1.64,0,0,0-1.26-.43l-7.79.83a2.64,2.64,0,0,1,.36-1.26,7.45,7.45,0,0,0,.42-1.16,3.39,3.39,0,0,0,.14-1.45,1.66,1.66,0,0,0-.78-1.35,2.63,2.63,0,0,0-1.57-.26c-.13,0-.28.19-.44.53-.08.18-.22.55-.43,1.11s-.4,1.19-.53,1.49a15.62,15.62,0,0,1-1.3,2.26,13.11,13.11,0,0,1-1.13,1.5,3.28,3.28,0,0,1-1.54.9l1,9.24a5.13,5.13,0,0,1,1.46.22c.31.11.76.29,1.35.55s1.25.47,1.6.57a4.81,4.81,0,0,0,1.7.14l1-.11a2.47,2.47,0,0,0,2-1.06,3,3,0,0,0,.15-2.41,1.91,1.91,0,0,0,.67-1.32,2.11,2.11,0,0,0-.34-1.58,2.31,2.31,0,0,0,.54-1.7,2.42,2.42,0,0,0-.63-1.53Z"/><path class="cls-3" d="M279.68,347.62l-1.31,5.12a.88.88,0,0,1-.76.73.9.9,0,0,1-.95-.82,1.42,1.42,0,0,1,0-.41L281.06,335a.85.85,0,0,1,.74-.7.9.9,0,0,1,.89.53l7.89,15.94a1.34,1.34,0,0,1,.12.4.88.88,0,0,1-1.68.48l-2.33-4.76Zm2.45-10.26L280,345.9l6-.63Z"/><path class="cls-3" d="M296,338.57A4.66,4.66,0,0,1,300.1,340a.8.8,0,0,1,.23.49.74.74,0,0,1-.65.86.71.71,0,0,1-.63-.26,3.18,3.18,0,0,0-2.85-1c-2.31.25-3.37,2-3,5.27s1.75,4.79,4.06,4.55a4.45,4.45,0,0,0,2.79-1.47.68.68,0,0,1,.46-.23.76.76,0,0,1,.81.7.87.87,0,0,1-.25.71,5.63,5.63,0,0,1-3.64,1.85c-3.24.34-5.4-1.52-5.86-5.93S292.8,338.92,296,338.57Z"/><path class="cls-3" d="M307.11,337.4a4.65,4.65,0,0,1,4.06,1.45.85.85,0,0,1,.23.49.75.75,0,0,1-.65.86.77.77,0,0,1-.63-.26,3.15,3.15,0,0,0-2.85-1c-2.31.25-3.37,2-3,5.27s1.75,4.79,4.06,4.55a4.45,4.45,0,0,0,2.79-1.47.74.74,0,0,1,.46-.24.76.76,0,0,1,.81.7.87.87,0,0,1-.26.71,5.57,5.57,0,0,1-3.63,1.86c-3.24.34-5.4-1.53-5.86-5.94S303.87,337.74,307.11,337.4Z"/><path class="cls-3" d="M318.17,336.23c4-.43,5.16,2.9,5.36,4.73.08.78.18,1.72-.83,1.83l-7.33.78c.28,2.66,1.9,4.23,4.26,4a4.51,4.51,0,0,0,2.89-1.48.73.73,0,0,1,.43-.21.77.77,0,0,1,.82.71.8.8,0,0,1-.22.64,5.39,5.39,0,0,1-3.75,1.93c-3.34.35-5.64-1.39-6.11-5.91C313.25,339.09,314.91,336.57,318.17,336.23Zm.17,1.56c-2.19.23-3.23,1.86-3.13,4.27l6.76-.72C321.76,339.41,320.93,337.51,318.34,337.79Z"/><path class="cls-3" d="M327.13,338.6c.3,2.82,6.79,1.07,7.25,5.37.26,2.45-1.51,3.75-3.89,4a5.57,5.57,0,0,1-4.5-1.48.85.85,0,0,1-.23-.5.75.75,0,0,1,.64-.85.71.71,0,0,1,.58.21,4.18,4.18,0,0,0,3.33,1c1.43-.16,2.61-.8,2.46-2.2-.29-2.77-6.78-1-7.25-5.37-.23-2.24,1.37-3.44,3.5-3.66a4.46,4.46,0,0,1,4,1.31.86.86,0,0,1,.23.49.76.76,0,0,1-.65.86.69.69,0,0,1-.55-.19,3.52,3.52,0,0,0-2.86-.84C328.07,336.86,327,337.36,327.13,338.6Z"/><path class="cls-3" d="M346.57,339.74c.47,4.41-1.32,6.7-4.58,7s-5.5-1.51-6-5.92,1.35-6.67,4.59-7S346.11,335.33,346.57,339.74Zm-1.63.18c-.36-3.39-1.85-4.76-4.16-4.51s-3.48,1.89-3.12,5.28,1.85,4.78,4.16,4.53S345.31,343.36,344.94,339.92Z"/><path class="cls-3" d="M356,335.24a.84.84,0,0,1-.62.45.77.77,0,0,1-.81-.71.88.88,0,0,1,.08-.47,4.59,4.59,0,0,1,3.94-2.56,4.22,4.22,0,0,1,5,4.09l.78,7.39a.79.79,0,1,1-1.56.17l-.1-1a3.93,3.93,0,0,1-3.38,2.32c-2.67.28-4.49-.91-4.76-3.39s1.28-4,4-4.26l3.54-.37-.08-.73a2.76,2.76,0,0,0-3.28-2.64A3.38,3.38,0,0,0,356,335.24Zm6.4,4.32-.12-1.12-3.54.37c-1.64.17-2.69,1-2.52,2.58.14,1.4,1.14,2.19,3.1,2A3.31,3.31,0,0,0,362.37,339.56Z"/><path class="cls-3" d="M389.84,333.44l.77,7.18a.81.81,0,1,1-1.61.17l-.73-6.83c-.22-2.12-1.08-3.5-3.51-3.24-2.16.23-3,1.57-2.8,3.56l.76,7.18a.84.84,0,0,1-.71,1,.85.85,0,0,1-.9-.78l-.72-6.83c-.23-2.12-1-3.51-3.47-3.25s-2.93,1.83-2.69,4.09l.71,6.65a.81.81,0,1,1-1.61.17l-1.16-10.92a.81.81,0,1,1,1.61-.17l.09.86a3.49,3.49,0,0,1,3.07-2.23,4.33,4.33,0,0,1,4.19,1.46,3.93,3.93,0,0,1,3.46-2.27C388.46,328.78,389.6,331.16,389.84,333.44Z"/><path class="cls-3" d="M393.94,331.22c-.22.32-.38.42-.61.44a.76.76,0,0,1-.81-.7.8.8,0,0,1,.08-.47,4.58,4.58,0,0,1,3.94-2.57c2.91-.31,4.71,1.35,5,4.09l.79,7.4a.79.79,0,1,1-1.56.16l-.1-1a3.94,3.94,0,0,1-3.39,2.31c-2.66.28-4.49-.91-4.75-3.38s1.28-4,4-4.26l3.54-.38-.07-.72a2.77,2.77,0,0,0-3.28-2.65A3.42,3.42,0,0,0,393.94,331.22Zm6.4,4.32-.12-1.13-3.54.38c-1.63.17-2.68,1-2.52,2.57.15,1.4,1.15,2.19,3.11,2A3.3,3.3,0,0,0,400.34,335.54Z"/><path class="cls-3" d="M404.44,324.61a.86.86,0,0,1,.71-.95.84.84,0,0,1,.89.78l.3,2.82,1.63-.17a.81.81,0,0,1,.18,1.61l-1.64.18.79,7.42c.12,1.15.79,1.71,1.64,1.62a.81.81,0,0,1,.18,1.61c-2,.21-3.22-1.1-3.43-3.06l-.78-7.42-1,.1a.78.78,0,0,1-.84-.73.76.76,0,0,1,.67-.88l1-.11Z"/><path class="cls-3" d="M415.49,325.91c4-.42,5.16,2.91,5.35,4.74.09.78.18,1.72-.82,1.82l-7.33.78c.28,2.66,1.89,4.23,4.25,4a4.43,4.43,0,0,0,2.89-1.47.66.66,0,0,1,.44-.21.76.76,0,0,1,.81.7.85.85,0,0,1-.21.65,5.44,5.44,0,0,1-3.76,1.92c-3.34.35-5.63-1.39-6.11-5.91C410.56,328.77,412.23,326.26,415.49,325.91Zm.16,1.56c-2.18.23-3.23,1.87-3.12,4.28l6.75-.72C419.08,329.09,418.24,327.2,415.65,327.47Z"/><path class="cls-3" d="M424.61,327.17a3.63,3.63,0,0,1,3.26-2.52.84.84,0,0,1,.18,1.67c-2.31.25-3.31,2.09-3.05,4.57l.64,6a.81.81,0,1,1-1.61.17l-1.15-10.92a.81.81,0,1,1,1.6-.17Z"/><path class="cls-3" d="M430,321c-.08-.78.24-1.12.84-1.18s1,.2,1.07,1a1,1,0,1,1-1.91.2Zm3.38,15.14a.83.83,0,0,1-.71,1,.84.84,0,0,1-.9-.78l-1.15-10.92a.81.81,0,1,1,1.6-.17Z"/><path class="cls-3" d="M437,326.65c-.22.33-.39.43-.62.45a.76.76,0,0,1-.81-.7.88.88,0,0,1,.08-.47,4.59,4.59,0,0,1,3.94-2.57,4.22,4.22,0,0,1,5,4.09l.78,7.4a.8.8,0,0,1-.69.91.81.81,0,0,1-.87-.75l-.1-1a3.94,3.94,0,0,1-3.38,2.31c-2.67.28-4.49-.91-4.76-3.38s1.28-4,4-4.26l3.54-.38-.08-.72a2.76,2.76,0,0,0-3.28-2.65A3.41,3.41,0,0,0,437,326.65Zm6.4,4.33-.12-1.13-3.54.38c-1.64.17-2.69,1-2.52,2.57.14,1.4,1.14,2.19,3.1,2A3.32,3.32,0,0,0,443.37,331Z"/><path class="cls-3" d="M448.09,316.69l1.63,15.36c.12,1.07.49,1.49,1.17,1.42a.79.79,0,0,1,.84.73.8.8,0,0,1-.67.89c-1.68.17-2.73-.8-2.95-2.87l-1.62-15.36a.85.85,0,0,1,.71-.94A.83.83,0,0,1,448.09,316.69Z"/><path class="cls-3" d="M463,320.88c4-.43,5.16,2.9,5.35,4.73.09.78.19,1.72-.82,1.83l-7.33.78c.28,2.66,1.89,4.23,4.25,4a4.49,4.49,0,0,0,2.9-1.48.73.73,0,0,1,.43-.21.77.77,0,0,1,.81.71.83.83,0,0,1-.21.64,5.4,5.4,0,0,1-3.76,1.93c-3.34.35-5.63-1.39-6.11-5.91C458.05,323.74,459.72,321.22,463,320.88Zm.17,1.56c-2.19.23-3.23,1.86-3.13,4.27l6.75-.71C466.57,324.06,465.73,322.16,463.15,322.44Z"/><path class="cls-3" d="M474.61,327.42,472,332.51a.77.77,0,0,1-.62.42.82.82,0,0,1-.89-.77.86.86,0,0,1,.1-.53l2.9-5.45-3.85-4.46a.93.93,0,0,1-.21-.49.84.84,0,0,1,.71-1,.77.77,0,0,1,.69.28l3.52,4.15,2.56-4.79a.8.8,0,0,1,.62-.42.82.82,0,0,1,.89.78.89.89,0,0,1-.09.52L475.48,326l4,4.72a.9.9,0,0,1,.2.49.83.83,0,0,1-.71.95.77.77,0,0,1-.69-.28Z"/><path class="cls-3" d="M485,318.54a4.63,4.63,0,0,1,4.06,1.45.8.8,0,0,1,.23.49.75.75,0,0,1-.64.86.78.78,0,0,1-.64-.26,3.16,3.16,0,0,0-2.85-1c-2.31.25-3.37,2-3,5.27s1.75,4.79,4.07,4.55a4.48,4.48,0,0,0,2.79-1.47.74.74,0,0,1,.45-.24.77.77,0,0,1,.81.71.85.85,0,0,1-.25.7,5.52,5.52,0,0,1-3.64,1.86c-3.24.34-5.39-1.53-5.86-5.94S481.78,318.88,485,318.54Z"/><path class="cls-3" d="M492.42,312l1.63,15.36c.11,1.07.49,1.5,1.17,1.42a.78.78,0,0,1,.83.73.79.79,0,0,1-.66.89c-1.69.18-2.73-.8-2.95-2.87l-1.63-15.36a.87.87,0,0,1,.72-.94A.83.83,0,0,1,492.42,312Z"/><path class="cls-3" d="M498.38,318.16l.74,7c.19,1.75.88,3.2,3.41,2.93s2.91-1.83,2.72-3.58l-.74-7a.85.85,0,0,1,.73-.95.82.82,0,0,1,.87.78l.75,7c.27,2.55-.26,5-4.15,5.39s-4.92-1.85-5.19-4.4l-.75-7a.83.83,0,0,1,.72-.95A.85.85,0,0,1,498.38,318.16Z"/><path class="cls-3" d="M510.69,319.14c.3,2.82,6.8,1.07,7.25,5.38.26,2.44-1.51,3.75-3.89,4a5.55,5.55,0,0,1-4.5-1.48.85.85,0,0,1-.23-.5.75.75,0,0,1,.64-.85.73.73,0,0,1,.59.21,4.12,4.12,0,0,0,3.33,1c1.43-.15,2.6-.8,2.45-2.19-.29-2.77-6.78-1-7.24-5.38-.24-2.23,1.36-3.44,3.49-3.66a4.47,4.47,0,0,1,4,1.31.81.81,0,0,1,.23.5.75.75,0,0,1-.64.85.69.69,0,0,1-.56-.18,3.44,3.44,0,0,0-2.85-.84C511.63,317.41,510.56,317.9,510.69,319.14Z"/><path class="cls-3" d="M519.12,311.5c-.08-.78.24-1.11.84-1.18s1,.2,1.07,1a.9.9,0,0,1-.84,1.12A.92.92,0,0,1,519.12,311.5Zm3.39,15.14a.84.84,0,0,1-.72.95.82.82,0,0,1-.89-.78l-1.16-10.92a.81.81,0,1,1,1.61-.17Z"/><path class="cls-3" d="M528.92,326.29l-5.42-10.41a.93.93,0,0,1-.12-.37.83.83,0,0,1,.71-.95.8.8,0,0,1,.82.49l4.52,8.9L532,314.3a.78.78,0,0,1,.69-.65.84.84,0,0,1,.9.78.92.92,0,0,1,0,.38l-3.12,11.32a.83.83,0,0,1-.69.62A.82.82,0,0,1,528.92,326.29Z"/><path class="cls-3" d="M546,318.61c.47,4.41-1.32,6.69-4.58,7s-5.5-1.51-6-5.92,1.35-6.68,4.59-7S545.51,314.2,546,318.61Zm-1.63.17c-.36-3.39-1.85-4.75-4.16-4.51s-3.48,1.89-3.12,5.28,1.85,4.78,4.16,4.54S544.71,322.22,544.34,318.78Z"/><path class="cls-3" d="M331.88,379.42l-.82-7.72-5.95-8a.94.94,0,0,1-.17-.47.87.87,0,0,1,.75-1,.86.86,0,0,1,.78.35l5.25,7.17,3.64-8.11a.82.82,0,0,1,.68-.51.9.9,0,0,1,.95.83.88.88,0,0,1-.08.49l-4.14,9,.82,7.71a.89.89,0,0,1-.76,1A.88.88,0,0,1,331.88,379.42Z"/><path class="cls-3" d="M363.36,368.87l.76,7.18a.81.81,0,1,1-1.61.17l-.72-6.83c-.23-2.12-1.09-3.5-3.52-3.24-2.16.23-3,1.57-2.8,3.56l.76,7.18a.81.81,0,1,1-1.6.17l-.73-6.83c-.22-2.13-1-3.51-3.47-3.25s-2.92,1.83-2.69,4.09l.71,6.64a.81.81,0,1,1-1.61.17L345.68,367a.81.81,0,1,1,1.61-.17l.09.86a3.5,3.5,0,0,1,3.07-2.23c2.06-.22,3.47.44,4.19,1.46a4,4,0,0,1,3.47-2.28C362,364.21,363.11,366.59,363.36,368.87Z"/><path class="cls-3" d="M367.2,364.69l.74,7c.19,1.75.87,3.2,3.41,2.93s2.9-1.83,2.72-3.58l-.75-7a.85.85,0,0,1,.74-1,.82.82,0,0,1,.87.78l.74,7c.28,2.56-.26,5-4.15,5.39s-4.92-1.84-5.19-4.4l-.74-7a.83.83,0,0,1,.71-.95A.86.86,0,0,1,367.2,364.69Z"/><path class="cls-3" d="M382.25,362.06a4.63,4.63,0,0,1,4.06,1.44.85.85,0,0,1,.23.49.74.74,0,0,1-.64.86.73.73,0,0,1-.64-.26,3.16,3.16,0,0,0-2.84-1c-2.32.24-3.38,2-3,5.27s1.76,4.79,4.07,4.54a4.47,4.47,0,0,0,2.79-1.46.7.7,0,0,1,.45-.24.76.76,0,0,1,.81.7.87.87,0,0,1-.25.71,5.52,5.52,0,0,1-3.64,1.85c-3.24.34-5.39-1.52-5.86-5.93S379,362.4,382.25,362.06Z"/><path class="cls-3" d="M398.72,365.12l.76,7.18a.81.81,0,1,1-1.61.17l-.72-6.83c-.22-2.12-1-3.51-3.39-3.25s-3.17,2-2.94,4.12l.7,6.64a.82.82,0,0,1-.71.94.84.84,0,0,1-.9-.77L388,355.68a.84.84,0,0,1,.72-.95.82.82,0,0,1,.89.78l.81,7.58a3.62,3.62,0,0,1,3.14-2.24C397.46,360.44,398.48,362.84,398.72,365.12Z"/><path class="cls-3" d="M411.7,365.46c.47,4.41-1.32,6.69-4.58,7s-5.5-1.51-6-5.92,1.36-6.67,4.59-7S411.23,361.05,411.7,365.46Zm-1.63.17c-.36-3.38-1.85-4.75-4.16-4.5s-3.48,1.89-3.12,5.28,1.85,4.78,4.16,4.53S410.43,369.08,410.07,365.63Z"/><path class="cls-3" d="M437.28,361l.76,7.18a.81.81,0,1,1-1.61.17l-.72-6.83c-.23-2.13-1.08-3.51-3.52-3.25-2.16.23-3,1.57-2.8,3.56l.76,7.18a.81.81,0,1,1-1.6.17l-.73-6.83c-.22-2.12-1-3.51-3.46-3.25s-2.93,1.84-2.69,4.1l.7,6.64a.82.82,0,0,1-.71.94.83.83,0,0,1-.9-.77l-1.15-10.92a.81.81,0,1,1,1.6-.17l.09.86a3.51,3.51,0,0,1,3.07-2.23c2.06-.22,3.47.45,4.19,1.46a4,4,0,0,1,3.47-2.27C435.89,356.37,437,358.75,437.28,361Z"/><path class="cls-3" d="M441.38,358.81c-.22.32-.39.42-.62.44a.76.76,0,0,1-.81-.7.88.88,0,0,1,.08-.47,4.61,4.61,0,0,1,3.94-2.57c2.92-.31,4.72,1.35,5,4.1l.78,7.39a.82.82,0,0,1-.69.92.83.83,0,0,1-.87-.75l-.1-1a3.93,3.93,0,0,1-3.38,2.32c-2.67.28-4.49-.92-4.76-3.39s1.28-4,4-4.26l3.54-.37-.08-.73a2.75,2.75,0,0,0-3.28-2.64A3.36,3.36,0,0,0,441.38,358.81Zm6.4,4.32-.12-1.13-3.54.38c-1.64.17-2.69,1-2.52,2.58.14,1.4,1.14,2.19,3.1,2A3.32,3.32,0,0,0,447.78,363.13Zm-5.5-9.67,1.93-3.14c.17-.29.51-.43,1-.1a.66.66,0,0,1,.19,1l-2.16,2.9a.47.47,0,0,1-.75.13A.55.55,0,0,1,442.28,353.46Z"/><path class="cls-3" d="M453.18,357.86c.3,2.82,6.79,1.07,7.25,5.37.26,2.45-1.51,3.75-3.89,4a5.53,5.53,0,0,1-4.5-1.49.8.8,0,0,1-.23-.49.75.75,0,0,1,.64-.85.71.71,0,0,1,.58.21,4.17,4.17,0,0,0,3.33,1c1.43-.16,2.61-.8,2.46-2.2-.29-2.77-6.78-1-7.25-5.37-.23-2.24,1.36-3.44,3.5-3.66a4.46,4.46,0,0,1,4,1.31.86.86,0,0,1,.23.49.77.77,0,0,1-.65.86.68.68,0,0,1-.55-.19,3.52,3.52,0,0,0-2.86-.84C454.11,356.12,453.05,356.62,453.18,357.86Z"/><path class="cls-3" d="M462.06,365.26c-.09-.88.32-1.34,1-1.41s1.23.28,1.32,1.16a1.09,1.09,0,0,1-1,1.39C462.65,366.48,462.16,366.15,462.06,365.26Zm6.81-.72c-.1-.89.31-1.34,1-1.41s1.22.27,1.32,1.16-.32,1.31-1.05,1.39S469,365.43,468.87,364.54Zm6.83-.72c-.1-.89.31-1.34,1-1.42s1.22.28,1.32,1.17-.32,1.31-1.05,1.39S475.79,364.71,475.7,363.82Z"/></g></g></svg>