<svg xmlns="http://www.w3.org/2000/svg" width="775.76" height="569.78" viewBox="0 0 775.76 569.78"><title>Promo landing</title><g id="Pag_1" data-name="Pag 1"><g id="Texto_prom" data-name="Texto prom"><path d="M198.13,74.48c-37.54,13.79-70.28,38.1-97.13,69.44-27.38,32-50.52,72.25-60.15,116.12-9.31,42.36-1.72,89.82,29.38,122,28.25,29.22,69.48,37.88,105.23,43.82,91.93,15.29,183.19-1.08,266-38.79,70.2-32,140.3-81.35,163.36-166.63,12.72-47-28-85.75-61.52-108.45S471.17,78.86,433.26,74.08c-88.49-11.16-178.67,3.6-255.28,48-36,20.87-71.76,49-97.27,84.19C59,236.17,48.06,274.45,58,314.17c10.49,42.08,43.75,72.36,78.69,89,39.53,18.84,83,25.46,124.57,23.51,42-2,82.71-13.41,121.4-29C421,382.28,458.41,363,492.09,338c34-25.3,64-58,84.9-97.39,9.42-17.77,13.45-37.48,9.23-58.7-4.47-22.45-18.81-42.49-34.14-57.78-32.65-32.55-76.51-47.93-117.53-58.19A379.83,379.83,0,0,0,304,56.29C218.41,65,139.74,105.84,78.8,169.22c-12.74,13.26-25.5,27.88-31.66,46.63-6.46,19.69-5.32,40.66.55,61.25,12.17,42.74,42.9,74.59,79.92,90.59,19.42,8.38,40.15,12.55,60.38,16.09A429,429,0,0,0,250.41,390a401.84,401.84,0,0,0,121.81-15.69c94.21-27.09,175.5-90.22,234.61-173.42,2.41-3.39-2.26-8.41-4.69-5-52.59,74-122.16,131.41-203.63,162.24a396.3,396.3,0,0,1-251,9.21c-43-12.78-78.75-44-93.48-92.05-7.15-23.33-6.12-47.18,4.22-67.74C68,188.26,84.62,173.06,99.49,159,165.62,96.54,251.28,62.26,340.71,61.6c44.9-.34,90.44,8.05,134,23.76,42.07,15.17,90.95,44.71,104.78,95.42,6.86,25.18-2.81,47.63-14.48,67.3a283.18,283.18,0,0,1-43.52,55.38c-31.05,31.12-68.44,53.7-106.92,72.29-78.3,37.84-166.6,59.69-253.95,29.66C120.4,391.59,80.81,364.24,65.68,318c-14.23-43.55,2.4-86,27.57-116.68,59.56-72.5,149.58-111.78,238.46-121.36,42.82-4.61,87.52-3.27,130.63,5.86,41.62,8.82,81.3,28.52,113.14,61.66,9.12,9.5,16.93,20.66,21.85,33.34,5.21,13.44,4.25,27.17.71,40.25-6.14,22.71-17.53,44-30.36,62.39-23.61,33.86-56.06,58.32-90.28,77.7-79.56,45.05-170.79,69.13-262.92,62.76a417.11,417.11,0,0,1-69.66-11.07c-17.72-4.3-35.12-10.1-51.31-20C53.2,368,37.71,319.5,44.05,272.63c6.2-45.81,30.36-87.65,57-121,26.37-33.13,60.05-58.8,98.3-73,2.25-.84,1.1-4.91-1.17-4.08Z" style="fill:#2c3752"/><path d="M102,208.21a3.51,3.51,0,0,1,2.73.86,3.9,3.9,0,0,1,.57,5.4,3.51,3.51,0,0,1-2.48,1.41l-1.61.17a2.84,2.84,0,0,1-.25,1,4.24,4.24,0,0,1,.07,1.51,4.07,4.07,0,0,1-.47,1.48,4.23,4.23,0,0,1-.91,3.15,4.34,4.34,0,0,1-3.1,1.52l-.94.1a6.56,6.56,0,0,1-2.18-.14,15.19,15.19,0,0,1-1.77-.61l-1-.4a2.29,2.29,0,0,0-.86-.09h-.14a1.36,1.36,0,0,1-.94.47l-2.85.31a1.45,1.45,0,0,1-1-.29,1.25,1.25,0,0,1-.53-.9l-1.12-10.63a1.26,1.26,0,0,1,.32-1,1.42,1.42,0,0,1,1-.5l2.85-.3a1.39,1.39,0,0,1,1,.27l.14,0a.81.81,0,0,0,.48-.31,10.36,10.36,0,0,0,.74-.94,12.73,12.73,0,0,0,1-1.65c.1-.22.24-.58.43-1.07a8.56,8.56,0,0,1,.88-1.91,2.22,2.22,0,0,1,1.69-1,4.1,4.1,0,0,1,3.1.76,3.73,3.73,0,0,1,1.41,2.64,6.39,6.39,0,0,1,0,1.07Zm-14,13a1.11,1.11,0,0,0-.39-.75,1,1,0,0,0-.79-.24,1.05,1.05,0,0,0-.73.4,1.13,1.13,0,0,0-.23.82,1.12,1.12,0,0,0,.4.75,1,1,0,0,0,1.51-.16A1,1,0,0,0,88.05,221.18Zm14.57-7.52a1.45,1.45,0,0,0,1-.6,1.61,1.61,0,0,0,.35-1.18,1.59,1.59,0,0,0-.59-1.08,1.45,1.45,0,0,0-1.14-.37l-7.09.75a2.33,2.33,0,0,1,.34-1.11,6.56,6.56,0,0,0,.38-1,3.1,3.1,0,0,0,.14-1.28,1.44,1.44,0,0,0-.71-1.18,2.39,2.39,0,0,0-1.42-.23c-.12,0-.26.17-.4.47s-.21.48-.4,1a13.19,13.19,0,0,1-.49,1.31,12.86,12.86,0,0,1-1.18,2,11.37,11.37,0,0,1-1,1.32,3.09,3.09,0,0,1-1.41.81l.86,8.13a4.45,4.45,0,0,1,1.33.18c.28.1.69.26,1.22.48s1.14.41,1.45.5a4.67,4.67,0,0,0,1.55.12l.93-.1a2.31,2.31,0,0,0,1.84-1,2.56,2.56,0,0,0,.14-2.11,1.72,1.72,0,0,0,.62-1.17,1.83,1.83,0,0,0-.31-1.39,2,2,0,0,0,.5-1.5,2.14,2.14,0,0,0-.57-1.34Z" style="fill:#fff"/><path d="M119.48,220.22a.79.79,0,0,1-.69.89.8.8,0,0,1-.86-.72l-1.54-14.51a.8.8,0,0,1,.69-.89l4.55-.48c2.44-.26,4.51,1,4.85,4.15s-1.38,4.84-3.87,5.1l-3.77.4Zm-.79-7.52,3.53-.38a3.18,3.18,0,0,0-.67-6.32l-3.53.38Z" style="fill:#74b283"/><path d="M129.88,211.2a.75.75,0,0,1-.56.39.67.67,0,0,1-.74-.61.81.81,0,0,1,.08-.42,4.22,4.22,0,0,1,3.59-2.27,3.77,3.77,0,0,1,4.53,3.59l.69,6.51a.72.72,0,0,1-.63.8.71.71,0,0,1-.78-.65l-.1-.86a3.57,3.57,0,0,1-3.08,2c-2.42.26-4.07-.78-4.3-3s1.17-3.5,3.64-3.76l3.21-.34-.06-.64a2.48,2.48,0,0,0-3-2.32A3.14,3.14,0,0,0,129.88,211.2Zm5.8,3.79-.11-1-3.21.34c-1.49.16-2.45.91-2.3,2.28s1,1.92,2.81,1.74A3,3,0,0,0,135.68,215Z" style="fill:#74b283"/><path d="M140.75,209.35a3.33,3.33,0,0,1,3-2.23.74.74,0,0,1,.15,1.47c-2.1.22-3,1.85-2.78,4l.56,5.3a.73.73,0,1,1-1.46.15l-1-9.6a.73.73,0,1,1,1.46-.16Z" style="fill:#74b283"/><path d="M146.94,204.56a.73.73,0,1,1,1.46-.16l.26,2.49,1.48-.16a.69.69,0,0,1,.76.64.68.68,0,0,1-.61.78l-1.48.16.69,6.53c.11,1,.72,1.5,1.49,1.42a.71.71,0,0,1,.15,1.42A2.71,2.71,0,0,1,148,215l-.69-6.53-.89.1a.71.71,0,0,1-.15-1.42l.89-.1Z" style="fill:#74b283"/><path d="M152.48,203.13c-.07-.68.22-1,.77-1s.89.17,1,.86a.88.88,0,1,1-1.74.18Zm3,13.32a.73.73,0,1,1-1.46.15l-1-9.6a.73.73,0,1,1,1.46-.16Z" style="fill:#74b283"/><path d="M161.38,205.2a4.3,4.3,0,0,1,3.69,1.26.71.71,0,0,1,.2.44.67.67,0,0,1-1.16.53,2.91,2.91,0,0,0-2.59-.85c-2.1.22-3.07,1.73-2.76,4.64s1.58,4.21,3.68,4a4.14,4.14,0,0,0,2.54-1.29.67.67,0,0,1,.42-.22.68.68,0,0,1,.73.62.77.77,0,0,1-.23.62,5.13,5.13,0,0,1-3.32,1.64c-2.94.32-4.89-1.32-5.3-5.2S158.43,205.52,161.38,205.2Z" style="fill:#74b283"/><path d="M167,201.6c-.08-.69.22-1,.76-1s.9.17,1,.86a.87.87,0,1,1-1.73.18Zm3,13.32a.73.73,0,0,1-.65.83.74.74,0,0,1-.81-.68l-1-9.6a.73.73,0,0,1,.65-.84.74.74,0,0,1,.81.68Z" style="fill:#74b283"/><path d="M173.38,204.84l.08.76a3.57,3.57,0,0,1,2.93-2c3-.31,5,1.3,5.37,5.18s-1.2,5.89-4.16,6.2a3.61,3.61,0,0,1-3.28-1.32l.56,5.34a.76.76,0,0,1-.65.84.78.78,0,0,1-.81-.68L171.92,205a.73.73,0,1,1,1.46-.16Zm4.07,8.78c2.1-.22,3.14-1.72,2.83-4.68s-1.69-4.17-3.79-3.95c-1.69.18-3,1.56-2.65,4.64S175.67,213.81,177.45,213.62Z" style="fill:#74b283"/><path d="M187.45,202.44c3.66-.39,4.68,2.54,4.85,4.15.08.69.16,1.52-.75,1.61l-6.66.71c.24,2.34,1.71,3.72,3.85,3.49a4.13,4.13,0,0,0,2.63-1.31.62.62,0,0,1,.4-.18.68.68,0,0,1,.73.61.71.71,0,0,1-.19.57,5,5,0,0,1-3.42,1.71c-3,.32-5.11-1.21-5.54-5.18C183,205,184.49,202.75,187.45,202.44Zm.15,1.37c-2,.21-2.94,1.65-2.86,3.77l6.14-.65C190.7,205.23,190,203.56,187.6,203.81Z" style="fill:#74b283"/><path d="M203.51,200.74c3.66-.39,4.68,2.54,4.85,4.15.08.69.16,1.51-.75,1.61l-6.66.71c.24,2.34,1.71,3.72,3.85,3.49a4.15,4.15,0,0,0,2.63-1.31.6.6,0,0,1,.4-.18.67.67,0,0,1,.73.61.71.71,0,0,1-.19.57,5,5,0,0,1-3.42,1.7c-3,.33-5.11-1.2-5.54-5.18C199,203.27,200.55,201.05,203.51,200.74Zm.15,1.37c-2,.21-2.94,1.65-2.85,3.77l6.13-.65C206.76,203.53,206,201.86,203.66,202.11Z" style="fill:#74b283"/><path d="M219.27,203.3l.67,6.32a.73.73,0,1,1-1.46.16l-.64-6c-.2-1.86-.86-3.09-3.07-2.85s-2.89,1.74-2.69,3.63l.62,5.85a.73.73,0,0,1-.65.83.74.74,0,0,1-.81-.68l-1-9.6a.75.75,0,0,1,.65-.84.74.74,0,0,1,.81.68l.09.76a3.29,3.29,0,0,1,2.86-2C218.14,199.19,219.05,201.29,219.27,203.3Z" style="fill:#74b283"/><path d="M231,197.82c3.66-.38,4.68,2.55,4.85,4.16.08.68.16,1.51-.75,1.61l-6.66.7c.24,2.35,1.71,3.72,3.85,3.49a4.17,4.17,0,0,0,2.63-1.3.63.63,0,0,1,.4-.19.68.68,0,0,1,.73.62.72.72,0,0,1-.19.57,5.06,5.06,0,0,1-3.42,1.7c-3,.32-5.11-1.2-5.54-5.18C226.52,200.36,228,198.14,231,197.82Zm.15,1.38c-2,.21-2.94,1.65-2.86,3.77l6.14-.65C234.25,200.61,233.5,199,231.15,199.2Z" style="fill:#74b283"/><path d="M238.55,192,240,205.46c.1.95.44,1.32,1.06,1.25a.71.71,0,0,1,.75.64.69.69,0,0,1-.6.78c-1.53.17-2.48-.69-2.67-2.51l-1.43-13.51a.73.73,0,1,1,1.46-.16Z" style="fill:#74b283"/><path d="M249.56,198.78c.26,2.48,6.17.92,6.57,4.71.23,2.15-1.38,3.3-3.55,3.53a5.06,5.06,0,0,1-4.08-1.29.7.7,0,0,1-.21-.43.68.68,0,0,1,.59-.76.75.75,0,0,1,.53.19,3.85,3.85,0,0,0,3,.85c1.3-.14,2.37-.71,2.24-1.94-.26-2.43-6.16-.83-6.57-4.71-.21-2,1.25-3,3.19-3.23a4.1,4.1,0,0,1,3.63,1.15.7.7,0,0,1-.39,1.18.61.61,0,0,1-.5-.16,3.17,3.17,0,0,0-2.59-.73C250.41,197.25,249.44,197.69,249.56,198.78Z" style="fill:#74b283"/><path d="M267.22,199.73c.41,3.88-1.22,5.89-4.19,6.21s-5-1.32-5.4-5.2,1.25-5.87,4.19-6.18S266.81,195.85,267.22,199.73Zm-1.48.15c-.32-3-1.67-4.17-3.77-3.95s-3.17,1.68-2.85,4.66,1.67,4.2,3.77,4S266.06,202.91,265.74,199.88Z" style="fill:#74b283"/><path d="M270.56,195.59a3.32,3.32,0,0,1,3-2.23.74.74,0,0,1,.16,1.47c-2.1.22-3,1.85-2.78,4l.56,5.3a.74.74,0,0,1-.65.83.73.73,0,0,1-.81-.68l-1-9.6a.73.73,0,1,1,1.46-.16Z" style="fill:#74b283"/><path d="M276.74,190.8a.78.78,0,0,1,.65-.84.76.76,0,0,1,.81.68l.27,2.49L280,193a.71.71,0,0,1,.15,1.42l-1.48.16.69,6.53c.11,1,.71,1.5,1.49,1.42a.71.71,0,0,1,.15,1.42,2.71,2.71,0,0,1-3.1-2.69l-.69-6.53-.89.1a.69.69,0,0,1-.76-.64.68.68,0,0,1,.61-.78l.89-.1Z" style="fill:#74b283"/><path d="M286.78,191.91c3.65-.39,4.68,2.54,4.85,4.15.07.69.16,1.52-.75,1.61l-6.67.71c.25,2.34,1.71,3.72,3.86,3.49a4.13,4.13,0,0,0,2.63-1.31.67.67,0,0,1,1.13.43.73.73,0,0,1-.19.58,5.06,5.06,0,0,1-3.42,1.7c-3,.32-5.12-1.21-5.54-5.18C282.3,194.44,283.82,192.23,286.78,191.91Zm.15,1.37c-2,.21-2.94,1.66-2.86,3.77l6.14-.65C290,194.7,289.28,193,286.93,193.28Z" style="fill:#74b283"/><path d="M302.9,196c.41,3.88-1.22,5.89-4.19,6.21s-5-1.32-5.4-5.2,1.25-5.87,4.19-6.19S302.49,192.07,302.9,196Zm-1.48.15c-.32-3-1.67-4.18-3.77-3.95s-3.17,1.67-2.85,4.65,1.67,4.21,3.76,4S301.74,199.13,301.42,196.1Z" style="fill:#74b283"/><path d="M317.17,190.25l-.69-6.56a.73.73,0,1,1,1.46-.15l1.24,11.73c.33,3.13-1.37,4.86-4,5.14-2.94.31-4.87-1.33-5.28-5.21s1-5.85,4-6.16A3.79,3.79,0,0,1,317.17,190.25Zm.21,1.91a3.5,3.5,0,0,0-3.24-1.76c-2.07.22-3.07,1.74-2.76,4.65s1.58,4.21,3.68,4c1.76-.18,2.9-1.36,2.66-3.6Z" style="fill:#74b283"/><path d="M325.45,187.81c3.65-.38,4.68,2.55,4.85,4.15.07.69.16,1.52-.75,1.61l-6.67.71c.25,2.34,1.71,3.72,3.86,3.49a4.17,4.17,0,0,0,2.63-1.3.61.61,0,0,1,.39-.19.68.68,0,0,1,.74.62.69.69,0,0,1-.2.57,5,5,0,0,1-3.42,1.7c-3,.32-5.11-1.2-5.53-5.18C321,190.35,322.48,188.13,325.45,187.81Zm.14,1.38c-2,.21-2.94,1.65-2.85,3.77l6.14-.65C328.7,190.6,328,188.94,325.59,189.19Z" style="fill:#74b283"/><path d="M338.82,187.3l.66,6.18c.16,1.54.78,2.81,3.08,2.57s2.65-1.62,2.48-3.16l-.65-6.18a.75.75,0,0,1,.67-.83.73.73,0,0,1,.79.68l.66,6.17c.23,2.25-.26,4.39-3.79,4.76s-4.47-1.61-4.71-3.86l-.65-6.17a.73.73,0,1,1,1.46-.16Z" style="fill:#74b283"/><path d="M357.63,188.64l.67,6.31a.75.75,0,0,1-.65.84.74.74,0,0,1-.81-.68l-.64-6c-.2-1.87-.86-3.09-3.07-2.86s-2.89,1.74-2.69,3.64l.62,5.84a.73.73,0,1,1-1.46.16l-1-9.61a.74.74,0,1,1,1.47-.16l.08.76a3.31,3.31,0,0,1,2.86-2C356.5,184.52,357.42,186.63,357.63,188.64Z" style="fill:#74b283"/><path d="M369.42,188.89c.41,3.88-1.22,5.9-4.19,6.21s-5-1.31-5.39-5.19,1.24-5.87,4.19-6.19S369,185,369.42,188.89Zm-1.48.16c-.32-3-1.67-4.18-3.77-4s-3.17,1.67-2.85,4.65,1.67,4.2,3.77,4S368.26,192.08,367.94,189.05Z" style="fill:#74b283"/><path d="M383.7,183.19l-.7-6.55a.73.73,0,1,1,1.46-.16l1.25,11.74c.33,3.12-1.38,4.86-4,5.14-3,.31-4.88-1.33-5.29-5.21s1-5.85,4-6.17A3.88,3.88,0,0,1,383.7,183.19Zm.2,1.92a3.49,3.49,0,0,0-3.23-1.76c-2.08.22-3.07,1.73-2.77,4.64s1.58,4.22,3.68,4c1.76-.18,2.9-1.36,2.67-3.6Z" style="fill:#74b283"/><path d="M392,180.76c3.65-.39,4.68,2.54,4.85,4.15.07.69.16,1.52-.75,1.61l-6.67.71c.25,2.34,1.71,3.72,3.86,3.49a4.13,4.13,0,0,0,2.63-1.31.67.67,0,0,1,1.13.43.7.7,0,0,1-.19.57,5,5,0,0,1-3.42,1.71c-3,.32-5.12-1.21-5.54-5.18C387.49,183.29,389,181.08,392,180.76Zm.15,1.37c-2,.21-2.94,1.66-2.86,3.77l6.14-.65C395.22,183.55,394.47,181.88,392.12,182.13Z" style="fill:#74b283"/><path d="M413.15,182.75l.67,6.32a.73.73,0,0,1-.65.83.73.73,0,0,1-.81-.68l-.63-6c-.2-1.87-.86-3.09-3.08-2.85S405.77,182.1,406,184l.62,5.85a.73.73,0,1,1-1.46.15l-1-9.61a.73.73,0,1,1,1.46-.15l.08.76a3.32,3.32,0,0,1,2.86-2C412,178.64,412.94,180.74,413.15,182.75Z" style="fill:#74b283"/><path d="M416.66,179.05l.65,6.18c.17,1.54.79,2.81,3.09,2.57s2.65-1.62,2.48-3.16l-.65-6.18a.75.75,0,0,1,.67-.83.73.73,0,0,1,.79.68l.65,6.17c.24,2.25-.25,4.38-3.79,4.76s-4.46-1.61-4.7-3.86l-.65-6.17a.74.74,0,0,1,.65-.84A.76.76,0,0,1,416.66,179.05Z" style="fill:#74b283"/><path d="M430.34,176.69c3.66-.38,4.68,2.55,4.85,4.15.08.69.16,1.52-.75,1.62l-6.66.7c.24,2.35,1.71,3.72,3.85,3.49a4.15,4.15,0,0,0,2.63-1.3.66.66,0,0,1,.4-.19.68.68,0,0,1,.73.62.72.72,0,0,1-.19.57,5.06,5.06,0,0,1-3.42,1.7c-3,.32-5.11-1.2-5.54-5.18C425.86,179.23,427.38,177,430.34,176.69Zm.15,1.38c-2,.21-2.94,1.65-2.85,3.77l6.13-.65C433.59,179.48,432.84,177.82,430.49,178.07Z" style="fill:#74b283"/><path d="M438.47,178.75c.27,2.49,6.17.93,6.57,4.71.23,2.16-1.38,3.31-3.55,3.54a5.1,5.1,0,0,1-4.08-1.29.78.78,0,0,1-.21-.44.68.68,0,0,1,.59-.75.67.67,0,0,1,.53.18,3.79,3.79,0,0,0,3,.85c1.3-.13,2.37-.7,2.24-1.93-.26-2.44-6.16-.83-6.57-4.71-.2-2,1.25-3,3.19-3.24a4.13,4.13,0,0,1,3.63,1.15.73.73,0,0,1,.21.43.68.68,0,0,1-.59.76.64.64,0,0,1-.5-.16,3.18,3.18,0,0,0-2.59-.73C439.33,177.22,438.36,177.66,438.47,178.75Z" style="fill:#74b283"/><path d="M447,172.75a.77.77,0,0,1,.65-.83.76.76,0,0,1,.81.68l.27,2.48,1.48-.15a.68.68,0,0,1,.76.63.7.7,0,0,1-.61.79l-1.48.15.69,6.53c.11,1,.71,1.51,1.49,1.42a.71.71,0,0,1,.78.64.7.7,0,0,1-.63.78,2.7,2.7,0,0,1-3.1-2.68l-.69-6.53-.89.09a.71.71,0,0,1-.15-1.42l.89-.09Z" style="fill:#74b283"/><path d="M454.66,176.08a3.3,3.3,0,0,1,3-2.23.73.73,0,0,1,.79.66.74.74,0,0,1-.63.81c-2.1.22-3,1.85-2.78,4l.56,5.3a.73.73,0,1,1-1.46.16l-1-9.61a.74.74,0,0,1,.65-.83.73.73,0,0,1,.81.68Z" style="fill:#74b283"/><path d="M469.43,178.29c.42,3.88-1.22,5.9-4.18,6.21s-5-1.31-5.4-5.19,1.25-5.88,4.19-6.19S469,174.41,469.43,178.29Zm-1.48.16c-.31-3-1.67-4.18-3.76-4s-3.17,1.68-2.86,4.66,1.67,4.2,3.77,4S468.27,181.48,468,178.45Z" style="fill:#74b283"/><path d="M472.63,175.13c.26,2.49,6.16.93,6.57,4.71.22,2.16-1.39,3.31-3.55,3.54a5.13,5.13,0,0,1-4.09-1.29.71.71,0,0,1-.2-.44.68.68,0,0,1,.58-.75.67.67,0,0,1,.53.18,3.8,3.8,0,0,0,3,.85c1.3-.13,2.38-.7,2.24-1.93-.25-2.44-6.15-.83-6.56-4.71-.21-2,1.24-3,3.18-3.24A4.12,4.12,0,0,1,478,173.2a.73.73,0,0,1,.21.43.68.68,0,0,1-.59.76.64.64,0,0,1-.5-.16,3.18,3.18,0,0,0-2.59-.73C473.48,173.6,472.51,174,472.63,175.13Z" style="fill:#74b283"/><path d="M487.73,173.53c.26,2.48,6.17.93,6.57,4.71.23,2.15-1.38,3.31-3.55,3.54a5.16,5.16,0,0,1-4.09-1.29.76.76,0,0,1-.2-.44.67.67,0,0,1,.59-.75.66.66,0,0,1,.52.18,3.81,3.81,0,0,0,3,.85c1.3-.14,2.37-.7,2.24-1.93-.26-2.44-6.16-.83-6.57-4.71-.21-2,1.25-3,3.19-3.24a4.11,4.11,0,0,1,3.62,1.15.73.73,0,0,1,.21.43.68.68,0,0,1-.59.76.64.64,0,0,1-.5-.16,3.22,3.22,0,0,0-2.59-.74C488.58,172,487.61,172.44,487.73,173.53Z" style="fill:#74b283"/><path d="M499.9,169.32c3.65-.39,4.68,2.54,4.85,4.15.07.69.16,1.52-.75,1.61l-6.67.71c.25,2.34,1.71,3.72,3.86,3.49a4.13,4.13,0,0,0,2.63-1.31.62.62,0,0,1,.4-.18.68.68,0,0,1,.73.61.71.71,0,0,1-.19.57,5,5,0,0,1-3.42,1.71c-3,.32-5.12-1.21-5.54-5.18C495.42,171.85,496.94,169.63,499.9,169.32Zm.15,1.37c-2,.21-2.94,1.65-2.86,3.77l6.14-.65C503.15,172.11,502.4,170.44,500.05,170.69Z" style="fill:#74b283"/><path d="M508.18,170.4a3.3,3.3,0,0,1,3-2.22.73.73,0,0,1,.16,1.46c-2.1.22-3,1.85-2.78,4l.56,5.3a.73.73,0,1,1-1.46.16l-1-9.61a.73.73,0,1,1,1.46-.16Z" style="fill:#74b283"/><path d="M518.34,178.28l-4.89-9.15a.78.78,0,0,1-.11-.32A.74.74,0,0,1,514,168a.71.71,0,0,1,.74.43l4.08,7.82,2.35-8.51a.73.73,0,0,1,.64-.57.75.75,0,0,1,.81.68.74.74,0,0,1,0,.34l-2.86,10a.75.75,0,0,1-.64.55A.75.75,0,0,1,518.34,178.28Z" style="fill:#74b283"/><path d="M523.88,163.76c-.07-.68.22-1,.77-1s.89.16,1,.85a.88.88,0,1,1-1.74.18Zm3,13.32a.73.73,0,1,1-1.46.16l-1-9.61a.73.73,0,1,1,1.46-.15Z" style="fill:#74b283"/><path d="M532.78,165.84a4.22,4.22,0,0,1,3.68,1.26.67.67,0,0,1,.21.43.65.65,0,0,1-.59.75.66.66,0,0,1-.58-.22,2.87,2.87,0,0,0-2.58-.85c-2.1.22-3.07,1.74-2.76,4.65s1.58,4.21,3.68,4a4.17,4.17,0,0,0,2.54-1.29.65.65,0,0,1,.41-.22.69.69,0,0,1,.74.62.74.74,0,0,1-.24.62,5.12,5.12,0,0,1-3.31,1.65c-2.94.31-4.89-1.33-5.3-5.21S529.83,166.15,532.78,165.84Z" style="fill:#74b283"/><path d="M538.34,162.23c-.07-.68.22-1,.77-1s.9.17,1,.86a.88.88,0,1,1-1.74.18Zm3,13.32a.73.73,0,1,1-1.46.15l-1-9.6a.73.73,0,1,1,1.46-.16Z" style="fill:#74b283"/><path d="M552.73,169.46c.41,3.88-1.23,5.9-4.19,6.21s-5-1.31-5.4-5.19,1.25-5.88,4.19-6.19S552.31,165.58,552.73,169.46Zm-1.49.16c-.31-3-1.66-4.18-3.76-4s-3.17,1.67-2.86,4.65,1.67,4.2,3.77,4S551.56,172.65,551.24,169.62Z" style="fill:#74b283"/><path d="M555.92,166.3c.26,2.49,6.17.93,6.57,4.71.22,2.16-1.38,3.31-3.55,3.54a5.13,5.13,0,0,1-4.09-1.29.71.71,0,0,1-.2-.44.68.68,0,0,1,.59-.75.66.66,0,0,1,.52.18,3.8,3.8,0,0,0,3,.85c1.3-.13,2.38-.7,2.25-1.93-.26-2.44-6.16-.83-6.57-4.71-.21-2,1.24-3,3.18-3.24a4.15,4.15,0,0,1,3.63,1.15.73.73,0,0,1,.21.43.68.68,0,0,1-.59.76.64.64,0,0,1-.5-.16,3.18,3.18,0,0,0-2.59-.73C556.77,164.78,555.8,165.21,555.92,166.3Z" style="fill:#74b283"/><path d="M263.1,234.53l-.14-1.34A3.81,3.81,0,0,1,260,235c-3,.31-4.91-1.3-5.32-5.18s1.15-5.89,4.12-6.21c2.6-.27,4.73,1.08,5.06,4.21l.7,6.6c.34,3.22-1.64,4.77-4.2,5a4.75,4.75,0,0,1-4-1.23.72.72,0,0,1-.19-.41.73.73,0,0,1,.63-.81.7.7,0,0,1,.58.2,3.42,3.42,0,0,0,2.81.83A2.89,2.89,0,0,0,263.1,234.53Zm-.7-6.6a3,3,0,0,0-3.43-3c-2.1.22-3.12,1.72-2.8,4.67s1.62,4.19,3.72,4a3.62,3.62,0,0,0,2.88-2.24Z" style="fill:#74b283"/><path d="M267.75,224.59a3.29,3.29,0,0,1,3-2.23.74.74,0,0,1,.15,1.47c-2.1.22-3,1.85-2.78,4l.56,5.3a.73.73,0,0,1-.65.83.74.74,0,0,1-.81-.68l-1-9.61a.74.74,0,1,1,1.47-.15Z" style="fill:#74b283"/><path d="M274.34,224.59a.73.73,0,0,1-.56.39.68.68,0,0,1-.73-.62.79.79,0,0,1,.07-.41,4.22,4.22,0,0,1,3.59-2.27,3.78,3.78,0,0,1,4.54,3.59l.69,6.5a.71.71,0,1,1-1.42.15l-.09-.85a3.61,3.61,0,0,1-3.08,2.05c-2.42.26-4.08-.79-4.31-3s1.18-3.49,3.64-3.75l3.22-.35-.07-.63a2.47,2.47,0,0,0-3-2.32A3.12,3.12,0,0,0,274.34,224.59Zm5.8,3.78-.1-1-3.22.34c-1.48.16-2.44.91-2.3,2.28s1,1.92,2.82,1.73A3,3,0,0,0,280.14,228.37Z" style="fill:#74b283"/><path d="M283.9,218.74a.76.76,0,0,1,.65-.83.75.75,0,0,1,.81.68l.26,2.48,1.48-.16a.69.69,0,0,1,.76.64.68.68,0,0,1-.61.78l-1.48.16.69,6.53c.11,1,.72,1.5,1.49,1.42a.71.71,0,1,1,.15,1.42,2.71,2.71,0,0,1-3.1-2.69l-.69-6.53-.89.1a.71.71,0,0,1-.15-1.42l.89-.1Z" style="fill:#74b283"/><path d="M289.44,217.31c-.07-.68.22-1,.77-1s.9.17,1,.85a.88.88,0,1,1-1.74.18Zm3,13.32a.73.73,0,1,1-1.46.16l-1-9.61a.73.73,0,1,1,1.46-.15Z" style="fill:#74b283"/><path d="M295.84,222.57c.26,2.49,6.17.93,6.57,4.71.23,2.15-1.38,3.31-3.55,3.54a5.16,5.16,0,0,1-4.09-1.29.71.71,0,0,1-.2-.44.67.67,0,0,1,.59-.75.66.66,0,0,1,.52.18,3.81,3.81,0,0,0,3,.85c1.3-.14,2.37-.7,2.24-1.93-.26-2.44-6.16-.83-6.57-4.71-.21-2,1.25-3,3.19-3.24a4.11,4.11,0,0,1,3.62,1.15.73.73,0,0,1,.21.43.68.68,0,0,1-.59.76.64.64,0,0,1-.5-.16,3.22,3.22,0,0,0-2.59-.74C296.69,221,295.72,221.48,295.84,222.57Z" style="fill:#74b283"/><path d="M311,219l.08.75a3.57,3.57,0,0,1,2.93-2c3-.32,5,1.29,5.37,5.17s-1.2,5.89-4.16,6.21a3.64,3.64,0,0,1-3.28-1.33l.56,5.35a.73.73,0,1,1-1.46.15l-1.5-14.17A.73.73,0,1,1,311,219Zm4.07,8.78c2.1-.23,3.14-1.72,2.83-4.68s-1.69-4.18-3.79-4c-1.69.18-3,1.56-2.65,4.64S313.27,227.92,315.05,227.74Z" style="fill:#74b283"/><path d="M330.54,221.72c.41,3.88-1.22,5.89-4.19,6.21s-5-1.32-5.4-5.2,1.25-5.87,4.19-6.19S330.13,217.84,330.54,221.72Zm-1.48.15c-.32-3-1.67-4.18-3.77-4s-3.17,1.67-2.85,4.65,1.67,4.21,3.76,4S329.38,224.9,329.06,221.87Z" style="fill:#74b283"/><path d="M333.88,217.58a3.3,3.3,0,0,1,3-2.23.74.74,0,0,1,.16,1.47c-2.1.22-3,1.85-2.78,4l.56,5.3a.73.73,0,1,1-1.46.15l-1-9.61a.73.73,0,1,1,1.46-.15Z" style="fill:#74b283"/><path d="M345.11,213.38a.69.69,0,0,1-.42.18.76.76,0,0,1-.81-.68.79.79,0,0,1,.25-.67l3.31-3a.75.75,0,0,1,1.28.49l1.56,14.74a.76.76,0,1,1-1.51.16l-1.41-13.34Z" style="fill:#74b283"/><path d="M374.28,215.57l.67,6.32a.73.73,0,1,1-1.46.15l-.64-6c-.2-1.86-1-3.08-3.19-2.84a2.56,2.56,0,0,0-2.55,3.14l.67,6.32a.73.73,0,1,1-1.46.15l-.64-6c-.2-1.86-.9-3.08-3.14-2.85s-2.67,1.63-2.45,3.61l.61,5.85a.72.72,0,0,1-.65.83.73.73,0,0,1-.81-.68l-1-9.6a.73.73,0,1,1,1.46-.16l.08.76a3.17,3.17,0,0,1,2.79-2,4,4,0,0,1,3.8,1.27,3.66,3.66,0,0,1,3.16-2C373,211.47,374.06,213.56,374.28,215.57Z" style="fill:#74b283"/><path d="M380.58,210.67c3.65-.39,4.68,2.54,4.85,4.15.07.69.16,1.51-.75,1.61l-6.67.71c.25,2.34,1.71,3.72,3.86,3.49a4.13,4.13,0,0,0,2.63-1.31.62.62,0,0,1,.39-.18.67.67,0,0,1,.74.61.71.71,0,0,1-.19.57A5,5,0,0,1,382,222c-3,.33-5.12-1.2-5.54-5.17C376.09,213.2,377.61,211,380.58,210.67Zm.15,1.37c-2,.21-2.94,1.65-2.86,3.77l6.14-.65C383.83,213.46,383.08,211.79,380.73,212Z" style="fill:#74b283"/><path d="M388.71,212.73c.26,2.48,6.17.92,6.57,4.71.23,2.15-1.38,3.3-3.55,3.53a5.06,5.06,0,0,1-4.08-1.29.76.76,0,0,1-.21-.43.68.68,0,0,1,.59-.76.73.73,0,0,1,.53.19,3.85,3.85,0,0,0,3,.85c1.3-.14,2.37-.71,2.24-1.94-.26-2.44-6.16-.83-6.57-4.71-.21-2,1.25-3,3.19-3.23a4.12,4.12,0,0,1,3.63,1.14.79.79,0,0,1,.21.44.68.68,0,0,1-.59.75.66.66,0,0,1-.51-.16,3.17,3.17,0,0,0-2.59-.73C389.56,211.2,388.6,211.64,388.71,212.73Z" style="fill:#74b283"/><path d="M396.76,219.22a1.08,1.08,0,1,1,2.14-.23,1.08,1.08,0,1,1-2.14.23Z" style="fill:#74b283"/><path d="M104.16,265.39a3.5,3.5,0,0,1,2.73.85,3.94,3.94,0,0,1,.57,5.41,3.5,3.5,0,0,1-2.49,1.4l-1.6.17a3.11,3.11,0,0,1-.25,1.06,4.47,4.47,0,0,1,.07,1.51,4,4,0,0,1-.48,1.47,4.25,4.25,0,0,1-.9,3.16,4.37,4.37,0,0,1-3.11,1.52l-.93.1a7.14,7.14,0,0,1-2.18-.14,18.25,18.25,0,0,1-1.78-.61l-1-.4a2.61,2.61,0,0,0-.87-.1l-.13,0a1.4,1.4,0,0,1-.94.47l-2.85.3a1.41,1.41,0,0,1-1-.29,1.24,1.24,0,0,1-.52-.9l-1.13-10.62a1.23,1.23,0,0,1,.33-1,1.42,1.42,0,0,1,1-.5l2.85-.3a1.35,1.35,0,0,1,1,.26h.13a.88.88,0,0,0,.49-.31c.17-.19.42-.51.73-.94a13,13,0,0,0,1-1.65l.43-1.07a8.54,8.54,0,0,1,.87-1.92,2.3,2.3,0,0,1,1.7-1,4.15,4.15,0,0,1,3.1.77,3.65,3.65,0,0,1,1.4,2.63,6.47,6.47,0,0,1,0,1.07Zm-14,13a1,1,0,0,0-.4-.75,1.06,1.06,0,0,0-1.51.16,1.09,1.09,0,0,0-.23.82,1.06,1.06,0,0,0,.4.75,1,1,0,0,0,.79.24,1,1,0,0,0,.72-.4A1.09,1.09,0,0,0,90.17,278.36Zm14.57-7.52a1.54,1.54,0,0,0,1-.6,1.65,1.65,0,0,0,.35-1.18,1.63,1.63,0,0,0-.59-1.09,1.51,1.51,0,0,0-1.15-.37l-7.08.75a2.24,2.24,0,0,1,.33-1.11,5.31,5.31,0,0,0,.39-1,2.89,2.89,0,0,0,.13-1.27,1.42,1.42,0,0,0-.71-1.19,2.37,2.37,0,0,0-1.42-.22c-.12,0-.25.17-.4.46s-.2.49-.39,1-.37,1-.49,1.31a13,13,0,0,1-1.19,2,9.89,9.89,0,0,1-1,1.33,3,3,0,0,1-1.4.8l.86,8.13a4.53,4.53,0,0,1,1.33.19c.28.09.69.25,1.22.48s1.14.4,1.45.5a4.87,4.87,0,0,0,1.54.11l.94-.1a2.31,2.31,0,0,0,1.84-.94,2.59,2.59,0,0,0,.13-2.12,1.68,1.68,0,0,0,.62-1.16,1.86,1.86,0,0,0-.3-1.39,2.16,2.16,0,0,0-.08-2.84Z" style="fill:#fff"/><path d="M122.42,261.83c4.36-.46,7.28,1.38,7.9,7.23s-1.85,8.23-6.21,8.69l-3.22.34a.78.78,0,0,1-.86-.72l-1.52-14.31a.79.79,0,0,1,.69-.89Zm-.91,14.71,2.44-.25c3.4-.36,5.31-2.15,4.79-7.07s-2.76-6.28-6.17-5.92l-2.44.25Z" style="fill:#74b283"/><path d="M136.48,265.24c3.66-.38,4.68,2.55,4.85,4.15.08.69.16,1.52-.75,1.62l-6.66.7c.24,2.34,1.71,3.72,3.85,3.49a4.17,4.17,0,0,0,2.63-1.3.63.63,0,0,1,.4-.19.68.68,0,0,1,.73.62.72.72,0,0,1-.19.57,5.06,5.06,0,0,1-3.42,1.7c-3,.32-5.11-1.2-5.54-5.18C132,267.78,133.52,265.56,136.48,265.24Zm.15,1.38c-2,.21-2.94,1.65-2.86,3.77l6.14-.65C139.73,268,139,266.37,136.63,266.62Z" style="fill:#74b283"/><path d="M144.61,267.3c.27,2.48,6.17.93,6.57,4.71.23,2.15-1.38,3.31-3.55,3.54a5.14,5.14,0,0,1-4.08-1.29.78.78,0,0,1-.21-.44.68.68,0,0,1,.59-.75.67.67,0,0,1,.53.18,3.79,3.79,0,0,0,3,.85c1.3-.14,2.37-.7,2.24-1.93-.26-2.44-6.16-.83-6.57-4.71-.21-2,1.25-3,3.19-3.24a4.13,4.13,0,0,1,3.63,1.15.73.73,0,0,1,.21.43.69.69,0,0,1-.59.76.63.63,0,0,1-.5-.16,3.23,3.23,0,0,0-2.6-.74C145.47,265.77,144.5,266.21,144.61,267.3Z" style="fill:#74b283"/><path d="M156.79,263.09a4.3,4.3,0,0,1,3.69,1.26.68.68,0,0,1,.2.43.66.66,0,0,1-.59.76.66.66,0,0,1-.57-.23,2.93,2.93,0,0,0-2.59-.85c-2.1.23-3.07,1.74-2.76,4.65s1.58,4.21,3.68,4a4.09,4.09,0,0,0,2.54-1.3.7.7,0,0,1,.42-.21.68.68,0,0,1,.73.62.77.77,0,0,1-.23.62,5.13,5.13,0,0,1-3.32,1.64c-2.94.31-4.89-1.32-5.3-5.2S153.84,263.4,156.79,263.09Z" style="fill:#74b283"/><path d="M164.16,263.22l.65,6.17c.17,1.54.79,2.82,3.09,2.57s2.65-1.62,2.48-3.16l-.65-6.17a.76.76,0,0,1,.67-.84.74.74,0,0,1,.79.68l.65,6.18c.24,2.25-.25,4.38-3.79,4.75s-4.46-1.6-4.7-3.85l-.65-6.18a.73.73,0,0,1,.65-.83A.75.75,0,0,1,164.16,263.22Z" style="fill:#74b283"/><path d="M177.84,260.86c3.66-.39,4.68,2.54,4.85,4.15.08.69.16,1.51-.75,1.61l-6.66.71c.24,2.34,1.71,3.72,3.85,3.49a4.11,4.11,0,0,0,2.63-1.31.64.64,0,0,1,.4-.18.67.67,0,0,1,.73.61.71.71,0,0,1-.19.57,5.06,5.06,0,0,1-3.42,1.71c-3,.32-5.11-1.21-5.54-5.18C173.36,263.39,174.88,261.17,177.84,260.86Zm.15,1.37c-2,.21-2.94,1.65-2.85,3.77l6.13-.65C181.09,263.65,180.34,262,178,262.23Z" style="fill:#74b283"/><path d="M193.6,263.42l.67,6.32a.73.73,0,1,1-1.46.16l-.64-6c-.2-1.87-.86-3.1-3.07-2.86s-2.89,1.74-2.69,3.63l.62,5.85a.73.73,0,1,1-1.46.15l-1-9.6a.74.74,0,1,1,1.47-.16l.08.76a3.29,3.29,0,0,1,2.86-2C192.47,259.31,193.39,261.41,193.6,263.42Z" style="fill:#74b283"/><path d="M196.23,256.73a.77.77,0,0,1,.65-.83.75.75,0,0,1,.81.68l.26,2.48,1.49-.15a.68.68,0,0,1,.76.63.69.69,0,0,1-.61.78l-1.49.16.7,6.53c.11,1,.71,1.51,1.49,1.42a.71.71,0,0,1,.78.64.7.7,0,0,1-.63.78,2.7,2.7,0,0,1-3.1-2.68l-.7-6.53-.89.09a.71.71,0,0,1-.15-1.42l.89-.09Z" style="fill:#74b283"/><path d="M211.76,263c.41,3.88-1.23,5.89-4.19,6.21s-5-1.32-5.4-5.2,1.25-5.87,4.19-6.18S211.34,259.13,211.76,263Zm-1.49.15c-.31-3-1.66-4.17-3.76-4s-3.17,1.67-2.86,4.66,1.67,4.2,3.77,4S210.59,266.19,210.27,263.16Z" style="fill:#74b283"/><path d="M215,259.85c.26,2.48,6.17.92,6.57,4.71.23,2.15-1.38,3.3-3.55,3.53a5.09,5.09,0,0,1-4.09-1.29.7.7,0,0,1,.39-1.19.71.71,0,0,1,.52.19,3.88,3.88,0,0,0,3,.85c1.31-.14,2.38-.71,2.25-1.94-.26-2.44-6.16-.83-6.57-4.71-.21-2,1.24-3,3.19-3.23a4.1,4.1,0,0,1,3.62,1.14.73.73,0,0,1,.21.44.68.68,0,0,1-.59.75.64.64,0,0,1-.5-.16,3.18,3.18,0,0,0-2.59-.73C215.8,258.32,214.83,258.76,215,259.85Z" style="fill:#74b283"/><path d="M235.7,256.28l-.69-6.55a.73.73,0,1,1,1.46-.16l1.24,11.74c.34,3.12-1.37,4.86-4,5.13-2.94.31-4.87-1.32-5.28-5.2s1-5.86,4-6.17A3.84,3.84,0,0,1,235.7,256.28Zm.21,1.92a3.52,3.52,0,0,0-3.24-1.77c-2.07.23-3.07,1.74-2.76,4.65s1.58,4.21,3.68,4c1.76-.19,2.9-1.36,2.66-3.61Z" style="fill:#74b283"/><path d="M244,253.85c3.65-.39,4.68,2.54,4.85,4.15.07.69.16,1.51-.75,1.61l-6.67.71c.25,2.34,1.71,3.72,3.86,3.49a4.13,4.13,0,0,0,2.63-1.31.6.6,0,0,1,.39-.18.67.67,0,0,1,.74.61.68.68,0,0,1-.2.57,5,5,0,0,1-3.42,1.7c-3,.33-5.11-1.2-5.53-5.17C239.49,256.38,241,254.16,244,253.85Zm.15,1.37c-2,.21-2.94,1.65-2.86,3.77l6.14-.65C247.23,256.64,246.48,255,244.13,255.22Z" style="fill:#74b283"/><path d="M265.16,255.84l.67,6.32a.73.73,0,0,1-.65.83.74.74,0,0,1-.81-.68l-.64-6c-.19-1.87-.85-3.09-3.07-2.86s-2.88,1.75-2.68,3.64l.62,5.84a.73.73,0,1,1-1.46.16l-1.65-15.52a.74.74,0,0,1,.65-.84.74.74,0,0,1,.81.68l.71,6.67a3.34,3.34,0,0,1,2.86-2C264,251.72,265,253.83,265.16,255.84Z" style="fill:#74b283"/><path d="M268.9,253.86c-.21.29-.36.38-.56.4a.68.68,0,0,1-.74-.62.77.77,0,0,1,.07-.41,4.22,4.22,0,0,1,3.59-2.27,3.77,3.77,0,0,1,4.54,3.58l.69,6.51a.73.73,0,0,1-.63.81.74.74,0,0,1-.79-.66l-.09-.85a3.61,3.61,0,0,1-3.08,2c-2.42.25-4.08-.79-4.31-3s1.18-3.5,3.64-3.76l3.22-.34-.07-.64a2.46,2.46,0,0,0-3-2.31A3.09,3.09,0,0,0,268.9,253.86Zm5.8,3.79-.11-1-3.22.34c-1.48.16-2.44.9-2.29,2.27s1,1.93,2.81,1.74A3,3,0,0,0,274.7,257.65Z" style="fill:#74b283"/><path d="M279.62,253c.27,2.48,6.17.93,6.57,4.71.23,2.15-1.38,3.31-3.55,3.54a5.14,5.14,0,0,1-4.08-1.29.78.78,0,0,1-.21-.44.67.67,0,0,1,1.12-.57,3.78,3.78,0,0,0,3,.85c1.3-.14,2.37-.71,2.24-1.94-.26-2.43-6.16-.83-6.57-4.71-.21-2,1.25-3,3.19-3.23a4.13,4.13,0,0,1,3.63,1.15.75.75,0,0,1,.21.43.69.69,0,0,1-.59.76.65.65,0,0,1-.5-.17,3.28,3.28,0,0,0-2.6-.73C280.48,251.46,279.51,251.9,279.62,253Z" style="fill:#74b283"/><path d="M288.12,247a.77.77,0,0,1,.65-.83.75.75,0,0,1,.81.68l.27,2.48,1.48-.16a.71.71,0,0,1,.15,1.42l-1.48.16.69,6.53c.11,1,.71,1.51,1.49,1.42a.71.71,0,0,1,.15,1.42,2.7,2.7,0,0,1-3.1-2.68l-.69-6.53-.89.09a.71.71,0,0,1-.15-1.42l.89-.09Z" style="fill:#74b283"/><path d="M295.59,251a.74.74,0,0,1-.56.4.68.68,0,0,1-.74-.62.77.77,0,0,1,.08-.41,4.2,4.2,0,0,1,3.59-2.27,3.77,3.77,0,0,1,4.53,3.58l.69,6.51a.73.73,0,0,1-.63.81.74.74,0,0,1-.79-.66l-.09-.85a3.61,3.61,0,0,1-3.08,2.05c-2.42.25-4.07-.79-4.31-3s1.18-3.5,3.64-3.76l3.22-.34-.06-.64a2.47,2.47,0,0,0-3-2.31A3.14,3.14,0,0,0,295.59,251Zm5.8,3.79-.11-1-3.21.34c-1.49.16-2.45.9-2.3,2.28s1,1.92,2.81,1.73A3,3,0,0,0,301.39,254.82Z" style="fill:#74b283"/><path d="M314.24,246.4c3.66-.39,4.68,2.54,4.85,4.15.08.69.16,1.52-.75,1.61l-6.66.71c.24,2.34,1.71,3.72,3.85,3.49a4.11,4.11,0,0,0,2.63-1.31.62.62,0,0,1,.4-.18.68.68,0,0,1,.73.61.71.71,0,0,1-.19.57,5,5,0,0,1-3.42,1.71c-3,.32-5.11-1.21-5.54-5.18C309.76,248.93,311.28,246.71,314.24,246.4Zm.15,1.37c-2,.21-2.94,1.65-2.86,3.77l6.14-.65C317.49,249.19,316.74,247.52,314.39,247.77Z" style="fill:#74b283"/><path d="M321.79,240.53,323.22,254c.1.94.44,1.32,1.06,1.25a.71.71,0,0,1,.15,1.42c-1.53.16-2.48-.69-2.67-2.52l-1.43-13.51a.73.73,0,1,1,1.46-.15Z" style="fill:#74b283"/><path d="M338.41,240.42l-7.69.81a.73.73,0,0,1-.16-1.46l8.52-.91a.73.73,0,0,1,.78.66c.57,5.37-5.77,7.58-4.95,15.31a.73.73,0,1,1-1.46.16C332.62,247.16,338.79,244,338.41,240.42Z" style="fill:#74b283"/><path d="M353.65,245.36c.61,5.68-.92,8.49-4.75,8.9s-5.92-2-6.52-7.71.92-8.47,4.76-8.88S353.05,239.68,353.65,245.36Zm-1.5.16c-.52-4.9-2-6.73-4.86-6.43s-3.92,2.41-3.4,7.3,2,6.75,4.86,6.45S352.67,250.41,352.15,245.52Z" style="fill:#74b283"/><path d="M362.06,240c.22,2.13-.46,3.95-2.95,4.21s-3.51-1.37-3.74-3.5.46-3.95,2.92-4.21S361.83,237.84,362.06,240Zm-1.14.12c-.16-1.51-.75-2.72-2.51-2.53s-2.06,1.49-1.9,3,.75,2.72,2.49,2.54S361.07,241.6,360.92,240.11Zm5.94-3.78a.62.62,0,0,1,0,.24l-5.83,16a.57.57,0,0,1-1.1-.17.41.41,0,0,1,0-.24l5.83-16a.59.59,0,0,1,.47-.36A.58.58,0,0,1,366.86,236.33ZM371.44,248c.23,2.13-.46,3.94-2.95,4.21s-3.51-1.38-3.74-3.51.46-3.94,2.93-4.2S371.21,245.79,371.44,248Zm-1.14.12c-.16-1.52-.75-2.72-2.51-2.54s-2.06,1.49-1.9,3,.75,2.72,2.49,2.54S370.46,249.56,370.3,248.07Z" style="fill:#74b283"/><path d="M382.5,239.16c3.65-.38,4.68,2.55,4.85,4.16.07.68.16,1.51-.75,1.61l-6.67.7c.25,2.35,1.71,3.72,3.86,3.5a4.18,4.18,0,0,0,2.63-1.31.61.61,0,0,1,.39-.19.68.68,0,0,1,.74.62.69.69,0,0,1-.2.57,5,5,0,0,1-3.42,1.7c-3,.32-5.11-1.2-5.53-5.18C378,241.7,379.53,239.48,382.5,239.16Zm.15,1.38c-2,.21-2.94,1.65-2.86,3.77l6.14-.65C385.75,242,385,240.29,382.65,240.54Z" style="fill:#74b283"/><path d="M398.25,241.73l.67,6.32a.73.73,0,1,1-1.46.15l-.63-6c-.2-1.87-.86-3.09-3.08-2.85s-2.88,1.74-2.68,3.63l.62,5.84a.74.74,0,0,1-.65.84.74.74,0,0,1-.81-.68l-1-9.61a.73.73,0,1,1,1.46-.15l.08.76a3.3,3.3,0,0,1,2.86-2C397.13,237.61,398,239.72,398.25,241.73Z" style="fill:#74b283"/><path d="M410,236.25c3.65-.39,4.68,2.54,4.85,4.15.07.69.16,1.52-.75,1.61l-6.67.71c.25,2.34,1.71,3.72,3.86,3.49a4.13,4.13,0,0,0,2.63-1.31.65.65,0,0,1,.39-.18.68.68,0,0,1,.74.61.67.67,0,0,1-.2.57,5,5,0,0,1-3.42,1.71c-3,.32-5.11-1.21-5.53-5.18C405.5,238.78,407,236.57,410,236.25Zm.14,1.37c-2,.21-2.94,1.66-2.85,3.77l6.14-.65C413.24,239,412.49,237.37,410.13,237.62Z" style="fill:#74b283"/><path d="M417.53,230.38,419,243.89c.1,1,.43,1.32,1,1.25a.71.71,0,0,1,.15,1.42c-1.53.16-2.47-.69-2.67-2.52l-1.43-13.51a.77.77,0,0,1,.65-.83A.76.76,0,0,1,417.53,230.38Z" style="fill:#74b283"/><path d="M428.54,237.2c.27,2.49,6.17.93,6.57,4.71.23,2.16-1.38,3.31-3.54,3.54a5.08,5.08,0,0,1-4.09-1.29.76.76,0,0,1-.21-.43.69.69,0,0,1,.59-.76.7.7,0,0,1,.53.18,3.83,3.83,0,0,0,3,.86c1.3-.14,2.37-.71,2.24-1.94-.25-2.44-6.15-.83-6.57-4.71-.2-2,1.25-3,3.19-3.23a4.12,4.12,0,0,1,3.63,1.14.73.73,0,0,1,.21.43.68.68,0,0,1-.59.76.64.64,0,0,1-.5-.16,3.18,3.18,0,0,0-2.59-.73C429.4,235.68,428.43,236.12,428.54,237.2Z" style="fill:#74b283"/><path d="M440.72,233c3.65-.38,4.68,2.55,4.85,4.15.07.69.16,1.52-.76,1.62l-6.66.7c.25,2.35,1.71,3.72,3.86,3.49a4.17,4.17,0,0,0,2.63-1.3.61.61,0,0,1,.39-.19.68.68,0,0,1,.74.62.69.69,0,0,1-.2.57,5,5,0,0,1-3.42,1.7c-3,.32-5.11-1.2-5.53-5.18C436.23,235.53,437.75,233.31,440.72,233Zm.14,1.38c-2,.21-2.94,1.65-2.85,3.77l6.14-.65C444,235.78,443.22,234.12,440.86,234.37Z" style="fill:#74b283"/><path d="M449,234.08a3.3,3.3,0,0,1,3-2.23.74.74,0,0,1,.16,1.47c-2.1.22-3,1.85-2.78,4l.56,5.3a.73.73,0,1,1-1.46.16l-1-9.61a.73.73,0,1,1,1.46-.15Z" style="fill:#74b283"/><path d="M459.16,242l-4.9-9.15a1,1,0,0,1-.1-.32.74.74,0,0,1,.65-.84.71.71,0,0,1,.74.43l4.08,7.82,2.35-8.5a.69.69,0,0,1,.63-.57.72.72,0,0,1,.81.68.81.81,0,0,1,0,.34l-2.87,10a.72.72,0,0,1-.63.55A.73.73,0,0,1,459.16,242Z" style="fill:#74b283"/><path d="M464.7,227.44c-.07-.69.22-1,.76-1s.9.17,1,.85a.87.87,0,1,1-1.73.19Zm3,13.31a.74.74,0,1,1-1.47.16l-1-9.61a.73.73,0,0,1,.65-.83.74.74,0,0,1,.81.68Z" style="fill:#74b283"/><path d="M473.59,229.51a4.27,4.27,0,0,1,3.69,1.26.76.76,0,0,1,.21.43.68.68,0,0,1-.59.76.7.7,0,0,1-.58-.23,2.9,2.9,0,0,0-2.58-.85c-2.1.22-3.07,1.74-2.76,4.65s1.57,4.21,3.67,4a4.07,4.07,0,0,0,2.54-1.3.63.63,0,0,1,.42-.21.67.67,0,0,1,.73.61.72.72,0,0,1-.23.63,5.15,5.15,0,0,1-3.31,1.64c-2.94.31-4.9-1.32-5.31-5.2S470.65,229.82,473.59,229.51Z" style="fill:#74b283"/><path d="M479.16,225.9c-.07-.68.22-1,.77-1s.89.16,1,.85a.88.88,0,1,1-1.74.18Zm3,13.32a.73.73,0,1,1-1.46.16l-1-9.61a.73.73,0,1,1,1.46-.15Z" style="fill:#74b283"/><path d="M493.54,233.14c.41,3.88-1.22,5.89-4.19,6.21s-5-1.32-5.39-5.2,1.24-5.87,4.19-6.18S493.13,229.26,493.54,233.14Zm-1.48.15c-.32-3-1.67-4.17-3.77-3.95s-3.17,1.67-2.85,4.66,1.67,4.2,3.77,4S492.38,236.32,492.06,233.29Z" style="fill:#74b283"/><path d="M500.57,232.42c-.41-3.88,1.13-5.89,4.07-6.2,2.6-.28,4.64,1.06,5,4.18l1.1,10.42a.73.73,0,0,1-.65.83.74.74,0,0,1-.81-.68l-.55-5.23a3.88,3.88,0,0,1-2.94,1.87C502.81,237.92,501,236.3,500.57,232.42Zm7.58-1.86c-.24-2.25-1.61-3.16-3.36-3-2.1.22-3.08,1.71-2.76,4.67s1.6,4.19,3.67,4a3.49,3.49,0,0,0,2.79-2.41Z" style="fill:#74b283"/><path d="M513.15,226.22l.66,6.18c.16,1.54.78,2.81,3.09,2.57s2.64-1.62,2.48-3.16l-.66-6.18a.76.76,0,0,1,.68-.83.73.73,0,0,1,.78.68l.66,6.18c.24,2.24-.25,4.38-3.79,4.75s-4.46-1.61-4.7-3.85l-.66-6.18a.73.73,0,1,1,1.46-.16Z" style="fill:#74b283"/><path d="M526.84,223.86c3.65-.38,4.68,2.55,4.85,4.16.07.68.16,1.51-.76,1.61l-6.66.7c.25,2.35,1.71,3.72,3.86,3.5a4.18,4.18,0,0,0,2.63-1.31.61.61,0,0,1,.39-.19.68.68,0,0,1,.74.62.73.73,0,0,1-.2.57,5,5,0,0,1-3.42,1.7c-3,.32-5.11-1.2-5.53-5.18C522.35,226.4,523.87,224.18,526.84,223.86Zm.14,1.38c-2,.21-2.94,1.65-2.85,3.77l6.14-.65C530.09,226.65,529.34,225,527,225.24Z" style="fill:#74b283"/><path d="M542.9,222.16c3.65-.38,4.68,2.55,4.85,4.15.07.69.16,1.52-.75,1.61l-6.67.71c.25,2.34,1.71,3.72,3.86,3.49a4.17,4.17,0,0,0,2.63-1.3.61.61,0,0,1,.39-.19.68.68,0,0,1,.74.62.69.69,0,0,1-.2.57,5,5,0,0,1-3.42,1.7c-3,.32-5.11-1.2-5.53-5.18C538.41,224.7,539.93,222.48,542.9,222.16Zm.14,1.38c-2,.21-2.94,1.65-2.85,3.77l6.14-.65C546.15,225,545.4,223.29,543,223.54Z" style="fill:#74b283"/><path d="M550.44,216.29l1.44,13.51c.1.95.43,1.32,1,1.25a.71.71,0,0,1,.15,1.42c-1.53.16-2.47-.69-2.67-2.52L549,216.45a.77.77,0,0,1,.65-.84A.76.76,0,0,1,550.44,216.29Z" style="fill:#74b283"/><path d="M554,218c-.07-.69.22-1,.77-1s.9.17,1,.85A.88.88,0,1,1,554,218Zm3,13.32a.73.73,0,0,1-.65.83.74.74,0,0,1-.81-.68l-1-9.61a.73.73,0,1,1,1.46-.15Z" style="fill:#74b283"/><path d="M559,221.36a.73.73,0,0,1,.65-.83.74.74,0,0,1,.81.68l1.17,11a3.38,3.38,0,0,1-3,3.9.68.68,0,0,1-.76-.63.7.7,0,0,1,.61-.79,2,2,0,0,0,1.64-2.32Zm-.55-3.86c-.07-.69.22-1,.77-1s.89.17,1,.85a.87.87,0,1,1-1.73.19Z" style="fill:#74b283"/><path d="M564.78,222.5a.73.73,0,0,1-.56.39.67.67,0,0,1-.73-.61.72.72,0,0,1,.07-.42,4.23,4.23,0,0,1,3.59-2.27,3.77,3.77,0,0,1,4.53,3.59l.69,6.51a.71.71,0,0,1-.63.8.72.72,0,0,1-.78-.65l-.09-.86a3.58,3.58,0,0,1-3.08,2.05c-2.42.26-4.08-.79-4.31-3s1.17-3.5,3.64-3.76l3.22-.34-.07-.64a2.47,2.47,0,0,0-3-2.32A3.14,3.14,0,0,0,564.78,222.5Zm5.8,3.79-.1-1-3.22.34c-1.48.16-2.44.91-2.3,2.28s1,1.92,2.82,1.74A3,3,0,0,0,570.58,226.29Z" style="fill:#74b283"/><path d="M216,282.23a3.55,3.55,0,0,1,2.73.86,3.8,3.8,0,0,1,1.37,2.58,3.73,3.73,0,0,1-.8,2.82,3.55,3.55,0,0,1-2.49,1.41l-1.6.17a2.79,2.79,0,0,1-.25,1.05,4.28,4.28,0,0,1,.07,1.52,4.22,4.22,0,0,1-.47,1.47,4.3,4.3,0,0,1-.91,3.16,4.44,4.44,0,0,1-3.1,1.52l-.94.1a6.86,6.86,0,0,1-2.18-.15,16.84,16.84,0,0,1-1.77-.6l-1-.41a2.34,2.34,0,0,0-.87-.09h-.13a1.41,1.41,0,0,1-.94.48l-2.85.3a1.46,1.46,0,0,1-1.05-.29,1.24,1.24,0,0,1-.52-.9l-1.13-10.63a1.28,1.28,0,0,1,.33-1,1.46,1.46,0,0,1,1-.5l2.85-.3a1.39,1.39,0,0,1,1,.27l.13,0a.83.83,0,0,0,.49-.31,9.34,9.34,0,0,0,.73-.94,12.94,12.94,0,0,0,1-1.64c.1-.23.24-.59.43-1.08a8.63,8.63,0,0,1,.87-1.91,2.25,2.25,0,0,1,1.7-1,4.1,4.1,0,0,1,3.1.77,3.65,3.65,0,0,1,1.4,2.63,6.44,6.44,0,0,1,0,1.07Zm-14,13a1.08,1.08,0,0,0-.4-.76,1,1,0,0,0-1.51.17,1.07,1.07,0,0,0-.23.81,1.12,1.12,0,0,0,.4.76,1,1,0,0,0,.79.24,1,1,0,0,0,.72-.4A1.1,1.1,0,0,0,202,295.21Zm14.57-7.53a1.47,1.47,0,0,0,1-.6,1.59,1.59,0,0,0,.35-1.18,1.63,1.63,0,0,0-.59-1.08,1.51,1.51,0,0,0-1.15-.37l-7.08.75a2.19,2.19,0,0,1,.33-1.11,5.31,5.31,0,0,0,.39-1,3.09,3.09,0,0,0,.14-1.28,1.43,1.43,0,0,0-.72-1.18,2.44,2.44,0,0,0-1.42-.23c-.12,0-.25.17-.4.47s-.2.49-.39,1-.37,1.05-.49,1.32a12.2,12.2,0,0,1-1.19,2,10.37,10.37,0,0,1-1,1.32,3,3,0,0,1-1.4.81l.86,8.13a4.84,4.84,0,0,1,1.33.18c.28.1.69.26,1.22.48s1.14.41,1.45.5a4.61,4.61,0,0,0,1.54.12l.94-.1a2.34,2.34,0,0,0,1.84-.94,2.59,2.59,0,0,0,.13-2.12,1.68,1.68,0,0,0,.62-1.16,1.88,1.88,0,0,0-.3-1.4,2,2,0,0,0,.49-1.5,2,2,0,0,0-.57-1.34Z" style="fill:#fff"/><path d="M224.5,291.05l-1.21,4.5a.8.8,0,0,1-.69.65.79.79,0,0,1-.86-.72.88.88,0,0,1,0-.36l4-15.19a.75.75,0,0,1,.67-.62.81.81,0,0,1,.81.46l7.12,14a1.25,1.25,0,0,1,.11.35.8.8,0,0,1-.72.89.78.78,0,0,1-.81-.47l-2.1-4.18Zm2.25-9-1.93,7.52,5.41-.57Z" style="fill:#74b283"/><path d="M239.38,283a4.3,4.3,0,0,1,3.69,1.26.78.78,0,0,1,.21.44.67.67,0,0,1-1.17.53,2.88,2.88,0,0,0-2.58-.85c-2.1.22-3.07,1.73-2.76,4.64s1.57,4.21,3.67,4a4.07,4.07,0,0,0,2.54-1.3.73.73,0,0,1,.42-.21.68.68,0,0,1,.73.62.71.71,0,0,1-.23.62,5.1,5.1,0,0,1-3.31,1.64c-2.94.32-4.9-1.32-5.31-5.2S236.44,283.35,239.38,283Z" style="fill:#74b283"/><path d="M249.44,282a4.27,4.27,0,0,1,3.69,1.26.76.76,0,0,1,.21.43.68.68,0,0,1-.59.76.7.7,0,0,1-.58-.23,2.9,2.9,0,0,0-2.58-.85c-2.1.22-3.07,1.74-2.76,4.65s1.57,4.21,3.67,4a4.07,4.07,0,0,0,2.54-1.3.63.63,0,0,1,.42-.21.67.67,0,0,1,.73.61.72.72,0,0,1-.23.63,5.2,5.2,0,0,1-3.31,1.64c-2.94.31-4.9-1.33-5.31-5.21S246.5,282.28,249.44,282Z" style="fill:#74b283"/><path d="M259.5,280.9c3.66-.39,4.68,2.54,4.85,4.15.07.69.16,1.52-.75,1.61l-6.67.71c.25,2.34,1.72,3.72,3.86,3.49a4.13,4.13,0,0,0,2.63-1.31.67.67,0,0,1,1.13.43.73.73,0,0,1-.19.58,5.06,5.06,0,0,1-3.42,1.7c-3,.32-5.11-1.21-5.54-5.18C255,283.43,256.54,281.22,259.5,280.9Zm.15,1.37c-2,.21-2.94,1.66-2.86,3.77l6.14-.65C262.75,283.69,262,282,259.65,282.27Z" style="fill:#74b283"/><path d="M267.63,283c.27,2.48,6.17.92,6.57,4.71.23,2.15-1.38,3.3-3.55,3.53a5.07,5.07,0,0,1-4.08-1.29.73.73,0,0,1-.21-.43.67.67,0,0,1,1.12-.57,3.79,3.79,0,0,0,3,.85c1.3-.14,2.37-.71,2.24-1.94-.26-2.43-6.16-.83-6.57-4.71-.21-2,1.25-3,3.19-3.23A4.13,4.13,0,0,1,273,281a.7.7,0,0,1,.21.43.69.69,0,0,1-.59.76.65.65,0,0,1-.5-.17,3.23,3.23,0,0,0-2.6-.73C268.49,281.43,267.52,281.87,267.63,283Z" style="fill:#74b283"/><path d="M285.29,283.91c.42,3.88-1.22,5.9-4.18,6.21s-5-1.31-5.4-5.19,1.25-5.88,4.19-6.19S284.88,280,285.29,283.91Zm-1.48.16c-.32-3-1.67-4.18-3.77-4s-3.16,1.68-2.85,4.66,1.67,4.2,3.77,4S284.13,287.1,283.81,284.07Z" style="fill:#74b283"/><path d="M293.84,279.92a.73.73,0,0,1-.56.39.68.68,0,0,1-.73-.61.72.72,0,0,1,.07-.42,4.21,4.21,0,0,1,3.59-2.27,3.78,3.78,0,0,1,4.54,3.59l.68,6.5a.72.72,0,0,1-.62.81.73.73,0,0,1-.79-.66l-.09-.85a3.59,3.59,0,0,1-3.08,2.05c-2.42.26-4.08-.79-4.31-3s1.17-3.5,3.64-3.76l3.22-.34-.07-.64a2.47,2.47,0,0,0-3-2.32A3.12,3.12,0,0,0,293.84,279.92Zm5.8,3.78-.1-1-3.22.34c-1.48.16-2.44.91-2.3,2.28s1,1.92,2.82,1.73A3,3,0,0,0,299.64,283.7Z" style="fill:#74b283"/><path d="M324.63,278.23l.67,6.32a.73.73,0,1,1-1.46.16l-.64-6c-.2-1.86-1-3.07-3.19-2.84a2.56,2.56,0,0,0-2.55,3.14l.67,6.32a.73.73,0,1,1-1.46.16l-.64-6c-.19-1.86-.9-3.08-3.14-2.84s-2.66,1.62-2.45,3.61l.62,5.84a.73.73,0,1,1-1.46.16l-1-9.61a.73.73,0,1,1,1.46-.16l.08.76a3.19,3.19,0,0,1,2.79-2,4,4,0,0,1,3.8,1.27,3.66,3.66,0,0,1,3.16-2C323.39,274.13,324.41,276.22,324.63,278.23Z" style="fill:#74b283"/><path d="M328.36,276.26a.75.75,0,0,1-.56.39.67.67,0,0,1-.74-.61.81.81,0,0,1,.08-.42,4.2,4.2,0,0,1,3.59-2.27,3.78,3.78,0,0,1,4.53,3.59l.69,6.51a.71.71,0,1,1-1.41.15l-.1-.86a3.57,3.57,0,0,1-3.08,2.05c-2.42.26-4.07-.79-4.3-3s1.17-3.5,3.64-3.76l3.21-.34-.06-.64a2.48,2.48,0,0,0-3-2.32A3.14,3.14,0,0,0,328.36,276.26Zm5.8,3.79-.11-1-3.21.34c-1.49.16-2.45.91-2.3,2.28s1,1.92,2.81,1.74A3,3,0,0,0,334.16,280.05Z" style="fill:#74b283"/><path d="M337.91,270.41a.77.77,0,0,1,.65-.83.75.75,0,0,1,.81.68l.26,2.48,1.49-.15a.68.68,0,0,1,.76.63.69.69,0,0,1-.61.78l-1.49.16.7,6.53c.11,1,.71,1.51,1.49,1.42a.71.71,0,0,1,.78.64.7.7,0,0,1-.63.78,2.7,2.7,0,0,1-3.1-2.68l-.7-6.53-.89.09a.71.71,0,0,1-.15-1.42l.89-.09Z" style="fill:#74b283"/><path d="M348,271.53c3.65-.39,4.68,2.54,4.85,4.15.07.68.16,1.51-.75,1.61l-6.67.7c.25,2.35,1.71,3.72,3.86,3.5a4.18,4.18,0,0,0,2.63-1.31.61.61,0,0,1,.39-.19.68.68,0,0,1,.74.62.69.69,0,0,1-.2.57,5,5,0,0,1-3.42,1.7c-3,.32-5.11-1.2-5.53-5.18C343.46,274.06,345,271.84,348,271.53Zm.15,1.37c-2,.21-3,1.65-2.86,3.77l6.14-.65C351.2,274.32,350.45,272.65,348.1,272.9Z" style="fill:#74b283"/><path d="M356.23,272.61a3.3,3.3,0,0,1,3-2.23.74.74,0,0,1,.16,1.47c-2.1.22-3,1.85-2.78,4l.56,5.3a.73.73,0,1,1-1.46.15l-1-9.61a.73.73,0,1,1,1.46-.15Z" style="fill:#74b283"/><path d="M361.14,267.11c-.07-.68.22-1,.77-1s.89.17,1,.86a.87.87,0,1,1-1.73.18Zm3,13.32a.73.73,0,0,1-.65.83.72.72,0,0,1-.81-.67l-1-9.61a.73.73,0,1,1,1.46-.16Z" style="fill:#74b283"/><path d="M367.46,272.11c-.2.29-.35.38-.56.4a.68.68,0,0,1-.73-.62.69.69,0,0,1,.07-.41,4.21,4.21,0,0,1,3.59-2.27,3.76,3.76,0,0,1,4.53,3.58l.69,6.51a.71.71,0,1,1-1.41.15l-.09-.85a3.64,3.64,0,0,1-3.09,2c-2.41.25-4.07-.79-4.3-3s1.17-3.5,3.64-3.76l3.22-.34-.07-.64a2.46,2.46,0,0,0-3-2.31A3.14,3.14,0,0,0,367.46,272.11Zm5.8,3.79-.1-1-3.22.34c-1.49.16-2.44.9-2.3,2.28s1,1.92,2.82,1.73A3,3,0,0,0,373.26,275.9Z" style="fill:#74b283"/><path d="M377.6,263.31,379,276.82c.1.95.44,1.32,1.06,1.25a.71.71,0,0,1,.15,1.42c-1.53.16-2.48-.69-2.67-2.52l-1.43-13.5a.77.77,0,0,1,.65-.84A.76.76,0,0,1,377.6,263.31Z" style="fill:#74b283"/><path d="M391.11,267c3.65-.39,4.68,2.54,4.85,4.15.07.69.16,1.52-.75,1.61l-6.67.71c.25,2.34,1.71,3.72,3.86,3.49A4.13,4.13,0,0,0,395,275.6a.62.62,0,0,1,.4-.18.68.68,0,0,1,.73.61.71.71,0,0,1-.19.57,5,5,0,0,1-3.42,1.71c-3,.32-5.12-1.21-5.54-5.18C386.63,269.48,388.15,267.26,391.11,267Zm.15,1.37c-2,.21-2.94,1.65-2.86,3.77l6.14-.65C394.36,269.74,393.61,268.07,391.26,268.32Z" style="fill:#74b283"/><path d="M401.66,272.68l-2.41,4.49a.75.75,0,0,1-1.28-.78l2.65-4.8-3.48-3.92a.75.75,0,0,1-.18-.43.72.72,0,0,1,.65-.83.71.71,0,0,1,.62.24l3.18,3.63,2.34-4.21a.7.7,0,0,1,.57-.37.73.73,0,0,1,.81.67.9.9,0,0,1-.09.47l-2.59,4.55,3.6,4.15a.77.77,0,0,1,.19.43.75.75,0,0,1-.65.84.73.73,0,0,1-.63-.25Z" style="fill:#74b283"/><path d="M411.14,264.83a4.27,4.27,0,0,1,3.69,1.26.73.73,0,0,1,.21.43.68.68,0,0,1-.59.76.7.7,0,0,1-.58-.23,2.9,2.9,0,0,0-2.58-.85c-2.1.22-3.07,1.74-2.76,4.65s1.57,4.21,3.67,4a4.12,4.12,0,0,0,2.54-1.3.63.63,0,0,1,.42-.21.67.67,0,0,1,.73.61.72.72,0,0,1-.23.63,5.2,5.2,0,0,1-3.31,1.64c-2.94.31-4.9-1.33-5.31-5.21S408.2,265.14,411.14,264.83Z" style="fill:#74b283"/><path d="M417.89,259l1.43,13.51c.1.95.44,1.32,1.06,1.25a.71.71,0,0,1,.15,1.42c-1.53.16-2.48-.69-2.67-2.52l-1.43-13.51a.73.73,0,1,1,1.46-.15Z" style="fill:#74b283"/><path d="M423.28,264.45l.66,6.18c.16,1.53.78,2.81,3.09,2.56s2.64-1.62,2.48-3.16l-.66-6.17a.76.76,0,0,1,.67-.84.74.74,0,0,1,.79.68l.66,6.18c.24,2.25-.25,4.38-3.79,4.76s-4.46-1.61-4.7-3.86l-.66-6.18a.73.73,0,1,1,1.46-.15Z" style="fill:#74b283"/><path d="M434.47,265.27c.26,2.49,6.17.93,6.57,4.71.22,2.16-1.38,3.31-3.55,3.54a5.09,5.09,0,0,1-4.09-1.29.7.7,0,0,1,.39-1.19.69.69,0,0,1,.52.18,3.84,3.84,0,0,0,3,.86c1.3-.14,2.38-.71,2.25-1.94-.26-2.44-6.16-.83-6.57-4.71-.21-2,1.24-3,3.18-3.23a4.11,4.11,0,0,1,3.63,1.14.73.73,0,0,1,.21.44.68.68,0,0,1-.59.75.64.64,0,0,1-.5-.16,3.18,3.18,0,0,0-2.59-.73C435.32,263.75,434.35,264.19,434.47,265.27Z" style="fill:#74b283"/><path d="M442.15,258.53c-.07-.69.22-1,.77-1s.89.17,1,.85a.87.87,0,1,1-1.73.19Zm3,13.31a.73.73,0,1,1-1.46.16l-1-9.61a.73.73,0,1,1,1.46-.15Z" style="fill:#74b283"/><path d="M451,271.51l-4.89-9.14A1,1,0,0,1,446,262a.74.74,0,0,1,.65-.83.68.68,0,0,1,.74.42l4.08,7.82,2.36-8.5a.68.68,0,0,1,.63-.57.74.74,0,0,1,.81.68,1,1,0,0,1,0,.34l-2.87,10a.74.74,0,0,1-1.37.14Z" style="fill:#74b283"/><path d="M466.52,264.7c.41,3.88-1.22,5.89-4.19,6.21s-5-1.31-5.39-5.19,1.24-5.88,4.19-6.19S466.11,260.82,466.52,264.7Zm-1.48.16c-.32-3-1.67-4.18-3.77-4s-3.17,1.68-2.85,4.66,1.67,4.2,3.77,4S465.36,267.89,465,264.86Z" style="fill:#74b283"/><path d="M271.82,318.87l-.72-6.79-5.38-7a.88.88,0,0,1-.16-.41.8.8,0,0,1,.69-.89.78.78,0,0,1,.71.31l4.75,6.29,3.33-7.15a.76.76,0,0,1,.62-.45.8.8,0,0,1,.86.72.78.78,0,0,1-.07.44l-3.8,8,.72,6.79a.77.77,0,0,1-.69.88A.79.79,0,0,1,271.82,318.87Z" style="fill:#74b283"/><path d="M300.45,309.49l.67,6.32a.73.73,0,1,1-1.46.16l-.63-6c-.2-1.87-1-3.08-3.19-2.85a2.56,2.56,0,0,0-2.55,3.14l.67,6.32a.73.73,0,1,1-1.46.16l-.64-6c-.2-1.87-.9-3.09-3.14-2.85s-2.67,1.62-2.46,3.61l.62,5.84a.73.73,0,1,1-1.46.16l-1-9.61a.74.74,0,0,1,.65-.83.73.73,0,0,1,.81.68l.08.75a3.22,3.22,0,0,1,2.8-2,4,4,0,0,1,3.8,1.27,3.64,3.64,0,0,1,3.16-2C299.21,305.39,300.24,307.48,300.45,309.49Z" style="fill:#74b283"/><path d="M304,305.8l.66,6.17c.16,1.54.78,2.82,3.09,2.57s2.64-1.62,2.48-3.16l-.66-6.17a.77.77,0,0,1,.68-.84.73.73,0,0,1,.78.68l.66,6.18c.24,2.25-.25,4.38-3.79,4.75s-4.46-1.6-4.7-3.85l-.66-6.18a.73.73,0,1,1,1.46-.15Z" style="fill:#74b283"/><path d="M317.64,303.44a4.27,4.27,0,0,1,3.69,1.26.76.76,0,0,1,.21.43.68.68,0,0,1-.59.76.7.7,0,0,1-.58-.23,2.92,2.92,0,0,0-2.58-.85c-2.1.22-3.07,1.74-2.77,4.65s1.58,4.21,3.68,4a4.09,4.09,0,0,0,2.54-1.3.63.63,0,0,1,.42-.21.67.67,0,0,1,.73.61.78.78,0,0,1-.23.63,5.15,5.15,0,0,1-3.31,1.64c-3,.31-4.9-1.32-5.31-5.2S314.7,303.75,317.64,303.44Z" style="fill:#74b283"/><path d="M332.6,306.09l.66,6.32a.73.73,0,0,1-.65.83.74.74,0,0,1-.81-.68l-.63-6c-.2-1.87-.86-3.09-3.07-2.86s-2.89,1.75-2.69,3.64l.62,5.84a.73.73,0,1,1-1.46.16l-1.65-15.52a.74.74,0,1,1,1.47-.16l.7,6.67a3.31,3.31,0,0,1,2.86-2C331.47,302,332.38,304.08,332.6,306.09Z" style="fill:#74b283"/><path d="M344.39,306.35c.41,3.88-1.22,5.89-4.19,6.21s-5-1.32-5.4-5.2,1.25-5.87,4.19-6.18S344,302.47,344.39,306.35Zm-1.49.15c-.31-3-1.66-4.17-3.76-3.95s-3.17,1.67-2.85,4.65,1.66,4.21,3.76,4S343.23,309.53,342.9,306.5Z" style="fill:#74b283"/><path d="M367.64,302.37l.67,6.32a.73.73,0,1,1-1.46.16l-.64-6c-.2-1.87-1-3.08-3.19-2.85a2.56,2.56,0,0,0-2.55,3.14l.67,6.32a.73.73,0,1,1-1.46.16l-.64-6c-.19-1.87-.9-3.09-3.14-2.85s-2.66,1.62-2.45,3.61l.62,5.84a.73.73,0,1,1-1.46.16l-1-9.61a.73.73,0,1,1,1.46-.16l.08.76a3.2,3.2,0,0,1,2.79-2,4,4,0,0,1,3.81,1.27,3.63,3.63,0,0,1,3.15-2C366.4,298.27,367.43,300.36,367.64,302.37Z" style="fill:#74b283"/><path d="M371.37,300.4a.73.73,0,0,1-.56.39.67.67,0,0,1-.73-.61.72.72,0,0,1,.07-.42,4.23,4.23,0,0,1,3.59-2.27,3.77,3.77,0,0,1,4.53,3.59l.69,6.51a.72.72,0,0,1-.63.8.71.71,0,0,1-.78-.65l-.09-.86a3.6,3.6,0,0,1-3.09,2.05c-2.42.26-4.07-.78-4.3-3s1.17-3.5,3.64-3.76l3.21-.34-.06-.64a2.48,2.48,0,0,0-3-2.32A3.14,3.14,0,0,0,371.37,300.4Zm5.8,3.79-.11-1-3.21.34c-1.49.16-2.45.91-2.3,2.28s1,1.92,2.81,1.74A3,3,0,0,0,377.17,304.19Zm-5-8.5,1.76-2.77c.16-.25.47-.38.87-.09a.58.58,0,0,1,.16.89l-2,2.56a.44.44,0,0,1-.68.12A.48.48,0,0,1,372.21,295.69Z" style="fill:#74b283"/><path d="M382.09,299.53c.27,2.48,6.17.92,6.57,4.71.23,2.15-1.38,3.3-3.54,3.53a5.08,5.08,0,0,1-4.09-1.29.76.76,0,0,1-.21-.43.69.69,0,0,1,.59-.76.72.72,0,0,1,.53.19,3.87,3.87,0,0,0,3,.85c1.3-.14,2.37-.71,2.24-1.94-.25-2.44-6.15-.83-6.57-4.71-.2-2,1.25-3,3.19-3.23a4.12,4.12,0,0,1,3.63,1.14.73.73,0,0,1,.21.44.68.68,0,0,1-.59.75.64.64,0,0,1-.5-.16,3.18,3.18,0,0,0-2.59-.73C383,298,382,298.44,382.09,299.53Z" style="fill:#74b283"/><path d="M390.14,306a1.08,1.08,0,1,1,2.15-.23,1.08,1.08,0,1,1-2.15.23Zm6.19-.66a1.08,1.08,0,1,1,2.14-.22,1,1,0,0,1-1,1.22A1,1,0,0,1,396.33,305.36Zm6.21-.66a1.08,1.08,0,1,1,2.14-.22,1.08,1.08,0,1,1-2.14.22Z" style="fill:#74b283"/><path d="M642.93,456.55c10.08,8.88,27.31,21.17,60.61,32.9-18-1-35.8-1.14-54-3.55A533.62,533.62,0,0,1,573.23,470c-49.08-14-106.83-35.64-144.77-68.57-1-.87-2.49,0-1.56.94,15.94,16.87,39.14,28.49,60.88,39.1a539.34,539.34,0,0,0,78.84,31A537.62,537.62,0,0,0,643.86,490c15.52,2.32,32.49,4.79,48.81,5.59-15.12,4.33-29.56,9.81-42.13,17.36-1.28.77.28,2.93,1.83,2.35,22.43-8.51,44.24-16.64,69.58-20.4,3.95-.59,3.4-4.79-.76-5.92-39.44-10.73-59.31-23.83-74.5-37.66C643.36,448.28,639.74,453.73,642.93,456.55Z" style="fill:#2c3752"/></g></g></svg>