<svg xmlns="http://www.w3.org/2000/svg" width="532.91" height="569.78" viewBox="0 0 532.91 569.78"><title>Promo landing</title><g id="responsive_3" data-name="responsive 3"><g id="Promo"><path d="M177.62,45.44c-27.68,10.22-51.77,28.38-71.48,51.86-20.08,23.94-37,54.17-43.94,87.16-6.69,31.85-.88,67.62,22.25,92,21,22.13,51.51,28.83,77.94,33.45,68,11.91,135.37,0,196.43-28,51.74-23.76,103.32-60.64,120-124.74,9.19-35.34-21-64.68-45.93-81.92s-53.48-25.26-81.51-29c-65.44-8.78-132,1.93-188.43,35-26.54,15.56-52.82,36.57-71.51,63-15.89,22.43-23.84,51.2-16.35,81.15C83,257,107.72,280,133.62,292.65c29.29,14.35,61.44,19.53,92.15,18.24,31-1.3,61.06-9.73,89.58-21.28,28.3-11.46,55.86-25.8,80.64-44.5,25-18.9,47.05-43.4,62.31-73,6.89-13.33,9.78-28.16,6.57-44.15-3.4-16.92-14.08-32.07-25.48-43.65C415.12,59.7,382.64,47.93,352.28,40a276.67,276.67,0,0,0-96.53-7.81c-63.19,6.16-121.15,36.59-165.9,84-9.36,9.93-18.72,20.88-23.19,35-4.69,14.79-3.75,30.59.67,46.12a107,107,0,0,0,59.46,68.55c14.38,6.4,29.72,9.62,44.69,12.38a312.3,312.3,0,0,0,46.15,4.92,290.38,290.38,0,0,0,89.94-11.28c69.5-20,129.3-67.16,172.61-129.54,1.77-2.55-1.7-6.35-3.49-3.77C438.15,194.09,387,237,326.93,259.86a287.4,287.4,0,0,1-185.42,5.83C109.64,255.88,83.13,232.24,72,196c-5.38-17.6-4.73-35.55,2.83-51,7.07-14.46,19.31-25.83,30.24-36.35,48.59-46.74,111.74-72.18,177.82-72.29,33.18,0,66.87,6.46,99.13,18.48,31.15,11.6,67.4,34.06,77.84,72.3,5.18,19-1.87,35.84-10.4,50.6a209.17,209.17,0,0,1-31.93,41.51c-22.8,23.29-50.34,40.13-78.69,54C281.18,301.36,216,317.42,151.35,294.43c-29.79-10.58-59.16-31.35-70.54-66.26-10.71-32.85,1.39-64.77,19.86-87.73,43.7-54.32,110.05-83.5,175.69-90.33C308,46.83,341,48,372.91,55.1c30.79,6.81,60.2,21.82,83.87,46.91a77.94,77.94,0,0,1,16.29,25.2c3.91,10.14,3.26,20.47.7,30.31-4.43,17.07-12.76,33-22.16,46.84-17.3,25.38-41.17,43.66-66.37,58.1-58.6,33.57-125.91,51.31-194,46.1a304.7,304.7,0,0,1-51.53-8.63c-13.11-3.32-26-7.76-38-15.32C71.8,265.8,60.14,229.22,64.63,194c4.38-34.46,22.05-65.86,41.55-90.87,19.34-24.83,44.11-44,72.32-54.56,1.66-.62.79-3.69-.88-3.08Z" style="fill:#2c3752"/><path d="M97.33,150.09a2.66,2.66,0,0,1,2.13.69,3.1,3.1,0,0,1,1.09,2.09,3.13,3.13,0,0,1-.62,2.28A2.74,2.74,0,0,1,98,156.28l-1.26.13a2.4,2.4,0,0,1-.19.85,3.55,3.55,0,0,1,.06,1.22,3.37,3.37,0,0,1-.37,1.19,3.46,3.46,0,0,1-.7,2.54,3.33,3.33,0,0,1-2.42,1.22l-.73.08a5.57,5.57,0,0,1-1.7-.12,12.61,12.61,0,0,1-1.39-.5l-.81-.33a2.25,2.25,0,0,0-.68-.08l-.11,0a1.09,1.09,0,0,1-.73.38l-2.23.23a1.12,1.12,0,0,1-.82-.23,1,1,0,0,1-.41-.73l-.91-8.58a1.07,1.07,0,0,1,.25-.8,1.12,1.12,0,0,1,.75-.4l2.23-.23a1.07,1.07,0,0,1,.8.21h.1a.59.59,0,0,0,.38-.25,6.93,6.93,0,0,0,.57-.75,9.88,9.88,0,0,0,.78-1.33l.33-.87a7.16,7.16,0,0,1,.68-1.54,1.76,1.76,0,0,1,1.32-.82,3.19,3.19,0,0,1,2.43.63,3,3,0,0,1,1.1,2.13,5,5,0,0,1,0,.86Zm-10.9,10.43a.93.93,0,0,0-.31-.61.79.79,0,0,0-.62-.2.81.81,0,0,0-.57.33.9.9,0,0,0-.17.66.86.86,0,0,0,.31.6.8.8,0,0,0,1.18-.12A.86.86,0,0,0,86.43,160.52Zm11.37-6a1.17,1.17,0,0,0,.81-.49,1.35,1.35,0,0,0,.27-.95,1.29,1.29,0,0,0-.46-.87,1.12,1.12,0,0,0-.9-.3l-5.54.58a1.92,1.92,0,0,1,.26-.89,5.13,5.13,0,0,0,.3-.83,2.36,2.36,0,0,0,.1-1,1.15,1.15,0,0,0-.56-1,1.87,1.87,0,0,0-1.11-.19c-.09,0-.19.14-.31.38s-.16.39-.3.78-.29.85-.38,1.06a10.6,10.6,0,0,1-.93,1.61,8.22,8.22,0,0,1-.8,1.06,2.36,2.36,0,0,1-1.09.65l.69,6.56a3.43,3.43,0,0,1,1,.15l1,.39c.51.2.89.33,1.13.41a3.69,3.69,0,0,0,1.21.1l.73-.08a1.77,1.77,0,0,0,1.44-.76,2.14,2.14,0,0,0,.1-1.7,1.4,1.4,0,0,0,.48-.94,1.54,1.54,0,0,0-.24-1.12,1.69,1.69,0,0,0,.38-1.21,1.77,1.77,0,0,0-.45-1.09Z" style="fill:#fff"/><path d="M111,159.83a.63.63,0,0,1-.54.71.62.62,0,0,1-.67-.59l-1.25-11.71a.63.63,0,0,1,.54-.71l3.55-.38c1.91-.2,3.53.83,3.8,3.37s-1.06,3.9-3,4.1l-2.94.32Zm-.65-6.08,2.77-.29a2.57,2.57,0,0,0-.54-5.1l-2.77.29Z" style="fill:#74b283"/><path d="M119.1,152.57a.6.6,0,0,1-.44.32.53.53,0,0,1-.57-.5.59.59,0,0,1,0-.33,3.26,3.26,0,0,1,2.8-1.83,3,3,0,0,1,3.56,2.91l.55,5.25a.55.55,0,1,1-1.1.12l-.07-.69a2.81,2.81,0,0,1-2.41,1.65c-1.89.2-3.19-.65-3.37-2.41s.91-2.82,2.83-3l2.52-.27-.06-.51a2,2,0,0,0-2.33-1.88A2.42,2.42,0,0,0,119.1,152.57Zm4.54,3.07-.08-.8-2.52.27c-1.15.12-1.9.72-1.79,1.83s.82,1.56,2.21,1.41A2.34,2.34,0,0,0,123.64,155.64Z" style="fill:#74b283"/><path d="M127.6,151.11a2.57,2.57,0,0,1,2.31-1.79.58.58,0,0,1,.62.53.59.59,0,0,1-.49.66c-1.64.17-2.35,1.48-2.16,3.24l.45,4.28a.57.57,0,1,1-1.14.12l-.82-7.76a.59.59,0,0,1,.5-.67.6.6,0,0,1,.64.55Z" style="fill:#74b283"/><path d="M132.42,147.26a.57.57,0,1,1,1.14-.12l.21,2,1.16-.12a.58.58,0,0,1,.12,1.15l-1.16.12.56,5.27c.09.82.56,1.22,1.17,1.15a.58.58,0,0,1,.12,1.15,2.15,2.15,0,0,1-2.43-2.18l-.56-5.27-.69.07a.57.57,0,0,1-.13-1.14l.7-.07Z" style="fill:#74b283"/><path d="M136.75,146.12c-.06-.55.17-.79.6-.83s.7.14.76.69a.69.69,0,1,1-1.36.14Zm2.4,10.76a.58.58,0,0,1-.5.67A.59.59,0,0,1,138,157l-.82-7.75a.58.58,0,1,1,1.14-.13Z" style="fill:#74b283"/><path d="M143.71,147.82a3.3,3.3,0,0,1,2.89,1,.62.62,0,0,1,.16.35.53.53,0,0,1-.46.61.55.55,0,0,1-.45-.19,2.25,2.25,0,0,0-2-.69c-1.64.17-2.4,1.39-2.15,3.74s1.24,3.4,2.89,3.23a3.16,3.16,0,0,0,2-1,.49.49,0,0,1,.32-.17.54.54,0,0,1,.58.5.6.6,0,0,1-.18.5,4,4,0,0,1-2.59,1.32c-2.3.24-3.83-1.08-4.16-4.22S141.41,148.06,143.71,147.82Z" style="fill:#74b283"/><path d="M148.05,144.93c-.06-.56.17-.79.6-.84s.7.14.76.69a.69.69,0,1,1-1.36.15Zm2.41,10.75a.58.58,0,1,1-1.15.12l-.82-7.75a.59.59,0,0,1,.51-.67.57.57,0,0,1,.63.55Z" style="fill:#74b283"/><path d="M153.09,147.56l.07.61a2.77,2.77,0,0,1,2.28-1.59c2.32-.25,3.88,1,4.21,4.19s-.92,4.75-3.24,5a2.8,2.8,0,0,1-2.56-1.08l.45,4.32a.6.6,0,0,1-.5.67.61.61,0,0,1-.64-.55L152,147.68a.57.57,0,1,1,1.14-.12Zm3.21,7.1c1.64-.18,2.45-1.38,2.2-3.77s-1.34-3.38-3-3.2c-1.32.14-2.32,1.25-2.05,3.73S154.91,154.8,156.3,154.66Z" style="fill:#74b283"/><path d="M164.09,145.66c2.85-.3,3.66,2.07,3.8,3.36.06.56.13,1.23-.59,1.3l-5.2.55c.2,1.89,1.34,3,3,2.83a3.14,3.14,0,0,0,2-1,.5.5,0,0,1,.31-.14.53.53,0,0,1,.58.49.61.61,0,0,1-.15.46,3.85,3.85,0,0,1-2.67,1.37c-2.37.25-4-1-4.34-4.2C160.59,147.69,161.77,145.91,164.09,145.66Zm.11,1.11c-1.55.16-2.29,1.32-2.22,3l4.8-.5C166.64,147.92,166,146.57,164.2,146.77Z" style="fill:#74b283"/><path d="M176.64,144.33c2.85-.3,3.66,2.06,3.8,3.36.06.56.13,1.23-.58,1.3l-5.21.55c.2,1.89,1.34,3,3,2.83a3.12,3.12,0,0,0,2.05-1.05.57.57,0,0,1,.31-.15.54.54,0,0,1,.58.5.61.61,0,0,1-.15.46,3.85,3.85,0,0,1-2.67,1.37c-2.37.25-4-1-4.34-4.2C173.14,146.36,174.32,144.58,176.64,144.33Zm.12,1.11c-1.56.16-2.3,1.32-2.23,3l4.8-.51C179.19,146.59,178.59,145.24,176.76,145.44Z" style="fill:#74b283"/><path d="M189,146.44l.54,5.1a.57.57,0,1,1-1.14.12l-.51-4.85c-.16-1.51-.68-2.5-2.41-2.31s-2.25,1.4-2.09,2.92l.5,4.72a.59.59,0,0,1-.51.67.57.57,0,0,1-.63-.55l-.83-7.75a.58.58,0,1,1,1.15-.12l.06.61a2.57,2.57,0,0,1,2.23-1.59C188.07,143.12,188.79,144.82,189,146.44Z" style="fill:#74b283"/><path d="M198.12,142.05c2.85-.3,3.66,2.07,3.8,3.37.06.55.13,1.22-.58,1.29l-5.21.56c.2,1.89,1.35,3,3,2.82a3.21,3.21,0,0,0,2.06-1,.44.44,0,0,1,.31-.15.53.53,0,0,1,.57.5.59.59,0,0,1-.15.46,3.89,3.89,0,0,1-2.67,1.36c-2.37.25-4-1-4.34-4.19C194.62,144.09,195.8,142.3,198.12,142.05Zm.12,1.11c-1.55.17-2.3,1.33-2.22,3l4.79-.51C200.67,144.31,200.08,143,198.24,143.16Z" style="fill:#74b283"/><path d="M204,137.33l1.16,10.91c.08.76.35,1.07.83,1a.56.56,0,0,1,.59.52.55.55,0,0,1-.47.63c-1.2.13-1.94-.57-2.09-2l-1.16-10.91a.62.62,0,0,1,.51-.67A.6.6,0,0,1,204,137.33Z" style="fill:#74b283"/><path d="M212.63,142.87c.21,2,4.82.77,5.15,3.82.18,1.74-1.07,2.66-2.77,2.84a3.9,3.9,0,0,1-3.19-1.05.58.58,0,0,1-.17-.35.55.55,0,0,1,.46-.61.58.58,0,0,1,.42.15,2.92,2.92,0,0,0,2.36.7c1-.11,1.85-.57,1.75-1.56-.21-2-4.82-.69-5.15-3.82-.17-1.58,1-2.44,2.48-2.6a3.16,3.16,0,0,1,2.84.94.6.6,0,0,1,.17.35.54.54,0,0,1-.46.6.49.49,0,0,1-.4-.13,2.46,2.46,0,0,0-2-.59C213.29,141.64,212.54,142,212.63,142.87Z" style="fill:#74b283"/><path d="M226.44,143.69c.33,3.13-.94,4.75-3.26,5s-3.9-1.08-4.23-4.21,1-4.74,3.26-5S226.11,140.55,226.44,143.69Zm-1.16.12c-.26-2.41-1.31-3.38-3-3.2s-2.47,1.34-2.21,3.75,1.31,3.39,2.95,3.22S225.54,146.25,225.28,143.81Z" style="fill:#74b283"/><path d="M229,140.36a2.57,2.57,0,0,1,2.32-1.79.58.58,0,0,1,.61.53.57.57,0,0,1-.49.65c-1.64.18-2.35,1.49-2.16,3.24l.45,4.28a.59.59,0,0,1-.5.68.6.6,0,0,1-.64-.55l-.82-7.76a.57.57,0,1,1,1.14-.12Z" style="fill:#74b283"/><path d="M233.86,136.51a.62.62,0,0,1,.51-.68.6.6,0,0,1,.63.56l.21,2,1.16-.12a.57.57,0,0,1,.12,1.14l-1.16.13.56,5.27c.09.82.57,1.21,1.17,1.15a.57.57,0,0,1,.62.51.58.58,0,0,1-.5.64,2.16,2.16,0,0,1-2.43-2.18l-.56-5.27-.69.07a.57.57,0,0,1-.12-1.14l.69-.08Z" style="fill:#74b283"/><path d="M241.71,137.43c2.85-.3,3.67,2.07,3.8,3.37.06.55.13,1.22-.58,1.29l-5.21.56c.2,1.89,1.35,3,3,2.82a3.21,3.21,0,0,0,2.06-1,.44.44,0,0,1,.31-.15.53.53,0,0,1,.57.5.59.59,0,0,1-.15.46,3.89,3.89,0,0,1-2.67,1.36c-2.37.25-4-1-4.34-4.19C238.21,139.46,239.39,137.68,241.71,137.43Zm.12,1.11c-1.55.16-2.3,1.33-2.22,3l4.79-.51C244.26,139.69,243.67,138.35,241.83,138.54Z" style="fill:#74b283"/><path d="M254.32,140.73c.33,3.13-.94,4.76-3.26,5s-3.9-1.07-4.23-4.2,1-4.74,3.26-5S254,137.6,254.32,140.73Zm-1.16.12c-.25-2.4-1.31-3.37-2.95-3.2S247.73,139,248,141.4s1.32,3.4,3,3.22S253.42,143.3,253.16,140.85Z" style="fill:#74b283"/><path d="M265.47,136.17l-.57-5.29a.58.58,0,1,1,1.15-.12l1,9.47c.27,2.52-1.06,3.92-3.1,4.14-2.3.24-3.81-1.09-4.14-4.22s.8-4.72,3.1-5A3,3,0,0,1,265.47,136.17Zm.16,1.55a2.75,2.75,0,0,0-2.53-1.43c-1.63.17-2.4,1.39-2.15,3.74s1.25,3.4,2.89,3.23c1.37-.15,2.26-1.09,2.07-2.91Z" style="fill:#74b283"/><path d="M271.93,134.23c2.85-.3,3.66,2.06,3.8,3.36.06.56.13,1.22-.58,1.3l-5.21.55c.2,1.89,1.35,3,3,2.83a3.17,3.17,0,0,0,2.06-1.05.46.46,0,0,1,.3-.15.54.54,0,0,1,.58.5.57.57,0,0,1-.15.46,3.85,3.85,0,0,1-2.67,1.37c-2.37.25-4-1-4.34-4.2C268.43,136.26,269.61,134.47,271.93,134.23Zm.12,1.11c-1.56.16-2.3,1.32-2.22,3l4.79-.51C274.48,136.49,273.88,135.14,272.05,135.34Z" style="fill:#74b283"/><path d="M282.38,133.85l.53,5c.13,1.24.62,2.27,2.42,2.08s2.06-1.3,1.93-2.54l-.53-5a.61.61,0,0,1,.53-.67.58.58,0,0,1,.61.55l.53,5c.2,1.81-.18,3.53-2.95,3.83s-3.49-1.31-3.68-3.13l-.53-5a.59.59,0,0,1,.51-.68A.6.6,0,0,1,282.38,133.85Z" style="fill:#74b283"/><path d="M297.09,135l.54,5.1a.59.59,0,0,1-.51.67.57.57,0,0,1-.63-.55l-.52-4.85c-.16-1.51-.68-2.5-2.41-2.31s-2.25,1.39-2.09,2.92l.5,4.72a.57.57,0,1,1-1.14.12l-.82-7.75a.6.6,0,0,1,.51-.68.59.59,0,0,1,.63.56l.07.61a2.56,2.56,0,0,1,2.23-1.59C296.19,131.66,296.92,133.36,297.09,135Z" style="fill:#74b283"/><path d="M306.31,135.22c.33,3.13-.94,4.75-3.26,5s-3.9-1.07-4.23-4.21,1-4.73,3.26-5S306,132.09,306.31,135.22Zm-1.16.12c-.26-2.4-1.32-3.37-3-3.2s-2.47,1.35-2.21,3.75,1.31,3.4,2.95,3.22S305.41,137.79,305.15,135.34Z" style="fill:#74b283"/><path d="M317.45,130.66l-.56-5.29a.58.58,0,0,1,.51-.67.57.57,0,0,1,.63.55l1,9.47c.26,2.52-1.07,3.92-3.1,4.13-2.3.25-3.81-1.08-4.14-4.21s.79-4.72,3.09-5A3,3,0,0,1,317.45,130.66Zm.17,1.55a2.78,2.78,0,0,0-2.54-1.44c-1.62.18-2.39,1.4-2.14,3.75s1.24,3.4,2.88,3.23c1.38-.15,2.27-1.09,2.08-2.91Z" style="fill:#74b283"/><path d="M323.92,128.72c2.85-.3,3.66,2.06,3.8,3.36.06.56.13,1.22-.59,1.3l-5.21.55c.21,1.89,1.35,3,3,2.83a3.17,3.17,0,0,0,2.05-1,.51.51,0,0,1,.31-.15.55.55,0,0,1,.58.5.61.61,0,0,1-.15.46,3.85,3.85,0,0,1-2.67,1.37c-2.37.25-4-1-4.34-4.2C320.42,130.75,321.6,129,323.92,128.72Zm.11,1.11c-1.55.16-2.29,1.32-2.22,3l4.8-.51C326.46,131,325.87,129.63,324,129.83Z" style="fill:#74b283"/><path d="M340.48,130.38l.54,5.1a.57.57,0,1,1-1.14.12l-.51-4.85c-.16-1.51-.68-2.5-2.41-2.31s-2.25,1.39-2.09,2.92l.5,4.72a.59.59,0,0,1-.51.67.57.57,0,0,1-.63-.55l-.83-7.75a.58.58,0,1,1,1.15-.12l.06.61a2.57,2.57,0,0,1,2.23-1.59C339.59,127.06,340.31,128.76,340.48,130.38Z" style="fill:#74b283"/><path d="M343.21,127.41l.53,5c.13,1.24.62,2.27,2.42,2.08s2.06-1.3,1.93-2.54l-.53-5a.62.62,0,0,1,.53-.68.58.58,0,0,1,.61.55l.53,5c.2,1.81-.18,3.53-3,3.83s-3.49-1.31-3.68-3.13l-.53-5a.58.58,0,0,1,.51-.67A.59.59,0,0,1,343.21,127.41Z" style="fill:#74b283"/><path d="M353.9,125.54c2.86-.3,3.67,2.06,3.8,3.36.06.56.13,1.23-.58,1.3l-5.21.55c.2,1.89,1.35,3,3,2.83a3.17,3.17,0,0,0,2.05-1.05.57.57,0,0,1,.31-.15.57.57,0,0,1,.42,1,3.82,3.82,0,0,1-2.66,1.37c-2.38.25-4-1-4.35-4.2C350.4,127.57,351.58,125.79,353.9,125.54Zm.12,1.11c-1.55.16-2.29,1.32-2.22,3l4.8-.51C356.45,127.8,355.86,126.45,354,126.65Z" style="fill:#74b283"/><path d="M360.26,127.22c.22,2,4.83.77,5.15,3.82.19,1.74-1.07,2.66-2.76,2.84a3.92,3.92,0,0,1-3.2-1,.56.56,0,0,1-.16-.35.54.54,0,0,1,.46-.61.58.58,0,0,1,.41.15,2.94,2.94,0,0,0,2.36.7c1-.11,1.86-.56,1.75-1.56-.21-2-4.82-.68-5.15-3.82-.17-1.58,1-2.44,2.49-2.6a3.17,3.17,0,0,1,2.84.94.6.6,0,0,1,.16.35.54.54,0,0,1-.46.61.53.53,0,0,1-.39-.14,2.47,2.47,0,0,0-2-.59C360.93,126,360.17,126.34,360.26,127.22Z" style="fill:#74b283"/><path d="M366.89,122.41a.63.63,0,0,1,.51-.68.6.6,0,0,1,.63.55l.22,2,1.16-.12a.57.57,0,0,1,.12,1.14l-1.16.13.56,5.27c.08.82.56,1.21,1.17,1.15a.57.57,0,0,1,.12,1.14,2.15,2.15,0,0,1-2.43-2.17l-.56-5.27-.7.07a.54.54,0,0,1-.59-.52.55.55,0,0,1,.47-.63l.7-.07Z" style="fill:#74b283"/><path d="M372.91,125.11a2.58,2.58,0,0,1,2.32-1.79.59.59,0,0,1,.62.53.58.58,0,0,1-.49.65c-1.64.18-2.35,1.49-2.17,3.24l.46,4.28a.58.58,0,1,1-1.15.12l-.82-7.75a.59.59,0,0,1,.51-.67.57.57,0,0,1,.63.55Z" style="fill:#74b283"/><path d="M384.47,126.94c.33,3.13-.94,4.75-3.26,5s-3.9-1.08-4.23-4.21,1-4.74,3.26-5S384.13,123.8,384.47,126.94Zm-1.16.12c-.26-2.41-1.32-3.38-3-3.2s-2.47,1.34-2.21,3.75,1.31,3.39,2.95,3.22S383.57,129.5,383.31,127.06Z" style="fill:#74b283"/><path d="M387,124.39c.22,2,4.83.77,5.15,3.82.19,1.74-1.07,2.67-2.76,2.85a3.94,3.94,0,0,1-3.2-1.06.56.56,0,0,1-.16-.35.55.55,0,0,1,.46-.61.58.58,0,0,1,.41.15,2.88,2.88,0,0,0,2.36.7c1-.11,1.86-.56,1.75-1.56-.21-2-4.82-.68-5.15-3.82-.17-1.58,1-2.44,2.49-2.6a3.2,3.2,0,0,1,2.84.94.64.64,0,0,1,.16.35.54.54,0,0,1-.46.61.49.49,0,0,1-.39-.14,2.48,2.48,0,0,0-2-.59C387.62,123.16,386.86,123.51,387,124.39Z" style="fill:#74b283"/><path d="M398.76,123.14c.21,2,4.82.77,5.14,3.82.19,1.74-1.07,2.66-2.76,2.84a3.92,3.92,0,0,1-3.2-1.05.56.56,0,0,1-.16-.35.54.54,0,0,1,.46-.61.56.56,0,0,1,.41.15,3,3,0,0,0,2.37.7c1-.11,1.85-.57,1.74-1.56-.21-2-4.81-.68-5.15-3.82-.16-1.58,1-2.44,2.49-2.6a3.17,3.17,0,0,1,2.84.94.6.6,0,0,1,.16.35.54.54,0,0,1-.46.61.53.53,0,0,1-.39-.14,2.47,2.47,0,0,0-2-.59C399.42,121.91,398.66,122.26,398.76,123.14Z" style="fill:#74b283"/><path d="M408.26,119.78c2.86-.31,3.67,2.06,3.8,3.36.06.56.13,1.22-.58,1.3l-5.21.55c.2,1.89,1.35,3,3,2.83a3.21,3.21,0,0,0,2.06-1,.48.48,0,0,1,.31-.15.57.57,0,0,1,.42,1,3.82,3.82,0,0,1-2.67,1.37c-2.37.25-4-1-4.34-4.2C404.76,121.81,405.94,120,408.26,119.78Zm.12,1.11c-1.55.16-2.3,1.32-2.22,3l4.8-.51C410.81,122,410.22,120.69,408.38,120.89Z" style="fill:#74b283"/><path d="M414.74,120.67a2.57,2.57,0,0,1,2.32-1.79.6.6,0,0,1,.12,1.19c-1.64.17-2.35,1.48-2.16,3.24l.45,4.28a.58.58,0,0,1-.5.67.59.59,0,0,1-.64-.55l-.82-7.75a.59.59,0,0,1,.5-.68.6.6,0,0,1,.64.55Z" style="fill:#74b283"/><path d="M422.7,127.05l-3.85-7.39a.61.61,0,0,1-.08-.26.57.57,0,0,1,.5-.67.55.55,0,0,1,.58.34l3.21,6.32,1.82-6.85a.54.54,0,0,1,.49-.46.6.6,0,0,1,.64.55.87.87,0,0,1,0,.27l-2.21,8a.57.57,0,0,1-.5.44A.58.58,0,0,1,422.7,127.05Z" style="fill:#74b283"/><path d="M427,115.36c-.06-.56.17-.79.6-.84s.7.14.76.69a.69.69,0,1,1-1.36.15Zm2.41,10.75a.58.58,0,1,1-1.15.12l-.82-7.75a.59.59,0,0,1,.51-.67.57.57,0,0,1,.63.55Z" style="fill:#74b283"/><path d="M434,117.05a3.33,3.33,0,0,1,2.89,1,.62.62,0,0,1,.16.35.52.52,0,0,1-.46.61.55.55,0,0,1-.45-.18,2.24,2.24,0,0,0-2-.7c-1.64.18-2.4,1.4-2.15,3.75s1.25,3.4,2.89,3.22a3.16,3.16,0,0,0,2-1,.56.56,0,0,1,.33-.17.54.54,0,0,1,.57.5.59.59,0,0,1-.18.5,3.92,3.92,0,0,1-2.58,1.32c-2.3.25-3.83-1.08-4.17-4.21S431.65,117.3,434,117.05Z" style="fill:#74b283"/><path d="M438.3,114.16c-.06-.55.16-.79.59-.84s.7.14.76.7a.68.68,0,1,1-1.35.14Zm2.4,10.76a.6.6,0,0,1-.51.67.58.58,0,0,1-.63-.55l-.83-7.76a.58.58,0,1,1,1.15-.12Z" style="fill:#74b283"/><path d="M449.56,120c.33,3.13-.94,4.75-3.26,5s-3.9-1.08-4.23-4.21,1-4.74,3.26-5S449.23,116.9,449.56,120Zm-1.16.12c-.26-2.41-1.32-3.38-3-3.2s-2.47,1.34-2.21,3.75,1.31,3.39,2.95,3.22S448.66,122.6,448.4,120.16Z" style="fill:#74b283"/><path d="M452,117.49c.22,2,4.83.77,5.15,3.82.19,1.74-1.07,2.67-2.76,2.85a4,4,0,0,1-3.2-1.06.56.56,0,0,1-.16-.35.53.53,0,0,1,.46-.6.52.52,0,0,1,.41.14,2.9,2.9,0,0,0,2.36.7c1-.11,1.86-.56,1.75-1.56-.21-2-4.82-.68-5.15-3.82-.17-1.58,1-2.44,2.49-2.6a3.2,3.2,0,0,1,2.84.94.64.64,0,0,1,.16.35.54.54,0,0,1-.46.61.51.51,0,0,1-.39-.13,2.44,2.44,0,0,0-2-.6C452.71,116.26,452,116.61,452,117.49Z" style="fill:#74b283"/><path d="M223.32,171.77l-.12-1.09a3,3,0,0,1-2.28,1.42c-2.32.24-3.85-1.06-4.18-4.2s.88-4.75,3.2-5c2-.22,3.7.88,4,3.4l.56,5.33a3.37,3.37,0,0,1-3.26,4.06,3.64,3.64,0,0,1-3.12-1,.67.67,0,0,1-.15-.34.59.59,0,0,1,.49-.65.56.56,0,0,1,.46.17,2.63,2.63,0,0,0,2.19.67A2.29,2.29,0,0,0,223.32,171.77Zm-.57-5.33a2.37,2.37,0,0,0-2.69-2.42c-1.64.17-2.43,1.38-2.18,3.76s1.28,3.38,2.92,3.21a2.84,2.84,0,0,0,2.24-1.8Z" style="fill:#74b283"/><path d="M226.92,163.75a2.57,2.57,0,0,1,2.31-1.79.58.58,0,0,1,.62.54.59.59,0,0,1-.49.65c-1.64.17-2.35,1.48-2.16,3.24l.45,4.28a.57.57,0,1,1-1.14.12l-.82-7.76a.59.59,0,0,1,.5-.67.6.6,0,0,1,.64.55Z" style="fill:#74b283"/><path d="M232.07,163.77c-.15.23-.27.3-.43.31a.54.54,0,0,1-.58-.5.59.59,0,0,1,.06-.33,3.27,3.27,0,0,1,2.8-1.82,3,3,0,0,1,3.55,2.9l.56,5.26a.59.59,0,0,1-.49.65.59.59,0,0,1-.62-.54l-.07-.68a2.78,2.78,0,0,1-2.4,1.64c-1.89.2-3.19-.64-3.38-2.4s.91-2.82,2.84-3l2.51-.26,0-.52a2,2,0,0,0-2.33-1.88A2.44,2.44,0,0,0,232.07,163.77Zm4.55,3.07-.08-.8-2.52.26c-1.16.13-1.91.73-1.79,1.83s.81,1.56,2.21,1.41A2.35,2.35,0,0,0,236.62,166.84Z" style="fill:#74b283"/><path d="M239.53,159.08a.58.58,0,1,1,1.14-.13l.21,2,1.16-.12a.56.56,0,0,1,.6.51.55.55,0,0,1-.48.63l-1.16.13.56,5.27c.09.82.56,1.21,1.17,1.15a.56.56,0,0,1,.61.51.55.55,0,0,1-.49.63,2.15,2.15,0,0,1-2.43-2.17l-.56-5.27-.69.07a.57.57,0,0,1-.13-1.14l.7-.08Z" style="fill:#74b283"/><path d="M243.86,157.94c-.06-.55.17-.79.6-.84s.7.14.76.7a.65.65,0,0,1-.61.79A.64.64,0,0,1,243.86,157.94Zm2.4,10.76a.59.59,0,0,1-.5.67.6.6,0,0,1-.64-.55l-.82-7.76a.58.58,0,0,1,.51-.67.59.59,0,0,1,.63.55Z" style="fill:#74b283"/><path d="M248.87,162.2c.22,2,4.83.76,5.15,3.82.19,1.74-1.07,2.66-2.76,2.84a3.91,3.91,0,0,1-3.2-1.05.59.59,0,0,1-.16-.35.51.51,0,0,1,.87-.46,3,3,0,0,0,2.36.7c1-.11,1.86-.57,1.75-1.56-.21-2-4.82-.69-5.15-3.82-.17-1.59,1-2.44,2.49-2.6a3.17,3.17,0,0,1,2.84.94.6.6,0,0,1,.16.34.54.54,0,0,1-.46.61.47.47,0,0,1-.39-.13,2.52,2.52,0,0,0-2-.6C249.54,161,248.78,161.32,248.87,162.2Z" style="fill:#74b283"/><path d="M260.7,159.32l.07.61a2.79,2.79,0,0,1,2.28-1.59c2.32-.25,3.88,1.06,4.21,4.19s-.92,4.75-3.24,5a2.82,2.82,0,0,1-2.56-1.08l.45,4.31a.62.62,0,0,1-.5.68.63.63,0,0,1-.64-.55l-1.21-11.45a.57.57,0,1,1,1.14-.12Zm3.21,7.1c1.64-.18,2.45-1.38,2.19-3.77s-1.33-3.37-3-3.2c-1.32.14-2.32,1.25-2.06,3.73S262.52,166.57,263.91,166.42Z" style="fill:#74b283"/><path d="M276,161.6c.33,3.14-.94,4.76-3.26,5s-3.9-1.07-4.23-4.2,1-4.74,3.26-5S275.67,158.47,276,161.6Zm-1.16.13c-.25-2.41-1.31-3.38-2.95-3.21s-2.48,1.35-2.22,3.75,1.31,3.4,2.95,3.22S275.1,164.17,274.84,161.73Z" style="fill:#74b283"/><path d="M278.6,158.27a2.58,2.58,0,0,1,2.32-1.79.6.6,0,0,1,.12,1.19c-1.64.17-2.35,1.48-2.16,3.24l.45,4.28a.58.58,0,0,1-.5.67.59.59,0,0,1-.64-.55l-.82-7.75a.6.6,0,0,1,.51-.68.58.58,0,0,1,.63.55Z" style="fill:#74b283"/><path d="M287.37,154.91a.55.55,0,0,1-.33.15.62.62,0,0,1-.64-.55.65.65,0,0,1,.2-.54l2.58-2.38a.53.53,0,0,1,.34-.17.63.63,0,0,1,.66.57l1.26,11.9a.59.59,0,1,1-1.18.12l-1.14-10.77Z" style="fill:#74b283"/><path d="M310.18,156.76l.54,5.1a.58.58,0,1,1-1.15.12l-.51-4.85c-.16-1.51-.77-2.49-2.5-2.3a2,2,0,0,0-2,2.53l.54,5.1a.58.58,0,1,1-1.15.12l-.51-4.85c-.16-1.51-.72-2.5-2.46-2.31s-2.08,1.3-1.91,2.9l.5,4.72a.59.59,0,0,1-.51.67.57.57,0,0,1-.63-.55l-.83-7.75a.58.58,0,1,1,1.15-.12l.06.61a2.48,2.48,0,0,1,2.18-1.58,3,3,0,0,1,3,1,2.81,2.81,0,0,1,2.47-1.61C309.19,153.45,310,155.14,310.18,156.76Z" style="fill:#74b283"/><path d="M315.09,152.82c2.85-.3,3.66,2.07,3.8,3.37.06.55.13,1.22-.58,1.29l-5.21.56c.2,1.89,1.35,3,3,2.82a3.16,3.16,0,0,0,2.06-1,.44.44,0,0,1,.31-.15.53.53,0,0,1,.57.5.59.59,0,0,1-.15.46,3.89,3.89,0,0,1-2.67,1.36c-2.37.25-4-1-4.34-4.19C311.59,154.86,312.77,153.07,315.09,152.82Zm.12,1.11c-1.55.17-2.3,1.33-2.22,3l4.79-.51C317.64,155.08,317.05,153.74,315.21,153.93Z" style="fill:#74b283"/><path d="M321.45,154.51c.21,2,4.83.76,5.15,3.81.19,1.74-1.07,2.67-2.76,2.85a3.94,3.94,0,0,1-3.2-1,.62.62,0,0,1-.16-.35.51.51,0,0,1,.87-.46,2.91,2.91,0,0,0,2.36.69c1-.1,1.85-.56,1.75-1.55-.21-2-4.82-.69-5.15-3.82-.17-1.59,1-2.44,2.48-2.6a3.2,3.2,0,0,1,2.85.93.64.64,0,0,1,.16.35.54.54,0,0,1-.46.61.47.47,0,0,1-.39-.13,2.45,2.45,0,0,0-2-.6C322.12,153.28,321.36,153.63,321.45,154.51Z" style="fill:#74b283"/><path d="M327.76,159.77a.8.8,0,0,1,.74-1c.52,0,.87.2.94.83a.79.79,0,0,1-.75,1C328.18,160.63,327.83,160.4,327.76,159.77Z" style="fill:#74b283"/><path d="M99.14,196.23a2.71,2.71,0,0,1,2.13.7,3.23,3.23,0,0,1,.47,4.36,2.7,2.7,0,0,1-1.94,1.13l-1.26.14a2.45,2.45,0,0,1-.19.85,3.55,3.55,0,0,1,.06,1.22,3.25,3.25,0,0,1-.37,1.18,3.52,3.52,0,0,1-.7,2.55,3.37,3.37,0,0,1-2.42,1.22l-.73.08a5.29,5.29,0,0,1-1.7-.13A11.52,11.52,0,0,1,91.1,209l-.81-.33a2,2,0,0,0-.68-.08H89.5a1,1,0,0,1-.73.38l-2.23.24a1.16,1.16,0,0,1-.82-.23,1.05,1.05,0,0,1-.41-.73l-.91-8.58a1,1,0,0,1,.25-.8,1.08,1.08,0,0,1,.75-.4l2.23-.24a1.08,1.08,0,0,1,.8.22h.1a.63.63,0,0,0,.38-.25,6.34,6.34,0,0,0,.57-.76,9.27,9.27,0,0,0,.78-1.32l.33-.87a7.16,7.16,0,0,1,.68-1.54,1.73,1.73,0,0,1,1.32-.82,3.19,3.19,0,0,1,2.43.63,3,3,0,0,1,1.1,2.13,4.14,4.14,0,0,1,0,.86Zm-10.9,10.44a.9.9,0,0,0-.31-.61.76.76,0,0,0-.62-.2.78.78,0,0,0-.57.32.9.9,0,0,0-.17.66.89.89,0,0,0,.31.61.78.78,0,0,0,.62.2.79.79,0,0,0,.56-.32A.93.93,0,0,0,88.24,206.67Zm11.37-6a1.13,1.13,0,0,0,.81-.48,1.36,1.36,0,0,0,.27-1,1.31,1.31,0,0,0-.47-.88,1.17,1.17,0,0,0-.89-.3l-5.54.59a1.89,1.89,0,0,1,.26-.89,5.49,5.49,0,0,0,.3-.83,2.4,2.4,0,0,0,.1-1,1.2,1.2,0,0,0-.56-1,1.8,1.8,0,0,0-1.11-.18c-.09,0-.2.13-.31.37s-.16.4-.3.79a10.17,10.17,0,0,1-.39,1.06,9.25,9.25,0,0,1-.92,1.6,8.43,8.43,0,0,1-.8,1.07,2.25,2.25,0,0,1-1.09.64l.69,6.57a3.43,3.43,0,0,1,1,.15l1,.39c.51.2.89.33,1.13.41a4,4,0,0,0,1.21.1l.73-.08a1.78,1.78,0,0,0,1.43-.76,2.16,2.16,0,0,0,.11-1.71,1.36,1.36,0,0,0,.48-.93,1.53,1.53,0,0,0-.25-1.13,1.67,1.67,0,0,0,.39-1.21,1.72,1.72,0,0,0-.45-1.08Z" style="fill:#fff"/><path d="M113.4,193.41c3.41-.36,5.7,1.14,6.2,5.86s-1.43,6.64-4.83,7l-2.52.26a.62.62,0,0,1-.67-.58l-1.23-11.56a.62.62,0,0,1,.54-.71Zm-.67,11.88,1.91-.21c2.66-.28,4.15-1.71,3.73-5.68s-2.18-5.09-4.84-4.8l-1.91.2Z" style="fill:#74b283"/><path d="M124.41,196.2c2.85-.3,3.66,2.07,3.8,3.37.06.55.13,1.22-.58,1.3l-5.21.55c.2,1.89,1.35,3,3,2.83a3.21,3.21,0,0,0,2.06-1.05.46.46,0,0,1,.3-.15.54.54,0,0,1,.58.5.59.59,0,0,1-.15.46,3.85,3.85,0,0,1-2.67,1.36c-2.37.26-4-1-4.34-4.19C120.91,198.24,122.09,196.45,124.41,196.2Zm.12,1.11c-1.55.17-2.3,1.33-2.22,3l4.79-.51C127,198.47,126.36,197.12,124.53,197.31Z" style="fill:#74b283"/><path d="M130.77,197.89c.21,2,4.83.76,5.15,3.82.18,1.74-1.07,2.66-2.77,2.84A3.9,3.9,0,0,1,130,203.5a.62.62,0,0,1-.16-.35.53.53,0,0,1,.45-.61.54.54,0,0,1,.42.15,2.91,2.91,0,0,0,2.36.69c1-.1,1.85-.56,1.75-1.55-.21-2-4.82-.69-5.15-3.82-.17-1.59,1-2.44,2.48-2.6a3.17,3.17,0,0,1,2.84.93.58.58,0,0,1,.17.35.55.55,0,0,1-.46.61.47.47,0,0,1-.39-.13,2.46,2.46,0,0,0-2-.6C131.43,196.66,130.68,197,130.77,197.89Z" style="fill:#74b283"/><path d="M140.28,194.52a3.29,3.29,0,0,1,2.88,1,.61.61,0,0,1,.17.35.54.54,0,0,1-.46.61.52.52,0,0,1-.45-.19,2.3,2.3,0,0,0-2-.69c-1.64.18-2.39,1.39-2.14,3.74s1.24,3.41,2.88,3.23a3.16,3.16,0,0,0,2-1,.53.53,0,0,1,.32-.17.55.55,0,0,1,.58.5.64.64,0,0,1-.18.5,3.92,3.92,0,0,1-2.59,1.32c-2.3.24-3.83-1.08-4.16-4.21S138,194.77,140.28,194.52Z" style="fill:#74b283"/><path d="M146,194.65l.53,5c.13,1.24.62,2.27,2.42,2.08s2.06-1.3,1.93-2.54l-.53-5a.61.61,0,0,1,.53-.67.58.58,0,0,1,.61.55l.53,5c.19,1.81-.18,3.53-2.95,3.83s-3.49-1.31-3.68-3.13l-.53-5a.58.58,0,0,1,.51-.67A.59.59,0,0,1,146,194.65Z" style="fill:#74b283"/><path d="M156.73,192.78c2.86-.3,3.67,2.06,3.8,3.36.06.56.13,1.22-.58,1.3l-5.21.55c.2,1.89,1.35,3,3,2.83a3.17,3.17,0,0,0,2-1,.51.51,0,0,1,.31-.15.57.57,0,0,1,.42,1,3.82,3.82,0,0,1-2.66,1.37c-2.38.25-4-1-4.35-4.2C153.23,194.81,154.41,193,156.73,192.78Zm.12,1.11c-1.55.16-2.29,1.32-2.22,3l4.8-.51C159.28,195,158.69,193.69,156.85,193.89Z" style="fill:#74b283"/><path d="M169.06,194.89l.54,5.1a.58.58,0,1,1-1.15.12l-.51-4.85c-.16-1.51-.68-2.5-2.41-2.31s-2.25,1.39-2.09,2.92l.5,4.72a.57.57,0,0,1-.5.67.59.59,0,0,1-.64-.55L162,193a.57.57,0,1,1,1.14-.12l.07.61a2.57,2.57,0,0,1,2.23-1.59C168.16,191.57,168.88,193.27,169.06,194.89Z" style="fill:#74b283"/><path d="M171.1,189.5a.57.57,0,1,1,1.14-.12l.21,2,1.16-.12a.54.54,0,0,1,.59.52.55.55,0,0,1-.47.63l-1.16.12.56,5.27c.09.82.56,1.22,1.17,1.15a.58.58,0,0,1,.12,1.15,2.15,2.15,0,0,1-2.43-2.18l-.56-5.27-.7.07a.57.57,0,0,1-.12-1.14l.7-.08Z" style="fill:#74b283"/><path d="M183.25,194.6c.33,3.14-.94,4.76-3.26,5s-3.9-1.07-4.23-4.2,1-4.74,3.26-5S182.92,191.47,183.25,194.6Zm-1.16.13c-.25-2.41-1.31-3.38-3-3.21s-2.48,1.35-2.22,3.76,1.31,3.39,3,3.22S182.35,197.17,182.09,194.73Z" style="fill:#74b283"/><path d="M185.74,192.06c.21,2,4.82.76,5.14,3.82.19,1.74-1.07,2.66-2.76,2.84a3.92,3.92,0,0,1-3.2-1.05.56.56,0,0,1-.16-.35.54.54,0,0,1,.46-.61.56.56,0,0,1,.41.15,3,3,0,0,0,2.37.7c1-.11,1.85-.57,1.74-1.56-.21-2-4.81-.69-5.15-3.82-.16-1.58,1-2.44,2.49-2.6a3.17,3.17,0,0,1,2.84.94.6.6,0,0,1,.16.35.53.53,0,0,1-.46.6.47.47,0,0,1-.39-.13,2.47,2.47,0,0,0-2-.59C186.4,190.83,185.64,191.18,185.74,192.06Z" style="fill:#74b283"/><path d="M202,189.24l-.56-5.29a.59.59,0,0,1,.51-.67.57.57,0,0,1,.63.55l1,9.47c.27,2.52-1.07,3.92-3.1,4.14-2.3.24-3.81-1.09-4.14-4.22s.8-4.72,3.1-5A3,3,0,0,1,202,189.24Zm.17,1.55a2.75,2.75,0,0,0-2.53-1.43c-1.63.17-2.4,1.39-2.15,3.74s1.24,3.4,2.88,3.23c1.38-.15,2.27-1.09,2.08-2.91Z" style="fill:#74b283"/><path d="M208.42,187.3c2.85-.3,3.66,2.07,3.8,3.36.06.56.13,1.23-.59,1.3l-5.2.55c.2,1.9,1.34,3,3,2.83a3.14,3.14,0,0,0,2.05-1.05.5.5,0,0,1,.31-.14.54.54,0,0,1,.58.49.61.61,0,0,1-.15.46,3.85,3.85,0,0,1-2.67,1.37c-2.37.25-4-1-4.34-4.2C204.92,189.33,206.1,187.55,208.42,187.3Zm.11,1.11c-1.55.16-2.29,1.32-2.22,3l4.8-.5C211,189.56,210.37,188.21,208.53,188.41Z" style="fill:#74b283"/><path d="M225,189l.54,5.1a.57.57,0,0,1-.5.67.59.59,0,0,1-.64-.55l-.51-4.85c-.16-1.51-.68-2.49-2.41-2.31s-2.25,1.4-2.09,2.92l.5,4.72a.58.58,0,0,1-.51.67.57.57,0,0,1-.63-.55l-1.33-12.53a.57.57,0,1,1,1.14-.12l.57,5.39a2.57,2.57,0,0,1,2.23-1.59C224.09,185.64,224.81,187.34,225,189Z" style="fill:#74b283"/><path d="M227.9,187.38a.6.6,0,0,1-.44.32.55.55,0,0,1-.58-.5.61.61,0,0,1,.06-.34,3.27,3.27,0,0,1,2.8-1.82,3,3,0,0,1,3.55,2.91l.56,5.25a.58.58,0,0,1-.49.65.59.59,0,0,1-.62-.53l-.07-.69a2.78,2.78,0,0,1-2.4,1.64c-1.89.21-3.19-.64-3.38-2.4s.91-2.82,2.84-3l2.51-.27-.05-.52a2,2,0,0,0-2.33-1.87A2.4,2.4,0,0,0,227.9,187.38Zm4.54,3.07-.08-.8-2.52.27c-1.16.12-1.91.72-1.79,1.83s.82,1.55,2.21,1.41A2.35,2.35,0,0,0,232.44,190.45Z" style="fill:#74b283"/><path d="M236.28,186.7c.21,2,4.82.77,5.15,3.82.18,1.74-1.07,2.67-2.77,2.85a3.93,3.93,0,0,1-3.19-1.06.58.58,0,0,1-.17-.35.54.54,0,0,1,.46-.6.48.48,0,0,1,.41.15,3,3,0,0,0,2.37.69c1-.11,1.85-.56,1.75-1.56-.21-2-4.82-.68-5.15-3.82-.17-1.58,1-2.43,2.48-2.6a3.21,3.21,0,0,1,2.84.94.57.57,0,0,1,.16.35.54.54,0,0,1-.45.61.53.53,0,0,1-.4-.13,2.44,2.44,0,0,0-2-.6C236.94,185.47,236.19,185.83,236.28,186.7Z" style="fill:#74b283"/><path d="M242.91,181.89a.58.58,0,1,1,1.14-.12l.21,2,1.16-.12a.56.56,0,0,1,.6.51.55.55,0,0,1-.48.63l-1.16.13.56,5.27c.09.82.56,1.21,1.17,1.15a.56.56,0,0,1,.61.51.57.57,0,0,1-.49.64,2.16,2.16,0,0,1-2.43-2.18l-.56-5.27-.69.07a.57.57,0,0,1-.13-1.14l.7-.08Z" style="fill:#74b283"/><path d="M248.75,185.17a.57.57,0,0,1-.43.32.55.55,0,0,1-.58-.5.61.61,0,0,1,.06-.34,3.27,3.27,0,0,1,2.8-1.82,3,3,0,0,1,3.55,2.91l.56,5.25a.56.56,0,1,1-1.11.12l-.07-.69a2.78,2.78,0,0,1-2.4,1.64c-1.89.2-3.19-.64-3.38-2.4s.91-2.82,2.84-3l2.51-.27,0-.52a2,2,0,0,0-2.33-1.87A2.42,2.42,0,0,0,248.75,185.17Zm4.55,3.07-.08-.8-2.52.27c-1.16.12-1.91.72-1.79,1.83s.81,1.55,2.21,1.4A2.35,2.35,0,0,0,253.3,188.24Z" style="fill:#74b283"/><path d="M263.33,181.48c2.85-.3,3.66,2.06,3.8,3.36.06.56.13,1.23-.59,1.3l-5.2.55c.2,1.89,1.34,3,3,2.83a3.14,3.14,0,0,0,2.05-1.05.57.57,0,0,1,.31-.15.54.54,0,0,1,.58.5.61.61,0,0,1-.15.46,3.85,3.85,0,0,1-2.67,1.37c-2.37.25-4-1-4.34-4.2C259.83,183.51,261,181.73,263.33,181.48Zm.11,1.11c-1.55.16-2.29,1.32-2.22,3l4.8-.51C265.88,183.74,265.28,182.39,263.44,182.59Z" style="fill:#74b283"/><path d="M269.21,176.76l1.15,10.91c.09.76.35,1.06.83,1a.58.58,0,0,1,.13,1.15c-1.2.12-1.94-.57-2.1-2l-1.15-10.91a.61.61,0,0,1,.5-.67A.61.61,0,0,1,269.21,176.76Z" style="fill:#74b283"/><path d="M282.2,176.72l-6,.63a.56.56,0,0,1-.61-.53.57.57,0,0,1,.49-.65l6.65-.71a.59.59,0,0,1,.62.54c.46,4.33-4.5,6.1-3.84,12.34a.57.57,0,0,1-.5.67.59.59,0,0,1-.64-.55C277.69,182.14,282.51,179.64,282.2,176.72Z" style="fill:#74b283"/><path d="M294.13,180.74c.49,4.59-.69,6.86-3.69,7.18s-4.63-1.66-5.12-6.24.7-6.84,3.7-7.15S293.65,176.16,294.13,180.74Zm-1.17.13c-.42-4-1.61-5.43-3.82-5.2s-3.06,1.93-2.64,5.88,1.61,5.45,3.82,5.22S293.38,184.82,293,180.87Z" style="fill:#74b283"/><path d="M300.69,176.44c.18,1.72-.35,3.18-2.29,3.39s-2.75-1.12-2.94-2.84.35-3.18,2.28-3.39S300.51,174.7,300.69,176.44Zm-.89.09c-.13-1.22-.6-2.19-2-2.05s-1.6,1.19-1.47,2.42.59,2.19,1.94,2S299.93,177.74,299.8,176.53Zm4.64-3a1.12,1.12,0,0,1,0,.2l-4.52,12.86a.43.43,0,0,1-.36.29.47.47,0,0,1-.5-.43.36.36,0,0,1,0-.2l4.51-12.86a.44.44,0,0,1,.37-.29A.46.46,0,0,1,304.44,173.49Zm3.61,9.39c.18,1.72-.35,3.19-2.3,3.39s-2.75-1.11-2.93-2.83.35-3.19,2.27-3.39S307.86,181.14,308.05,182.88Zm-.9.1c-.13-1.23-.59-2.2-2-2s-1.61,1.19-1.48,2.41.6,2.2,2,2S307.28,184.18,307.15,183Z" style="fill:#74b283"/><path d="M316.67,175.83c2.85-.31,3.66,2.06,3.8,3.36.06.55.13,1.22-.58,1.3l-5.21.55c.2,1.89,1.35,3,3,2.83a3.16,3.16,0,0,0,2.05-1.05.51.51,0,0,1,.31-.15.54.54,0,0,1,.58.5.63.63,0,0,1-.15.46,3.85,3.85,0,0,1-2.67,1.36c-2.37.26-4-1-4.34-4.19C313.17,177.86,314.35,176.07,316.67,175.83Zm.12,1.1c-1.56.17-2.3,1.33-2.23,3l4.8-.51C319.22,178.09,318.62,176.74,316.79,176.93Z" style="fill:#74b283"/><path d="M329,177.94l.54,5.1a.58.58,0,0,1-.5.67.59.59,0,0,1-.64-.55l-.51-4.85c-.16-1.51-.68-2.5-2.41-2.32s-2.25,1.4-2.09,2.93l.5,4.72a.59.59,0,0,1-.51.67.58.58,0,0,1-.63-.55l-.83-7.76a.58.58,0,1,1,1.15-.12l.06.61a2.59,2.59,0,0,1,2.23-1.59C328.1,174.61,328.82,176.31,329,177.94Z" style="fill:#74b283"/><path d="M338.15,173.55c2.85-.3,3.67,2.06,3.8,3.36.06.56.13,1.22-.58,1.3l-5.21.55c.2,1.89,1.35,3,3,2.83a3.17,3.17,0,0,0,2.06-1.05.48.48,0,0,1,.31-.15.54.54,0,0,1,.57.5.57.57,0,0,1-.15.46,3.82,3.82,0,0,1-2.67,1.37c-2.37.25-4-1-4.34-4.2C334.65,175.58,335.83,173.79,338.15,173.55Zm.12,1.11c-1.55.16-2.3,1.32-2.22,3l4.8-.51C340.7,175.81,340.11,174.46,338.27,174.66Z" style="fill:#74b283"/><path d="M344,168.83l1.16,10.91c.08.76.35,1.06.83,1a.58.58,0,0,1,.12,1.15c-1.2.12-1.94-.57-2.09-2L342.89,169a.61.61,0,0,1,.51-.67A.6.6,0,0,1,344,168.83Z" style="fill:#74b283"/><path d="M352.66,174.37c.21,2,4.82.76,5.15,3.82.18,1.74-1.07,2.66-2.77,2.84a3.93,3.93,0,0,1-3.19-1.05.64.64,0,0,1-.17-.35.52.52,0,0,1,.88-.46,2.91,2.91,0,0,0,2.36.69c1-.1,1.85-.56,1.75-1.55-.21-2-4.82-.69-5.15-3.82-.17-1.59,1-2.44,2.48-2.6a3.17,3.17,0,0,1,2.84.93.64.64,0,0,1,.17.35.55.55,0,0,1-.46.61.46.46,0,0,1-.39-.13,2.46,2.46,0,0,0-2-.6C353.32,173.14,352.57,173.49,352.66,174.37Z" style="fill:#74b283"/><path d="M362.17,171c2.85-.3,3.66,2.07,3.8,3.37.06.55.13,1.22-.59,1.29l-5.2.56c.2,1.89,1.34,3,3,2.82a3.18,3.18,0,0,0,2.05-1,.46.46,0,0,1,.31-.15.54.54,0,0,1,.58.5.63.63,0,0,1-.15.46,3.89,3.89,0,0,1-2.67,1.36c-2.37.25-4-1-4.34-4.19C358.67,173,359.85,171.25,362.17,171Zm.11,1.11c-1.55.17-2.29,1.33-2.22,3l4.8-.51C364.71,173.26,364.12,171.92,362.28,172.11Z" style="fill:#74b283"/><path d="M368.64,171.9a2.58,2.58,0,0,1,2.32-1.79.59.59,0,0,1,.62.53.58.58,0,0,1-.49.65c-1.64.18-2.35,1.49-2.17,3.25l.46,4.28a.58.58,0,1,1-1.15.12l-.82-7.76a.59.59,0,0,1,.51-.67.58.58,0,0,1,.63.55Z" style="fill:#74b283"/><path d="M376.6,178.28l-3.85-7.39a1.12,1.12,0,0,1-.08-.27.59.59,0,0,1,.51-.67.54.54,0,0,1,.57.35l3.22,6.32,1.81-6.86a.56.56,0,0,1,.5-.45.57.57,0,0,1,.63.55.68.68,0,0,1,0,.27l-2.22,8a.58.58,0,0,1-.49.44A.6.6,0,0,1,376.6,178.28Z" style="fill:#74b283"/><path d="M380.9,166.58c-.06-.55.17-.79.59-.83s.7.14.76.69a.68.68,0,1,1-1.35.14Zm2.4,10.76a.57.57,0,1,1-1.14.12l-.82-7.76a.59.59,0,0,1,.5-.67.6.6,0,0,1,.64.55Z" style="fill:#74b283"/><path d="M387.86,168.28a3.29,3.29,0,0,1,2.88,1,.58.58,0,0,1,.17.35.53.53,0,0,1-.46.6.51.51,0,0,1-.45-.18,2.27,2.27,0,0,0-2-.69c-1.64.17-2.39,1.39-2.14,3.74s1.24,3.4,2.88,3.23a3.16,3.16,0,0,0,2-1,.49.49,0,0,1,.32-.17.54.54,0,0,1,.58.5.65.65,0,0,1-.19.5,3.91,3.91,0,0,1-2.58,1.32c-2.3.24-3.83-1.08-4.16-4.22S385.56,168.52,387.86,168.28Z" style="fill:#74b283"/><path d="M392.2,165.39c-.06-.56.17-.8.6-.84s.7.14.76.69a.66.66,0,0,1-.61.8A.65.65,0,0,1,392.2,165.39Zm2.4,10.75a.57.57,0,1,1-1.14.12l-.82-7.75a.57.57,0,1,1,1.14-.12Z" style="fill:#74b283"/><path d="M403.46,171.26c.33,3.13-.94,4.76-3.26,5s-3.9-1.07-4.23-4.2,1-4.74,3.26-5S403.13,168.13,403.46,171.26Zm-1.16.12c-.25-2.4-1.31-3.37-2.95-3.2s-2.47,1.35-2.22,3.75,1.32,3.4,3,3.22S402.56,173.83,402.3,171.38Z" style="fill:#74b283"/><path d="M409,170.7c-.33-3.13.87-4.75,3.17-5,2-.22,3.63.87,3.9,3.39l.89,8.4a.6.6,0,0,1-.51.68.58.58,0,0,1-.63-.55l-.45-4.23a3,3,0,0,1-2.3,1.5C410.72,175.15,409.28,173.83,409,170.7Zm5.92-1.48c-.19-1.81-1.26-2.55-2.63-2.4-1.64.17-2.4,1.37-2.15,3.76s1.26,3.38,2.89,3.21a2.75,2.75,0,0,0,2.17-1.93Z" style="fill:#74b283"/><path d="M418.78,165.74l.52,5c.14,1.24.62,2.27,2.42,2.08s2.07-1.3,1.94-2.54l-.53-5a.6.6,0,0,1,.52-.67.59.59,0,0,1,.62.55l.53,5c.19,1.81-.19,3.53-2.95,3.83s-3.5-1.31-3.69-3.13l-.53-5a.59.59,0,0,1,.51-.67A.6.6,0,0,1,418.78,165.74Z" style="fill:#74b283"/><path d="M429.47,163.87c2.85-.3,3.66,2.06,3.8,3.36.06.56.13,1.22-.58,1.3l-5.21.55c.2,1.89,1.34,3,3,2.83a3.14,3.14,0,0,0,2.05-1,.51.51,0,0,1,.31-.15.54.54,0,0,1,.58.5.61.61,0,0,1-.15.46,3.85,3.85,0,0,1-2.67,1.37c-2.37.25-4-1-4.34-4.2C426,165.9,427.15,164.11,429.47,163.87Zm.12,1.11c-1.56.16-2.3,1.32-2.23,3l4.8-.51C432,166.13,431.42,164.78,429.59,165Z" style="fill:#74b283"/><path d="M442,162.54c2.85-.3,3.66,2.06,3.8,3.36.06.56.13,1.22-.58,1.3l-5.21.55c.2,1.89,1.35,3,3,2.83a3.12,3.12,0,0,0,2.05-1.05.51.51,0,0,1,.31-.15.54.54,0,0,1,.58.5.57.57,0,0,1-.15.46,3.85,3.85,0,0,1-2.67,1.37c-2.37.25-4-1-4.34-4.2C438.52,164.57,439.7,162.78,442,162.54Zm.12,1.11c-1.56.16-2.3,1.32-2.23,3l4.8-.51C444.57,164.8,444,163.45,442.14,163.65Z" style="fill:#74b283"/><path d="M447.9,157.82l1.16,10.91c.08.76.34,1.06.83,1a.58.58,0,0,1,.12,1.15c-1.2.12-1.94-.57-2.1-2l-1.15-10.91a.57.57,0,1,1,1.14-.12Z" style="fill:#74b283"/><path d="M450.71,159.18c-.06-.55.17-.79.6-.83s.7.14.76.69a.65.65,0,0,1-.6.8A.66.66,0,0,1,450.71,159.18Zm2.4,10.76a.58.58,0,0,1-.5.67.6.6,0,0,1-.64-.55l-.82-7.76a.59.59,0,0,1,.51-.67.58.58,0,0,1,.63.55Z" style="fill:#74b283"/><path d="M454.61,161.94a.58.58,0,0,1,.51-.67.57.57,0,0,1,.63.55l.94,8.88a2.69,2.69,0,0,1-2.3,3.14.54.54,0,0,1-.59-.52.55.55,0,0,1,.47-.63,1.58,1.58,0,0,0,1.28-1.87Zm-.44-3.12c-.06-.56.17-.79.6-.84s.7.14.76.69a.69.69,0,1,1-1.36.15Z" style="fill:#74b283"/><path d="M459.13,162.87a.6.6,0,0,1-.44.32.56.56,0,0,1-.58-.5.71.71,0,0,1,.06-.34,3.27,3.27,0,0,1,2.8-1.82,3,3,0,0,1,3.55,2.91l.56,5.25a.55.55,0,1,1-1.1.12l-.08-.69a2.78,2.78,0,0,1-2.4,1.64c-1.89.2-3.19-.64-3.38-2.4s.91-2.82,2.84-3l2.51-.27-.05-.52a2,2,0,0,0-2.33-1.87A2.4,2.4,0,0,0,459.13,162.87Zm4.54,3.07-.08-.8-2.52.27c-1.16.12-1.91.72-1.79,1.83s.82,1.55,2.21,1.4A2.34,2.34,0,0,0,463.67,165.94Z" style="fill:#74b283"/><path d="M186.6,210.13a2.71,2.71,0,0,1,2.13.7,3.13,3.13,0,0,1,1.08,2.09,3.08,3.08,0,0,1-.62,2.27,2.68,2.68,0,0,1-1.94,1.13l-1.25.13a2.58,2.58,0,0,1-.19.85,3.56,3.56,0,0,1,.06,1.22,58,58,0,0,0-1.07,3.74,3.41,3.41,0,0,1-2.42,1.22l-.73.07a5,5,0,0,1-1.71-.12,12.16,12.16,0,0,1-1.39-.49l-.81-.33a1.93,1.93,0,0,0-.68-.08H177a1.07,1.07,0,0,1-.73.38l-2.23.24a1.11,1.11,0,0,1-.82-.24,1,1,0,0,1-.41-.73l-.91-8.57a1,1,0,0,1,.25-.8,1.08,1.08,0,0,1,.75-.4l2.23-.24a1.08,1.08,0,0,1,.8.22h.1a.71.71,0,0,0,.38-.25,9.11,9.11,0,0,0,.57-.76,9.53,9.53,0,0,0,.77-1.33c.08-.18.19-.47.34-.86a6.69,6.69,0,0,1,.68-1.54,1.73,1.73,0,0,1,1.32-.82,3.09,3.09,0,0,1,2.42.63,3,3,0,0,1,1.11,2.12,5.1,5.1,0,0,1,0,.87Zm-10.91,10.43a.86.86,0,0,0-.31-.6.75.75,0,0,0-.62-.2.76.76,0,0,0-.56.32,1,1,0,0,0-.18.66.93.93,0,0,0,.31.61.79.79,0,0,0,.62.2.82.82,0,0,0,.57-.33A.9.9,0,0,0,175.69,220.56Zm11.37-6a1.09,1.09,0,0,0,.81-.48,1.27,1.27,0,0,0,.27-1,1.3,1.3,0,0,0-.46-.88,1.17,1.17,0,0,0-.89-.3l-5.54.59a1.83,1.83,0,0,1,.26-.9,5.08,5.08,0,0,0,.3-.82,2.57,2.57,0,0,0,.1-1,1.2,1.2,0,0,0-.56-1,1.8,1.8,0,0,0-1.11-.18c-.09,0-.2.13-.31.37s-.16.39-.31.79-.28.84-.38,1.06a10,10,0,0,1-.92,1.6,8.43,8.43,0,0,1-.8,1.07,2.36,2.36,0,0,1-1.1.64l.7,6.56a3.88,3.88,0,0,1,1,.16c.22.08.53.21,1,.39s.9.33,1.14.4a3.4,3.4,0,0,0,1.21.1l.73-.07a1.79,1.79,0,0,0,1.43-.76,2.16,2.16,0,0,0,.1-1.71,1.36,1.36,0,0,0,.48-.93,1.56,1.56,0,0,0-.24-1.13,1.78,1.78,0,0,0-.07-2.29Z" style="fill:#fff"/><path d="M193.29,217.27l-.93,3.63a.61.61,0,0,1-1.22-.06,1,1,0,0,1,0-.29l3.11-12.25a.58.58,0,0,1,.52-.5.66.66,0,0,1,.64.38L201,219.5a1.36,1.36,0,0,1,.08.28.63.63,0,0,1-.55.72.62.62,0,0,1-.64-.38l-1.66-3.38ZM195,210,193.54,216l4.22-.44Z" style="fill:#74b283"/><path d="M204.9,210.84a3.3,3.3,0,0,1,2.89,1,.56.56,0,0,1,.16.35.53.53,0,0,1-.46.61.52.52,0,0,1-.45-.19,2.24,2.24,0,0,0-2-.69c-1.64.17-2.4,1.39-2.15,3.74s1.25,3.4,2.89,3.23a3.16,3.16,0,0,0,2-1,.49.49,0,0,1,.33-.17.53.53,0,0,1,.57.5.6.6,0,0,1-.18.5,3.92,3.92,0,0,1-2.58,1.32c-2.3.24-3.83-1.08-4.17-4.21S202.6,211.08,204.9,210.84Z" style="fill:#74b283"/><path d="M212.76,210a3.33,3.33,0,0,1,2.89,1,.62.62,0,0,1,.16.35.52.52,0,0,1-.91.43,2.21,2.21,0,0,0-2-.69c-1.64.17-2.39,1.39-2.15,3.74s1.25,3.4,2.89,3.23a3.15,3.15,0,0,0,2-1,.51.51,0,0,1,.33-.17.53.53,0,0,1,.57.5.6.6,0,0,1-.18.5,4,4,0,0,1-2.58,1.32c-2.3.24-3.83-1.09-4.16-4.22S210.46,210.25,212.76,210Z" style="fill:#74b283"/><path d="M220.63,209.17c2.85-.3,3.66,2.07,3.8,3.37.06.55.13,1.22-.59,1.3l-5.2.55c.2,1.89,1.34,3,3,2.83a3.18,3.18,0,0,0,2.05-1.05A.46.46,0,0,1,224,216a.54.54,0,0,1,.58.5.63.63,0,0,1-.15.46,3.89,3.89,0,0,1-2.67,1.36c-2.37.25-4-1-4.34-4.19C217.13,211.21,218.31,209.42,220.63,209.17Zm.11,1.11c-1.55.17-2.29,1.33-2.22,3l4.8-.51C223.17,211.43,222.58,210.09,220.74,210.28Z" style="fill:#74b283"/><path d="M227,210.86c.21,2,4.82.76,5.15,3.82.18,1.73-1.07,2.66-2.77,2.84a3.93,3.93,0,0,1-3.19-1.05.64.64,0,0,1-.17-.35.55.55,0,0,1,.46-.61.52.52,0,0,1,.41.15,3,3,0,0,0,2.37.69c1-.1,1.85-.56,1.74-1.55-.2-2-4.81-.69-5.14-3.82-.17-1.59,1-2.44,2.48-2.6a3.19,3.19,0,0,1,2.84.93.57.57,0,0,1,.16.35.53.53,0,0,1-.45.61.49.49,0,0,1-.4-.13,2.44,2.44,0,0,0-2-.6C227.65,209.63,226.89,210,227,210.86Z" style="fill:#74b283"/><path d="M240.8,211.67c.33,3.13-.94,4.76-3.26,5s-3.9-1.07-4.23-4.2.95-4.74,3.25-5S240.46,208.54,240.8,211.67Zm-1.16.13c-.26-2.41-1.32-3.38-3-3.21s-2.47,1.35-2.22,3.75,1.32,3.4,3,3.22S239.9,214.24,239.64,211.8Z" style="fill:#74b283"/><path d="M247.47,208.47a.6.6,0,0,1-.44.32.53.53,0,0,1-.57-.5.59.59,0,0,1,0-.33,3.26,3.26,0,0,1,2.8-1.83,3,3,0,0,1,3.56,2.91l.55,5.25a.55.55,0,1,1-1.1.12l-.08-.69a2.77,2.77,0,0,1-2.4,1.65c-1.89.2-3.19-.65-3.38-2.41s.91-2.82,2.84-3l2.52-.27-.06-.51a2,2,0,0,0-2.33-1.88A2.42,2.42,0,0,0,247.47,208.47Zm4.54,3.08-.08-.81-2.52.27c-1.16.12-1.9.72-1.79,1.83s.82,1.56,2.21,1.41A2.34,2.34,0,0,0,252,211.55Z" style="fill:#74b283"/><path d="M271.53,207.2l.54,5.1a.59.59,0,0,1-.5.67.59.59,0,0,1-.64-.55l-.51-4.85c-.16-1.51-.77-2.49-2.5-2.31a2,2,0,0,0-2,2.53l.54,5.1a.57.57,0,1,1-1.14.12l-.51-4.85c-.16-1.51-.72-2.49-2.47-2.31s-2.08,1.3-1.91,2.91l.5,4.72a.59.59,0,0,1-.5.67.6.6,0,0,1-.64-.55l-.82-7.76a.59.59,0,0,1,.5-.67.59.59,0,0,1,.64.55l.07.61a2.45,2.45,0,0,1,2.17-1.58,3.09,3.09,0,0,1,3,1,2.82,2.82,0,0,1,2.46-1.62C270.55,203.88,271.36,205.57,271.53,207.2Z" style="fill:#74b283"/><path d="M274.44,205.61a.57.57,0,0,1-.43.32.54.54,0,0,1-.58-.5.59.59,0,0,1,.06-.33,3.25,3.25,0,0,1,2.8-1.83,3,3,0,0,1,3.55,2.91l.56,5.25a.58.58,0,0,1-.49.65.57.57,0,0,1-.62-.53l-.07-.69a2.79,2.79,0,0,1-2.41,1.65c-1.89.2-3.19-.65-3.37-2.41s.91-2.82,2.83-3l2.52-.27-.06-.51a2,2,0,0,0-2.32-1.88A2.43,2.43,0,0,0,274.44,205.61Zm4.55,3.08-.09-.81-2.51.27c-1.16.12-1.91.72-1.79,1.83s.81,1.56,2.2,1.41A2.35,2.35,0,0,0,279,208.69Z" style="fill:#74b283"/><path d="M281.89,200.92a.62.62,0,0,1,.51-.67.61.61,0,0,1,.64.55l.21,2,1.16-.13a.55.55,0,0,1,.59.52.54.54,0,0,1-.47.63l-1.16.12.56,5.28c.09.82.56,1.21,1.17,1.15a.55.55,0,0,1,.61.51.57.57,0,0,1-.49.63,2.15,2.15,0,0,1-2.43-2.17l-.56-5.28-.7.08a.58.58,0,0,1-.12-1.15l.7-.07Z" style="fill:#74b283"/><path d="M289.75,201.85c2.85-.3,3.66,2.06,3.8,3.36.06.56.13,1.22-.59,1.3l-5.2.55c.2,1.89,1.34,3,3,2.83a3.21,3.21,0,0,0,2.05-1,.51.51,0,0,1,.31-.15.55.55,0,0,1,.58.5.61.61,0,0,1-.15.46A3.85,3.85,0,0,1,290.9,211c-2.37.25-4-1-4.34-4.2C286.25,203.88,287.43,202.09,289.75,201.85Zm.11,1.11c-1.55.16-2.29,1.32-2.22,3l4.8-.51C292.29,204.11,291.7,202.76,289.86,203Z" style="fill:#74b283"/><path d="M296.22,202.74a2.59,2.59,0,0,1,2.32-1.79.59.59,0,0,1,.62.54.59.59,0,0,1-.5.65c-1.64.17-2.34,1.48-2.16,3.24l.46,4.28a.58.58,0,1,1-1.15.12L295,202a.6.6,0,0,1,.51-.68.58.58,0,0,1,.63.55Z" style="fill:#74b283"/><path d="M300,198.32c-.05-.55.17-.79.6-.83s.7.14.76.69a.65.65,0,0,1-.6.8A.66.66,0,0,1,300,198.32Zm2.41,10.76a.59.59,0,0,1-.51.67.58.58,0,0,1-.63-.55l-.83-7.76a.6.6,0,0,1,.51-.67.58.58,0,0,1,.63.55Z" style="fill:#74b283"/><path d="M305,202.38a.61.61,0,0,1-.44.31.53.53,0,0,1-.57-.5.59.59,0,0,1,.05-.33,3.27,3.27,0,0,1,2.8-1.82,3,3,0,0,1,3.56,2.9l.56,5.26a.59.59,0,0,1-.49.65.58.58,0,0,1-.62-.54l-.07-.69a2.79,2.79,0,0,1-2.41,1.65c-1.89.2-3.19-.65-3.37-2.4s.91-2.82,2.83-3l2.52-.26-.06-.52a2,2,0,0,0-2.32-1.88A2.41,2.41,0,0,0,305,202.38Zm4.55,3.07-.09-.81-2.51.27c-1.16.12-1.91.73-1.79,1.83s.81,1.56,2.2,1.41A2.35,2.35,0,0,0,309.55,205.45Z" style="fill:#74b283"/><path d="M312.9,195.3l1.16,10.9c.08.77.35,1.07.83,1a.55.55,0,0,1,.59.51.55.55,0,0,1-.47.63c-1.2.13-1.94-.56-2.09-2l-1.16-10.91a.61.61,0,0,1,.51-.67A.58.58,0,0,1,312.9,195.3Z" style="fill:#74b283"/><path d="M323.48,198.27c2.85-.3,3.66,2.07,3.8,3.37.06.55.13,1.22-.59,1.29l-5.2.56c.2,1.89,1.34,3,3,2.82a3.18,3.18,0,0,0,2.05-1,.46.46,0,0,1,.31-.15.54.54,0,0,1,.58.5.63.63,0,0,1-.15.46,3.89,3.89,0,0,1-2.67,1.36c-2.37.25-4-1-4.34-4.19C320,200.3,321.16,198.52,323.48,198.27Zm.11,1.11c-1.55.16-2.29,1.33-2.22,3l4.8-.51C326,200.53,325.43,199.19,323.59,199.38Z" style="fill:#74b283"/><path d="M331.74,202.92l-1.87,3.62a.57.57,0,0,1-1.07-.25.59.59,0,0,1,.06-.38l2.07-3.87-2.74-3.17a.63.63,0,0,1-.14-.35.58.58,0,0,1,.5-.67.56.56,0,0,1,.49.2l2.5,2.94,1.82-3.4a.59.59,0,0,1,1,.63l-2,3.67,2.83,3.35a.61.61,0,0,1,.14.35.57.57,0,0,1-.5.67.54.54,0,0,1-.49-.19Z" style="fill:#74b283"/><path d="M339.13,196.61a3.3,3.3,0,0,1,2.89,1,.59.59,0,0,1,.16.35.53.53,0,0,1-.46.61.52.52,0,0,1-.45-.19,2.26,2.26,0,0,0-2-.69c-1.64.17-2.4,1.39-2.15,3.74s1.25,3.41,2.89,3.23a3.16,3.16,0,0,0,2-1,.53.53,0,0,1,.32-.17.54.54,0,0,1,.58.5.6.6,0,0,1-.18.5,3.92,3.92,0,0,1-2.59,1.32c-2.3.24-3.83-1.08-4.16-4.21S336.83,196.86,339.13,196.61Z" style="fill:#74b283"/><path d="M344.39,192l1.15,10.91c.09.76.35,1.06.83,1a.58.58,0,0,1,.12,1.15c-1.19.12-1.93-.57-2.09-2l-1.15-10.91a.61.61,0,0,1,.5-.67A.61.61,0,0,1,344.39,192Z" style="fill:#74b283"/><path d="M348.62,196.34l.53,5c.13,1.24.62,2.27,2.42,2.08s2.06-1.3,1.93-2.54l-.53-5a.6.6,0,0,1,.53-.67.57.57,0,0,1,.61.55l.53,5c.19,1.82-.18,3.54-2.95,3.83s-3.49-1.31-3.68-3.12l-.53-5a.58.58,0,0,1,.5-.67A.61.61,0,0,1,348.62,196.34Z" style="fill:#74b283"/><path d="M357.37,197c.21,2,4.82.76,5.14,3.82.19,1.73-1.07,2.66-2.76,2.84a4,4,0,0,1-3.2-1,.62.62,0,0,1-.16-.35.54.54,0,0,1,.46-.61.52.52,0,0,1,.41.15,3,3,0,0,0,2.37.69c1-.1,1.85-.56,1.74-1.55-.21-2-4.81-.69-5.15-3.82-.16-1.59,1-2.44,2.49-2.6a3.19,3.19,0,0,1,2.84.93.64.64,0,0,1,.16.35.54.54,0,0,1-.46.61.47.47,0,0,1-.39-.13,2.44,2.44,0,0,0-2-.6C358,195.81,357.27,196.16,357.37,197Z" style="fill:#74b283"/><path d="M363.35,191.61c-.06-.55.17-.79.6-.83s.7.13.76.69a.65.65,0,0,1-.6.8A.66.66,0,0,1,363.35,191.61Zm2.41,10.76a.58.58,0,1,1-1.15.12l-.82-7.76a.6.6,0,0,1,.51-.67.58.58,0,0,1,.63.55Z" style="fill:#74b283"/><path d="M370.31,202.12l-3.85-7.4a.61.61,0,0,1-.08-.26.58.58,0,0,1,.5-.67.55.55,0,0,1,.58.34l3.21,6.32,1.82-6.85a.55.55,0,0,1,.49-.46.6.6,0,0,1,.64.55.82.82,0,0,1,0,.27l-2.21,8a.57.57,0,0,1-1.07.12Z" style="fill:#74b283"/><path d="M382.42,196.66c.34,3.13-.93,4.75-3.25,5s-3.9-1.07-4.24-4.21,1-4.73,3.26-5S382.09,193.53,382.42,196.66Zm-1.15.12c-.26-2.4-1.32-3.37-3-3.2s-2.47,1.34-2.22,3.75,1.32,3.4,3,3.22S381.52,199.23,381.27,196.78Z" style="fill:#74b283"/><path d="M230.36,239.85l-.58-5.48-4.23-5.66a.69.69,0,0,1-.12-.33.63.63,0,0,1,.54-.72.58.58,0,0,1,.54.25l3.74,5.09,2.58-5.75a.58.58,0,0,1,.48-.36.63.63,0,0,1,.68.58.78.78,0,0,1-.05.35L231,234.24l.58,5.48a.61.61,0,1,1-1.21.13Z" style="fill:#74b283"/><path d="M252.72,232.36l.54,5.1a.59.59,0,0,1-.51.67.57.57,0,0,1-.63-.55l-.52-4.85c-.16-1.51-.77-2.49-2.5-2.3a2,2,0,0,0-2,2.52l.54,5.11a.6.6,0,0,1-.51.67.58.58,0,0,1-.63-.55l-.52-4.86c-.16-1.5-.71-2.49-2.46-2.3s-2.08,1.3-1.91,2.9l.5,4.72a.58.58,0,0,1-.51.67.57.57,0,0,1-.63-.55l-.82-7.75a.57.57,0,0,1,.5-.67.59.59,0,0,1,.64.55l.06.61a2.5,2.5,0,0,1,2.18-1.59,3.09,3.09,0,0,1,3,1,2.78,2.78,0,0,1,2.46-1.61C251.74,229.05,252.55,230.74,252.72,232.36Z" style="fill:#74b283"/><path d="M255.44,229.39l.53,5c.13,1.24.62,2.27,2.42,2.08s2.07-1.3,1.93-2.54l-.52-5a.6.6,0,0,1,.52-.68.59.59,0,0,1,.62.55l.53,5c.19,1.81-.19,3.54-3,3.83s-3.5-1.31-3.69-3.13l-.53-5a.57.57,0,1,1,1.14-.12Z" style="fill:#74b283"/><path d="M266.14,227.52a3.29,3.29,0,0,1,2.88,1,.58.58,0,0,1,.17.35.54.54,0,0,1-.46.61.55.55,0,0,1-.45-.19,2.27,2.27,0,0,0-2-.69c-1.64.17-2.39,1.39-2.14,3.74s1.24,3.4,2.88,3.23a3.16,3.16,0,0,0,2-1,.46.46,0,0,1,.32-.17.55.55,0,0,1,.58.5.65.65,0,0,1-.19.5,3.91,3.91,0,0,1-2.58,1.32c-2.3.24-3.83-1.08-4.16-4.22S263.84,227.76,266.14,227.52Z" style="fill:#74b283"/><path d="M277.84,229.7l.54,5.1a.58.58,0,1,1-1.15.12l-.51-4.85c-.16-1.51-.68-2.5-2.41-2.32s-2.25,1.4-2.09,2.93l.5,4.72a.58.58,0,0,1-.5.67.6.6,0,0,1-.64-.55L270.25,223a.59.59,0,0,1,.51-.67.57.57,0,0,1,.63.55l.58,5.38a2.56,2.56,0,0,1,2.23-1.58C276.94,226.37,277.66,228.08,277.84,229.7Z" style="fill:#74b283"/><path d="M287.06,229.94c.33,3.13-.94,4.75-3.26,5s-3.9-1.08-4.24-4.21,1-4.74,3.26-5S286.72,226.81,287.06,229.94Zm-1.16.12c-.26-2.41-1.32-3.37-3-3.2s-2.47,1.34-2.22,3.75,1.32,3.39,3,3.22S286.16,232.51,285.9,230.06Z" style="fill:#74b283"/><path d="M305.22,226.8l.54,5.1a.59.59,0,0,1-.5.67.6.6,0,0,1-.64-.55l-.51-4.86c-.16-1.5-.77-2.48-2.5-2.3a2,2,0,0,0-2,2.53l.54,5.1a.58.58,0,0,1-.5.67.59.59,0,0,1-.64-.55l-.51-4.85c-.16-1.51-.72-2.49-2.47-2.31s-2.08,1.3-1.91,2.91l.5,4.72a.59.59,0,0,1-.5.67.6.6,0,0,1-.64-.55l-.82-7.76a.58.58,0,0,1,.51-.67.59.59,0,0,1,.63.55l.07.61a2.45,2.45,0,0,1,2.17-1.58,3.07,3.07,0,0,1,3,1,2.82,2.82,0,0,1,2.46-1.62C304.24,223.48,305.05,225.17,305.22,226.8Z" style="fill:#74b283"/><path d="M308.13,225.21a.57.57,0,0,1-.43.32.54.54,0,0,1-.58-.5.59.59,0,0,1,.06-.33,3.26,3.26,0,0,1,2.8-1.83,3,3,0,0,1,3.55,2.91l.56,5.25a.56.56,0,1,1-1.11.12l-.07-.69a2.81,2.81,0,0,1-2.41,1.65c-1.89.2-3.18-.65-3.37-2.41s.91-2.82,2.83-3l2.52-.27-.06-.51A2,2,0,0,0,310.1,224,2.43,2.43,0,0,0,308.13,225.21Zm4.55,3.07-.09-.8-2.51.27c-1.16.12-1.91.72-1.79,1.83s.81,1.56,2.2,1.41A2.36,2.36,0,0,0,312.68,228.28Zm-3.9-6.86,1.36-2.23a.42.42,0,0,1,.68-.08c.3.24.31.49.13.72l-1.53,2.06a.33.33,0,0,1-.53.09A.38.38,0,0,1,308.78,221.42Z" style="fill:#74b283"/><path d="M316.52,224.54c.21,2,4.82.76,5.14,3.82.19,1.73-1.07,2.66-2.76,2.84a4,4,0,0,1-3.2-1,.62.62,0,0,1-.16-.35.54.54,0,0,1,.46-.61.52.52,0,0,1,.41.15,3,3,0,0,0,2.37.69c1-.1,1.85-.56,1.74-1.55-.21-2-4.81-.69-5.15-3.82-.16-1.59,1-2.44,2.49-2.6a3.19,3.19,0,0,1,2.84.93.64.64,0,0,1,.16.35.54.54,0,0,1-.46.61.47.47,0,0,1-.39-.13,2.44,2.44,0,0,0-2-.6C317.18,223.31,316.42,223.66,316.52,224.54Z" style="fill:#74b283"/><path d="M322.82,229.8c-.06-.63.23-1,.74-1s.87.2.94.83a.78.78,0,0,1-.74,1C323.24,230.66,322.89,230.43,322.82,229.8Zm4.84-.51c-.07-.64.22-1,.74-1s.87.2.93.83-.22.93-.74,1S327.72,229.92,327.66,229.29Zm4.85-.52c-.07-.63.22-1,.74-1s.87.19.94.82a.79.79,0,0,1-.75,1C332.93,229.63,332.58,229.4,332.51,228.77Z" style="fill:#74b283"/><path d="M197,537.82c6.35-5.2,11.83-12.12,17.51-18.39,2.7-3,10.64-8.23,9.71-14.68-.78-5.4-6.92-7.69-10-9.67-8.41-5.35-16.76-10.92-25.26-15.95-1.86-1.1-3,2.61-1.24,3.95,5.45,4,11,7.86,16.48,11.77,1.11.79,8.5,5.45,11.94,8.18-35.3-1.74-77.69-9.93-105.12-48.26-29.09-40.66-15.73-111.38,5.28-142.26,1.06-1.56-.26-5.7-1.39-4.17C89,343.39,78.8,398.58,97.8,443.81c10.43,24.83,30.58,39.7,49.66,50.38,20.2,11.32,44.73,20.43,65.8,16.68-2.69,2.53-5.72,5-6.63,6-4.47,4.76-9.28,9.26-13.2,14.78C191.52,534.33,194.29,540.06,197,537.82Z" style="fill:#2c3752"/></g></g></svg>