<svg id="Capa_1" data-name="Capa 1" xmlns="http://www.w3.org/2000/svg" viewBox="0 0 226.77 226.77"><defs><style>.cls-1{fill:#01a0c6;}.cls-2{fill:#fff;}</style></defs><title>IconMesa de trabajo 8</title><circle class="cls-1" cx="113.39" cy="113.39" r="99.21"/><path class="cls-2" d="M78.41,128.05h-12v42.43h12Zm36.51,42.46V128.06h-12v42.45Zm36.54-42.28V97.59H139.41v30.64Zm-103.37,12v30.27h12V140.21Zm48.57,30.31V140.25h-12v30.27Zm24.46-30.27a30.36,30.36,0,0,1,11.06-9.17,1.72,1.72,0,0,0,1.12-1.84c0-6,0-12.07,0-18.11,0-.46,0-.91-.06-1.33H121.12Z"/><path class="cls-2" d="M41.93,126.82a29.85,29.85,0,0,1,3-4.26c7.47-7.59,15-15.09,22.57-22.62,3.3-3.3,6.63-3.28,9.92,0q6.13,6.18,12.3,12.32c.29.3.61.58.83.78l47.67-47.67L136.78,64l-8.64-9.06h29.4c0,5.32.07,10.64.09,16,0,4.23,0,8.46,0,12.69,0,.45,0,.9-.06,1.32l-11-10.51a9.72,9.72,0,0,1-.92,1.18q-24.94,25-49.92,49.93c-3.37,3.37-6.65,3.37-10,0l-12.2-12.2c-.34-.34-.69-.66-1.09-1l-8,8c-3.67,3.67-7.53,7.16-10.94,11-3.93,4.47-10,3.2-11.48-2.17Z"/><path class="cls-2" d="M166.41,170.78l16.41,16.39c1.12,1.11,2.24,2.2,3.33,3.33a6.09,6.09,0,1,1-8.61,8.6q-9.27-9.19-18.46-18.46a17.52,17.52,0,0,1-1.1-1.38c-6.63,3.71-13.37,4.58-20.39,2.2a23.5,23.5,0,0,1-12.8-10.17,24.35,24.35,0,1,1,41.62-.51Zm-39.19-12.34a18.26,18.26,0,1,0,18.6-18.26A18.28,18.28,0,0,0,127.22,158.44Z"/><path class="cls-2" d="M78.41,128.05v42.43h-12V128.05Z"/><path class="cls-2" d="M114.92,170.51h-12V128.06h12Z"/><path class="cls-2" d="M151.46,128.23H139.41V97.59h12.05Z"/><path class="cls-2" d="M48.09,140.21h12v30.27h-12Z"/><path class="cls-2" d="M96.66,170.52h-12V140.25h12Z"/><path class="cls-2" d="M121.12,140.25V109.8h12.09c0,.42.06.87.06,1.33,0,6,0,12.07,0,18.11a1.72,1.72,0,0,1-1.12,1.84A30.36,30.36,0,0,0,121.12,140.25Z"/><path class="cls-2" d="M139,164.13a5,5,0,0,1-1,3.18,3.43,3.43,0,0,1-1.85,1.26,4.78,4.78,0,0,1-1.49.21,4.23,4.23,0,0,1-2.62-.78,4.42,4.42,0,0,1-1.36-1.74,6.87,6.87,0,0,1-.59-2.54l2.55-.17a3.85,3.85,0,0,0,.83,2.24,1.36,1.36,0,0,0,1.1.5,1.68,1.68,0,0,0,1.41-.86,2.17,2.17,0,0,0,.27-1.18,3.29,3.29,0,0,0-1-2.22l-2.4-2.25a9.88,9.88,0,0,1-1.88-2.32,5.33,5.33,0,0,1-.6-2.5,4.36,4.36,0,0,1,1.63-3.68,4.08,4.08,0,0,1,2.5-.75,4.51,4.51,0,0,1,2.46.64,3.66,3.66,0,0,1,1.28,1.39,5.21,5.21,0,0,1,.6,2.06l-2.58.47a3,3,0,0,0-.62-1.7,1.32,1.32,0,0,0-1.07-.45,1.24,1.24,0,0,0-1.12.65,2.54,2.54,0,0,0-.31,1.31,3.92,3.92,0,0,0,1.05,2.49,9.58,9.58,0,0,0,1.19,1.14c.63.52,1,.88,1.24,1.09a9.61,9.61,0,0,1,1.54,2c.16.3.3.58.41.84A5.24,5.24,0,0,1,139,164.13Z"/><path class="cls-2" d="M141.25,168.56V150.74h7.65v2.69h-5v4.88h3.62V161h-3.62v4.87h5v2.69Z"/><path class="cls-2" d="M155,150.53a4.25,4.25,0,0,1,4.27,4.27v9.71a4.27,4.27,0,0,1-4.27,4.27,4.06,4.06,0,0,1-3-1.25,4.15,4.15,0,0,1-1.24-3V154.8a4.25,4.25,0,0,1,4.24-4.27Zm1.47,4.22a1.53,1.53,0,0,0-2.62-1.09,1.44,1.44,0,0,0-.46,1.09v9.74a1.45,1.45,0,0,0,.46,1.09,1.54,1.54,0,0,0,2.62-1.09Z"/></svg>