<svg id="Capa_1" data-name="Capa 1" xmlns="http://www.w3.org/2000/svg" viewBox="0 0 226.77 226.77"><defs><style>.cls-1{fill:#132354;}.cls-2{fill:#fff;}</style></defs><title>IconMesa de trabajo 10</title><circle class="cls-1" cx="113.39" cy="113.39" r="99.21"/><path class="cls-2" d="M140.76,83.63c3.62,5.85,2.44,13.12-2.61,16.24s-12.08.91-15.69-5S120,81.8,125.07,78.68,137.15,77.77,140.76,83.63Z"/><path class="cls-2" d="M113.88,166.92c2.49,4.05,2.08,8.85-.93,10.7l-6,3.69c-3,1.86-7.48.09-10-4L77.19,145.26c-2.51-4-2.09-8.85.93-10.7l6-3.69c3-1.86,7.48-.08,10,4Z"/><path class="cls-2" d="M168.53,66.24l-21.3,13.15A2.13,2.13,0,1,1,145,75.77l21.3-13.16a2.13,2.13,0,0,1,2.23,3.63Z"/><path class="cls-2" d="M168.53,66.24l-21.3,13.15A2.13,2.13,0,1,1,145,75.77l21.3-13.16a2.13,2.13,0,0,1,2.23,3.63Z"/><path class="cls-2" d="M153.26,50.23l-9.91,23a2.12,2.12,0,1,1-3.9-1.68l9.91-23a2.12,2.12,0,1,1,3.9,1.68Z"/><path class="cls-2" d="M173.76,83.44l-25-1.44a2.12,2.12,0,0,0-.24,4.24l25,1.45a2.13,2.13,0,1,0,.24-4.25Z"/><polygon class="cls-2" points="110.42 161.32 107.57 156.7 90.62 167.02 90.85 167.39 93.42 171.56 110.42 161.32"/><path class="cls-2" d="M113.88,166.92l-1.1-1.78-17,10.28,1.2,1.93c.11.19.26.36.39.54l16.93-10.12C114.17,167.48,114.06,167.2,113.88,166.92Z"/><path class="cls-2" d="M102.17,48.25C103,64.5,75.79,96.66,75.79,96.66l11,17.76,11,17.78s40.91-9.89,55.09-1.9L128,89Z"/><path class="cls-2" d="M157.17,127.44c.74,1.2-.06,3.06-1.79,4.13h0c-1.74,1.08-3.76,1-4.51-.24L100.42,49.59c-.75-1.21,0-3.06,1.8-4.13h0c1.72-1.07,3.75-1,4.49.25Z"/><path class="cls-2" d="M76.27,95.89,56.62,108c-5.25,3.24-7.16,9.64-4.28,14.3L64.4,141.86c2.88,4.66,9.46,5.82,14.7,2.59l15.13-9.35,4.52-2.79Z"/></svg>